<?xml version="1.0" encoding="UTF-8" standalone="no"?>
<svg
   xmlns:dc="http://purl.org/dc/elements/1.1/"
   xmlns:cc="http://creativecommons.org/ns#"
   xmlns:rdf="http://www.w3.org/1999/02/22-rdf-syntax-ns#"
   xmlns:svg="http://www.w3.org/2000/svg"
   xmlns="http://www.w3.org/2000/svg"
   xmlns:sodipodi="http://sodipodi.sourceforge.net/DTD/sodipodi-0.dtd"
   xmlns:inkscape="http://www.inkscape.org/namespaces/inkscape"
   width="195"
   height="42"
   viewBox="0 0 1009 258"
   fill="none"
   version="1.1"
   id="svg63"
   sodipodi:docname="logo-dark.svg"
   inkscape:version="1.0.2 (e86c870879, 2021-01-15)">
  <metadata
     id="metadata67">
    <rdf:RDF>
      <cc:Work
         rdf:about="">
        <dc:format>image/svg+xml</dc:format>
        <dc:type
           rdf:resource="http://purl.org/dc/dcmitype/StillImage" />
        <dc:title />
      </cc:Work>
    </rdf:RDF>
  </metadata>
  <sodipodi:namedview
     pagecolor="#ffffff"
     bordercolor="#666666"
     borderopacity="1"
     objecttolerance="10"
     gridtolerance="10"
     guidetolerance="10"
     inkscape:pageopacity="0"
     inkscape:pageshadow="2"
     inkscape:window-width="1920"
     inkscape:window-height="1005"
     id="namedview65"
     showgrid="false"
     inkscape:zoom="8"
     inkscape:cx="399.54068"
     inkscape:cy="140.08898"
     inkscape:window-x="0"
     inkscape:window-y="0"
     inkscape:window-maximized="1"
     inkscape:current-layer="svg63"
     inkscape:document-rotation="0" />
  <rect
     width="182.125"
     height="182.125"
     rx="16.3804"
     transform="matrix(0.707168 0.707046 0.707046 -0.707168 35.5684 128.875)"
     fill="#497641"
     id="rect2" />
  <g
     clip-path="url(#clip0_1877_163)"
     id="g24">
    <rect
       x="128.361"
       y="257.141"
       width="181.51"
       height="182.052"
       rx="16.3804"
       transform="rotate(-135 128.361 257.141)"
       fill="white"
       id="rect4" />
    <g
       filter="url(#filter0_f_1877_163)"
       id="g8">
      <ellipse
         cx="142.632"
         cy="24.1311"
         rx="76.5827"
         ry="116.892"
         transform="rotate(-68.4153 142.632 24.1311)"
         fill="#84FA21"
         id="ellipse6" />
    </g>
    <g
       filter="url(#filter1_f_1877_163)"
       id="g12">
      <path
         d="M78.1257 353.903C23.6207 220.065 176.411 -45.455 323.682 35.9019C372.391 62.8099 457.527 163.708 457.527 163.708L181.56 436.39C181.56 436.39 99.4935 406.371 78.1257 353.903Z"
         fill="#D24916"
         id="path10" />
    </g>
    <g
       filter="url(#filter2_f_1877_163)"
       id="g16">
      <path
         d="M116.416 87.9694C145.656 133.103 134.544 192.245 91.5974 220.068C48.6508 247.891 -9.86752 233.858 -39.107 188.725C-68.3465 143.592 -57.2348 84.449 -14.2882 56.6262C28.6583 28.8033 87.1767 42.8362 116.416 87.9694Z"
         fill="#EDF118"
         id="path14" />
    </g>
    <g
       filter="url(#filter3_f_1877_163)"
       id="g20">
      <ellipse
         cx="94.3016"
         cy="216.803"
         rx="91.8291"
         ry="74.1913"
         transform="rotate(34.332 94.3016 216.803)"
         fill="#B42685"
         id="ellipse18" />
    </g>
    <path
       d="M196.569 165.152C187.375 171.995 175.89 175.019 164.518 173.589L164.518 143.634C167.964 142.913 170.525 142.188 173.319 141.496C176.347 140.746 179.021 138.969 180.885 136.468C182.75 133.968 183.69 130.898 183.545 127.783C183.4 124.667 182.179 121.698 180.09 119.381C178.001 117.065 175.174 115.544 172.09 115.079C169.006 114.613 165.855 115.231 163.176 116.828C160.496 118.424 157.472 122.948 157.397 127.783L157.397 134.263L157.397 172.093L157.397 229.644C144.861 242.14 138.657 250.827 128.06 250.352C128.063 234.238 128.06 126.073 128.06 126.073C128.06 109.321 136.827 97.9256 146.551 91.8585C156.275 85.7914 167.968 83.7193 179.185 86.0756C190.402 88.432 200.273 95.0343 206.734 104.501C213.194 113.969 215.744 125.567 213.85 136.871C211.955 148.175 205.763 158.309 196.569 165.152Z"
       fill="white"
       id="path22" />
  </g>
  <path
     d="M112.796 46.0327L80.0354 10.666L79.6631 124.212C79.6631 159.578 106.84 169.258 121.359 170.374V139.103C113.615 138.209 112.424 128.307 112.796 123.467V46.0327Z"
     fill="white"
     id="path26" />
  <path
     d="M365.185 108.27C365.185 104.894 364.721 102.413 363.795 100.824C362.868 99.1699 361.015 98.3427 358.236 98.3427H356.25V96.3573H365.185C367.633 96.3573 369.453 96.6882 370.644 97.35C371.902 97.9456 372.795 99.0707 373.325 100.725C373.854 102.38 374.119 104.894 374.119 108.27V157.904H409.359V161.875H365.185V108.27ZM433.973 162.868C429.473 162.868 425.667 161.809 422.557 159.691C419.446 157.507 417.097 154.595 415.509 150.955C413.92 147.249 413.126 143.113 413.126 138.547C413.126 134.047 413.92 129.943 415.509 126.237C417.097 122.531 419.38 119.619 422.358 117.502C425.403 115.318 428.943 114.226 432.98 114.226C439.664 114.226 444.628 116.112 447.87 119.884C451.179 123.59 452.834 128.984 452.834 136.065L452.635 140.036H422.557C422.557 145.595 423.748 150.128 426.131 153.636C428.513 157.143 431.789 158.897 435.958 158.897C439.069 158.897 441.683 158.235 443.8 156.912C445.984 155.588 448.003 153.603 449.856 150.955L451.841 152.444C449.657 156.084 447.109 158.731 444.198 160.386C441.286 162.04 437.877 162.868 433.973 162.868ZM443.403 136.065C443.403 130.241 442.543 125.807 440.822 122.763C439.102 119.719 436.488 118.197 432.98 118.197C430.995 118.197 429.208 118.991 427.62 120.579C426.031 122.101 424.774 124.219 423.847 126.932C422.987 129.646 422.557 132.69 422.557 136.065H443.403ZM482.444 162.868C477.944 162.868 474.139 161.809 471.028 159.691C467.918 157.507 465.568 154.595 463.98 150.955C462.392 147.249 461.598 143.113 461.598 138.547C461.598 134.047 462.392 129.943 463.98 126.237C465.568 122.531 467.852 119.619 470.83 117.502C473.874 115.318 477.414 114.226 481.451 114.226C488.136 114.226 493.099 116.112 496.342 119.884C499.651 123.59 501.305 128.984 501.305 136.065L501.107 140.036H471.028C471.028 145.595 472.219 150.128 474.602 153.636C476.984 157.143 480.26 158.897 484.429 158.897C487.54 158.897 490.154 158.235 492.272 156.912C494.456 155.588 496.474 153.603 498.327 150.955L500.313 152.444C498.129 156.084 495.581 158.731 492.669 160.386C489.757 162.04 486.349 162.868 482.444 162.868ZM491.875 136.065C491.875 130.241 491.014 125.807 489.294 122.763C487.573 119.719 484.959 118.197 481.451 118.197C479.466 118.197 477.679 118.991 476.091 120.579C474.503 122.101 473.245 124.219 472.319 126.932C471.458 129.646 471.028 132.69 471.028 136.065H491.875ZM531.908 162.868C527.143 162.868 523.106 161.809 519.797 159.691C516.554 157.507 514.106 154.595 512.451 150.955C510.863 147.249 510.069 143.113 510.069 138.547C510.069 133.98 510.863 129.877 512.451 126.237C514.106 122.531 516.554 119.619 519.797 117.502C523.106 115.318 527.143 114.226 531.908 114.226C539.188 114.226 543.986 115.384 546.302 117.7C547.427 118.825 548.122 120.215 548.387 121.87C548.651 123.458 548.784 126.37 548.784 130.605H546.798C546.534 126.502 545.243 123.425 542.927 121.373C540.611 119.255 537.6 118.197 533.893 118.197C529.129 118.197 525.522 120.083 523.073 123.855C520.691 127.627 519.499 132.524 519.499 138.547C519.499 144.569 520.691 149.466 523.073 153.239C525.522 157.011 529.129 158.897 533.893 158.897C537.269 158.897 540.048 158.268 542.232 157.011C544.416 155.687 546.434 153.669 548.287 150.955L550.273 152.444C548.089 156.15 545.508 158.831 542.53 160.485C539.552 162.074 536.011 162.868 531.908 162.868ZM560.736 108.27C560.736 104.894 560.272 102.413 559.346 100.824C558.419 99.1699 556.566 98.3427 553.787 98.3427H551.801V96.3573H560.736C563.184 96.3573 565.004 96.6882 566.196 97.35C567.453 97.9456 568.346 99.0707 568.876 100.725C569.405 102.38 569.67 104.894 569.67 108.27V119.189C571.06 117.799 572.847 116.641 575.03 115.715C577.281 114.722 579.795 114.226 582.575 114.226C587.538 114.226 591.575 115.549 594.686 118.197C597.862 120.844 599.451 125.476 599.451 132.094V161.875H590.516V132.094C590.516 127.462 589.458 124.087 587.34 121.969C585.288 119.785 582.707 118.693 579.597 118.693C576.089 118.693 572.78 120.447 569.67 123.954V161.875H560.736V108.27ZM641.471 108.27C641.471 104.894 641.008 102.413 640.081 100.824C639.155 99.1699 637.302 98.3427 634.522 98.3427H632.537V96.3573H658.347C664.7 96.3573 670.425 97.714 675.52 100.427C680.616 103.141 683.164 108.402 683.164 116.211C683.164 121.373 681.841 125.344 679.193 128.123C676.546 130.903 673.568 132.756 670.259 133.683C667.016 134.609 664.038 135.072 661.325 135.072H650.405V161.875H641.471V108.27ZM657.85 131.598C659.968 131.598 662.218 131.068 664.601 130.01C666.983 128.885 669.002 127.131 670.656 124.748C672.377 122.366 673.237 119.355 673.237 115.715C673.237 112.075 672.377 109.064 670.656 106.681C669.002 104.299 666.983 102.578 664.601 101.519C662.218 100.394 659.968 99.8317 657.85 99.8317C655.534 99.8317 653.052 100.163 650.405 100.824V130.605C653.052 131.267 655.534 131.598 657.85 131.598ZM693.663 127.131C693.663 123.756 693.199 121.274 692.273 119.686C691.346 118.031 689.493 117.204 686.714 117.204H685.721V115.218H693.663C696.177 115.218 698.064 115.582 699.321 116.31C700.645 116.972 701.571 118.097 702.1 119.686H702.597C703.788 118.163 705.376 116.873 707.362 115.814C709.413 114.755 711.796 114.226 714.509 114.226C717.156 114.226 719.142 114.722 720.465 115.715C721.59 116.575 722.748 118.064 723.94 120.182L719.969 123.16C719.241 122.167 718.182 121.439 716.792 120.976C715.403 120.447 713.814 120.182 712.027 120.182C710.042 120.182 708.222 120.645 706.568 121.572C704.913 122.432 703.59 123.623 702.597 125.145V161.875H693.663V127.131ZM750.611 162.868C746.11 162.868 742.206 161.809 738.897 159.691C735.588 157.507 733.073 154.562 731.352 150.856C729.632 147.15 728.771 143.047 728.771 138.547C728.771 134.047 729.632 129.943 731.352 126.237C733.073 122.531 735.588 119.619 738.897 117.502C742.206 115.318 746.11 114.226 750.611 114.226C755.111 114.226 759.015 115.318 762.324 117.502C765.633 119.619 768.148 122.531 769.869 126.237C771.589 129.943 772.45 134.047 772.45 138.547C772.45 143.047 771.589 147.15 769.869 150.856C768.148 154.562 765.633 157.507 762.324 159.691C759.015 161.809 755.111 162.868 750.611 162.868ZM750.611 158.897C753.059 158.897 755.21 158.004 757.063 156.217C758.982 154.43 760.438 151.981 761.431 148.871C762.49 145.76 763.019 142.319 763.019 138.547C763.019 134.775 762.49 131.333 761.431 128.223C760.438 125.112 758.982 122.664 757.063 120.877C755.21 119.09 753.059 118.197 750.611 118.197C748.162 118.197 745.978 119.09 744.059 120.877C742.206 122.664 740.75 125.112 739.691 128.223C738.698 131.333 738.202 134.775 738.202 138.547C738.202 142.319 738.698 145.76 739.691 148.871C740.75 151.981 742.206 154.43 744.059 156.217C745.978 158.004 748.162 158.897 750.611 158.897ZM797.89 162.868C794.184 162.868 791.272 161.809 789.154 159.691C787.036 157.573 785.978 154.331 785.978 149.963V119.189H779.029V115.218H785.978V106.284L790.941 100.328H794.912V115.218H806.824V119.189H794.912V149.963C794.912 155.919 797.228 158.897 801.861 158.897C803.449 158.897 804.773 158.731 805.831 158.401C806.956 158.07 808.115 157.573 809.306 156.912L810.299 158.897C808.776 160.022 807.089 160.982 805.236 161.776C803.383 162.504 800.934 162.868 797.89 162.868ZM836.793 162.868C832.292 162.868 828.388 161.809 825.079 159.691C821.77 157.507 819.255 154.562 817.534 150.856C815.814 147.15 814.953 143.047 814.953 138.547C814.953 134.047 815.814 129.943 817.534 126.237C819.255 122.531 821.77 119.619 825.079 117.502C828.388 115.318 832.292 114.226 836.793 114.226C841.293 114.226 845.197 115.318 848.506 117.502C851.815 119.619 854.33 122.531 856.051 126.237C857.771 129.943 858.632 134.047 858.632 138.547C858.632 143.047 857.771 147.15 856.051 150.856C854.33 154.562 851.815 157.507 848.506 159.691C845.197 161.809 841.293 162.868 836.793 162.868ZM836.793 158.897C839.241 158.897 841.392 158.004 843.245 156.217C845.164 154.43 846.62 151.981 847.613 148.871C848.672 145.76 849.201 142.319 849.201 138.547C849.201 134.775 848.672 131.333 847.613 128.223C846.62 125.112 845.164 122.664 843.245 120.877C841.392 119.09 839.241 118.197 836.793 118.197C834.344 118.197 832.16 119.09 830.241 120.877C828.388 122.664 826.932 125.112 825.873 128.223C824.88 131.333 824.384 134.775 824.384 138.547C824.384 142.319 824.88 145.76 825.873 148.871C826.932 151.981 828.388 154.43 830.241 156.217C832.16 158.004 834.344 158.897 836.793 158.897ZM889.432 162.868C884.667 162.868 880.631 161.809 877.322 159.691C874.079 157.507 871.63 154.595 869.976 150.955C868.387 147.249 867.593 143.113 867.593 138.547C867.593 133.98 868.387 129.877 869.976 126.237C871.63 122.531 874.079 119.619 877.322 117.502C880.631 115.318 884.667 114.226 889.432 114.226C896.712 114.226 901.51 115.384 903.826 117.7C904.951 118.825 905.646 120.215 905.911 121.87C906.176 123.458 906.308 126.37 906.308 130.605H904.323C904.058 126.502 902.768 123.425 900.451 121.373C898.135 119.255 895.124 118.197 891.418 118.197C886.653 118.197 883.046 120.083 880.597 123.855C878.215 127.627 877.024 132.524 877.024 138.547C877.024 144.569 878.215 149.466 880.597 153.239C883.046 157.011 886.653 158.897 891.418 158.897C894.793 158.897 897.572 158.268 899.756 157.011C901.94 155.687 903.959 153.669 905.812 150.955L907.797 152.444C905.613 156.15 903.032 158.831 900.054 160.485C897.076 162.074 893.536 162.868 889.432 162.868ZM937.419 162.868C932.919 162.868 929.014 161.809 925.705 159.691C922.396 157.507 919.881 154.562 918.161 150.856C916.44 147.15 915.58 143.047 915.58 138.547C915.58 134.047 916.44 129.943 918.161 126.237C919.881 122.531 922.396 119.619 925.705 117.502C929.014 115.318 932.919 114.226 937.419 114.226C941.919 114.226 945.824 115.318 949.133 117.502C952.442 119.619 954.957 122.531 956.677 126.237C958.398 129.943 959.258 134.047 959.258 138.547C959.258 143.047 958.398 147.15 956.677 150.856C954.957 154.562 952.442 157.507 949.133 159.691C945.824 161.809 941.919 162.868 937.419 162.868ZM937.419 158.897C939.868 158.897 942.018 158.004 943.871 156.217C945.791 154.43 947.247 151.981 948.239 148.871C949.298 145.76 949.828 142.319 949.828 138.547C949.828 134.775 949.298 131.333 948.239 128.223C947.247 125.112 945.791 122.664 943.871 120.877C942.018 119.09 939.868 118.197 937.419 118.197C934.97 118.197 932.786 119.09 930.867 120.877C929.014 122.664 927.558 125.112 926.499 128.223C925.507 131.333 925.01 134.775 925.01 138.547C925.01 142.319 925.507 145.76 926.499 148.871C927.558 151.981 929.014 154.43 930.867 156.217C932.786 158.004 934.97 158.897 937.419 158.897ZM971.297 108.27C971.297 104.894 970.834 102.413 969.907 100.824C968.981 99.1699 967.128 98.3427 964.348 98.3427H962.363V96.3573H971.297C973.746 96.3573 975.565 96.6882 976.757 97.35C978.014 97.9456 978.908 99.0707 979.437 100.725C979.966 102.38 980.231 104.894 980.231 108.27V161.875H971.297V108.27Z"
     fill="black"
     id="path28" />
  <defs
     id="defs61">
    <filter
       id="filter0_f_1877_163"
       x="-77.6431"
       y="-167.032"
       width="440.551"
       height="382.325"
       filterUnits="userSpaceOnUse"
       color-interpolation-filters="sRGB">
      <feFlood
         flood-opacity="0"
         result="BackgroundImageFix"
         id="feFlood30" />
      <feBlend
         mode="normal"
         in="SourceGraphic"
         in2="BackgroundImageFix"
         result="shape"
         id="feBlend32" />
      <feGaussianBlur
         stdDeviation="53.9807"
         result="effect1_foregroundBlur_1877_163"
         id="feGaussianBlur34" />
    </filter>
    <filter
       id="filter1_f_1877_163"
       x="-58.994"
       y="-105.124"
       width="642.352"
       height="667.345"
       filterUnits="userSpaceOnUse"
       color-interpolation-filters="sRGB">
      <feFlood
         flood-opacity="0"
         result="BackgroundImageFix"
         id="feFlood37" />
      <feBlend
         mode="normal"
         in="SourceGraphic"
         in2="BackgroundImageFix"
         result="shape"
         id="feBlend39" />
      <feGaussianBlur
         stdDeviation="62.9154"
         result="effect1_foregroundBlur_1877_163"
         id="feGaussianBlur41" />
    </filter>
    <filter
       id="filter2_f_1877_163"
       x="-163.389"
       y="-65.6294"
       width="404.088"
       height="407.952"
       filterUnits="userSpaceOnUse"
       color-interpolation-filters="sRGB">
      <feFlood
         flood-opacity="0"
         result="BackgroundImageFix"
         id="feFlood44" />
      <feBlend
         mode="normal"
         in="SourceGraphic"
         in2="BackgroundImageFix"
         result="shape"
         id="feBlend46" />
      <feGaussianBlur
         stdDeviation="53.9807"
         result="effect1_foregroundBlur_1877_163"
         id="feGaussianBlur48" />
    </filter>
    <filter
       id="filter3_f_1877_163"
       x="-107.731"
       y="21.1711"
       width="404.065"
       height="391.263"
       filterUnits="userSpaceOnUse"
       color-interpolation-filters="sRGB">
      <feFlood
         flood-opacity="0"
         result="BackgroundImageFix"
         id="feFlood51" />
      <feBlend
         mode="normal"
         in="SourceGraphic"
         in2="BackgroundImageFix"
         result="shape"
         id="feBlend53" />
      <feGaussianBlur
         stdDeviation="57.7035"
         result="effect1_foregroundBlur_1877_163"
         id="feGaussianBlur55" />
    </filter>
    <clipPath
       id="clip0_1877_163">
      <rect
         x="128.361"
         y="257.141"
         width="181.51"
         height="182.052"
         rx="16.3804"
         transform="rotate(-135 128.361 257.141)"
         fill="white"
         id="rect58" />
    </clipPath>
  </defs>
  <path
     style="fill:#ffffff;stroke-width:0.627488"
     d="m 365.05845,131.45525 -0.17443,-30.17411 -1.76058,-1.514016 c -1.21737,-1.046879 -2.52421,-1.514015 -4.23555,-1.514015 -1.87885,0 -2.47495,-0.248678 -2.47495,-1.032476 0,-0.912765 0.73004,-0.992249 6.29644,-0.685523 6.62684,0.365159 8.64125,1.110633 10.15303,3.75733 0.61597,1.07841 0.85177,8.11773 0.99841,29.80566 l 0.19198,28.39382 h 17.53454 17.53455 v 1.56871 1.56872 h -21.9445 -21.94451 z"
     id="path69" />
  <path
     style="fill:#ffffff;stroke-width:0.627488"
     d="m 426.925,161.52514 c -10.01021,-3.37058 -15.7888,-17.72799 -12.42293,-30.86585 2.71391,-10.59312 10.42944,-16.66178 20.27388,-15.94645 8.00374,0.58158 13.79171,4.56149 16.09328,11.06601 0.56581,1.59907 1.18505,5.37814 1.37607,8.39792 l 0.3473,5.49052 h -15.23747 -15.23748 l 0.3765,4.03185 c 1.09764,11.75431 8.70748,17.69138 18.80012,14.66755 1.38178,-0.41399 4.00462,-2.11658 5.82853,-3.78353 4.08231,-3.731 5.21588,-2.88274 1.69651,1.2695 -3.7745,4.45326 -7.42999,6.04014 -14.28417,6.2009 -3.10607,0.0728 -6.53063,-0.16494 -7.61014,-0.52842 z m 16.53439,-29.69519 c -0.23308,-3.08193 -0.9043,-5.89876 -1.94975,-8.18233 -1.36058,-2.97189 -2.0211,-3.67121 -4.50552,-4.77019 -2.04242,-0.90346 -3.55146,-1.16766 -5.05659,-0.88529 -4.8574,0.91125 -8.73918,6.85767 -9.45071,14.47735 l -0.37917,4.06036 h 10.8486 10.8486 z"
     id="path71" />
  <path
     style="fill:#ffffff;stroke-width:0.627488"
     d="m 474.01587,160.75992 c -11.1953,-5.213 -15.47248,-21.83655 -9.09057,-35.3311 3.54417,-7.49415 10.43259,-11.38197 18.90762,-10.67145 5.13925,0.43085 7.85796,1.52242 11.11045,4.46084 3.66444,3.31061 5.32966,7.61563 5.66472,14.64482 l 0.27668,5.80426 h -15.2156 -15.2156 l 0.43963,3.9218 c 1.08045,9.63833 6.1798,15.48628 13.5272,15.51303 4.66929,0.017 7.48528,-1.12449 11.01925,-4.46677 3.63283,-3.43579 5.24132,-3.16996 2.50741,0.41439 -3.84019,5.03474 -8.66166,7.21032 -15.95863,7.20097 -3.70506,-0.005 -5.5033,-0.341 -7.97256,-1.49079 z m 17.77463,-29.0931 c -0.58275,-8.35779 -3.33151,-12.75351 -8.52366,-13.63072 -6.39361,-1.08019 -11.25172,4.69152 -12.38575,14.71496 l -0.42752,3.77879 h 10.838 10.83801 z"
     id="path73" />
  <path
     style="fill:#ffffff;stroke-width:0.627488"
     d="m 525.20709,161.67006 c -7.97945,-2.43603 -13.03348,-9.00297 -14.41259,-18.72693 -1.69229,-11.93223 2.91084,-22.1505 11.90264,-26.4221 3.07154,-1.45915 4.21047,-1.6395 10.35354,-1.6395 6.10755,0 7.26365,0.18064 10.03981,1.56872 3.98169,1.99084 5.33132,4.4921 5.33266,9.88293 5.4e-4,2.15699 -0.24787,3.9218 -0.55202,3.9218 -0.30414,0 -0.88569,-1.32128 -1.29232,-2.93616 -1.5585,-6.18936 -5.64254,-9.18571 -12.58689,-9.23468 -4.46927,-0.0315 -7.20415,1.05169 -9.89051,3.91732 -6.44532,6.87547 -6.42307,26.24262 0.0382,33.27111 3.2117,3.49362 9.94573,4.80921 15.73629,3.07432 1.52205,-0.45602 3.85157,-1.99966 5.68596,-3.76778 3.60319,-3.47302 4.98743,-3.12417 2.30373,0.58058 -3.64261,5.02847 -8.37651,7.12206 -15.92573,7.04322 -2.84024,-0.0297 -5.87,-0.26945 -6.73279,-0.53285 z"
     id="path75" />
  <path
     style="fill:#ffffff;stroke-width:0.627488"
     d="m 560.97388,132.74477 c 0,-30.75007 -0.13568,-32.25768 -3.04306,-33.813666 -0.69677,-0.372897 -2.2737,-0.677995 -3.50431,-0.677995 -1.65841,0 -2.23746,-0.267202 -2.23746,-1.032476 0,-0.91167 0.72515,-0.992519 6.1975,-0.690975 3.40863,0.187825 6.82097,0.675168 7.58298,1.082984 2.46608,1.319804 3.16169,4.286418 3.16169,13.483808 0,4.67018 0.14363,8.49124 0.31918,8.49124 0.17554,0 1.45142,-0.8202 2.83528,-1.82266 5.26465,-3.8137 13.66507,-4.17212 19.5942,-0.83604 2.66589,1.49999 3.65013,2.54673 5.17454,5.5031 l 1.88246,3.65078 0.20054,17.77324 0.20054,17.77324 h -4.06993 -4.06993 l -0.20928,-17.09903 c -0.20073,-16.40045 -0.26878,-17.21985 -1.66565,-20.05594 -3.30297,-6.70611 -10.74326,-7.95849 -17.63246,-2.96798 l -2.55949,1.85408 v 19.13444 19.13443 h -4.07867 -4.07867 z"
     id="path77" />
  <path
     style="fill:#ffffff;stroke-width:0.627488"
     d="m 641.79183,132.29431 c -0.16654,-26.29386 -0.29723,-29.53858 -1.26069,-31.29834 -1.22102,-2.230186 -2.20255,-2.742861 -5.2513,-2.742861 -1.55964,0 -2.14489,-0.277614 -2.14489,-1.017429 0,-0.919385 1.49658,-0.986869 15.53032,-0.700289 16.55471,0.33806 19.78485,0.823325 25.81266,3.877849 6.06489,3.07331 8.56176,8.29434 8.10731,16.95263 -0.33974,6.473 -2.09229,9.79289 -6.90727,13.08462 -4.55856,3.11643 -9.24478,4.1969 -18.20284,4.1969 h -7.39802 v 13.49098 13.49098 h -4.04974 -4.04975 z m 23.12198,-2.14788 c 3.31202,-1.55683 6.89393,-5.54694 7.75185,-8.63527 0.93326,-3.3595 0.75456,-9.81886 -0.34454,-12.45404 -1.23053,-2.95031 -4.26399,-6.13325 -7.49805,-7.86757 -1.96005,-1.05111 -3.60975,-1.348379 -7.52985,-1.356861 -7.87219,-0.01703 -7.21611,-1.467959 -7.21611,15.958421 v 15.06744 l 1.41185,0.30691 c 3.42187,0.74383 4.73284,0.84222 7.60344,0.57067 1.67978,-0.15891 4.29941,-0.87427 5.82141,-1.5897 z"
     id="path79" />
  <path
     style="fill:#ffffff;stroke-width:0.627488"
     d="m 694.00124,143.08259 c 0,-19.60396 -0.42025,-23.46657 -2.72913,-25.08377 -0.72327,-0.5066 -2.2405,-0.92108 -3.37162,-0.92108 -1.13112,0 -2.05658,-0.28237 -2.05658,-0.62749 0,-0.3721 2.31117,-0.62749 5.67854,-0.62749 6.14625,0 8.9907,0.9187 9.69272,3.13056 0.51076,1.60927 1.08364,1.59099 2.57175,-0.0821 1.91697,-2.1552 7.12535,-4.29051 10.48196,-4.29734 3.58337,-0.007 6.13612,1.18433 7.928,3.70078 l 1.31261,1.84339 -1.78713,1.27255 c -1.55464,1.107 -1.90457,1.15512 -2.68982,0.36987 -0.96105,-0.96105 -6.23127,-2.16614 -7.98193,-1.82514 -3.80597,0.74133 -4.70622,1.12704 -6.68431,2.86382 l -2.20772,1.9384 v 18.44588 18.44588 h -4.07867 -4.07867 z"
     id="path81" />
  <path
     style="fill:#ffffff;stroke-width:0.627488"
     d="m 743.4989,161.39055 c -9.57591,-3.42196 -15.18155,-13.44775 -14.18241,-25.36549 0.74318,-8.86462 5.64345,-16.55253 12.51806,-19.63926 4.79991,-2.15518 13.27176,-2.12935 17.73914,0.0541 8.90202,4.35086 13.48181,14.27931 12.1045,26.24115 -0.96563,8.38648 -6.66625,16.2569 -13.44897,18.568 -3.55813,1.21238 -11.51962,1.28886 -14.73032,0.14152 z m 11.82028,-3.5077 c 5.44278,-3.31862 8.02715,-10.56108 7.58634,-21.26003 -0.25475,-6.18289 -0.49133,-7.31115 -2.30604,-10.99735 -2.21613,-4.50159 -4.07305,-6.30588 -7.56729,-7.35278 -5.15393,-1.54415 -10.72539,2.14558 -13.34507,8.83788 -1.8448,4.71279 -2.02057,16.87666 -0.31452,21.76685 1.49691,4.29072 4.42462,8.24375 6.9042,9.32213 2.87894,1.25206 6.68829,1.11864 9.04238,-0.3167 z"
     id="path83" />
  <path
     style="fill:#ffffff;stroke-width:0.627488"
     d="m 792.09304,161.24564 c -5.35604,-2.64142 -5.79029,-4.51951 -5.82358,-25.1864 l -0.0275,-17.09904 h -3.45119 c -3.26293,0 -3.45118,-0.0856 -3.45118,-1.56872 0,-1.48315 0.18825,-1.56872 3.45118,-1.56872 h 3.45119 v -4.61962 c 0,-4.40295 0.11036,-4.75599 2.35307,-7.52743 1.76483,-2.18088 2.78447,-2.90842 4.07867,-2.91023 l 1.72559,-0.002 v 7.52985 7.52985 h 5.96114 c 5.94021,0 5.96113,0.006 5.96113,1.56872 0,1.56321 -0.0209,1.56872 -5.96113,1.56872 h -5.96114 l 0.004,16.1578 c 0.004,16.38868 0.35591,19.61896 2.41783,22.16533 1.50918,1.86375 6.96217,2.38931 10.30381,0.99309 3.69833,-1.54526 3.04457,0.46205 -0.78202,2.40113 -3.76554,1.90815 -10.95121,2.19462 -14.24934,0.56809 z"
     id="path89" />
  <path
     style="fill:#ffffff;stroke-width:0.627488"
     d="m 828.44952,160.96415 c -4.08625,-1.61473 -8.35335,-5.79446 -10.45849,-10.24436 -6.02392,-12.73353 -1.5649,-28.62864 9.56433,-34.09398 3.08753,-1.51623 4.29026,-1.74387 9.1993,-1.74111 4.45313,0.003 6.26783,0.28924 8.58132,1.35593 9.25711,4.26823 14.48349,15.40102 12.54289,26.71777 -1.4319,8.35017 -5.34489,14.29301 -11.52899,17.50959 -3.94662,2.05278 -13.30476,2.31217 -17.90036,0.49616 z m 13.38983,-3.41826 c 5.46378,-3.20199 8.78064,-14.13682 7.25831,-23.92882 -1.78042,-11.4521 -7.57835,-17.32769 -15.10007,-15.3023 -9.15198,2.46437 -13.01613,21.26732 -6.93142,33.72824 3.2685,6.6936 9.06016,8.85094 14.77318,5.50288 z"
     id="path91" />
  <path
     style="fill:#ffffff;stroke-width:0.627488"
     d="m 881.53234,161.27309 c -3.92718,-1.20908 -8.85197,-5.73963 -10.86534,-9.99555 -2.28158,-4.82286 -3.24778,-11.74633 -2.4019,-17.21117 1.29765,-8.38359 5.3722,-14.46434 11.81268,-17.62897 2.74444,-1.34852 3.96114,-1.52971 10.32707,-1.53792 6.07,-0.008 7.68109,0.20492 10.14375,1.33952 3.89725,1.79556 4.83231,3.42483 5.32749,9.28277 0.33964,4.01795 0.25822,4.85188 -0.45061,4.6156 -0.47583,-0.15861 -1.09027,-1.37189 -1.36542,-2.69618 -1.47185,-7.08407 -8.42239,-10.96594 -16.26567,-9.08437 -4.13853,0.99282 -7.42625,4.21914 -9.33362,9.1593 -1.93009,4.99899 -2.11832,15.7439 -0.36917,21.07295 2.43106,7.40655 7.59263,10.98034 14.99996,10.38575 4.76539,-0.38252 8.45084,-2.15171 11.04943,-5.30424 1.3401,-1.62578 2.136,-2.14707 2.58801,-1.69507 1.55742,1.55743 -5.89746,8.33671 -10.60566,9.64453 -3.2269,0.89635 -11.16582,0.70758 -14.591,-0.34695 z"
     id="path93" />
  <path
     style="fill:#ffffff;stroke-width:0.627488"
     d="m 929.31222,161.19756 c -1.71941,-0.62804 -4.19054,-2.40023 -6.3297,-4.5394 -4.59044,-4.59044 -6.30547,-8.89752 -6.70729,-16.84451 -0.53512,-10.58359 3.28772,-18.35974 11.15139,-22.68337 3.82374,-2.10239 4.43164,-2.24275 9.72605,-2.24565 4.7864,-0.003 6.18183,0.24753 9.15284,1.6408 8.57723,4.02235 13.06284,12.7575 12.33034,24.01178 -0.60334,9.26987 -4.32889,15.75168 -11.22036,19.52152 -2.95011,1.6138 -4.08836,1.85847 -9.32158,2.00368 -4.30784,0.11953 -6.74341,-0.12033 -8.78169,-0.86485 z m 13.69146,-3.77653 c 2.47545,-1.83741 4.95479,-6.22664 6.12935,-10.85095 1.37545,-5.41523 0.9456,-14.60566 -0.91015,-19.45951 -2.54502,-6.65666 -7.89154,-10.22516 -13.1845,-8.79992 -3.59688,0.96854 -5.43987,2.73143 -7.74106,7.40463 -2.01687,4.09581 -2.06691,4.39527 -2.06691,12.36903 0,6.18064 0.26875,8.94086 1.10303,11.32892 1.33181,3.81216 4.37644,7.65877 7.00556,8.85088 2.57383,1.16703 7.54022,0.7338 9.66468,-0.84308 z"
     id="path95" />
  <path
     style="fill:#ffffff;stroke-width:0.627488"
     d="m 971.21144,131.45525 -0.17444,-30.17411 -1.76058,-1.514016 c -1.21737,-1.046879 -2.52421,-1.514015 -4.23554,-1.514015 -1.87885,0 -2.47496,-0.248678 -2.47496,-1.032476 0,-0.912765 0.73005,-0.992249 6.29644,-0.685523 6.8721,0.378673 8.91002,1.198916 10.19629,4.10389 0.53684,1.21243 0.80559,10.10606 0.94708,31.34157 l 0.19755,29.64878 h -4.40871 -4.4087 z"
     id="path97" />
  <path
     style="fill:#f9f9f9;stroke-width:0.156872"
     d="m 382.86802,158.45272 c 4.81009,-0.023 12.68113,-0.023 17.49122,0 4.81008,0.023 0.87456,0.0419 -8.74561,0.0419 -9.62017,0 -13.55569,-0.0188 -8.74561,-0.0419 z"
     id="path51" />
  <path
     style="fill:#f9f9f9;stroke-width:0.156872"
     d="m 387.182,161.74701 22.00128,-0.0403 v -1.64661 -1.64661 h -17.49121 c -15.44317,0 -17.49122,-0.0276 -17.49122,-0.23531 0,-0.20776 2.05676,-0.23531 17.56965,-0.23531 h 17.56965 v 1.9609 1.9609 l -22.07972,-0.0387 -22.07971,-0.0387 z"
     id="path53" />
  <path
     style="fill:#f9f9f9;stroke-width:0.0554626"
     d="m 373.99411,145.42726 c -0.21686,-33.83983 -0.35968,-41.24945 -0.85191,-44.19818 -0.11499,-0.68886 -0.18376,-0.86883 -0.54209,-1.418556 -1.47362,-2.260721 -3.53547,-2.934128 -10.18294,-3.325777 l -1.30337,-0.07679 3.02271,0.01456 c 2.76346,0.01331 3.08599,0.02461 3.76049,0.131717 3.62521,0.575669 5.1713,2.163348 5.80446,5.960566 0.35407,2.12346 0.32919,0.39254 0.34776,24.19383 0.009,11.89673 0.0102,22.46651 0.002,23.48841 -0.008,1.0219 -0.0339,-1.12451 -0.0572,-4.76978 z"
     id="path59" />
  <path
     style="fill:#f9f9f9;stroke-width:0.0554626"
     d="m 425.0899,161.07304 c -4.14517,-1.89692 -7.64121,-5.64275 -9.61566,-10.30269 -1.54208,-3.6395 -2.30516,-7.67393 -2.30794,-12.20218 -0.003,-5.01378 0.97228,-9.52597 2.91126,-13.46795 1.08561,-2.20706 2.28205,-3.89751 3.90696,-5.52013 2.1009,-2.09795 4.32933,-3.49429 6.9911,-4.38064 2.41773,-0.8051 4.89212,-1.07897 7.98662,-0.88399 4.54546,0.2864 8.18996,1.53174 10.9824,3.75274 0.6305,0.50147 1.70013,1.57458 2.28255,2.28997 2.81985,3.46357 4.2589,7.89337 4.54042,13.97657 0.0475,1.02738 0.0402,1.61055 -0.0414,3.30002 -0.0545,1.12867 -0.105,1.98972 -0.11216,1.91346 -0.007,-0.0763 -0.0757,-1.14946 -0.15225,-2.38489 -0.25082,-4.04619 -0.33475,-4.98923 -0.61703,-6.93282 -0.3272,-2.25297 -0.72663,-3.95115 -1.21321,-5.15802 -1.42157,-3.52595 -3.98569,-6.33106 -7.43313,-8.13175 -2.38645,-1.2465 -5.15339,-1.99325 -8.31592,-2.24431 -1.0379,-0.0824 -3.31351,-0.0355 -4.19089,0.0863 -3.18068,0.44177 -5.95653,1.55544 -8.37734,3.36099 -2.41771,1.80323 -4.39841,4.2302 -5.88097,7.20603 -1.54858,3.10834 -2.47499,6.56587 -2.83093,10.56562 -0.0991,1.11377 -0.0844,3.99278 0.0265,5.17639 0.24216,2.58556 0.6929,4.75621 1.47608,7.10858 1.75442,5.26951 4.86547,9.50664 8.73707,11.89952 0.4982,0.30792 1.58987,0.86618 2.30169,1.17705 0.12209,0.0533 0.1022,0.0607 -0.16638,0.0616 -0.24793,8.2e-4 -0.41409,-0.0489 -0.8874,-0.26549 z"
     id="path61" />
  <path
     style="fill:#f9f9f9;stroke-width:0.0554626"
     d="m 422.15038,136.47882 c 0,-0.095 0.40145,-4.28662 0.44703,-4.66763 0.28789,-2.40621 0.97662,-4.90804 1.90689,-6.92677 0.51555,-1.11877 1.44093,-2.60099 2.17132,-3.47792 0.51635,-0.61994 1.53629,-1.5776 2.13396,-2.00366 0.62573,-0.44606 1.55675,-0.92087 2.24254,-1.14368 1.78008,-0.57832 3.4273,-0.41961 5.68999,0.54822 1.48923,0.637 2.17861,1.05457 2.82352,1.71023 0.51616,0.52477 0.88572,1.07858 1.41106,2.11452 1.25743,2.47961 1.98195,4.95327 2.33138,7.95981 0.0612,0.52623 0.47272,5.64192 0.47272,5.8759 0,0.0165 -4.86684,0.0299 -10.81521,0.0299 -5.94836,0 -10.8152,-0.009 -10.8152,-0.019 z m 21.27367,-1.46467 c -0.14549,-4.41664 -0.59768,-7.35842 -1.52777,-9.93899 -0.70431,-1.95411 -1.49228,-3.27018 -2.66143,-4.44512 -1.23628,-1.24241 -2.44777,-1.89849 -4.18942,-2.26876 -0.81036,-0.17228 -2.46503,-0.216 -3.24417,-0.0857 -1.57484,0.26333 -2.89442,0.99245 -4.27106,2.35992 -3.08073,3.06021 -4.78673,7.95437 -4.97344,14.26775 l -0.0357,1.20631 h 10.46952 10.46952 z"
     id="path63" />
  <path
     style="fill:#f9f9f9;stroke-width:0.0554626"
     d="m 441.22951,161.17909 c 1.87696,-0.56859 3.61378,-1.50558 5.06973,-2.73505 2.09185,-1.76644 4.50793,-4.81773 4.62297,-5.83839 0.0339,-0.30054 -0.0463,-0.41196 -0.29653,-0.41196 -0.58351,0 -1.68114,0.73274 -3.4947,2.33292 -1.40201,1.23706 -2.80125,2.25516 -4.14568,3.01642 -1.15237,0.65252 -1.91987,0.92121 -3.55833,1.24572 -1.26803,0.25115 -1.8326,0.30558 -3.16136,0.30482 -1.37797,-8e-4 -2.08257,-0.0831 -3.2723,-0.38205 -4.97628,-1.25058 -8.54602,-5.44331 -9.9466,-11.68247 -0.26599,-1.1849 -0.43807,-2.42708 -0.64462,-4.6532 -0.10609,-1.14339 -0.20792,-2.20991 -0.22629,-2.37006 l -0.0334,-0.29118 h 15.22847 15.22847 v 0.13866 0.13865 h -15.03919 -15.0392 l 0.0358,1.17858 c 0.16452,5.40959 1.49245,9.77057 3.9826,13.07911 1.91128,2.53941 4.24315,3.977 7.34371,4.52734 0.87644,0.15557 3.64837,0.13816 4.73967,-0.0298 2.0482,-0.31517 3.5925,-0.84867 5.12083,-1.76907 2.02482,-1.2194 3.87857,-2.95918 5.57058,-5.22812 0.2616,-0.3508 0.49504,-0.66026 0.51875,-0.68769 0.0428,-0.0495 1.93447,1.327 1.93447,1.40757 0,0.0231 -0.18945,0.33853 -0.421,0.70098 -1.92782,3.01763 -4.17677,5.34171 -6.65048,6.87264 -0.33555,0.20767 -1.03438,0.58524 -1.55295,0.83904 l -0.94287,0.46147 -0.74874,-0.003 -0.74875,-0.003 0.5269,-0.15961 z"
     id="path65" />
  <path
     style="fill:#f9f9f9;stroke-width:0.0554626"
     d="m 432.21684,162.78262 c -1.96661,-0.13112 -3.80089,-0.49029 -5.53198,-1.08324 -0.91588,-0.31371 -0.98085,-0.34996 -0.63108,-0.35214 0.15463,-9.7e-4 0.43875,0.059 0.66293,0.13983 0.50171,0.18098 1.34442,0.32299 2.67154,0.45019 1.53577,0.14721 6.39081,0.14767 7.76476,7.5e-4 1.04659,-0.11192 2.28863,-0.31066 3.00533,-0.48087 0.3499,-0.0831 0.65632,-0.11116 1.20034,-0.1099 0.4832,0.001 0.70029,0.0193 0.64125,0.0538 -0.1725,0.10082 -1.91406,0.65764 -2.51029,0.8026 -2.21757,0.53915 -4.79368,0.74422 -7.2728,0.57894 z"
     id="path67" />
  <path
     style="fill:#f9f9f9;stroke-width:0.039218"
     d="m 530.67632,162.82213 c -3.4295,-0.13885 -6.43405,-0.85213 -9.07472,-2.15434 -1.91547,-0.94458 -3.46301,-2.09005 -5.1051,-3.77869 -2.86772,-2.94902 -4.73625,-6.65809 -5.71554,-11.3454 -0.81534,-3.90262 -0.91122,-8.59649 -0.25703,-12.58354 0.12297,-0.74946 0.0954,-0.68632 0.30009,-0.68632 0.16679,0 0.17621,0.006 0.15452,0.0921 -0.0979,0.3899 -0.30164,1.7671 -0.39549,2.67282 -0.21036,2.03027 -0.18026,4.79109 0.0763,7.00041 0.32606,2.80736 0.95215,5.38088 1.87958,7.72594 0.34439,0.8708 1.13602,2.49845 1.55456,3.19626 2.50684,4.17957 5.95909,6.98396 10.50605,8.53446 0.84205,0.28713 1.404,0.38556 2.98276,0.52243 1.01277,0.0878 1.9007,0.13519 3.39235,0.18102 4.81265,0.14786 8.39297,-0.49241 11.29965,-2.02072 1.39256,-0.73221 2.47082,-1.53374 3.66575,-2.72499 0.92667,-0.92381 1.69306,-1.86739 2.4382,-3.00191 0.61218,-0.93207 0.89159,-1.5443 0.89159,-1.95359 0,-0.28951 -0.076,-0.35708 -0.37379,-0.33239 -0.56882,0.0472 -1.74359,0.87561 -3.21466,2.26695 -1.88908,1.7867 -3.80739,3.11976 -5.37932,3.73816 -0.42924,0.16887 -1.51402,0.4547 -2.24857,0.59249 -3.48655,0.65402 -7.17307,0.29743 -10.17707,-0.9844 -2.7437,-1.17076 -4.50646,-2.92495 -5.94453,-5.91561 -1.39474,-2.90056 -2.2277,-6.4121 -2.5536,-10.76533 -0.0778,-1.03873 -0.0657,-4.33922 0.0197,-5.39247 0.0792,-0.97619 0.19399,-2.0116 0.3132,-2.8237 0.0819,-0.55823 0.091,-0.58893 0.17842,-0.6013 0.0823,-0.0117 0.0896,-0.001 0.0687,0.098 -0.0128,0.0611 -0.0577,0.34933 -0.0996,0.64053 -0.60082,4.17063 -0.47246,9.17555 0.33146,12.92443 0.60703,2.83076 1.63538,5.42013 2.95019,7.42855 1.98243,3.02825 4.83787,4.85387 8.40296,5.37241 0.83305,0.12117 1.39673,0.15763 2.44377,0.15806 3.04943,0.001 5.57092,-0.51442 7.67928,-1.57055 1.66893,-0.83602 3.47336,-2.36448 5.11338,-4.33135 0.3275,-0.39277 1.13391,-1.45498 1.33236,-1.755 0.082,-0.12403 0.16417,-0.22551 0.18251,-0.22551 0.0304,0 1.33206,0.95553 1.76499,1.29566 l 0.1819,0.14291 -0.3792,0.60432 c -2.36474,3.76861 -5.09536,6.38126 -8.15194,7.79975 -2.62819,1.21968 -5.34778,1.82876 -8.7567,1.96114 -1.08665,0.0422 -1.19574,0.0421 -2.27739,-0.002 z"
     id="path72" />
  <path
     style="fill:#f9f9f9;stroke-width:0.039218"
     d="m 560.76074,147.05902 v -14.78518 h 0.098 0.098 v 14.68713 14.68714 h 4.09828 4.09828 v -14.68714 -14.68713 h 0.25492 0.25491 v 14.78518 14.78518 h -4.45124 -4.45124 z"
     id="path74" />
  <path
     style="fill:#f9f9f9;stroke-width:0.039218"
     d="m 481.26389,162.82344 c -4.25671,-0.19919 -7.86149,-1.38197 -10.70698,-3.51312 -4.05186,-3.03466 -6.68114,-7.24768 -8.04769,-12.89521 -0.3922,-1.62082 -0.64953,-3.31254 -0.8118,-5.33683 -0.0675,-0.84218 -0.0675,-4.17772 0,-5.0199 0.10141,-1.26509 0.25602,-2.51817 0.42462,-3.44138 l 0.0627,-0.34316 h 0.21426 c 0.18566,0 0.21156,0.009 0.19396,0.0686 -0.0479,0.16186 -0.22323,1.14005 -0.31525,1.75883 -0.25789,1.7343 -0.355,3.27722 -0.32433,5.15333 0.0286,1.74838 0.12706,2.88933 0.38408,4.44952 0.77879,4.72759 2.6076,8.8778 5.37534,12.19851 0.44672,0.53597 1.47845,1.58613 2.07207,2.1091 1.51071,1.33088 3.33676,2.45007 5.21599,3.19688 1.74408,0.69311 3.11469,0.94219 5.69971,1.0358 1.90273,0.0689 3.84493,-0.019 5.4382,-0.24626 3.4943,-0.49831 6.35858,-1.712 8.77948,-3.72017 2.10285,-1.74434 4.38525,-4.70179 4.40893,-5.71293 0.007,-0.28005 -0.0727,-0.36852 -0.3301,-0.36852 -0.63242,0 -1.88848,0.85006 -3.56365,2.41176 -3.00464,2.80111 -5.31432,3.97561 -8.55792,4.35178 -1.33202,0.15448 -3.07402,0.15453 -4.18909,1.5e-4 -2.29214,-0.31739 -4.37241,-1.2649 -6.11684,-2.78607 -2.86971,-2.50243 -4.78826,-6.52986 -5.52853,-11.60551 -0.0774,-0.53067 -0.55025,-4.6647 -0.55025,-4.81067 0,-0.0697 0.4814,-0.072 15.19696,-0.072 h 15.19697 v -0.21955 c 0,-0.33574 -0.26818,-5.92438 -0.31327,-6.52816 -0.0218,-0.29241 -0.0397,-0.56155 -0.0397,-0.59807 0,-0.0565 0.0439,-0.0664 0.29414,-0.0664 0.20886,0 0.2943,0.0142 0.29471,0.049 3.9e-4,0.027 0.0267,0.38433 0.0586,0.79416 0.10906,1.39965 0.11628,2.80802 0.024,4.68655 -0.0461,0.93829 -0.0939,1.81628 -0.10623,1.95109 l -0.0225,0.24511 H 486.032 470.98952 l 0.0269,0.853 c 0.095,3.00914 0.41867,5.21215 1.10603,7.52824 0.56165,1.8925 1.33855,3.56632 2.38988,5.14896 2.02885,3.05415 4.71189,4.79321 8.14066,5.2765 0.60957,0.0859 2.38864,0.11959 3.17192,0.06 3.12031,-0.23722 5.43041,-1.06991 7.70343,-2.77673 1.54254,-1.15831 2.91491,-2.56452 4.27795,-4.38344 0.27478,-0.36669 0.51388,-0.67219 0.53133,-0.67889 0.0174,-0.007 0.46224,0.31096 0.98844,0.70592 l 0.95671,0.71811 -0.36417,0.57889 c -1.60233,2.54711 -3.43089,4.60409 -5.47368,6.15746 -2.72047,2.06869 -6.28515,3.32402 -10.20834,3.59496 -0.84422,0.0583 -2.19944,0.0768 -2.97278,0.0406 z"
     id="path76" />
  <path
     style="fill:#f9f9f9;stroke-width:0.039218"
     d="m 365.21254,161.74615 v -0.098 h 21.96207 21.96206 V 160.06 158.47189 l -3.36294,-0.0103 -3.36294,-0.0102 3.38255,-0.01 3.38255,-0.01 v 1.62252 1.62252 l -9.91234,0.0246 c -5.45179,0.0135 -15.25972,0.0378 -21.79539,0.054 -10.9387,0.0271 -11.43737,0.031 -6.27488,0.0493 l 5.60817,0.0198 -5.79445,0.01 -5.79446,0.01 z"
     id="path80" />
  <path
     style="fill:#f9f9f9;stroke-width:0.039218"
     d="m 374.06393,156.38309 c -0.0127,-1.14859 -0.01,-7.04747 0.007,-13.1086 l 0.0299,-11.02026 0.007,12.83409 0.007,12.83408 2.89233,0.007 2.89232,0.007 -2.33347,0.0292 c -2.14606,0.0269 -3.12769,0.067 -3.30411,0.13516 -0.0883,0.0341 -0.0883,0.11981 -1e-4,0.15367 0.17817,0.0684 1.07403,0.10199 3.69316,0.13858 1.56204,0.0218 2.84888,0.0485 2.85965,0.0592 0.0108,0.0108 -1.49858,0.0196 -3.3541,0.0196 h -3.37366 z"
     id="path82" />
  <path
     style="fill:#f9f9f9;stroke-width:0.039218"
     d="m 641.47091,147.05902 v -14.78518 h 0.15687 0.15687 l 6.3e-4,1.36283 c 3.4e-4,0.74955 0.0354,6.58666 0.0778,12.97134 0.0424,6.38469 0.0775,12.38063 0.0778,13.32431 l 6.2e-4,1.71579 h 4.07867 4.07867 v -13.4873 -13.4873 l 5.24541,-0.0191 c 4.93066,-0.018 5.63623,-0.032 7.30434,-0.14485 3.00663,-0.20347 5.5661,-0.65613 7.67669,-1.35767 0.59876,-0.19902 1.73225,-0.63947 2.01865,-0.78441 0.17162,-0.0868 0.22829,-0.0935 0.78436,-0.0916 l 0.59938,0.002 -0.31374,0.16042 c -0.97726,0.49968 -2.19979,0.95914 -3.52239,1.3238 -2.63924,0.72768 -5.00615,1.1328 -7.34099,1.25647 -0.43177,0.0229 -3.14903,0.0395 -6.46116,0.0397 l -5.71602,2e-4 v 13.39294 13.39294 h -4.45124 -4.45124 z"
     id="path84" />
  <path
     style="fill:#f9f9f9;stroke-width:0.039218"
     d="m 590.52641,147.05902 v -14.78518 h 0.11149 0.11149 l 0.0258,0.89221 c 0.0879,3.04122 0.15659,7.71346 0.30018,20.40315 0.0448,3.95808 0.0914,7.39504 0.10347,7.6377 l 0.022,0.44121 h 4.0748 4.0748 l -2.3e-4,-0.40199 c -1.1e-4,-0.22109 -0.0706,-6.56999 -0.15661,-14.10866 -0.086,-7.53868 -0.15652,-13.967 -0.15665,-14.28515 l -2.5e-4,-0.57847 h 0.19609 0.19609 v 14.78518 14.78518 h -4.45124 -4.45124 z"
     id="path86" />
  <path
     style="fill:#f9f9f9;stroke-width:0.039218"
     d="m 888.19082,162.82442 c -3.28899,-0.14389 -6.13459,-0.79181 -8.726,-1.98682 -3.40178,-1.56871 -6.47804,-4.47371 -8.52751,-8.05276 -1.62138,-2.83147 -2.74073,-6.60142 -3.13815,-10.56924 -0.31629,-3.15776 -0.22957,-6.27085 0.25919,-9.30446 l 0.10267,-0.6373 h 0.20562 0.20562 l -0.0559,0.26473 c -0.12384,0.58691 -0.32746,1.87403 -0.40171,2.53936 -0.25383,2.27449 -0.21053,5.03352 0.11816,7.52985 0.40753,3.09507 1.21222,6.04023 2.31029,8.45556 1.61534,3.55315 5.32998,7.43229 8.98052,9.37823 1.63368,0.87084 3.15402,1.26292 6.03957,1.55753 1.67036,0.17054 4.84326,0.24947 6.52979,0.16244 1.55796,-0.0804 3.02318,-0.2598 3.85367,-0.47184 2.09063,-0.53379 4.93408,-2.2351 7.53674,-4.50942 0.67662,-0.59126 1.84661,-1.78297 2.27467,-2.31688 0.36766,-0.45859 0.73734,-1.00426 0.90604,-1.33738 0.37985,-0.75007 0.37397,-1.39893 -0.0149,-1.63924 -0.4862,-0.30048 -1.18061,0.18551 -2.54403,1.78047 -1.72293,2.01553 -3.55859,3.31126 -5.97282,4.21599 -2.59319,0.97179 -5.97511,1.3586 -8.72584,0.99802 -2.40699,-0.31552 -4.56843,-1.2098 -6.35332,-2.62862 -0.44495,-0.35369 -1.59758,-1.51323 -1.96574,-1.97751 -1.33311,-1.68119 -2.38881,-3.75795 -3.09193,-6.08243 -1.0955,-3.62167 -1.39373,-9.75365 -0.7394,-15.20313 0.0761,-0.63333 0.0941,-0.71573 0.15703,-0.71573 0.0865,0 0.0877,0.0423 0.0131,0.46616 -0.0882,0.50105 -0.24604,1.88657 -0.32222,2.82815 -0.0978,1.20872 -0.0977,4.75516 2e-4,5.96114 0.32224,3.97016 1.08213,7.04426 2.42231,9.79929 0.47061,0.96742 0.6834,1.34762 1.15527,2.06414 2.08016,3.15864 4.95495,4.92083 8.84232,5.42019 0.76704,0.0985 3.27927,0.0983 4.19632,-4.7e-4 3.98413,-0.4289 6.43453,-1.5656 9.13139,-4.23589 0.95297,-0.94359 1.78604,-1.92581 2.58119,-3.04333 l 0.38359,-0.53912 0.29637,0.21886 c 1.56253,1.15393 1.64769,1.22368 1.60118,1.31137 -0.40708,0.76745 -1.63455,2.52266 -2.45095,3.5047 -2.81729,3.38893 -5.93754,5.29336 -10.22894,6.24321 -2.01325,0.44561 -4.56797,0.65174 -6.84354,0.55218 z"
     id="path88" />
  <path
     style="fill:#f9f9f9;stroke-width:0.039218"
     d="m 936.24465,162.82487 c -2.66091,-0.12568 -5.01975,-0.60714 -7.24753,-1.4793 -0.73407,-0.28739 -2.1481,-0.98594 -2.8136,-1.38998 -1.31193,-0.79649 -2.56924,-1.79123 -3.7348,-2.95483 -2.65608,-2.65163 -4.56561,-6.02832 -5.74407,-10.15744 -0.72755,-2.54922 -1.10062,-5.37658 -1.09965,-8.33382 7e-4,-2.10192 0.15564,-3.74767 0.57507,-6.1082 l 0.0226,-0.12746 h 0.24388 0.24388 l -0.0724,0.4216 c -0.32056,1.86592 -0.46548,4.23491 -0.38866,6.3534 0.27027,7.45283 1.66851,11.79798 5.10028,15.84949 1.76546,2.08429 3.96909,4.03543 5.99621,5.30916 0.6373,0.40045 1.7095,0.92617 2.25951,1.1079 1.97285,0.65182 4.47822,0.88095 8.39266,0.76756 5.21214,-0.15098 6.46366,-0.39977 9.07896,-1.80479 2.0925,-1.12416 3.7231,-2.31266 5.19638,-3.78749 3.24344,-3.24688 5.24862,-7.5122 6.07481,-12.92205 0.55593,-3.64022 0.52787,-7.69156 -0.0756,-10.91673 -0.0317,-0.16955 -0.0577,-0.32397 -0.0577,-0.34316 0,-0.0192 0.0956,-0.0349 0.21245,-0.0349 h 0.21245 l 0.0426,0.19848 c 0.29295,1.36595 0.48818,3.13849 0.55156,5.00771 0.15325,4.51967 -0.60131,8.79667 -2.22272,12.59877 -1.63423,3.83217 -4.02599,6.86035 -7.22166,9.14328 -2.53247,1.80914 -5.62996,2.97797 -9.07559,3.42464 -1.23511,0.16011 -3.18131,0.23804 -4.4493,0.17815 z"
     id="path90" />
  <path
     style="fill:#f9f9f9;stroke-width:0.039218"
     d="m 935.34376,158.78442 c -1.01359,-0.15345 -1.78235,-0.39977 -2.47455,-0.79288 -2.49621,-1.41763 -5.18799,-4.93385 -6.45696,-8.43457 -0.43311,-1.19485 -0.70124,-2.42144 -0.88466,-4.04706 -0.10932,-0.96887 -0.0959,-1.0203 0.0562,-0.2157 0.34507,1.82546 0.77004,3.3437 1.33377,4.76498 1.94651,4.90755 4.95446,7.93243 8.61537,8.66388 0.26633,0.0532 0.53718,0.10397 0.60189,0.11278 0.0647,0.009 0.0206,0.0171 -0.098,0.0184 -0.11864,0.001 -0.43048,-0.0301 -0.69299,-0.0699 z"
     id="path94" />
  <path
     style="fill:#f9f9f9;stroke-width:0.039218"
     d="m 940.3115,158.44988 c 0.643,-0.21549 1.48412,-0.62275 2.03934,-0.98743 1.20096,-0.78881 2.46912,-2.05498 3.43374,-3.42834 2.02949,-2.88949 3.50174,-7.47113 3.91745,-12.19108 0.26429,-3.00075 0.15436,-6.25664 -0.30489,-9.02994 -0.0831,-0.50207 -0.0846,-0.53925 -0.0217,-0.53925 0.0782,0 0.0879,0.0377 0.17053,0.66671 0.51861,3.94606 0.48802,8.52807 -0.0794,11.90265 -0.54364,3.23289 -1.94193,6.78692 -3.72629,9.47114 -1.05211,1.58269 -2.20019,2.79273 -3.20843,3.38157 -0.53986,0.3153 -1.28244,0.59778 -2.14163,0.81469 -0.66326,0.16745 -0.69241,0.14496 -0.0787,-0.0607 z"
     id="path96" />
  <path
     style="fill:#f9f9f9;stroke-width:0.0784359"
     d="m 868.26869,131.88817 c 0.23341,-1.42143 1.0791,-4.10615 1.80524,-5.7309 2.37637,-5.31712 6.72893,-9.21272 12.1638,-10.88675 2.80049,-0.8626 5.85521,-1.15074 9.95332,-0.93886 4.19817,0.21705 7.31492,0.85041 9.45419,1.92119 2.25082,1.12662 3.63745,2.87621 4.15327,5.24044 0.24387,1.11774 0.4693,4.81351 0.471,7.72155 l 7.9e-4,1.35302 h -0.93973 c -1.08012,0 -0.97513,0.0931 -1.06126,-0.94123 -0.12724,-1.52815 -0.65242,-3.52889 -1.2849,-4.89504 -0.38341,-0.82815 -0.37137,-1.00275 0.0159,-0.23094 0.37586,0.74902 0.64415,1.52175 1.00359,2.89056 0.49221,1.87442 1.00839,2.78447 1.57935,2.78447 0.21759,0 0.28906,-0.0417 0.36999,-0.2157 0.16744,-0.36005 0.1841,-1.45992 0.0496,-3.2747 -0.38981,-5.26014 -0.96334,-7.21904 -2.54133,-8.67998 -0.64281,-0.59512 -1.28237,-1.00603 -2.48566,-1.59699 -2.78183,-1.36622 -4.3892,-1.57535 -11.55524,-1.50345 -2.31571,0.0232 -4.5104,0.0801 -4.87709,0.12645 -1.7662,0.22305 -2.89536,0.57685 -4.63265,1.45154 -2.01244,1.01322 -3.61012,2.16456 -5.17446,3.72887 -2.82502,2.82499 -4.73625,6.33154 -5.87968,10.78754 -0.26569,1.03541 -0.32241,1.17967 -0.47289,1.20265 -0.16029,0.0245 -0.16749,0.005 -0.11518,-0.31374 z"
     id="path98" />
  <path
     style="fill:#f9f9f9;stroke-width:0.0784359"
     d="m 957.96215,131.20002 c -1.77246,-7.4312 -6.3624,-12.74419 -13.33667,-15.43756 -1.80815,-0.69828 -2.81086,-0.82662 -6.84297,-0.87583 -5.37351,-0.0656 -6.20543,0.0706 -8.96187,1.46708 -2.37184,1.20162 -3.71346,2.07552 -5.35251,3.48649 -3.34752,2.8817 -5.76996,7.17915 -6.69006,11.8683 -0.0904,0.46053 -0.10939,0.49023 -0.31395,0.49023 -0.1668,0 -0.21058,-0.0321 -0.18706,-0.13726 0.85311,-3.81361 2.25608,-7.01909 4.22459,-9.65228 2.81627,-3.76721 7.12671,-6.56688 11.66792,-7.57843 4.70875,-1.04887 9.88483,-0.62834 14.00652,1.13797 2.86443,1.22752 5.81652,3.47022 7.73525,5.87645 1.56886,1.96747 2.84255,4.34733 3.75709,7.02002 0.33045,0.96572 0.95672,3.24685 0.90399,3.29269 -0.0135,0.0117 -0.0984,0.044 -0.18863,0.0717 -0.15329,0.047 -0.18102,-0.0207 -0.42164,-1.02953 z"
     id="path102" />
  <path
     style="fill:#f9f9f9;stroke-width:0.0784359"
     d="m 980.05751,133.8851 c -0.13389,-20.39862 -0.36322,-29.74104 -0.79825,-32.51826 -0.11355,-0.72491 -0.26077,-1.0724 -0.80109,-1.890904 -1.23146,-1.865462 -3.40712,-2.574247 -9.08615,-2.960082 -0.79674,-0.05413 -0.42805,-0.06428 1.68637,-0.04642 2.35708,0.01991 2.80214,0.04325 3.45119,0.180974 1.66715,0.353766 2.59887,0.801752 3.45201,1.65978 1.09515,1.101418 1.63601,2.519302 2.01597,5.284912 0.11872,0.86411 0.13367,2.62259 0.15717,18.48539 0.0143,9.64174 0.0163,18.30695 0.004,19.25603 -0.0118,0.94907 -0.0486,-2.40407 -0.0817,-7.45142 z"
     id="path104" />
  <path
     style="fill:#f9f9f9;stroke-width:0.0784359"
     d="m 970.87176,103.33656 c -0.14803,-0.92573 -0.83559,-2.55541 -1.30249,-3.08717 -0.43335,-0.493569 -0.24453,-0.384331 0.58711,0.33965 l 0.82358,0.71697 v 1.17101 c 0,0.64407 -0.0131,1.17102 -0.0292,1.17102 -0.0161,0 -0.0516,-0.14016 -0.079,-0.31148 z"
     id="path106" />
  <path
     style="fill:#f9f9f9;stroke-width:0.0784359"
     d="m 962.43044,97.373169 v -0.941232 l 0.37257,1.22e-4 0.37257,1.22e-4 -0.27452,0.137141 c -0.35258,0.176134 -0.47249,0.570331 -0.30631,1.006967 0.14193,0.372904 0.51601,0.573086 1.22507,0.655571 0.49525,0.05761 0.46542,0.06264 -0.42854,0.07223 l -0.96084,0.01031 z"
     id="path108" />
  <path
     style="fill:#f9f9f9;stroke-width:0.0277313"
     d="m 925.29461,133.16438 c 0.0574,-2.14902 0.28659,-3.4859 0.83677,-4.88071 0.36729,-0.93116 1.31561,-2.8914 1.98553,-4.10423 1.89052,-3.42261 3.73337,-4.99081 6.8546,-5.83301 0.92653,-0.25001 1.38884,-0.30902 2.41262,-0.30796 0.90083,9.3e-4 1.1825,0.0294 1.91381,0.19318 2.15535,0.48283 4.22448,1.7968 5.90956,3.75278 0.88454,1.02673 1.61169,2.13876 2.26757,3.46778 0.56378,1.14239 0.93853,2.12981 1.28081,3.37473 l 0.12287,0.44689 -0.002,0.51018 -0.002,0.51018 -0.11936,-0.42983 c -0.27339,-0.98455 -0.71825,-2.33484 -1.02401,-3.10821 -1.02705,-2.5978 -2.39775,-4.62408 -4.20543,-6.21682 -1.46787,-1.29333 -3.03749,-2.02395 -4.90844,-2.28476 -0.50534,-0.0704 -1.86507,-0.0709 -2.38489,-7.1e-4 -2.14342,0.28918 -3.97674,1.21828 -5.58859,2.8322 -1.58662,1.58867 -2.88215,3.70211 -3.85963,6.29634 -0.60587,1.608 -1.08271,3.53466 -1.41041,5.69879 l -0.0945,0.62395 z"
     id="path110" />
  <path
     style="fill:#f9f9f9;stroke-width:0.0277313"
     d="m 877.3459,132.23183 c 0.008,-0.0438 0.0632,-0.37914 0.12341,-0.74519 0.38385,-2.33206 0.87536,-3.9022 1.80127,-5.75425 1.39732,-2.79497 3.2866,-4.88992 5.59048,-6.19906 1.57594,-0.89551 3.43992,-1.41813 5.68491,-1.59394 0.50693,-0.0397 1.78473,-0.0395 2.2601,4.1e-4 2.36693,0.19855 4.42424,0.87598 6.21181,2.04543 1.42183,0.93017 2.63441,2.17273 3.50382,3.59041 0.24218,0.3949 0.26642,0.44585 0.19999,0.42035 -0.0388,-0.0149 -0.043,-0.005 -0.0264,0.0621 0.0108,0.0439 0.0426,0.13384 0.0707,0.19993 0.0949,0.22329 0.0508,0.18642 -0.0865,-0.0723 -1.17739,-2.21795 -3.28656,-4.06256 -5.75529,-5.03338 -1.5941,-0.62688 -3.16785,-0.91792 -5.15802,-0.95392 -2.17568,-0.0393 -3.88155,0.24406 -5.62945,0.93523 -0.4144,0.16387 -1.34657,0.636 -1.71934,0.87082 -1.72402,1.08602 -3.13095,2.58601 -4.24578,4.52661 -1.16217,2.02299 -2.05324,4.51411 -2.54753,7.12199 -0.13668,0.72116 -0.12082,0.66249 -0.16839,0.62301 -0.0317,-0.0263 -0.0494,-0.0261 -0.082,9.3e-4 -0.0357,0.0296 -0.0396,0.0232 -0.0277,-0.0451 z"
     id="path112" />
  <path
     style="fill:#f9f9f9;stroke-width:0.0277313"
     d="m 500.52116,132.25565 c 0,-0.004 -0.0312,-0.31608 -0.0694,-0.69328 -0.39988,-3.95173 -1.31378,-6.89819 -2.89205,-9.32412 -0.86101,-1.32343 -1.91232,-2.47744 -3.35226,-3.67972 -2.27233,-1.89729 -4.40464,-2.89317 -7.34396,-3.42996 -2.36508,-0.43193 -5.05951,-0.56911 -7.11307,-0.36215 -4.04736,0.40788 -7.6174,1.97367 -10.44777,4.5823 l -0.31198,0.28753 1.3e-4,-0.31435 1.2e-4,-0.31435 0.33959,-0.29592 c 3.12534,-2.72348 6.60599,-4.15125 10.80342,-4.4316 0.93627,-0.0625 2.79606,-0.03 3.98416,0.0698 5.16175,0.4333 9.19041,2.20269 11.93726,5.24282 0.92663,1.02558 1.47521,1.76013 2.12076,2.83975 1.27203,2.12735 2.17014,4.72729 2.66306,7.7093 0.0981,0.59339 0.2211,1.51818 0.25287,1.90098 l 0.0185,0.22324 -0.2947,-0.001 c -0.16209,-7.6e-4 -0.2947,-0.005 -0.2947,-0.009 z"
     id="path114" />
  <path
     style="fill:#f9f9f9;stroke-width:0.0277313"
     d="m 470.47538,136.4436 c 0.007,-0.0419 0.11382,-0.96851 0.23635,-2.05904 0.29878,-2.65907 0.39256,-3.31794 0.65148,-4.577 1.20391,-5.85423 3.86329,-9.89873 7.44434,-11.32166 1.0924,-0.43407 2.34321,-0.63046 3.48028,-0.54644 1.98415,0.1466 3.69459,0.7939 5.04371,1.90874 2.445,2.02041 3.87913,5.60413 4.36894,10.91742 0.0309,0.33555 0.13109,1.69577 0.22257,3.02271 0.0915,1.32695 0.17352,2.48438 0.1823,2.57208 l 0.016,0.15946 h -10.82976 -10.82975 z m 21.40941,-1.16471 c -0.0788,-3.43884 -0.35265,-5.87493 -0.9173,-8.15993 -1.2914,-5.22591 -3.84435,-8.13116 -7.72293,-8.78865 -0.61657,-0.10452 -0.91665,-0.12657 -1.71934,-0.12632 -0.86325,2.7e-4 -1.11656,0.0264 -1.74145,0.17973 -0.7734,0.18975 -1.5778,0.54453 -2.25194,0.99321 -1.17999,0.78534 -2.34173,1.99608 -3.25109,3.38821 -1.23147,1.88526 -2.09465,4.08643 -2.63915,6.73008 -0.38304,1.8597 -0.62493,4.25422 -0.62627,6.19964 l -2.6e-4,0.38131 h 10.444 10.44399 z"
     id="path116" />
  <path
     style="fill:#f9f9f9;stroke-width:0.0277313"
     d="m 510.64311,132.24333 c -1.1e-4,-0.0634 0.24715,-1.19761 0.36351,-1.66749 1.48101,-5.98037 4.53439,-10.40096 9.19275,-13.30899 2.40859,-1.50358 5.24567,-2.46149 8.38955,-2.83264 1.33161,-0.15721 1.58197,-0.16873 3.65684,-0.16833 1.21897,2.3e-4 2.15155,0.0134 2.53741,0.0357 3.25369,0.18845 5.44841,0.53306 7.49438,1.17676 l 0.45063,0.14177 v 0.31374 0.31374 l -0.15945,-0.0727 c -0.97143,-0.44321 -1.55436,-0.66158 -2.21157,-0.82847 -0.81818,-0.20778 -1.7608,-0.33515 -2.96725,-0.40098 -1.58591,-0.0865 -6.16663,-0.10253 -8.02821,-0.028 -3.04535,0.12185 -4.32689,0.43879 -6.89123,1.70431 -1.36405,0.67317 -2.3693,1.29932 -3.51404,2.18884 -3.99265,3.10247 -6.79741,7.81106 -7.92274,13.30061 l -0.0314,0.15305 -0.17958,-5.3e-4 c -0.0988,-2.8e-4 -0.1796,-0.009 -0.17962,-0.0203 z"
     id="path118" />
  <path
     style="fill:#f9f9f9;stroke-width:0.0277313"
     d="m 519.7944,132.2889 c 0,-0.003 0.0427,-0.23404 0.0949,-0.51439 0.7254,-3.89561 1.98369,-7.01133 3.6933,-9.14514 0.51169,-0.63866 1.38089,-1.4979 2.0797,-2.05586 1.62029,-1.29373 3.33545,-2.01109 5.53234,-2.31389 1.32083,-0.18205 3.3665,-0.20473 4.82255,-0.0535 2.6268,0.27289 4.76004,1.0454 6.44753,2.33485 l 0.24958,0.19071 0.008,0.21526 0.008,0.21526 -0.0775,-0.0582 c -0.0426,-0.032 -0.17713,-0.13963 -0.29893,-0.23913 -1.20721,-0.98628 -2.80976,-1.77862 -4.45127,-2.20081 -1.38026,-0.355 -2.70072,-0.49669 -4.33995,-0.46569 -0.8656,0.0164 -1.37637,0.0561 -2.06598,0.16072 -2.94992,0.4475 -5.33295,1.73247 -7.24549,3.90687 -1.65209,1.8783 -3.01545,4.68795 -3.81487,7.86182 -0.14275,0.56675 -0.32278,1.39708 -0.40677,1.87609 l -0.0469,0.26767 -0.0943,0.011 c -0.0519,0.006 -0.0943,0.009 -0.0943,0.006 z"
     id="path120" />
  <path
     style="fill:#f9f9f9;stroke-width:0.0277313"
     d="m 546.79841,130.45995 c 0,-0.1837 -0.10357,-1.16078 -0.16895,-1.59392 -0.17643,-1.16881 -0.44424,-2.2304 -0.80669,-3.19765 -0.65629,-1.75139 -1.6014,-3.15888 -2.90931,-4.33266 l -0.15508,-0.13918 -0.0196,-0.21681 c -0.0129,-0.14233 -0.01,-0.21346 0.008,-0.20709 0.0725,0.0251 0.70331,0.62329 0.97526,0.9248 0.86514,0.95916 1.51688,1.99965 2.07877,3.31871 0.28656,0.6727 0.51315,1.37313 0.8552,2.64357 0.3645,1.35379 0.89176,2.52864 1.16715,2.60066 0.32995,0.0863 0.56419,-1.27627 0.60202,-3.50193 0.051,-2.99799 -0.31718,-5.0888 -1.17333,-6.66373 -0.80215,-1.47558 -2.08056,-2.6097 -4.07954,-3.61908 l -0.4228,-0.21348 -1.1e-4,-0.31495 c -9e-5,-0.28876 0.004,-0.31335 0.0484,-0.29585 0.0267,0.0105 0.17332,0.067 0.32584,0.12543 0.43744,0.16773 0.71428,0.29163 1.14886,0.51418 0.78548,0.40226 1.37075,0.81092 1.92308,1.34278 1.18873,1.14467 1.89352,2.52585 2.17976,4.27172 0.22762,1.38832 0.34452,3.5235 0.3822,6.98136 l 0.0185,1.69854 h -0.98901 -0.989 z"
     id="path122" />
  <path
     style="fill:#f9f9f9;stroke-width:0.0277313"
     d="m 569.15096,127.80531 10e-4,-4.44394 1.20902,-0.87354 c 1.57924,-1.14103 1.90588,-1.36938 2.42152,-1.69287 1.13896,-0.71456 2.23352,-1.23957 3.40904,-1.63518 1.03411,-0.34801 1.90565,-0.53715 2.95529,-0.64134 0.43211,-0.0429 1.54411,-0.042 1.96892,0.002 3.09156,0.31695 5.6522,1.91073 7.42707,4.62273 0.71833,1.09761 1.38805,2.55875 1.65094,3.6019 0.25146,0.99779 0.42648,2.56808 0.51618,4.63113 0.009,0.19828 0.0229,0.47594 0.0316,0.61702 l 0.016,0.25652 h -0.11351 -0.11351 l -6e-5,-0.39517 c -5e-5,-0.50753 -0.0441,-1.42283 -0.0992,-2.05905 -0.24733,-2.86003 -1.01582,-5.20482 -2.252,-6.87126 -0.59579,-0.80315 -1.59323,-1.77712 -2.42869,-2.37153 -1.42261,-1.01217 -3.02739,-1.60781 -4.88446,-1.81297 -0.5221,-0.0577 -2.03652,-0.0494 -2.52355,0.0138 -3.05716,0.3968 -5.84406,2.04361 -8.57818,5.06891 l -0.11558,0.1279 v 4.14966 4.14966 h -0.24958 -0.24958 z"
     id="path124" />
  <path
     style="fill:#f9f9f9;stroke-width:0.0277313"
     d="m 569.42989,119.51395 c -0.0566,-0.14885 -0.12148,-0.8842 -0.16825,-1.90683 -0.062,-1.35489 -0.0872,-2.70429 -0.11189,-5.97609 -0.0303,-4.02691 -0.0727,-5.46262 -0.20884,-7.08427 -0.0224,-0.26633 -0.0407,-0.51322 -0.0407,-0.54867 0,-0.0637 0.003,-0.0644 0.28424,-0.0565 l 0.28425,0.008 0.0461,0.55463 c 0.11534,1.38701 0.1153,1.38463 0.12616,8.1322 0.006,3.60333 0.018,6.55152 0.0272,6.55152 0.009,0 0.14898,-0.12233 0.31069,-0.27183 1.42076,-1.31351 3.0121,-2.31059 5.13489,-3.21735 1.94872,-0.83241 3.88496,-1.27771 6.18233,-1.42183 0.67371,-0.0423 2.6697,-0.0175 3.32775,0.0413 2.45995,0.21968 4.33445,0.67746 6.3293,1.54568 l 0.21454,0.0934 3.7e-4,0.28425 c 2e-4,0.15633 -0.004,0.28424 -0.009,0.28424 -0.005,0 -0.17697,-0.0793 -0.3813,-0.17624 -1.16759,-0.55391 -2.70937,-1.05132 -4.13127,-1.33284 -2.87544,-0.5693 -6.02663,-0.49408 -8.80251,0.21012 -1.58645,0.40246 -2.99486,0.96166 -4.28843,1.70269 -0.46762,0.26787 -0.86607,0.52898 -1.53402,1.00523 -1.04026,0.7417 -2.17688,1.47953 -2.46405,1.59952 -0.10037,0.0419 -0.10381,0.0414 -0.1272,-0.0201 z"
     id="path126" />
  <path
     style="fill:#f9f9f9;stroke-width:0.0138656"
     d="m 560.74725,120.40105 v -8.23619 h 0.0536 0.0536 l 0.009,0.33624 c 0.0458,1.70811 0.0826,6.44135 0.0995,12.79799 l 0.009,3.33816 h -0.11236 -0.11237 z"
     id="path128" />
  <path
     style="fill:#f9f9f9;stroke-width:0.0277313"
     d="m 560.74725,130.44671 v -1.80253 h 0.11092 0.11093 v 1.80253 1.80254 h -0.11093 -0.11092 z"
     id="path130" />
  <path
     style="fill:#f9f9f9;stroke-width:0.0138656"
     d="m 560.43033,104.07124 c -0.17563,-1.04424 -0.48024,-2.05595 -0.84655,-2.81167 -0.48873,-1.0083 -1.04047,-1.608833 -1.94937,-2.121777 l -0.0832,-0.04695 0.32462,-4.2e-4 0.32462,-4.2e-4 0.0636,0.03701 c 0.11716,0.06816 0.38141,0.249207 0.49192,0.337034 0.81896,0.650853 1.26224,1.672113 1.56134,3.597043 0.0676,0.43525 0.16365,1.2008 0.15062,1.2008 -0.003,0 -0.02,-0.0858 -0.0376,-0.19065 z"
     id="path132" />
  <path
     style="fill:#f9f9f9;stroke-width:0.0138656"
     d="m 560.74967,110.33851 c 10e-4,-1.00474 0.004,-1.80184 0.007,-1.77134 0.0126,0.16816 0.0522,1.50394 0.0959,3.2411 l 0.009,0.35704 h -0.057 -0.057 z"
     id="path134" />
  <path
     style="fill:#f9f9f9;stroke-width:0.0138656"
     d="m 557.40184,99.02229 c -0.61197,-0.307222 -1.50166,-0.53867 -2.41577,-0.628457 -0.46209,-0.04539 -0.65793,-0.05144 -1.90306,-0.05878 l -1.27911,-0.0075 v -0.982797 -0.982797 l 1.10579,0.0021 c 0.77538,0.0015 1.02663,0.0054 0.84088,0.01291 -0.7662,0.03118 -1.19349,0.132816 -1.39265,0.33126 -0.12805,0.127583 -0.17238,0.260409 -0.17137,0.513366 7.8e-4,0.193906 0.0205,0.293552 0.0851,0.429835 0.14905,0.314487 0.53272,0.493493 1.21693,0.567771 0.20023,0.02174 0.65286,0.04178 0.95003,0.04207 1.0058,9.76e-4 2.28391,0.210692 3.10092,0.508807 0.16177,0.05903 0.52153,0.230124 0.60117,0.285909 0.0303,0.0212 0.0124,0.02283 -0.28933,0.02656 l -0.32159,0.004 z"
     id="path136" />
  <path
     style="fill:#f9f9f9;stroke-width:0.0138656"
     d="m 568.88888,104.02962 c -10e-4,-0.0267 -0.0214,-0.217 -0.0445,-0.4229 -0.33784,-3.00937 -1.00724,-4.667734 -2.2666,-5.615246 -0.25854,-0.194523 -0.54231,-0.365653 -0.74181,-0.447363 -0.86448,-0.354063 -3.6517,-0.763537 -6.57925,-0.966564 -1.07451,-0.07452 -3.14751,-0.176358 -4.08343,-0.200607 -0.24116,-0.0062 0.8856,-0.01145 2.74539,-0.01267 1.82645,-0.0012 3.32956,0.0037 3.57041,0.01157 1.81846,0.05964 3.17034,0.299876 4.22902,0.751534 0.27314,0.11653 0.79,0.38897 1.00069,0.527478 0.52777,0.346953 0.93599,0.754093 1.31398,1.31049 0.66246,0.975144 1.07049,2.223218 1.33153,4.072898 0.0373,0.26406 0.10414,0.82528 0.10434,0.87569 1.4e-4,0.0298 -7.6e-4,0.0299 -0.24741,0.0222 -0.31423,-0.01 -0.31793,-0.009 -0.32464,0.0762 -0.004,0.0513 -0.006,0.0551 -0.008,0.0173 z"
     id="path138" />
  <path
     style="fill:#f9f9f9;stroke-width:0.039218"
     d="m 364.83928,103.77198 c -0.13507,-0.77121 -0.45442,-1.7866 -0.77251,-2.45623 -0.30618,-0.64457 -0.53655,-0.98924 -0.93715,-1.402144 -0.18589,-0.191601 -0.31654,-0.34161 -0.29032,-0.333353 0.0262,0.0083 0.48757,0.39322 1.02524,0.855477 l 0.97759,0.84045 0.0269,0.98318 c 0.0148,0.54075 0.0211,1.14201 0.014,1.33614 -0.0116,0.31645 -0.0161,0.33471 -0.0438,0.17648 z"
     id="path140" />
  <path
     style="fill:#f9f9f9;stroke-width:0.039218"
     d="m 362.15623,99.168187 c -0.50966,-0.303557 -1.25775,-0.557612 -2.03141,-0.689884 -0.6759,-0.115557 -1.38968,-0.157621 -2.67466,-0.157621 h -1.18831 v -0.980449 -0.980449 l 0.75494,0.0052 c 0.6416,0.0044 0.70863,0.0101 0.44642,0.03777 -0.56497,0.05961 -0.86298,0.18756 -0.98121,0.421289 -0.15341,0.30329 -0.101,0.74453 0.11711,0.985952 0.27663,0.306195 0.78498,0.42102 2.01161,0.45437 1.22821,0.03339 1.7559,0.106022 2.45206,0.337495 0.35381,0.117645 1.16854,0.514377 1.35629,0.66045 0.16728,0.130145 0.033,0.08204 -0.26284,-0.09414 z"
     id="path142" />
  <path
     style="fill:#f9f9f9;stroke-width:0.0554626"
     d="m 462.39224,132.23784 c -0.21951,-0.021 -0.22474,0.059 0.0841,-1.28507 1.06892,-4.65169 3.35068,-8.92363 6.18861,-11.58638 l 0.31891,-0.29922 v 0.26035 c 0,0.25428 -0.0144,0.27605 -0.61822,0.93426 -0.69624,0.75894 -1.09508,1.24897 -1.65149,2.02908 -1.61316,2.26171 -3.1011,5.69827 -3.88223,8.96644 -0.2563,1.0723 -0.22439,1.00116 -0.43968,0.98054 z"
     id="path144" />
  <path
     style="fill:#f9f9f9;stroke-width:0.0554626"
     d="m 597.91161,124.01943 c -1.46545,-2.85736 -2.02403,-3.79384 -2.80166,-4.69708 -0.69349,-0.80552 -1.92153,-1.72243 -3.2916,-2.45766 l -0.62,-0.33271 -10e-4,-0.26208 c -10e-4,-0.25955 6e-5,-0.26154 0.14301,-0.20719 0.25359,0.0964 1.25249,0.66431 1.79685,1.02156 2.38146,1.56286 3.87331,3.4091 4.90931,6.07549 0.24343,0.62652 0.70377,2.20312 0.67919,2.3261 -0.01,0.0476 -0.3757,-0.61231 -0.81376,-1.46643 z"
     id="path146" />
  <path
     style="fill:#f9f9f9;stroke-width:0.0554626"
     d="m 599.0159,130.62842 c 0,-0.89496 -0.0118,-2.16159 -0.0263,-2.81473 -0.0294,-1.32666 0.009,-1.28666 0.19192,0.19904 0.14757,1.19953 0.22145,2.32031 0.22211,3.36936 l 5.5e-4,0.87353 h -0.19412 -0.19412 z"
     id="path148" />
  <path
     style="fill:#f9f9f9;stroke-width:0.039218"
     d="m 641.50127,121.1503 c 0.003,-6.09889 0.0194,-10.71827 0.0356,-10.26531 0.0628,1.75205 0.13605,7.89895 0.21593,18.1089 l 0.0254,3.24529 h -0.14151 -0.1415 z"
     id="path150" />
  <path
     style="fill:#f9f9f9;stroke-width:0.039218"
     d="m 655.57443,131.82256 c -1.24425,-0.11106 -2.50451,-0.33078 -4.88264,-0.85127 l -0.58827,-0.12875 -0.01,-10.38076 -0.01,-10.38075 h 0.15695 0.15694 v 10.27186 10.27186 l 0.51964,0.12383 c 1.51266,0.36047 3.04863,0.61331 4.67675,0.76985 0.88879,0.0855 3.08778,0.0991 3.70609,0.023 2.14545,-0.26412 4.47384,-1.00614 6.21605,-1.98095 1.93072,-1.08029 3.65075,-2.66967 5.09867,-4.71142 1.37797,-1.9431 2.14047,-3.95879 2.48584,-6.57144 0.0912,-0.69009 0.10449,-0.47994 0.0237,0.37608 -0.16862,1.78748 -0.46312,3.05512 -0.9528,4.10113 -0.98931,2.11328 -2.95085,4.42607 -5.14949,6.07156 -1.44147,1.07883 -2.74076,1.68131 -4.93753,2.28956 -1.84524,0.51091 -3.14809,0.68973 -5.17677,0.71054 -0.63631,0.007 -1.23635,0.005 -1.33341,-0.004 z"
     id="path152" />
  <path
     style="fill:#f9f9f9;stroke-width:0.039218"
     d="m 673.25772,131.92229 c 1.45995,-0.75453 2.94967,-1.74224 4.25916,-2.82392 0.57051,-0.47125 1.71011,-1.6319 2.11458,-2.15362 1.86502,-2.40567 2.71399,-5.11225 2.96465,-9.45153 0.0829,-1.43455 0.0442,-3.7791 -0.0815,-4.94146 -0.0831,-0.76884 -0.27178,-1.96368 -0.37612,-2.38249 -0.0206,-0.0826 -0.01,-0.0882 0.17296,-0.0882 h 0.19495 l 0.0848,0.39813 c 0.32819,1.54128 0.49901,3.15988 0.5395,5.11199 0.0865,4.17196 -0.67668,7.63551 -2.26458,10.27697 -0.56715,0.94345 -1.09296,1.61729 -1.93736,2.48279 -1.47513,1.51199 -3.03403,2.72084 -4.76498,3.69501 l -0.37258,0.20967 -0.59227,0.002 -0.59228,0.002 z"
     id="path154" />
  <path
     style="fill:#f9f9f9;stroke-width:0.039218"
     d="m 641.16795,104.02826 c -0.0963,-0.56895 -0.30495,-1.40268 -0.47568,-1.90035 -0.19335,-0.56361 -0.60724,-1.38936 -0.87989,-1.75545 -0.81684,-1.096807 -2.01761,-1.709233 -3.86655,-1.972048 -0.17256,-0.02453 -1.00643,-0.05377 -1.85305,-0.06498 l -1.5393,-0.02038 v -0.976093 -0.976094 l 2.08835,0.0062 c 1.70973,0.005 1.94137,0.01151 1.27762,0.03571 -1.70666,0.06223 -2.52226,0.221196 -2.72536,0.531198 -0.0907,0.138426 -0.0928,0.531743 -0.004,0.702339 0.13321,0.255273 0.38994,0.426585 0.78394,0.523108 0.27185,0.0666 1.02776,0.121838 1.67746,0.122585 1.37204,0.0016 2.32829,0.187695 3.04592,0.592842 0.6476,0.36561 1.34758,1.213563 1.85823,2.251043 0.25027,0.50847 0.38562,0.95385 0.50655,1.66677 0.0882,0.52009 0.20972,1.55157 0.1898,1.61131 -0.007,0.0223 -0.0453,-0.14767 -0.0842,-0.37767 z"
     id="path156" />
  <path
     style="fill:#f9f9f9;stroke-width:0.039218"
     d="m 650.08451,108.54986 c 10e-4,-2.55518 0.0984,-4.75002 0.2511,-5.65859 0.0458,-0.27259 0.0531,0.16309 0.0573,3.42316 l 0.005,3.73551 h -0.15687 -0.15687 z"
     id="path158" />
  <path
     style="fill:#f9f9f9;stroke-width:0.039218"
     d="m 651.34925,100.46468 c 0.38071,-0.33646 1.00398,-0.538875 1.87407,-0.608646 0.58831,-0.04717 2.37364,-0.05008 2.70407,-0.0044 l 0.2157,0.02982 -0.2157,0.0059 c -0.75851,0.02063 -2.82953,0.319596 -4.12906,0.596076 -0.29734,0.0633 -0.55324,0.11429 -0.56866,0.11339 -0.0154,-9e-4 0.0384,-0.0603 0.11958,-0.1321 z"
     id="path160" />
  <path
     style="fill:#f9f9f9;stroke-width:0.039218"
     d="m 673.07098,112.94735 c -0.0202,-0.38959 -0.33685,-1.84275 -0.55864,-2.56405 -0.86879,-2.8255 -2.98928,-5.70385 -5.55782,-7.54418 -1.33496,-0.95649 -3.39571,-1.91501 -5.28264,-2.45712 -0.49347,-0.14178 -1.41297,-0.34996 -1.88152,-0.425987 -0.28625,-0.04645 0.84852,0.02125 1.26356,0.07538 1.46664,0.1913 2.61505,0.55908 3.84965,1.23288 3.5975,1.96337 6.89238,5.70473 7.71226,8.75734 0.21137,0.78699 0.52283,2.70835 0.47711,2.94319 -0.0142,0.0731 -0.0174,0.0706 -0.022,-0.0174 z"
     id="path162" />
  <path
     style="fill:#f9f9f9;stroke-width:0.039218"
     d="m 682.08278,109.91305 c -0.69041,-2.70346 -1.64978,-4.57268 -3.24089,-6.31446 -1.22506,-1.34108 -2.67793,-2.3735 -4.85463,-3.44972 -2.88461,-1.426242 -4.89914,-2.102529 -7.71073,-2.588521 -3.90818,-0.675541 -9.47097,-0.938664 -24.78136,-1.172173 -0.3559,-0.0054 3.69434,-0.0072 9.00053,-0.004 6.6986,0.0041 9.82744,0.01928 10.23589,0.04981 1.26339,0.09445 1.6773,0.132279 2.49034,0.227617 2.8798,0.337688 5.71335,1.018706 8.32141,1.999977 1.62315,0.610702 3.4408,1.45744 4.56169,2.12504 3.08676,1.83846 5.16314,4.71995 6.23483,8.65236 0.0759,0.27869 0.1381,0.5284 0.1381,0.5549 0,0.0289 -0.0709,0.0538 -0.17752,0.0623 l -0.17751,0.0141 z"
     id="path164" />
  <path
     style="fill:#f9f9f9;stroke-width:0.039218"
     d="m 693.20878,122.14869 c -0.0534,-0.30298 -0.31065,-1.13937 -0.48221,-1.56754 -0.71484,-1.78394 -1.80371,-2.7105 -3.71347,-3.15992 -0.62224,-0.14643 -1.15508,-0.19945 -2.23097,-0.222 l -1.04908,-0.022 v -0.97526 -0.97526 l 4.16691,7.5e-4 c 4.12281,7.4e-4 5.09862,0.0228 6.0872,0.13745 0.68587,0.0796 1.56236,0.26025 2.08292,0.42941 0.5072,0.16482 1.40107,0.59766 1.83764,0.88984 0.85946,0.57522 1.57778,1.5009 2.01882,2.60161 l 0.15714,0.39218 0.26913,0.0114 0.26914,0.0114 0.19104,-0.24317 c 0.29644,-0.37732 1.09014,-1.18236 1.58316,-1.60578 0.94974,-0.81565 2.0659,-1.55252 3.20092,-2.11318 0.95797,-0.47321 0.88856,-0.4638 0.87438,-0.11864 l -0.0116,0.282 -0.47061,0.20483 c -1.2874,0.56031 -2.50313,1.26783 -3.37529,1.9643 -0.19553,0.15614 -0.59261,0.53363 -0.8824,0.83887 -0.63685,0.6708 -0.95744,0.94808 -1.28147,1.10835 -0.52566,0.26001 -0.80963,0.0289 -1.16989,-0.9522 -0.0982,-0.26744 -0.23828,-0.59214 -0.31129,-0.72156 -0.85729,-1.51964 -3.03436,-2.27689 -7.15696,-2.48939 -0.9763,-0.0503 -3.66721,-0.0506 -4.68655,-5.3e-4 -2.25289,0.11071 -3.31969,0.31474 -3.2836,0.62798 0.0392,0.34007 0.76215,0.55528 2.08758,0.62144 1.12079,0.0559 2.1541,0.29623 2.91624,0.67814 1.00301,0.50261 1.65834,1.4142 2.08179,2.89583 0.14777,0.51705 0.35137,1.50173 0.32605,1.57691 -0.009,0.0279 -0.0295,-0.0199 -0.0447,-0.10623 z"
     id="path166" />
  <path
     style="fill:#f9f9f9;stroke-width:0.039218"
     d="m 702.18875,130.06091 10e-4,-5.32384 1.27106,-1.11071 c 1.46486,-1.28006 1.83041,-1.58197 2.31669,-1.91334 1.07905,-0.73531 2.13232,-1.10761 4.60673,-1.62832 0.78605,-0.16542 0.82013,-0.16914 1.5295,-0.16676 1.49105,0.005 3.78269,0.44872 5.55351,1.07529 0.85306,0.30184 1.24966,0.51599 1.69338,0.91436 0.33886,0.30422 0.52097,0.39186 0.8124,0.39097 0.28544,-8.7e-4 0.56894,-0.11043 1.03631,-0.40047 0.412,-0.25569 2.50905,-1.7396 2.51128,-1.77703 0.002,-0.0398 -1.45573,-2.07925 -1.71804,-2.40299 -0.56132,-0.69277 -1.40436,-1.42214 -2.17604,-1.88264 -1.97997,-1.18156 -4.83198,-1.57322 -7.55593,-1.03764 -1.04163,0.20481 -2.52685,0.65595 -3.52962,1.07215 -0.0494,0.0205 -0.0577,-0.0205 -0.0519,-0.2572 0.005,-0.19155 0.0241,-0.29122 0.0606,-0.31164 0.11187,-0.0626 1.12698,-0.3967 1.54048,-0.50701 1.49155,-0.3979 3.12776,-0.5785 4.84342,-0.53461 0.99991,0.0256 1.45153,0.0639 2.17472,0.18428 1.26994,0.21148 2.27884,0.57988 3.12222,1.14011 0.45167,0.30002 1.43279,1.26743 1.9049,1.87827 0.58233,0.75344 1.73986,2.54209 1.73986,2.68846 0,0.0259 -0.87571,0.70388 -1.94601,1.50667 -1.58802,1.19111 -1.95475,1.44993 -1.99349,1.40692 -0.0261,-0.029 -0.14247,-0.1643 -0.25857,-0.30069 -0.44857,-0.52694 -1.16015,-1.04962 -1.93087,-1.41828 -1.11839,-0.53495 -2.4794,-0.91267 -3.91086,-1.08536 -0.71681,-0.0865 -2.59588,-0.0983 -3.21588,-0.0202 -1.67165,0.21051 -3.13818,0.73129 -4.68047,1.6621 -1.26481,0.76334 -2.34116,1.7624 -3.15635,2.92973 l -0.20286,0.29048 v 5.1314 5.1314 h -0.19609 -0.19609 z"
     id="path168" />
  <path
     style="fill:#f9f9f9;stroke-width:0.039218"
     d="m 728.95152,135.21808 c 0.0121,-0.0917 0.05,-0.3961 0.0842,-0.67651 0.46131,-3.7808 1.67677,-7.42881 3.4714,-10.41885 1.77257,-2.95329 4.08993,-5.23849 7.19261,-7.09279 0.62405,-0.37296 1.98332,-1.03896 2.66682,-1.30667 1.94845,-0.76315 3.82658,-1.18676 6.23566,-1.40645 0.71318,-0.065 3.31104,-0.0651 4.01984,-4e-5 3.83999,0.35226 6.73581,1.30813 9.65663,3.18753 2.08456,1.34131 3.85747,2.98699 5.29685,4.91674 2.44284,3.27506 4.09086,7.65478 4.63455,12.31662 0.0829,0.71087 0.0999,0.64709 -0.17249,0.64709 -0.26643,0 -0.25681,0.0134 -0.29647,-0.41178 -0.0871,-0.9335 -0.39733,-2.67749 -0.66854,-3.75814 -0.92764,-3.69626 -2.47235,-6.808 -4.72495,-9.51811 -0.51067,-0.61439 -1.91378,-2.02048 -2.50924,-2.51457 -1.46679,-1.2171 -3.19326,-2.30743 -4.67134,-2.95015 -3.78978,-1.64793 -10.10533,-1.93908 -14.93764,-0.68863 -2.33836,0.60508 -4.415,1.68492 -6.49974,3.3798 -0.64181,0.5218 -2.15648,2.02157 -2.68463,2.65824 -2.53025,3.05012 -4.289,6.69772 -5.18639,10.75648 -0.21296,0.96316 -0.49286,2.66124 -0.49286,2.99005 0,0.0428 -0.0538,0.0568 -0.2181,0.0568 h -0.2181 z"
     id="path170" />
  <path
     style="fill:#f9f9f9;stroke-width:0.039218"
     d="m 738.43046,133.86394 c -0.007,-0.17375 0.0915,-1.12014 0.21167,-2.02841 0.26581,-2.00972 0.63857,-3.63211 1.1038,-4.8042 1.81248,-4.56637 5.11696,-7.87989 8.78331,-8.80737 0.80609,-0.20391 1.30691,-0.26659 2.13188,-0.26678 1.18014,-2.8e-4 2.08806,0.18611 3.41197,0.70047 1.31396,0.51049 2.2672,1.11525 3.21057,2.03686 1.16532,1.13843 2.06213,2.48724 3.27457,4.92497 1.39611,2.80701 1.80346,4.12224 2.06186,6.65721 0.10295,1.00993 0.10242,1.35309 -10e-4,0.69616 -0.41071,-2.60705 -1.27419,-5.47033 -2.2747,-7.54282 -0.43275,-0.89643 -0.64752,-1.27716 -1.15412,-2.04598 -1.86117,-2.82449 -4.25956,-4.57715 -6.92114,-5.0577 -1.94737,-0.3516 -3.94581,-0.077 -5.70621,0.78405 -1.74163,0.85187 -3.20565,2.20182 -4.5072,4.156 -1.78803,2.6846 -2.97448,6.04665 -3.50838,9.94176 -0.11245,0.82034 -0.11044,0.8091 -0.11681,0.65578 z"
     id="path172" />
  <path
     style="fill:#f9f9f9;stroke-width:0.039218"
     d="m 693.68308,144.15142 c 0.003,-9.73341 0.0192,-17.49416 0.0357,-17.2461 0.20224,3.03881 0.27044,9.05386 0.27156,23.95237 l 8.1e-4,10.79475 h 4.09828 4.09828 v -13.11841 -13.11841 h 0.19609 0.19609 v 13.21645 13.21646 h -4.45124 -4.45124 z"
     id="path174" />
  <path
     style="fill:#f9f9f9;stroke-width:0.039218"
     d="m 749.64146,162.82662 c -4.29937,-0.14474 -8.13406,-1.34005 -11.23459,-3.50193 -3.05258,-2.12846 -5.48977,-5.08664 -7.08193,-8.59583 -1.4417,-3.17757 -2.19711,-6.2667 -2.47396,-10.11686 -0.0869,-1.20868 -0.0502,-3.8586 0.0689,-4.96741 l 0.0238,-0.22203 0.20122,-0.0157 c 0.11068,-0.009 0.20356,-0.0146 0.20641,-0.0133 0.003,0.001 -0.0184,0.25828 -0.0473,0.57105 -0.201,2.17973 -0.14028,4.74421 0.1639,6.92197 0.61917,4.43289 2.20452,8.38153 4.67526,11.6447 0.5749,0.75929 1.0881,1.34232 1.86828,2.1225 1.07851,1.0785 2.01434,1.84674 3.20215,2.62867 1.74816,1.15081 3.87097,2.10611 5.42749,2.44246 1.55065,0.33507 3.32383,0.48602 5.70622,0.48576 3.9087,-4.4e-4 6.81169,-0.43242 8.87954,-1.32134 6.05511,-2.60296 11.03113,-9.48947 12.29886,-17.02087 0.37995,-2.25731 0.5139,-5.61083 0.31421,-7.86701 -0.0589,-0.66584 -0.0782,-0.6055 0.19383,-0.6055 0.2185,0 0.23557,0.007 0.25385,0.098 0.11773,0.58896 0.16283,4.11726 0.0682,5.33365 -0.19603,2.51921 -0.5776,4.58046 -1.24797,6.74179 -0.68072,2.19465 -1.68637,4.35535 -2.86747,6.16092 -1.92683,2.94558 -4.67022,5.42633 -7.65094,6.91848 -2.5928,1.29797 -5.68911,2.06445 -8.73112,2.16136 -0.3457,0.011 -0.79621,0.0256 -1.00113,0.0324 -0.20491,0.007 -0.752,-4.1e-4 -1.21575,-0.016 z"
     id="path176" />
  <path
     style="fill:#f9f9f9;stroke-width:0.039218"
     d="m 749.62185,159 c -1.5888,-0.16745 -2.99668,-0.57463 -3.92904,-1.13635 -1.90518,-1.14782 -4.05024,-3.8763 -5.46487,-6.95124 -0.91962,-1.99894 -1.32803,-3.44276 -1.64346,-5.80996 -0.0976,-0.73262 -0.22461,-2.09298 -0.25077,-2.68643 -0.021,-0.47681 -0.0173,-0.45585 0.0938,0.52945 0.57739,5.1194 2.18356,9.33059 4.68759,12.29024 1.61088,1.904 3.55427,3.09784 5.7146,3.51052 0.68216,0.13031 1.28455,0.17356 2.08616,0.14977 1.3952,-0.0414 2.42914,-0.29349 3.64743,-0.88927 1.07687,-0.52662 1.78957,-1.0552 2.82522,-2.09532 0.7634,-0.76669 1.18317,-1.27682 1.7624,-2.14178 0.93146,-1.39093 1.57142,-2.73964 2.23943,-4.71955 0.4507,-1.33584 0.73172,-2.36876 0.9993,-3.6731 0.17889,-0.872 0.19791,-0.79136 0.0378,0.16011 -0.77204,4.58699 -2.34606,8.03192 -4.78374,10.46977 -1.50834,1.50845 -3.05921,2.42297 -4.70792,2.77617 -0.79759,0.17086 -1.17567,0.20935 -2.1766,0.22155 -0.53925,0.007 -1.05104,0.005 -1.13732,-0.005 z"
     id="path178" />
  <path
     style="fill:#f9f9f9;stroke-width:0.039218"
     d="m 797.10502,162.82608 c -3.25643,-0.13351 -5.83822,-1.13857 -7.79949,-3.03624 -1.94996,-1.88671 -3.0021,-4.552 -3.25898,-8.25564 -0.0253,-0.36432 -0.0396,-5.48335 -0.0398,-14.24593 l -3.9e-4,-13.67726 h 0.11239 0.11239 l 0.0226,9.75547 c 0.0213,9.18059 0.0481,11.84701 0.14448,14.38319 0.14137,3.72026 0.38116,6.04352 0.80753,7.82398 0.19587,0.81793 0.41132,1.42708 0.74208,2.09816 0.59137,1.19982 1.37156,2.01449 2.6965,2.81568 0.59411,0.35925 1.64788,0.88802 2.12147,1.06452 0.79443,0.29607 1.93641,0.53713 3.20189,0.6759 0.90601,0.0993 3.32443,0.0995 4.31397,2.3e-4 3.35457,-0.33644 5.62515,-1.06971 7.70634,-2.4887 1.14037,-0.77753 1.73095,-1.45717 1.58951,-1.8292 -0.0529,-0.1391 -0.20079,-0.18907 -0.55024,-0.1859 -0.38877,0.004 -0.90654,0.14149 -1.74259,0.46433 -0.80612,0.31128 -1.25604,0.45111 -1.86088,0.57835 -2.71088,0.57027 -6.00005,0.2297 -7.73476,-0.80087 -0.39465,-0.23446 -0.67344,-0.47931 -0.95217,-0.83627 -1.29736,-1.66145 -1.81878,-3.75622 -2.08109,-8.36054 -0.17627,-3.09406 -0.21701,-6.1691 -0.21733,-16.40292 l -2.6e-4,-8.75541 h 0.2353 0.23531 v 13.67923 c 0,9.15608 0.0136,13.85365 0.041,14.20671 0.15598,2.00607 0.64676,3.64923 1.452,4.86137 0.31967,0.48121 1.03614,1.20221 1.48756,1.49697 0.75705,0.49433 1.44558,0.75654 2.4817,0.94507 0.42976,0.0782 0.60482,0.0871 1.69501,0.0859 1.31567,-0.001 1.91053,-0.0511 2.84331,-0.23752 1.1474,-0.22932 2.43299,-0.7016 3.79513,-1.39419 l 0.59887,-0.3045 0.48555,0.97051 0.48556,0.97051 -0.39811,0.27824 c -1.56442,1.09339 -3.48812,2.1436 -4.91167,2.68145 -1.42367,0.53789 -3.59974,0.90397 -5.70272,0.95936 -0.42062,0.0111 -0.92359,0.0255 -1.11771,0.0321 -0.19413,0.007 -0.66181,-7.1e-4 -1.03928,-0.0162 z"
     id="path180" />
  <path
     style="fill:#f9f9f9;stroke-width:0.039218"
     d="m 835.81316,162.82767 c -4.51811,-0.16369 -8.48128,-1.4596 -11.64978,-3.80936 -3.26801,-2.42355 -5.60942,-5.54167 -7.22713,-9.62457 -1.08631,-2.74171 -1.71975,-5.72729 -1.91185,-9.01106 -0.0933,-1.59539 -0.0122,-4.17333 0.18106,-5.75142 0.46858,-3.82668 1.66616,-7.46649 3.42913,-10.42218 l 0.35673,-0.59807 h 0.33433 c 0.25726,0 0.32744,0.0113 0.30445,0.049 -0.0164,0.027 -0.13837,0.21668 -0.27098,0.42159 -0.59435,0.91842 -1.27059,2.18467 -1.75932,3.29431 -3.09494,7.02687 -3.09126,15.4074 0.01,22.55034 1.15327,2.65635 2.68242,4.85276 4.8741,7.00097 2.07322,2.03209 4.35409,3.52936 6.4466,4.23184 2.09532,0.70342 5.15988,1.08953 8.20636,1.03394 l 0.99026,-0.0181 v 0.32702 0.32701 h -0.54358 c -0.29897,0 -0.62104,0.007 -0.71573,0.0153 -0.0947,0.008 -0.56923,9.4e-4 -1.05455,-0.0166 z"
     id="path182" />
  <path
     style="fill:#f9f9f9;stroke-width:0.039218"
     d="m 838.16084,162.49238 v -0.3207 l 0.46081,-0.0268 c 3.32092,-0.19275 6.02241,-0.77825 7.79272,-1.68894 2.31692,-1.19187 4.53887,-2.9973 6.2018,-5.03921 2.70404,-3.32029 4.4905,-7.59578 5.32981,-12.75575 0.37551,-2.30859 0.44588,-4.97299 0.19448,-7.36307 -0.21836,-2.07587 -0.73009,-4.29518 -1.43783,-6.23566 -0.64894,-1.77927 -1.6475,-3.7767 -2.57327,-5.14735 l -0.20529,-0.30394 h 0.33103 0.33104 l 0.15415,0.24511 c 0.66274,1.05379 1.41342,2.56767 1.92037,3.87277 0.99281,2.5559 1.56955,5.0775 1.83883,8.03969 0.0841,0.92483 0.11813,3.68551 0.0577,4.67997 -0.24733,4.07193 -1.18695,7.72889 -2.82947,11.01214 -1.49048,2.97934 -3.54279,5.46704 -6.11692,7.41462 -2.14345,1.62172 -4.59754,2.75051 -7.35171,3.3815 -1.10865,0.254 -2.74648,0.48576 -3.83355,0.54247 l -0.26472,0.0138 z"
     id="path184" />
  <path
     style="fill:#f9f9f9;stroke-width:0.0138656"
     d="m 834.11416,158.74331 c -1.31455,-0.39307 -2.50921,-1.07092 -3.63935,-2.06498 -0.22209,-0.19534 -0.67694,-0.64353 -0.88781,-0.8748 -1.23885,-1.35871 -2.21896,-2.96034 -3.10978,-5.08176 -1.26715,-3.01764 -2.06246,-6.55975 -2.27812,-10.14618 l -0.009,-0.15599 h 0.11186 0.11186 l 0.007,0.0589 c 0.004,0.0324 0.0108,0.14316 0.0153,0.24611 0.011,0.25767 0.044,0.74608 0.0772,1.14392 0.19407,2.32542 0.60291,4.52867 1.21957,6.57231 0.37533,1.24388 0.96173,2.65819 1.5982,3.85465 0.92653,1.74174 2.10223,3.26171 3.32823,4.30281 1.40611,1.19405 2.95883,1.92194 4.68906,2.19816 0.11976,0.0191 0.10241,0.0199 -0.42983,0.0207 l -0.55463,7.7e-4 -0.24958,-0.0746 z"
     id="path186" />
  <path
     style="fill:#f9f9f9;stroke-width:0.039218"
     d="m 824.18568,140.07275 c -0.0391,-0.50178 -0.0294,-2.91408 0.0146,-3.65708 0.28039,-4.73072 1.39237,-8.93075 3.24734,-12.26542 0.2881,-0.5179 0.30493,-0.53924 0.42539,-0.53924 h 0.12542 l -0.27523,0.46081 c -0.15138,0.25344 -0.44674,0.80495 -0.65636,1.22556 -1.06482,2.13659 -1.74771,4.32995 -2.21705,7.12092 -0.33645,2.00067 -0.4707,3.78061 -0.47085,6.2426 l -10e-5,1.7354 h -0.084 c -0.077,0 -0.0861,-0.0268 -0.10918,-0.32355 z"
     id="path188" />
  <path
     style="fill:#f9f9f9;stroke-width:0.019609"
     d="m 836.10189,159.08198 c -0.3352,-0.0252 -0.60864,-0.0538 -0.82887,-0.0866 -0.25963,-0.0387 -0.80758,-0.14938 -0.82486,-0.16666 -0.005,-0.005 0.22441,-0.01 0.51062,-0.01 0.37344,0 0.6,0.01 0.80233,0.0341 0.40718,0.0493 1.66976,0.0488 2.07618,-7.5e-4 1.84752,-0.22537 3.37884,-0.89213 4.83361,-2.10461 0.28646,-0.23874 0.82905,-0.74804 1.10637,-1.03847 1.55633,-1.62996 2.75713,-3.68973 3.65979,-6.27777 1.04569,-2.99811 1.56879,-5.75798 1.73665,-9.16263 0.0276,-0.56058 0.034,-2.3615 0.0111,-3.13254 l -0.0159,-0.53434 h 0.11594 0.11594 l 0.0129,0.20099 c 0.0556,0.86669 0.052,2.59515 -0.008,3.58354 -0.18037,2.99321 -0.67421,5.67498 -1.52199,8.26519 -1.02805,3.14101 -2.47745,5.70132 -4.202,7.42271 -0.82017,0.81867 -1.54617,1.33953 -2.60937,1.87206 -1.20258,0.60234 -2.40191,0.96447 -3.6384,1.0986 -0.26188,0.0284 -1.12715,0.0524 -1.33248,0.0369 z"
     id="path190" />
  <path
     style="fill:#f9f9f9;stroke-width:0.039218"
     d="m 819.24827,123.58499 -0.22521,-0.0141 0.24143,-0.36082 c 0.70197,-1.04914 1.46828,-1.97483 2.44334,-2.95151 2.09916,-2.10266 4.56425,-3.69005 7.33034,-4.72037 3.43957,-1.28119 7.90569,-1.63367 11.94381,-0.94264 2.46371,0.42161 4.77695,1.26885 6.82648,2.50024 2.6012,1.56284 4.64756,3.45464 6.33234,5.85407 0.48414,0.6895 0.47477,0.62492 0.0907,0.62492 h -0.32524 l -0.29913,-0.42159 c -2.0373,-2.87132 -4.76965,-5.21822 -7.81837,-6.71548 -1.61855,-0.79488 -2.8546,-1.16832 -4.53763,-1.37091 -1.07722,-0.12967 -1.7748,-0.16298 -3.89423,-0.18598 -5.29108,-0.0574 -6.66325,0.18144 -9.72606,1.693 -2.08133,1.02718 -3.61704,2.12688 -5.2572,3.7646 -0.96788,0.96643 -1.93019,2.11682 -2.56698,3.06867 -0.10864,0.1624 -0.1574,0.20356 -0.23511,0.19848 -0.0539,-0.004 -0.19939,-0.0128 -0.32325,-0.0205 z"
     id="path192" />
  <path
     style="fill:#f9f9f9;stroke-width:0.039218"
     d="m 794.4328,121.28049 v -2.29425 l 4.18652,-9.1e-4 c 4.12492,-8.9e-4 5.88873,-0.033 6.49535,-0.11813 0.48902,-0.0686 0.80539,-0.18187 0.97105,-0.34754 0.20911,-0.2091 0.24632,-0.38417 0.24702,-1.16229 5.9e-4,-0.64745 -0.003,-0.67463 -0.10537,-0.8824 -0.12765,-0.25824 -0.27502,-0.36191 -0.66584,-0.4684 -0.57644,-0.15708 -0.89468,-0.16672 -6.09903,-0.1848 l -5.0297,-0.0175 v -5.64475 -5.64474 h 0.23531 0.2353 v 5.35325 5.35325 h 5.94153 5.94152 v 1.98051 1.98051 h -5.94152 -5.94153 v 2.19621 2.1962 h -0.2353 -0.23531 z"
     id="path194" />
  <path
     style="fill:#f9f9f9;stroke-width:0.019609"
     d="m 849.15161,136.46275 c 0,-0.14939 -0.0669,-1.06821 -0.10808,-1.48538 -0.20643,-2.09306 -0.58775,-4.06212 -1.13635,-5.868 -0.98761,-3.25093 -2.06426,-5.35793 -3.71491,-7.27002 -0.2951,-0.34185 -0.93237,-0.98119 -1.29634,-1.30055 -1.53005,-1.34253 -3.1657,-2.08055 -5.10098,-2.30162 -0.42755,-0.0488 -1.58783,-0.0485 -2.0068,5.1e-4 -1.98618,0.23257 -3.65653,0.97914 -5.22554,2.33558 -0.83316,0.72028 -1.76599,1.8225 -2.46124,2.90816 l -0.0784,0.12238 -0.12015,1.8e-4 c -0.0836,1.2e-4 -0.12771,0.009 -0.14496,0.0301 -0.0136,0.0164 -0.0285,0.0261 -0.0331,0.0216 -0.0108,-0.0108 0.24119,-0.41397 0.4855,-0.77699 1.55841,-2.31552 3.46954,-3.85465 5.57462,-4.4895 0.31941,-0.0963 0.96762,-0.24793 1.29736,-0.30343 0.61794,-0.10399 1.15425,-0.1486 1.78343,-0.14833 0.67462,2.9e-4 1.15052,0.0454 1.7756,0.1683 2.58981,0.50922 4.85046,2.13471 6.65165,4.78277 0.87635,1.2884 1.67168,2.89868 2.29533,4.64733 0.89585,2.51185 1.56603,5.70399 1.7682,8.42206 0.0164,0.22109 0.0343,0.45272 0.0397,0.51473 l 0.01,0.11275 h -0.12716 -0.12716 v -0.12255 z"
     id="path196" />
  <path
     style="fill:#f9f9f9;stroke-width:0.0554626"
     d="m 786.00037,121.365 v -2.21851 h -3.46642 -3.46641 v -1.94119 -1.94119 h 3.46641 3.46642 l 9.5e-4,-4.4786 9.5e-4,-4.47861 2.481,-2.97962 2.481,-2.97963 1.95505,-0.001 1.95506,-10e-4 v 2.07985 2.07985 h -0.22185 -0.22185 v -1.88573 -1.88573 l -1.01219,9.7e-4 c -1.15547,0.001 -1.56816,0.0668 -2.10048,0.33458 -0.84283,0.42393 -1.64484,1.20521 -3.07939,2.9998 -1.30218,1.62899 -1.66628,2.33283 -1.88966,3.65294 -0.074,0.43754 -0.0931,1.16881 -0.1123,4.31222 l -0.0231,3.78532 -2.69945,10e-4 c -1.52037,6.2e-4 -2.869,0.0256 -3.08762,0.0572 -0.92413,0.13355 -1.10099,0.37776 -1.1027,1.52261 -10e-4,0.8224 0.0754,1.06996 0.39773,1.28455 0.3578,0.23823 0.56611,0.25442 3.60282,0.28007 l 2.89792,0.0245 v 2.29739 c 0,2.2604 -0.002,2.29738 -0.11093,2.29738 -0.10908,0 -0.11092,-0.037 -0.11092,-2.2185 z"
     id="path198" />
  <path
     style="fill:#f9f9f9;stroke-width:0.0277313"
     d="m 949.21859,131.85715 c -0.0439,-0.23022 -0.13737,-0.66816 -0.20771,-0.97321 l -0.12789,-0.55462 0.0139,-0.45757 0.0139,-0.45757 0.0764,0.33278 c 0.15414,0.67116 0.46454,2.33361 0.46428,2.48656 -4e-5,0.0212 -0.0326,0.0381 -0.0765,0.0396 l -0.0765,0.003 -0.0798,-0.41859 z"
     id="path200" />
  <path
     style="fill:#f9f9f9;stroke-width:0.019609"
     d="m 971.31082,156.65517 0.003,-5.21109 0.0294,5.09343 0.0294,5.09344 h 4.41855 4.41855 v -0.27635 c 0,-0.57203 -0.11551,-17.88038 -0.12643,-18.94536 -0.008,-0.7472 -0.005,-1.11281 0.008,-1.11281 0.0109,0 0.0205,0.0331 0.0213,0.0735 7.6e-4,0.0405 0.009,0.0912 0.0182,0.11275 0.0121,0.0282 0.0172,0.008 0.0182,-0.0735 10e-4,-0.0992 0.006,-0.11275 0.0406,-0.11275 0.0392,0 0.0392,0.0131 0.0392,10.28491 v 10.28491 h -4.46104 -4.46105 z"
     id="path202" />
  <path
     style="fill:#f9f9f9;stroke-width:0.00980449"
     d="m 980.21496,141.46652 c 0,-0.12377 -0.007,-0.16736 -0.0273,-0.17524 -0.008,-0.003 -0.0206,0.002 -0.0282,0.0128 -0.0114,0.0156 -0.0132,-0.63992 -0.0117,-4.32709 l 0.002,-4.34551 h 0.0376 0.0376 v 4.47085 c 0,2.45897 -0.002,4.47085 -0.005,4.47085 -0.003,0 -0.005,-0.048 -0.005,-0.10663 z"
     id="path204" />
  <path
     style="fill:#f9f9f9;stroke-width:0.00980449"
     d="m 980.04514,137.12979 c -0.0317,-4.89104 -0.0307,-4.49834 -0.0116,-4.49834 0.0128,0 0.0147,0.0542 0.0147,0.42895 1e-4,0.86877 0.0412,5.93372 0.059,7.26758 0.0121,0.90729 0.012,1.00024 -0.001,0.97731 -0.009,-0.0163 -0.0114,-0.0165 -0.022,-0.002 -0.009,0.0123 -0.0178,-0.93163 -0.0388,-4.17358 z"
     id="path206" />
  <path
     style="fill:#f9f9f9;stroke-width:0.00980449"
     d="m 980.12312,112.66363 c -0.003,-0.0768 -0.008,-1.06844 -0.011,-2.20356 -0.009,-3.4275 -0.032,-5.36215 -0.074,-6.20134 -0.0144,-0.28779 -0.0358,-0.52213 -0.0692,-0.75985 -0.22604,-1.60718 -0.49818,-2.69462 -0.89536,-3.57787 -0.0301,-0.06698 -0.0548,-0.123236 -0.0548,-0.125007 0,-0.0018 0.0112,-0.0032 0.0249,-0.0032 0.027,0 0.0307,0.0067 0.12881,0.235307 0.58666,1.36688 0.92038,3.44132 1.02284,6.35821 0.0241,0.68719 0.0292,1.34221 0.0293,3.8017 l 10e-5,2.61535 h -0.048 -0.048 z"
     id="path208" />
  <path
     style="fill:#f9f9f9;stroke-width:0.00390625"
     d="m 979.68449,108.87422 c -2e-5,-0.0142 -0.0163,-0.53222 -0.0254,-0.80957 -0.0572,-1.74004 -0.12522,-3.24091 -0.19595,-4.32325 l -0.002,-0.0381 h 0.0123 c 0.01,0 0.0123,0.002 0.0123,0.008 0,0.004 0.004,0.0749 0.01,0.15723 0.0741,1.14742 0.14757,2.81199 0.20298,4.6008 0.005,0.1708 0.0107,0.33472 0.0119,0.36426 l 0.002,0.0537 h -0.0139 c -0.013,0 -0.0138,-7.6e-4 -0.0139,-0.0127 z"
     id="path210" />
  <path
     style="fill:#f9f9f9;stroke-width:0.00390625"
     d="m 980.14772,132.142 c -0.001,-0.23471 -0.003,-1.40102 -0.003,-2.59179 l -8.3e-4,-2.16504 h 0.042 0.042 v 2.59179 2.5918 h -0.0386 -0.0386 z"
     id="path212" />
  <path
     style="fill:#f9f9f9;stroke-width:0.00390625"
     d="m 980.01121,132.43497 c -10e-4,-0.0736 -0.006,-0.68398 -0.0104,-1.35644 -0.009,-1.34392 -0.0215,-3.0352 -0.0257,-3.43653 l -0.003,-0.25683 h 0.0157 0.0157 l 0.002,0.0674 c 0.001,0.0371 0.004,0.31787 0.006,0.62402 0.002,0.30615 0.007,0.87129 0.01,1.25586 0.003,0.38457 0.009,1.18789 0.0134,1.78516 0.004,0.59726 0.009,1.16811 0.01,1.26855 l 0.002,0.18262 h -0.0169 -0.0169 z"
     id="path214" />
  <path
     style="fill:#f9f9f9;stroke-width:0.00390625"
     d="m 980.14154,126.02321 c 0,-0.74819 -10e-4,-1.62534 -0.003,-1.94922 l -0.003,-0.58886 h 0.0456 0.0456 v 1.94922 1.94921 h -0.043 -0.043 z"
     id="path216" />
  <path
     style="fill:#f9f9f9;stroke-width:0.00390625"
     d="m 979.97211,127.19509 c -0.001,-0.10366 -0.003,-0.30625 -0.005,-0.4502 -0.005,-0.62777 -0.0217,-2.42432 -0.0252,-2.73828 -0.002,-0.18906 -0.004,-0.38374 -0.004,-0.43262 l -3e-5,-0.0889 h 0.0156 0.0156 v 0.0543 c 0,0.0298 0.004,0.39415 0.008,0.80957 0.008,0.78043 0.0213,2.16631 0.0259,2.71917 l 0.003,0.31543 h -0.0158 -0.0158 z"
     id="path218" />
  <path
     style="fill:#f9f9f9;stroke-width:0.00390625"
     d="m 980.13617,121.51144 c -10e-4,-1.08549 -0.004,-2.18237 -0.005,-2.4375 l -0.002,-0.46386 h 0.0493 0.0493 v 2.4375 2.4375 h -0.0444 -0.0444 z"
     id="path220" />
  <path
     style="fill:#f9f9f9;stroke-width:0.00390625"
     d="m 979.93698,123.40988 c -10e-4,-0.0414 -0.003,-0.19209 -0.004,-0.33496 -0.005,-0.61117 -0.03,-2.75081 -0.0449,-3.85672 -0.004,-0.31758 -0.008,-0.58432 -0.008,-0.59277 0,-0.0152 1.5e-4,-0.0153 0.015,-0.0153 h 0.015 l 0.003,0.208 c 10e-4,0.11441 0.007,0.54024 0.0123,0.94629 0.012,0.90963 0.0273,2.18849 0.035,2.92383 0.003,0.30401 0.007,0.60767 0.008,0.67481 l 0.002,0.12207 h -0.0154 -0.0154 z"
     id="path222" />
  <path
     style="fill:#f9f9f9;stroke-width:0.00390625"
     d="m 980.1283,116.70515 c -10e-4,-1.04682 -0.004,-1.92397 -0.005,-1.94921 l -0.002,-0.0459 h 0.0532 0.0532 v 1.94922 1.94922 h -0.0483 -0.0483 z"
     id="path224" />
  <path
     style="fill:#f9f9f9;stroke-width:0.00390625"
     d="m 979.87818,118.47469 c -0.001,-0.0736 -0.007,-0.44053 -0.0122,-0.81543 -0.0142,-0.99682 -0.0421,-2.74044 -0.0463,-2.88575 l -0.002,-0.0635 h 0.0154 0.0154 l 2e-5,0.0596 c 1e-5,0.0328 0.002,0.14658 0.004,0.25293 0.009,0.42857 0.04,2.39197 0.0519,3.24707 l 0.005,0.33887 h -0.0142 -0.0142 z"
     id="path226" />
  <path
     style="fill:#f9f9f9;stroke-width:0.00390625"
     d="m 980.12201,114.03956 c 0,-0.36703 -7e-4,-0.84208 -0.002,-1.05566 -8.6e-4,-0.21388 -2.2e-4,-0.35325 10e-4,-0.31022 0.002,0.043 0.003,0.09 0.004,0.10449 l 5.3e-4,0.0264 h 0.0508 0.0508 v 0.95117 0.95117 h -0.0527 -0.0527 z"
     id="path228" />
  <path
     style="fill:#f9f9f9;stroke-width:0.00390625"
     d="m 979.81582,114.54966 c -0.005,-0.27779 -0.0295,-1.55159 -0.0375,-1.93067 -0.004,-0.20195 -0.01,-0.45332 -0.0117,-0.55859 -0.002,-0.10527 -0.005,-0.2103 -0.006,-0.2334 l -0.002,-0.042 h 0.0131 0.0131 l 0.002,0.0283 c 10e-4,0.0156 0.003,0.0793 0.004,0.1416 10e-4,0.0623 0.007,0.3585 0.0138,0.6582 0.0143,0.6671 0.0341,1.68157 0.0371,1.89063 10e-4,0.0849 0.003,0.16528 0.004,0.17871 l 0.002,0.0244 h -0.0151 -0.0151 z"
     id="path230" />
  <path
     style="fill:#f9f9f9;stroke-width:0.00390625"
     d="m 979.75726,111.66134 c -0.0159,-0.72662 -0.0638,-2.56018 -0.071,-2.71875 l -0.002,-0.0537 h 0.014 c 0.0132,0 0.014,7.1e-4 0.014,0.0128 0,0.007 0.003,0.12966 0.008,0.27246 0.0215,0.71685 0.0664,2.46016 0.0664,2.57703 l 10e-6,0.0322 h -0.0131 -0.0131 z"
     id="path232" />
  <path
     style="fill:#f9f9f9;stroke-width:0.00390625"
     d="m 979.06855,99.802157 c -0.007,-0.0079 -0.0121,-0.0095 -0.0302,-0.0095 -0.0148,0 -0.0218,0.0016 -0.0219,0.0049 -5e-5,0.0027 -0.0261,-0.04609 -0.0578,-0.108399 -0.14112,-0.276785 -0.28074,-0.506892 -0.44794,-0.738281 -0.27772,-0.38433 -0.63195,-0.755828 -1.0117,-1.061022 -0.35271,-0.283468 -0.75016,-0.519425 -1.18735,-0.704902 l -0.0545,-0.02314 0.0571,-0.0011 0.0571,-0.0011 0.0555,0.02549 c 0.0916,0.0421 0.53774,0.270764 0.61908,0.317315 0.76207,0.436136 1.3512,1.048632 1.82523,1.897633 0.0523,0.09359 0.21084,0.406635 0.20762,0.40985 -9.3e-4,9.34e-4 -0.006,-0.0026 -0.0101,-0.0078 z"
     id="path234" />
  <path
     style="fill:#f9f9f9;stroke-width:0.00390625"
     d="m 979.35247,102.33857 c 0,-0.007 -0.0184,-0.18835 -0.0295,-0.29004 -0.0737,-0.67609 -0.15291,-1.12129 -0.24181,-1.35862 -0.046,-0.12283 -0.20866,-0.45926 -0.32426,-0.67068 -0.61905,-1.132183 -1.41611,-1.846166 -2.62318,-2.349795 -0.43846,-0.182937 -0.96787,-0.347156 -1.56641,-0.48589 l -0.0996,-0.02309 0.0378,-2.99e-4 c 0.0339,-2.68e-4 0.0504,0.0027 0.16211,0.02903 0.8986,0.21195 1.6372,0.484178 2.21809,0.817536 0.60483,0.347094 1.0731,0.768717 1.46753,1.321335 0.12777,0.179009 0.33364,0.502003 0.44927,0.704853 0.31147,0.54643 0.41265,0.90407 0.52438,1.85351 0.0141,0.12018 0.049,0.4437 0.049,0.45456 0,0.001 -0.005,0.002 -0.0117,0.002 -0.007,0 -0.0117,-0.002 -0.0117,-0.005 z"
     id="path236" />
  <path
     style="fill:#f9f9f9;stroke-width:0.00390625"
     d="m 979.4726,103.70085 c -0.007,-9e-4 -0.0113,-0.004 -0.0124,-0.01 -9.2e-4,-0.005 -0.007,-0.092 -0.0139,-0.19408 -0.0141,-0.21329 -0.0416,-0.57626 -0.0587,-0.77539 -0.0153,-0.17728 -0.0307,-0.34818 -0.0329,-0.36426 -0.002,-0.0118 -9e-4,-0.0127 0.009,-0.0127 0.0103,0 0.0113,0.001 0.0135,0.0186 0.008,0.0639 0.0513,0.56819 0.0708,0.82911 0.0125,0.16694 0.0364,0.50973 0.0356,0.50985 -3.3e-4,4e-5 -0.005,-5.1e-4 -0.0113,-0.001 z"
     id="path238" />
  <path
     style="fill:#f9f9f9;stroke-width:0.0078125"
     d="m 971.02826,104.3111 c -0.13301,-0.86016 -0.35055,-1.72045 -0.60752,-2.40256 -0.22206,-0.58943 -0.52317,-1.16445 -0.81498,-1.55634 -0.23292,-0.3128 -0.53114,-0.611492 -0.84804,-0.849383 -0.83911,-0.62989 -1.97302,-1.005357 -3.39063,-1.122728 -0.40319,-0.03338 -0.42913,-0.03394 -1.73242,-0.0372 l -1.27148,-0.0032 v -0.788578 -0.788578 h 0.0312 0.0312 v 0.778086 0.778086 l 0.49414,-0.0051 c 0.6409,-0.0067 1.19452,-0.01772 1.21132,-0.02416 0.039,-0.01497 -3e-4,-0.02408 -0.21718,-0.05032 -0.62424,-0.07551 -0.93139,-0.182977 -1.1468,-0.401238 -0.21137,-0.214153 -0.29914,-0.612682 -0.19698,-0.894368 0.028,-0.07727 0.0891,-0.180938 0.10656,-0.180938 0.004,0 9.9e-4,0.0097 -0.007,0.02148 -0.0804,0.113944 -0.11731,0.303661 -0.10254,0.526733 0.008,0.113476 0.0213,0.183363 0.0535,0.271759 0.12589,0.344931 0.4899,0.532736 1.1959,0.616999 0.30282,0.03614 0.5047,0.04638 1.08594,0.05508 0.48962,0.0073 0.63971,0.01335 0.88672,0.03558 1.32648,0.119386 2.42506,0.58102 3.44531,1.447756 0.37055,0.314792 1.7948,1.544072 1.79694,1.550952 0.004,0.0119 0.0213,3.13065 0.0177,3.13428 -0.002,0.002 -0.0109,-0.0489 -0.0206,-0.11208 z m -0.068,-0.68722 c 0.0132,-0.0821 0.0199,-0.55109 0.0197,-1.39258 l -2.1e-4,-0.9336 -0.36405,-0.3164 c -0.88709,-0.77101 -1.13091,-0.97372 -1.23456,-1.026364 -0.0863,-0.04381 -0.0434,0.03019 0.1472,0.254444 0.14559,0.17126 0.24979,0.32321 0.37932,0.55317 0.33799,0.60002 0.69297,1.47909 0.86575,2.14392 0.0427,0.16423 0.0664,0.27379 0.0976,0.45029 0.0337,0.19055 0.0618,0.29641 0.0786,0.29641 0.003,0 0.008,-0.0132 0.0106,-0.0293 z"
     id="path242" />
  <path
     style="fill:#f9f9f9;stroke-width:0.0078125"
     d="m 974.28506,97.12088 c -0.43431,-0.09381 -1.11797,-0.205451 -1.71484,-0.280038 -1.10622,-0.138235 -2.3007,-0.234836 -4.0625,-0.328547 -0.16328,-0.0087 -0.36016,-0.01931 -0.4375,-0.02362 -0.63328,-0.03524 -1.61946,-0.07896 -2.32422,-0.103033 -0.38699,-0.01322 -1.49906,-0.01336 -1.71875,-2.08e-4 -0.73836,0.04419 -1.09392,0.133391 -1.29148,0.324004 -0.0627,0.06046 -0.0827,0.06457 -0.0245,0.005 0.067,-0.06854 0.12595,-0.106738 0.29747,-0.192826 0.0918,-0.04606 0.16687,-0.08639 0.16688,-0.08961 2e-5,-0.0032 -0.16872,-0.0059 -0.37497,-0.0059 h -0.375 v 0.167969 0.167968 h -0.0312 -0.0312 v -0.199218 -0.199219 l 4.70508,5.6e-5 c 4.69363,5.5e-5 4.92357,0.0012 5.43945,0.02752 1.48295,0.0756 2.69009,0.298566 3.61719,0.668107 0.19317,0.077 0.215,0.0868 0.21033,0.09436 -0.0118,0.01902 -0.077,0.0049 -0.19984,-0.04313 -0.45052,-0.176286 -0.98888,-0.329966 -1.62768,-0.464634 -0.59666,-0.125782 -1.01433,-0.151859 -2.78125,-0.17364 -0.83731,-0.01032 -2.69355,-0.01366 -2.72493,-0.0049 -0.012,0.0033 -0.02,0.009 -0.0177,0.01264 0.007,0.01061 0.1031,0.01935 0.61377,0.05559 1.81577,0.128841 3.20398,0.288522 4.3125,0.496055 0.26682,0.04995 0.56497,0.11319 0.57383,0.121707 0.0122,0.01171 -0.0134,0.0075 -0.19883,-0.03253 z"
     id="path244" />
</svg>
