<svg width="195" height="42" viewBox="0 0 298 63" fill="none" xmlns="http://www.w3.org/2000/svg">
<rect width="38.219" height="38.2189" rx="3.46473" transform="matrix(0.712784 0.701383 0.712663 -0.701506 12.5205 26.8125)" fill="#91D700"/>
<g filter="url(#filter0_d_3139_1276)">
<g clip-path="url(#clip0_3139_1276)">
<rect width="38.09" height="38.2037" rx="3.46473" transform="matrix(-0.712724 -0.701445 0.712724 -0.701445 32.1475 53.5156)" fill="#B9FF1F"/>
<path d="M46.689 34.213C44.7288 35.649 42.2804 36.2833 39.8559 35.9834L39.8559 29.6982C40.5905 29.5468 41.1365 29.3947 41.7323 29.2494C42.3778 29.092 42.9478 28.7192 43.3453 28.1946C43.7428 27.6699 43.9432 27.0258 43.9123 26.3721C43.8814 25.7183 43.6211 25.0953 43.1758 24.6093C42.7305 24.1232 42.1277 23.8041 41.4702 23.7064C40.8126 23.6087 40.141 23.7384 39.5697 24.0735C38.9985 24.4085 38.3537 25.3576 38.3377 26.3721L38.3377 27.7319L38.3377 35.6695L38.3377 47.745C35.6651 50.3669 34.3424 52.1897 32.083 52.0899C32.0836 48.7089 32.083 26.0134 32.083 26.0134C32.083 22.4983 33.9522 20.1073 36.0253 18.8343C38.0985 17.5613 40.5915 17.1265 42.9829 17.6209C45.3742 18.1154 47.4787 19.5007 48.8562 21.4871C50.2336 23.4735 50.7772 25.9072 50.3733 28.279C49.9694 30.6509 48.6492 32.7771 46.689 34.213Z" fill="black"/>
</g>
</g>
<path d="M28.8549 9.56541L21.9254 2.20312L21.8467 25.8399C21.8467 33.2022 27.595 35.2172 30.666 35.4497V28.9399C29.0281 28.7539 28.7761 26.6924 28.8549 25.685V9.56541Z" fill="black"/>
<path d="M84.2647 35.9531V18.7633H87.8357V32.9979H96.3814V35.9531H84.2647ZM106.168 36.2487C104.707 36.2487 103.451 35.9613 102.4 35.3867C101.366 34.8121 100.561 33.9912 99.9866 32.924C99.4283 31.8568 99.1492 30.5926 99.1492 29.1314C99.1492 27.6373 99.4283 26.3649 99.9866 25.3141C100.561 24.247 101.382 23.4343 102.449 22.876C103.516 22.3014 104.805 22.0141 106.316 22.0141C108.664 22.0141 110.371 22.6708 111.438 23.9843C112.522 25.2977 112.982 27.1037 112.817 29.4023H101.858V27.038H109.37C109.304 26.3321 108.984 25.7656 108.409 25.3388C107.851 24.8955 107.145 24.6738 106.291 24.6738C105.027 24.6738 104.083 25.0679 103.459 25.8559C102.852 26.644 102.548 27.7851 102.548 29.2791C102.548 30.0672 102.687 30.7814 102.966 31.4217C103.246 32.062 103.648 32.571 104.173 32.9486C104.715 33.3262 105.38 33.515 106.168 33.515C107.022 33.515 107.744 33.3016 108.335 32.8747C108.943 32.4478 109.312 31.8978 109.443 31.2247H112.817C112.637 32.768 111.955 33.9912 110.773 34.8942C109.591 35.7972 108.056 36.2487 106.168 36.2487ZM122.185 36.2487C120.724 36.2487 119.468 35.9613 118.417 35.3867C117.383 34.8121 116.579 33.9912 116.004 32.924C115.446 31.8568 115.167 30.5926 115.167 29.1314C115.167 27.6373 115.446 26.3649 116.004 25.3141C116.579 24.247 117.399 23.4343 118.467 22.876C119.534 22.3014 120.823 22.0141 122.333 22.0141C124.681 22.0141 126.388 22.6708 127.456 23.9843C128.539 25.2977 128.999 27.1037 128.835 29.4023H117.876V27.038H125.387C125.321 26.3321 125.001 25.7656 124.426 25.3388C123.868 24.8955 123.162 24.6738 122.309 24.6738C121.044 24.6738 120.1 25.0679 119.476 25.8559C118.869 26.644 118.565 27.7851 118.565 29.2791C118.565 30.0672 118.705 30.7814 118.984 31.4217C119.263 32.062 119.665 32.571 120.191 32.9486C120.732 33.3262 121.397 33.515 122.185 33.515C123.039 33.515 123.762 33.3016 124.353 32.8747C124.96 32.4478 125.329 31.8978 125.461 31.2247H128.835C128.654 32.768 127.973 33.9912 126.791 34.8942C125.609 35.7972 124.073 36.2487 122.185 36.2487ZM138.326 36.2487C136.897 36.2487 135.658 35.9613 134.607 35.3867C133.573 34.8121 132.777 33.9912 132.218 32.924C131.676 31.8568 131.406 30.5926 131.406 29.1314C131.406 27.6373 131.693 26.3649 132.268 25.3141C132.859 24.247 133.671 23.4343 134.706 22.876C135.756 22.3014 136.988 22.0141 138.4 22.0141C139.598 22.0141 140.665 22.2357 141.601 22.679C142.537 23.1059 143.284 23.7052 143.842 24.4768C144.401 25.2485 144.713 26.1679 144.778 27.2351H141.38C141.248 26.4306 140.92 25.8231 140.395 25.4126C139.886 25.0022 139.221 24.797 138.4 24.797C137.694 24.797 137.062 24.9694 136.503 25.3141C135.962 25.6425 135.543 26.1268 135.247 26.7671C134.952 27.4075 134.804 28.1955 134.804 29.1314C134.804 30.5105 135.133 31.5859 135.789 32.3575C136.462 33.1292 137.308 33.515 138.326 33.515C138.851 33.515 139.327 33.4165 139.754 33.2195C140.181 33.0225 140.542 32.7434 140.838 32.3822C141.133 32.0046 141.339 31.5777 141.454 31.1015H144.852C144.737 32.1523 144.384 33.0635 143.793 33.8352C143.202 34.5904 142.43 35.1815 141.478 35.6083C140.542 36.0352 139.492 36.2487 138.326 36.2487ZM157.077 35.9531V27.506C157.077 26.7015 156.863 26.0612 156.437 25.585C156.026 25.0925 155.476 24.8462 154.787 24.8462C153.998 24.8462 153.284 25.1253 152.644 25.6835C152.004 26.2253 151.404 27.1201 150.846 28.3679L150.354 25.2895C150.945 24.1402 151.692 23.3111 152.595 22.8022C153.498 22.2768 154.45 22.0141 155.451 22.0141C156.486 22.0141 157.372 22.2357 158.111 22.679C158.866 23.1223 159.449 23.738 159.86 24.5261C160.27 25.3141 160.475 26.2418 160.475 27.3089V35.9531H157.077ZM147.768 35.9531V17.7536H151.142V35.9531H147.768Z" fill="black"/>
<path d="M172.745 30.3267V27.3714H176.858C177.745 27.3714 178.459 27.1088 179.001 26.5834C179.543 26.058 179.813 25.3684 179.813 24.5147C179.813 23.6938 179.551 23.037 179.025 22.5445C178.5 22.0355 177.802 21.7811 176.932 21.7811H172.745V18.8258H176.957C178.27 18.8258 179.419 19.0638 180.405 19.54C181.39 19.9997 182.153 20.6564 182.695 21.5102C183.237 22.3639 183.508 23.3654 183.508 24.5147C183.508 25.6804 183.228 26.6983 182.67 27.5685C182.128 28.4386 181.365 29.12 180.38 29.6125C179.395 30.0887 178.229 30.3267 176.883 30.3267H172.745ZM170.184 36.0156V18.8258H173.755V36.0156H170.184ZM195.732 28.8737V27.1005C195.732 26.4438 195.552 25.9184 195.191 25.5244C194.829 25.1139 194.296 24.9087 193.59 24.9087C192.752 24.9087 191.981 25.2042 191.275 25.7953C190.585 26.3699 189.961 27.3222 189.403 28.6521L189.009 25.6722C189.42 24.8841 189.879 24.2274 190.388 23.702C190.914 23.1602 191.488 22.7579 192.112 22.4952C192.752 22.2161 193.458 22.0766 194.23 22.0766C195.658 22.0766 196.832 22.5035 197.752 23.3572C198.671 24.2109 199.131 25.4587 199.131 27.1005V28.8737H195.732ZM186.596 36.0156V22.3721H189.822L189.994 25.0319V36.0156H186.596ZM208.573 36.3112C207.128 36.3112 205.88 36.0238 204.829 35.4492C203.795 34.8746 202.999 34.0619 202.441 33.0111C201.899 31.9439 201.628 30.6715 201.628 29.1939C201.628 27.7162 201.899 26.452 202.441 25.4013C202.999 24.3341 203.795 23.5132 204.829 22.9385C205.88 22.3639 207.128 22.0766 208.573 22.0766C210.74 22.0766 212.431 22.7087 213.646 23.9729C214.877 25.2371 215.493 26.9774 215.493 29.1939C215.493 30.6715 215.214 31.9439 214.656 33.0111C214.114 34.0619 213.326 34.8746 212.291 35.4492C211.257 36.0238 210.018 36.3112 208.573 36.3112ZM208.573 33.5529C209.673 33.5529 210.535 33.1671 211.159 32.3954C211.799 31.6073 212.119 30.5402 212.119 29.1939C212.119 27.8312 211.799 26.764 211.159 25.9923C210.535 25.2207 209.673 24.8348 208.573 24.8348C207.456 24.8348 206.578 25.2207 205.938 25.9923C205.314 26.764 205.002 27.8312 205.002 29.1939C205.002 30.5402 205.314 31.6073 205.938 32.3954C206.578 33.1671 207.456 33.5529 208.573 33.5529ZM225.698 36.0156C224.812 36.0156 224.032 35.8186 223.359 35.4246C222.702 35.0305 222.193 34.4805 221.832 33.7745C221.487 33.0686 221.315 32.2641 221.315 31.3611V19.9833L224.713 18.3825V31.3611C224.713 31.7715 224.771 32.1245 224.886 32.42C225.001 32.6992 225.23 32.9126 225.575 33.0604C225.92 33.2081 226.396 33.282 227.004 33.282H230.673V36.0156H225.698ZM218.458 25.1057V22.3721H228.333V25.1057H218.458ZM240.607 36.3112C239.163 36.3112 237.915 36.0238 236.864 35.4492C235.83 34.8746 235.033 34.0619 234.475 33.0111C233.933 31.9439 233.663 30.6715 233.663 29.1939C233.663 27.7162 233.933 26.452 234.475 25.4013C235.033 24.3341 235.83 23.5132 236.864 22.9385C237.915 22.3639 239.163 22.0766 240.607 22.0766C242.775 22.0766 244.466 22.7087 245.681 23.9729C246.912 25.2371 247.528 26.9774 247.528 29.1939C247.528 30.6715 247.249 31.9439 246.69 33.0111C246.149 34.0619 245.361 34.8746 244.326 35.4492C243.292 36.0238 242.052 36.3112 240.607 36.3112ZM240.607 33.5529C241.707 33.5529 242.569 33.1671 243.193 32.3954C243.834 31.6073 244.154 30.5402 244.154 29.1939C244.154 27.8312 243.834 26.764 243.193 25.9923C242.569 25.2207 241.707 24.8348 240.607 24.8348C239.491 24.8348 238.613 25.2207 237.972 25.9923C237.348 26.764 237.037 27.8312 237.037 29.1939C237.037 30.5402 237.348 31.6073 237.972 32.3954C238.613 33.1671 239.491 33.5529 240.607 33.5529ZM256.896 36.3112C255.467 36.3112 254.228 36.0238 253.177 35.4492C252.143 34.8746 251.346 34.0537 250.788 32.9865C250.246 31.9193 249.975 30.6551 249.975 29.1939C249.975 27.6998 250.263 26.4274 250.837 25.3766C251.428 24.3095 252.241 23.4968 253.276 22.9385C254.326 22.3639 255.558 22.0766 256.97 22.0766C258.168 22.0766 259.235 22.2982 260.171 22.7415C261.107 23.1684 261.854 23.7677 262.412 24.5393C262.97 25.311 263.282 26.2304 263.348 27.2976H259.95C259.818 26.4931 259.49 25.8856 258.964 25.4751C258.455 25.0647 257.791 24.8595 256.97 24.8595C256.264 24.8595 255.632 25.0319 255.073 25.3766C254.532 25.705 254.113 26.1893 253.817 26.8296C253.522 27.47 253.374 28.258 253.374 29.1939C253.374 30.573 253.702 31.6484 254.359 32.42C255.032 33.1917 255.878 33.5775 256.896 33.5775C257.421 33.5775 257.897 33.479 258.324 33.282C258.751 33.085 259.112 32.8059 259.408 32.4447C259.703 32.0671 259.908 31.6402 260.023 31.164H263.422C263.307 32.2148 262.954 33.126 262.363 33.8977C261.772 34.6529 261 35.244 260.048 35.6708C259.112 36.0977 258.061 36.3112 256.896 36.3112ZM272.642 36.3112C271.197 36.3112 269.95 36.0238 268.899 35.4492C267.864 34.8746 267.068 34.0619 266.51 33.0111C265.968 31.9439 265.697 30.6715 265.697 29.1939C265.697 27.7162 265.968 26.452 266.51 25.4013C267.068 24.3341 267.864 23.5132 268.899 22.9385C269.95 22.3639 271.197 22.0766 272.642 22.0766C274.809 22.0766 276.5 22.7087 277.715 23.9729C278.947 25.2371 279.562 26.9774 279.562 29.1939C279.562 30.6715 279.283 31.9439 278.725 33.0111C278.183 34.0619 277.395 34.8746 276.361 35.4492C275.327 36.0238 274.087 36.3112 272.642 36.3112ZM272.642 33.5529C273.742 33.5529 274.604 33.1671 275.228 32.3954C275.868 31.6073 276.189 30.5402 276.189 29.1939C276.189 27.8312 275.868 26.764 275.228 25.9923C274.604 25.2207 273.742 24.8348 272.642 24.8348C271.526 24.8348 270.647 25.2207 270.007 25.9923C269.383 26.764 269.071 27.8312 269.071 29.1939C269.071 30.5402 269.383 31.6073 270.007 32.3954C270.647 33.1671 271.526 33.5529 272.642 33.5529ZM286.96 36.0156V17.8407H290.359V36.0156H286.96ZM282.355 36.0156V33.282H295.013V36.0156H282.355ZM284.103 20.5743V17.8407H288.66V20.5743H284.103Z" fill="black"/>
<defs>
<filter id="filter0_d_3139_1276" x="-0.673082" y="-1.13462" width="65.7221" height="64.8618" filterUnits="userSpaceOnUse" color-interpolation-filters="sRGB">
<feFlood flood-opacity="0" result="BackgroundImageFix"/>
<feColorMatrix in="SourceAlpha" type="matrix" values="0 0 0 0 0 0 0 0 0 0 0 0 0 0 0 0 0 0 127 0" result="hardAlpha"/>
<feOffset dy="4.53847"/>
<feGaussianBlur stdDeviation="2.83654"/>
<feComposite in2="hardAlpha" operator="out"/>
<feColorMatrix type="matrix" values="0 0 0 0 0 0 0 0 0 0 0 0 0 0 0 0 0 0 0.06 0"/>
<feBlend mode="normal" in2="BackgroundImageFix" result="effect1_dropShadow_3139_1276"/>
<feBlend mode="normal" in="SourceGraphic" in2="effect1_dropShadow_3139_1276" result="shape"/>
</filter>
<clipPath id="clip0_3139_1276">
<rect width="38.09" height="38.2037" rx="3.46473" transform="matrix(-0.712724 -0.701445 0.712724 -0.701445 32.1475 53.5156)" fill="white"/>
</clipPath>
</defs>
</svg>
