<?xml version="1.0" encoding="UTF-8"?>
<svg width="1024" height="395" fill="none" version="1.1" viewBox="0 0 505 195" xmlns="http://www.w3.org/2000/svg" xmlns:cc="http://creativecommons.org/ns#" xmlns:dc="http://purl.org/dc/elements/1.1/" xmlns:rdf="http://www.w3.org/1999/02/22-rdf-syntax-ns#">
 <metadata>
  <rdf:RDF>
   <cc:Work rdf:about="">
    <dc:format>image/svg+xml</dc:format>
    <dc:type rdf:resource="http://purl.org/dc/dcmitype/StillImage"/>
    <dc:title/>
   </cc:Work>
  </rdf:RDF>
 </metadata>
 <rect x=".5" y=".5" width="504" height="194" rx="7.4051" fill="#fff" stroke="#000" stroke-opacity=".2"/>
 <path d="m52 155.11h426" stroke="#333" stroke-miterlimit="10" stroke-width=".69164"/>
 <g stroke="#ccc" stroke-miterlimit="10" stroke-width=".69164">
  <path d="m52 129.11h426"/>
  <path d="m52 77.108h426"/>
  <path d="m52 103.11h426"/>
  <path d="m50 24.108h426"/>
  <path d="m52 50.108h426"/>
 </g>
 <path d="m52 122.72 3.6379-2.778 3.638 4.166 3.6379-4.166 3.6379 2.778h3.638l3.6379-5.556 3.6379 2.778 3.638-1.389 3.6379-15.278 3.6379-5.5555 3.638-2.7778 3.6379 8.3333 3.6379 5.556h7.2759l3.638 4.166 3.638 5.556 3.638 2.778 3.638-2.778 3.638 4.167h3.638l3.638-4.167h7.275l3.638 1.389 3.638-4.167 3.638-2.778 3.638-2.777 3.638 5.555 3.638-11.111h7.276l3.638-9.7223 3.638 4.1667 3.638 2.7776 3.638 6.945 3.637 5.555h3.638l3.638 4.167 3.638-1.389 3.638 4.167 3.638 2.777 3.638-5.555 3.638-4.167 3.638 2.778 3.638-1.389 3.638 1.389 3.638-5.556 3.638 8.334 3.638-4.167 3.638-11.111 3.637 1.389 3.638-2.778 3.638-4.1666 3.638-16.667 3.638 2.7778 3.638-2.7778 3.638 6.9445 3.638 5.5555 3.638-6.9444 3.638 8.3333 3.638-5.5555 3.638 1.3889h3.638l3.638-5.5556 3.637 4.1667 3.638-2.7778 3.638-8.3333 3.638-9.7223 3.638 9.7223 3.638-2.7778 3.638 11.111 3.638 2.7778 3.638 1.3889 3.638 8.333 3.638 1.389 3.638-25 3.638-52.778 3.638 37.5 3.638 12.5 3.637 11.111 3.638-6.9444 3.638 6.9444 3.638 4.1667 3.638-2.7778h3.638l3.638-1.3889 3.638 5.5556 3.638 2.7777h3.638l3.638 1.3889 3.638-4.1666 3.638-2.7778 3.638-4.1667 3.638-5.5555 3.637-1.3889h3.638l3.638 4.1666 3.638-1.3888 3.638 8.3333 3.638-4.1667 3.638-2.7778 3.638-11.111 3.638 8.3334 3.638 4.1666 3.638 4.1667 3.638-4.1667 3.638 5.5556 3.638 1.3889 3.637 11.111 3.638 1.389 3.638-2.7776 3.638 2.7776 3.638-5.5554 3.638-1.3889 3.638 4.1667" stroke="#8AC427" stroke-miterlimit="10" stroke-width="1.3833"/>
 <g fill="#000">
  <path d="m55.413 172.52c0.0669 0 0.1199 0.02 0.1591 0.059s0.0588 0.09 0.0588 0.152v0.373h-3.306v-0.211c0-0.043 0.0092-0.088 0.0276-0.134 0.0185-0.047 0.0473-0.089 0.0865-0.128l1.5873-1.595c0.1314-0.133 0.2513-0.261 0.3597-0.383 0.1083-0.125 0.2005-0.249 0.2766-0.374 0.0761-0.124 0.1349-0.25 0.1764-0.377 0.0415-0.129 0.0622-0.266 0.0622-0.411 0-0.146-0.023-0.272-0.0691-0.381-0.0461-0.11-0.1095-0.202-0.1902-0.273-0.0784-0.071-0.1718-0.125-0.2802-0.159-0.1083-0.037-0.2247-0.055-0.3492-0.055-0.1268 0-0.2433 0.018-0.3493 0.055-0.1061 0.037-0.2006 0.089-0.2836 0.156-0.0807 0.064-0.1487 0.141-0.204 0.231s-0.0945 0.189-0.1176 0.298c-0.0277 0.08-0.0657 0.135-0.1141 0.162-0.0461 0.026-0.1118 0.032-0.1971 0.021l-0.3216-0.055c0.0322-0.226 0.0945-0.426 0.1867-0.599 0.0945-0.175 0.2121-0.321 0.3527-0.439 0.143-0.117 0.3055-0.206 0.4876-0.266 0.1822-0.062 0.3793-0.094 0.5914-0.094 0.2098 0 0.4058 0.032 0.5879 0.094s0.34 0.153 0.4738 0.273c0.1337 0.118 0.2386 0.262 0.3147 0.432 0.076 0.171 0.1141 0.365 0.1141 0.581 0 0.185-0.0277 0.356-0.083 0.516-0.0554 0.156-0.1303 0.306-0.2248 0.449s-0.204 0.283-0.3285 0.419c-0.1222 0.136-0.2525 0.273-0.3908 0.411l-1.3072 1.335c0.0922-0.025 0.1856-0.045 0.2801-0.059 0.0945-0.016 0.1856-0.024 0.2732-0.024h1.6599zm4.4029-1.892c0 0.434-0.0473 0.81-0.1418 1.128-0.0922 0.316-0.219 0.577-0.3804 0.785-0.1614 0.207-0.3528 0.362-0.5741 0.463-0.219 0.102-0.4542 0.152-0.7055 0.152-0.2536 0-0.4899-0.05-0.7089-0.152-0.2167-0.101-0.4058-0.256-0.5671-0.463-0.1614-0.208-0.2882-0.469-0.3804-0.785-0.0923-0.318-0.1384-0.694-0.1384-1.128 0-0.433 0.0461-0.809 0.1384-1.127 0.0922-0.318 0.219-0.581 0.3804-0.789 0.1613-0.209 0.3504-0.365 0.5671-0.466 0.219-0.102 0.4553-0.153 0.7089-0.153 0.2513 0 0.4865 0.051 0.7055 0.153 0.2213 0.101 0.4127 0.257 0.5741 0.466 0.1614 0.208 0.2882 0.471 0.3804 0.789 0.0945 0.318 0.1418 0.694 0.1418 1.127zm-0.6398 0c0-0.378-0.0323-0.695-0.0968-0.951-0.0623-0.258-0.1476-0.465-0.2559-0.622-0.1061-0.157-0.2294-0.269-0.3701-0.336-0.1406-0.069-0.287-0.103-0.4392-0.103-0.1521 0-0.2985 0.034-0.4392 0.103-0.1406 0.067-0.2639 0.179-0.37 0.336-0.106 0.157-0.1913 0.364-0.2559 0.622-0.0622 0.256-0.0934 0.573-0.0934 0.951s0.0312 0.695 0.0934 0.951c0.0646 0.256 0.1499 0.463 0.2559 0.619 0.1061 0.157 0.2294 0.27 0.37 0.339 0.1407 0.067 0.2871 0.101 0.4392 0.101 0.1522 0 0.2986-0.034 0.4392-0.101 0.1407-0.069 0.264-0.182 0.3701-0.339 0.1083-0.156 0.1936-0.363 0.2559-0.619 0.0645-0.256 0.0968-0.573 0.0968-0.951zm4.261 1.892c0.0669 0 0.1199 0.02 0.1591 0.059s0.0588 0.09 0.0588 0.152v0.373h-3.306v-0.211c0-0.043 0.0092-0.088 0.0276-0.134 0.0185-0.047 0.0473-0.089 0.0865-0.128l1.5873-1.595c0.1314-0.133 0.2513-0.261 0.3596-0.383 0.1084-0.125 0.2006-0.249 0.2767-0.374 0.0761-0.124 0.1349-0.25 0.1764-0.377 0.0415-0.129 0.0622-0.266 0.0622-0.411 0-0.146-0.023-0.272-0.0691-0.381-0.0462-0.11-0.1096-0.202-0.1902-0.273-0.0784-0.071-0.1718-0.125-0.2802-0.159-0.1083-0.037-0.2247-0.055-0.3492-0.055-0.1268 0-0.2433 0.018-0.3493 0.055-0.1061 0.037-0.2006 0.089-0.2836 0.156-0.0807 0.064-0.1487 0.141-0.204 0.231-0.0554 0.09-0.0945 0.189-0.1176 0.298-0.0277 0.08-0.0657 0.135-0.1141 0.162-0.0461 0.026-0.1118 0.032-0.1971 0.021l-0.3217-0.055c0.0323-0.226 0.0946-0.426 0.1868-0.599 0.0945-0.175 0.2121-0.321 0.3527-0.439 0.143-0.117 0.3055-0.206 0.4876-0.266 0.1822-0.062 0.3793-0.094 0.5914-0.094 0.2098 0 0.4057 0.032 0.5879 0.094 0.1821 0.062 0.34 0.153 0.4738 0.273 0.1337 0.118 0.2386 0.262 0.3146 0.432 0.0761 0.171 0.1142 0.365 0.1142 0.581 0 0.185-0.0277 0.356-0.083 0.516-0.0554 0.156-0.1303 0.306-0.2248 0.449s-0.204 0.283-0.3285 0.419c-0.1222 0.136-0.2525 0.273-0.3908 0.411l-1.3072 1.335c0.0922-0.025 0.1856-0.045 0.2801-0.059 0.0945-0.016 0.1856-0.024 0.2732-0.024h1.6599zm4.4029-1.892c0 0.434-0.0473 0.81-0.1418 1.128-0.0923 0.316-0.2191 0.577-0.3804 0.785-0.1614 0.207-0.3528 0.362-0.5741 0.463-0.219 0.102-0.4542 0.152-0.7055 0.152-0.2536 0-0.4899-0.05-0.7089-0.152-0.2167-0.101-0.4058-0.256-0.5671-0.463-0.1614-0.208-0.2882-0.469-0.3804-0.785-0.0923-0.318-0.1384-0.694-0.1384-1.128 0-0.433 0.0461-0.809 0.1384-1.127 0.0922-0.318 0.219-0.581 0.3804-0.789 0.1613-0.209 0.3504-0.365 0.5671-0.466 0.219-0.102 0.4553-0.153 0.7089-0.153 0.2513 0 0.4865 0.051 0.7055 0.153 0.2213 0.101 0.4127 0.257 0.5741 0.466 0.1613 0.208 0.2881 0.471 0.3804 0.789 0.0945 0.318 0.1418 0.694 0.1418 1.127zm-0.6398 0c0-0.378-0.0323-0.695-0.0968-0.951-0.0623-0.258-0.1476-0.465-0.256-0.622-0.106-0.157-0.2293-0.269-0.37-0.336-0.1406-0.069-0.287-0.103-0.4392-0.103-0.1521 0-0.2985 0.034-0.4392 0.103-0.1406 0.067-0.2639 0.179-0.37 0.336-0.106 0.157-0.1913 0.364-0.2559 0.622-0.0622 0.256-0.0934 0.573-0.0934 0.951s0.0312 0.695 0.0934 0.951c0.0646 0.256 0.1499 0.463 0.2559 0.619 0.1061 0.157 0.2294 0.27 0.37 0.339 0.1407 0.067 0.2871 0.101 0.4392 0.101 0.1522 0 0.2986-0.034 0.4392-0.101 0.1407-0.069 0.264-0.182 0.37-0.339 0.1084-0.156 0.1937-0.363 0.256-0.619 0.0645-0.256 0.0968-0.573 0.0968-0.951z"/>
  <path d="m106.26 171.27-0.779-2.016c-0.023-0.06-0.047-0.13-0.072-0.208-0.026-0.081-0.05-0.166-0.073-0.256-0.048 0.187-0.098 0.342-0.149 0.467l-0.778 2.013h1.851zm1.397 1.839h-0.519c-0.06 0-0.108-0.015-0.145-0.045s-0.065-0.068-0.083-0.114l-0.464-1.196h-2.223l-0.464 1.196c-0.014 0.042-0.04 0.079-0.079 0.111s-0.088 0.048-0.146 0.048h-0.518l1.981-4.955h0.678l1.982 4.955zm1.112-0.843c0.113 0.152 0.236 0.259 0.37 0.321s0.283 0.094 0.449 0.094c0.328 0 0.579-0.117 0.754-0.35 0.176-0.233 0.263-0.565 0.263-0.996 0-0.228-0.021-0.424-0.062-0.588-0.039-0.163-0.097-0.297-0.173-0.401-0.076-0.106-0.169-0.183-0.28-0.231-0.111-0.049-0.236-0.073-0.377-0.073-0.201 0-0.377 0.046-0.529 0.138-0.15 0.093-0.288 0.223-0.415 0.391v1.695zm-0.031-2.117c0.147-0.182 0.318-0.328 0.512-0.439 0.193-0.111 0.415-0.166 0.663-0.166 0.203 0 0.387 0.039 0.55 0.118 0.164 0.076 0.304 0.19 0.419 0.342 0.115 0.15 0.204 0.337 0.266 0.56 0.062 0.224 0.093 0.481 0.093 0.771 0 0.259-0.034 0.499-0.103 0.723-0.069 0.221-0.17 0.414-0.301 0.578-0.129 0.161-0.288 0.289-0.477 0.383-0.187 0.093-0.398 0.139-0.633 0.139-0.215 0-0.399-0.036-0.554-0.107-0.152-0.074-0.287-0.176-0.404-0.305v1.55h-0.619v-4.69h0.37c0.087 0 0.142 0.043 0.162 0.128l0.056 0.415zm3.873 0.159c0.111-0.24 0.247-0.426 0.408-0.56 0.162-0.136 0.359-0.204 0.592-0.204 0.073 0 0.144 8e-3 0.211 0.024 0.069 0.016 0.13 0.042 0.183 0.076l-0.045 0.46c-0.014 0.058-0.049 0.087-0.104 0.087-0.032 0-0.079-7e-3 -0.142-0.021-0.062-0.014-0.132-0.021-0.211-0.021-0.11 0-0.209 0.016-0.297 0.049-0.085 0.032-0.163 0.08-0.232 0.145-0.067 0.062-0.128 0.14-0.183 0.235-0.053 0.092-0.101 0.198-0.145 0.318v2.213h-0.619v-3.503h0.353c0.066 0 0.112 0.013 0.138 0.038 0.025 0.026 0.042 0.069 0.052 0.132l0.041 0.532z"/>
  <path d="m155.34 171.4c0 0.276-0.034 0.524-0.104 0.743-0.066 0.219-0.167 0.405-0.3 0.557-0.132 0.15-0.294 0.265-0.488 0.346-0.194 0.08-0.416 0.121-0.667 0.121-0.229 0-0.462-0.033-0.699-0.097 5e-3 -0.067 0.01-0.133 0.017-0.197 7e-3 -0.067 0.013-0.133 0.018-0.197 4e-3 -0.04 0.018-0.071 0.041-0.094 0.025-0.025 0.063-0.038 0.114-0.038 0.042 0 0.096 0.011 0.163 0.031 0.069 0.021 0.161 0.032 0.276 0.032 0.153 0 0.289-0.024 0.408-0.07 0.12-0.046 0.221-0.117 0.301-0.214 0.081-0.097 0.142-0.22 0.184-0.37 0.043-0.152 0.065-0.332 0.065-0.54v-3.257h0.671v3.244zm3.857-1.792v3.503h-0.366c-0.088 0-0.143-0.042-0.166-0.128l-0.049-0.376c-0.152 0.168-0.322 0.304-0.511 0.408-0.19 0.101-0.406 0.152-0.651 0.152-0.191 0-0.36-0.031-0.508-0.094-0.145-0.064-0.267-0.154-0.367-0.269-0.099-0.116-0.174-0.255-0.224-0.419-0.049-0.164-0.073-0.344-0.073-0.543v-2.234h0.616v2.234c0 0.265 0.06 0.471 0.179 0.616 0.123 0.145 0.308 0.218 0.557 0.218 0.182 0 0.352-0.043 0.509-0.128 0.159-0.088 0.305-0.208 0.439-0.36v-2.58h0.615zm1.613-1.591v5.094h-0.616v-5.094h0.616z"/>
  <path d="m202.21 170.63c0 0.372-0.058 0.713-0.176 1.024-0.117 0.309-0.283 0.575-0.498 0.799-0.214 0.223-0.472 0.397-0.774 0.522-0.3 0.122-0.632 0.183-0.996 0.183-0.365 0-0.697-0.061-0.996-0.183-0.3-0.125-0.557-0.299-0.772-0.522-0.214-0.224-0.38-0.49-0.498-0.799-0.117-0.311-0.176-0.652-0.176-1.024 0-0.371 0.059-0.711 0.176-1.02 0.118-0.311 0.284-0.579 0.498-0.802 0.215-0.226 0.472-0.401 0.772-0.526 0.299-0.124 0.631-0.187 0.996-0.187 0.364 0 0.696 0.063 0.996 0.187 0.302 0.125 0.56 0.3 0.774 0.526 0.215 0.223 0.381 0.491 0.498 0.802 0.118 0.309 0.176 0.649 0.176 1.02zm-0.688 0c0-0.304-0.041-0.577-0.124-0.819s-0.201-0.446-0.353-0.612c-0.152-0.169-0.337-0.298-0.553-0.388-0.217-0.09-0.459-0.135-0.726-0.135-0.266 0-0.506 0.045-0.723 0.135s-0.403 0.219-0.557 0.388c-0.152 0.166-0.27 0.37-0.353 0.612s-0.124 0.515-0.124 0.819c0 0.305 0.041 0.578 0.124 0.82 0.083 0.24 0.201 0.444 0.353 0.612 0.154 0.166 0.34 0.294 0.557 0.384 0.217 0.087 0.457 0.131 0.723 0.131 0.267 0 0.509-0.044 0.726-0.131 0.216-0.09 0.401-0.218 0.553-0.384 0.152-0.168 0.27-0.372 0.353-0.612 0.083-0.242 0.124-0.515 0.124-0.82zm3.894-0.404c-0.019 0.025-0.037 0.045-0.055 0.059-0.019 0.013-0.044 0.02-0.077 0.02-0.034 0-0.072-0.014-0.114-0.041-0.041-0.03-0.093-0.062-0.155-0.097-0.06-0.035-0.135-0.066-0.225-0.093-0.088-0.03-0.196-0.045-0.325-0.045-0.173 0-0.325 0.031-0.457 0.093-0.131 0.06-0.242 0.148-0.332 0.263-0.087 0.115-0.154 0.255-0.2 0.418-0.044 0.164-0.066 0.347-0.066 0.55 0 0.212 0.024 0.401 0.073 0.567 0.048 0.164 0.116 0.302 0.204 0.415 0.09 0.111 0.197 0.196 0.321 0.256 0.127 0.058 0.269 0.087 0.426 0.087 0.15 0 0.273-0.018 0.37-0.052 0.097-0.037 0.176-0.078 0.238-0.121 0.065-0.044 0.118-0.083 0.159-0.118 0.044-0.037 0.087-0.055 0.128-0.055 0.051 0 0.09 0.019 0.118 0.059l0.173 0.224c-0.076 0.095-0.163 0.176-0.259 0.242-0.097 0.067-0.202 0.124-0.315 0.17-0.111 0.044-0.227 0.076-0.349 0.097-0.123 0.02-0.247 0.031-0.374 0.031-0.219 0-0.423-0.041-0.612-0.121-0.187-0.081-0.349-0.197-0.488-0.35-0.138-0.154-0.246-0.343-0.325-0.567-0.078-0.223-0.117-0.478-0.117-0.764 0-0.26 0.035-0.501 0.107-0.723 0.074-0.221 0.18-0.411 0.318-0.57 0.141-0.162 0.312-0.287 0.515-0.377 0.206-0.09 0.441-0.135 0.706-0.135 0.247 0 0.463 0.04 0.65 0.121 0.189 0.078 0.356 0.19 0.501 0.335l-0.162 0.222zm1.94 2.936c-0.276 0-0.49-0.078-0.64-0.232-0.147-0.154-0.221-0.377-0.221-0.667v-2.144h-0.422c-0.037 0-0.068-0.011-0.093-0.032-0.026-0.023-0.038-0.057-0.038-0.103v-0.246l0.574-0.073 0.142-1.082c7e-3 -0.035 0.022-0.062 0.045-0.083 0.025-0.023 0.057-0.034 0.096-0.034h0.312v1.206h1.013v0.447h-1.013v2.102c0 0.148 0.035 0.257 0.107 0.329 0.071 0.071 0.164 0.107 0.277 0.107 0.064 0 0.119-8e-3 0.166-0.024 0.048-0.019 0.089-0.038 0.124-0.059s0.063-0.039 0.086-0.055c0.026-0.019 0.048-0.028 0.066-0.028 0.032 0 0.061 0.019 0.087 0.059l0.179 0.294c-0.106 0.099-0.234 0.177-0.383 0.235-0.15 0.055-0.305 0.083-0.464 0.083z"/>
  <path d="m249.41 172.52c0.067 0 0.12 0.02 0.159 0.059 0.04 0.039 0.059 0.09 0.059 0.152v0.373h-3.306v-0.211c0-0.043 9e-3 -0.088 0.028-0.134 0.018-0.047 0.047-0.089 0.086-0.128l1.588-1.595c0.131-0.133 0.251-0.261 0.359-0.383 0.109-0.125 0.201-0.249 0.277-0.374 0.076-0.124 0.135-0.25 0.176-0.377 0.042-0.129 0.062-0.266 0.062-0.411 0-0.146-0.023-0.272-0.069-0.381-0.046-0.11-0.109-0.202-0.19-0.273-0.078-0.071-0.172-0.125-0.28-0.159-0.108-0.037-0.225-0.055-0.349-0.055-0.127 0-0.244 0.018-0.35 0.055s-0.2 0.089-0.283 0.156c-0.081 0.064-0.149 0.141-0.204 0.231-0.056 0.09-0.095 0.189-0.118 0.298-0.027 0.08-0.065 0.135-0.114 0.162-0.046 0.026-0.112 0.032-0.197 0.021l-0.322-0.055c0.033-0.226 0.095-0.426 0.187-0.599 0.095-0.175 0.212-0.321 0.353-0.439 0.143-0.117 0.305-0.206 0.487-0.266 0.183-0.062 0.38-0.094 0.592-0.094 0.21 0 0.406 0.032 0.588 0.094s0.34 0.153 0.473 0.273c0.134 0.118 0.239 0.262 0.315 0.432 0.076 0.171 0.114 0.365 0.114 0.581 0 0.185-0.027 0.356-0.083 0.516-0.055 0.156-0.13 0.306-0.225 0.449-0.094 0.143-0.204 0.283-0.328 0.419-0.122 0.136-0.252 0.273-0.391 0.411l-1.307 1.335c0.092-0.025 0.186-0.045 0.28-0.059 0.095-0.016 0.186-0.024 0.273-0.024h1.66zm4.403-1.892c0 0.434-0.047 0.81-0.142 1.128-0.092 0.316-0.219 0.577-0.38 0.785-0.162 0.207-0.353 0.362-0.574 0.463-0.219 0.102-0.454 0.152-0.706 0.152-0.253 0-0.49-0.05-0.709-0.152-0.216-0.101-0.405-0.256-0.567-0.463-0.161-0.208-0.288-0.469-0.38-0.785-0.092-0.318-0.138-0.694-0.138-1.128 0-0.433 0.046-0.809 0.138-1.127s0.219-0.581 0.38-0.789c0.162-0.209 0.351-0.365 0.567-0.466 0.219-0.102 0.456-0.153 0.709-0.153 0.252 0 0.487 0.051 0.706 0.153 0.221 0.101 0.412 0.257 0.574 0.466 0.161 0.208 0.288 0.471 0.38 0.789 0.095 0.318 0.142 0.694 0.142 1.127zm-0.64 0c0-0.378-0.032-0.695-0.097-0.951-0.062-0.258-0.147-0.465-0.255-0.622-0.106-0.157-0.23-0.269-0.37-0.336-0.141-0.069-0.287-0.103-0.44-0.103-0.152 0-0.298 0.034-0.439 0.103-0.14 0.067-0.264 0.179-0.37 0.336s-0.191 0.364-0.256 0.622c-0.062 0.256-0.093 0.573-0.093 0.951s0.031 0.695 0.093 0.951c0.065 0.256 0.15 0.463 0.256 0.619 0.106 0.157 0.23 0.27 0.37 0.339 0.141 0.067 0.287 0.101 0.439 0.101 0.153 0 0.299-0.034 0.44-0.101 0.14-0.069 0.264-0.182 0.37-0.339 0.108-0.156 0.193-0.363 0.255-0.619 0.065-0.256 0.097-0.573 0.097-0.951zm4.261 1.892c0.067 0 0.12 0.02 0.159 0.059 0.04 0.039 0.059 0.09 0.059 0.152v0.373h-3.306v-0.211c0-0.043 9e-3 -0.088 0.028-0.134 0.018-0.047 0.047-0.089 0.086-0.128l1.588-1.595c0.131-0.133 0.251-0.261 0.359-0.383 0.109-0.125 0.201-0.249 0.277-0.374 0.076-0.124 0.135-0.25 0.176-0.377 0.042-0.129 0.063-0.266 0.063-0.411 0-0.146-0.024-0.272-0.07-0.381-0.046-0.11-0.109-0.202-0.19-0.273-0.078-0.071-0.172-0.125-0.28-0.159-0.108-0.037-0.225-0.055-0.349-0.055-0.127 0-0.243 0.018-0.35 0.055-0.106 0.037-0.2 0.089-0.283 0.156-0.081 0.064-0.149 0.141-0.204 0.231s-0.095 0.189-0.118 0.298c-0.027 0.08-0.065 0.135-0.114 0.162-0.046 0.026-0.112 0.032-0.197 0.021l-0.322-0.055c0.033-0.226 0.095-0.426 0.187-0.599 0.095-0.175 0.212-0.321 0.353-0.439 0.143-0.117 0.305-0.206 0.488-0.266 0.182-0.062 0.379-0.094 0.591-0.094 0.21 0 0.406 0.032 0.588 0.094s0.34 0.153 0.474 0.273c0.133 0.118 0.238 0.262 0.314 0.432 0.076 0.171 0.114 0.365 0.114 0.581 0 0.185-0.027 0.356-0.083 0.516-0.055 0.156-0.13 0.306-0.224 0.449-0.095 0.143-0.204 0.283-0.329 0.419-0.122 0.136-0.252 0.273-0.391 0.411l-1.307 1.335c0.092-0.025 0.186-0.045 0.28-0.059 0.095-0.016 0.186-0.024 0.273-0.024h1.66zm4.12 0.114v0.47h-2.656v-0.47h1.061v-3.379c0-0.101 4e-3 -0.204 0.011-0.307l-0.882 0.757c-0.03 0.025-0.06 0.041-0.09 0.048-0.03 5e-3 -0.058 5e-3 -0.083 0-0.025-4e-3 -0.05-0.013-0.073-0.027-0.02-0.014-0.037-0.029-0.048-0.045l-0.194-0.266 1.477-1.277h0.501v4.496h0.976z"/>
  <path d="m306.26 171.27-0.779-2.016c-0.023-0.06-0.047-0.13-0.072-0.208-0.026-0.081-0.05-0.166-0.073-0.256-0.048 0.187-0.098 0.342-0.149 0.467l-0.778 2.013h1.851zm1.397 1.839h-0.519c-0.06 0-0.108-0.015-0.145-0.045s-0.065-0.068-0.083-0.114l-0.464-1.196h-2.223l-0.464 1.196c-0.014 0.042-0.04 0.079-0.079 0.111s-0.088 0.048-0.146 0.048h-0.518l1.981-4.955h0.678l1.982 4.955zm1.112-0.843c0.113 0.152 0.236 0.259 0.37 0.321s0.283 0.094 0.449 0.094c0.328 0 0.579-0.117 0.754-0.35 0.176-0.233 0.263-0.565 0.263-0.996 0-0.228-0.021-0.424-0.062-0.588-0.039-0.163-0.097-0.297-0.173-0.401-0.076-0.106-0.169-0.183-0.28-0.231-0.111-0.049-0.236-0.073-0.377-0.073-0.201 0-0.377 0.046-0.529 0.138-0.15 0.093-0.288 0.223-0.415 0.391v1.695zm-0.031-2.117c0.147-0.182 0.318-0.328 0.512-0.439 0.193-0.111 0.415-0.166 0.663-0.166 0.203 0 0.387 0.039 0.55 0.118 0.164 0.076 0.304 0.19 0.419 0.342 0.115 0.15 0.204 0.337 0.266 0.56 0.062 0.224 0.093 0.481 0.093 0.771 0 0.259-0.034 0.499-0.103 0.723-0.069 0.221-0.17 0.414-0.301 0.578-0.129 0.161-0.288 0.289-0.477 0.383-0.187 0.093-0.398 0.139-0.633 0.139-0.215 0-0.399-0.036-0.554-0.107-0.152-0.074-0.287-0.176-0.404-0.305v1.55h-0.619v-4.69h0.37c0.087 0 0.142 0.043 0.162 0.128l0.056 0.415zm3.873 0.159c0.111-0.24 0.247-0.426 0.408-0.56 0.162-0.136 0.359-0.204 0.592-0.204 0.073 0 0.144 8e-3 0.211 0.024 0.069 0.016 0.13 0.042 0.183 0.076l-0.045 0.46c-0.014 0.058-0.049 0.087-0.104 0.087-0.032 0-0.079-7e-3 -0.142-0.021-0.062-0.014-0.132-0.021-0.211-0.021-0.11 0-0.209 0.016-0.297 0.049-0.085 0.032-0.163 0.08-0.232 0.145-0.067 0.062-0.128 0.14-0.183 0.235-0.053 0.092-0.101 0.198-0.145 0.318v2.213h-0.619v-3.503h0.353c0.066 0 0.112 0.013 0.138 0.038 0.025 0.026 0.042 0.069 0.052 0.132l0.041 0.532z"/>
  <path d="m355.34 171.4c0 0.276-0.034 0.524-0.104 0.743-0.066 0.219-0.167 0.405-0.3 0.557-0.132 0.15-0.294 0.265-0.488 0.346-0.194 0.08-0.416 0.121-0.667 0.121-0.229 0-0.462-0.033-0.699-0.097 5e-3 -0.067 0.01-0.133 0.017-0.197 7e-3 -0.067 0.013-0.133 0.018-0.197 4e-3 -0.04 0.018-0.071 0.041-0.094 0.025-0.025 0.063-0.038 0.114-0.038 0.042 0 0.096 0.011 0.163 0.031 0.069 0.021 0.161 0.032 0.276 0.032 0.153 0 0.289-0.024 0.408-0.07 0.12-0.046 0.221-0.117 0.301-0.214 0.081-0.097 0.142-0.22 0.184-0.37 0.043-0.152 0.065-0.332 0.065-0.54v-3.257h0.671v3.244zm3.857-1.792v3.503h-0.366c-0.088 0-0.143-0.042-0.166-0.128l-0.049-0.376c-0.152 0.168-0.322 0.304-0.511 0.408-0.19 0.101-0.406 0.152-0.651 0.152-0.191 0-0.36-0.031-0.508-0.094-0.145-0.064-0.267-0.154-0.367-0.269-0.099-0.116-0.174-0.255-0.224-0.419-0.049-0.164-0.073-0.344-0.073-0.543v-2.234h0.616v2.234c0 0.265 0.06 0.471 0.179 0.616 0.123 0.145 0.308 0.218 0.557 0.218 0.182 0 0.352-0.043 0.509-0.128 0.159-0.088 0.305-0.208 0.439-0.36v-2.58h0.615zm1.613-1.591v5.094h-0.616v-5.094h0.616z"/>
  <path d="m401.21 170.63c0 0.372-0.058 0.713-0.176 1.024-0.117 0.309-0.283 0.575-0.498 0.799-0.214 0.223-0.472 0.397-0.774 0.522-0.3 0.122-0.632 0.183-0.996 0.183-0.365 0-0.697-0.061-0.996-0.183-0.3-0.125-0.557-0.299-0.772-0.522-0.214-0.224-0.38-0.49-0.498-0.799-0.117-0.311-0.176-0.652-0.176-1.024 0-0.371 0.059-0.711 0.176-1.02 0.118-0.311 0.284-0.579 0.498-0.802 0.215-0.226 0.472-0.401 0.772-0.526 0.299-0.124 0.631-0.187 0.996-0.187 0.364 0 0.696 0.063 0.996 0.187 0.302 0.125 0.56 0.3 0.774 0.526 0.215 0.223 0.381 0.491 0.498 0.802 0.118 0.309 0.176 0.649 0.176 1.02zm-0.688 0c0-0.304-0.041-0.577-0.124-0.819s-0.201-0.446-0.353-0.612c-0.152-0.169-0.337-0.298-0.553-0.388-0.217-0.09-0.459-0.135-0.726-0.135-0.266 0-0.506 0.045-0.723 0.135s-0.403 0.219-0.557 0.388c-0.152 0.166-0.27 0.37-0.353 0.612s-0.124 0.515-0.124 0.819c0 0.305 0.041 0.578 0.124 0.82 0.083 0.24 0.201 0.444 0.353 0.612 0.154 0.166 0.34 0.294 0.557 0.384 0.217 0.087 0.457 0.131 0.723 0.131 0.267 0 0.509-0.044 0.726-0.131 0.216-0.09 0.401-0.218 0.553-0.384 0.152-0.168 0.27-0.372 0.353-0.612 0.083-0.242 0.124-0.515 0.124-0.82zm3.894-0.404c-0.019 0.025-0.037 0.045-0.055 0.059-0.019 0.013-0.044 0.02-0.077 0.02-0.034 0-0.072-0.014-0.114-0.041-0.041-0.03-0.093-0.062-0.155-0.097-0.06-0.035-0.135-0.066-0.225-0.093-0.088-0.03-0.196-0.045-0.325-0.045-0.173 0-0.325 0.031-0.457 0.093-0.131 0.06-0.242 0.148-0.332 0.263-0.087 0.115-0.154 0.255-0.2 0.418-0.044 0.164-0.066 0.347-0.066 0.55 0 0.212 0.024 0.401 0.073 0.567 0.048 0.164 0.116 0.302 0.204 0.415 0.09 0.111 0.197 0.196 0.321 0.256 0.127 0.058 0.269 0.087 0.426 0.087 0.15 0 0.273-0.018 0.37-0.052 0.097-0.037 0.176-0.078 0.238-0.121 0.065-0.044 0.118-0.083 0.159-0.118 0.044-0.037 0.087-0.055 0.128-0.055 0.051 0 0.09 0.019 0.118 0.059l0.173 0.224c-0.076 0.095-0.163 0.176-0.259 0.242-0.097 0.067-0.202 0.124-0.315 0.17-0.111 0.044-0.227 0.076-0.349 0.097-0.123 0.02-0.247 0.031-0.374 0.031-0.219 0-0.423-0.041-0.612-0.121-0.187-0.081-0.349-0.197-0.488-0.35-0.138-0.154-0.246-0.343-0.325-0.567-0.078-0.223-0.117-0.478-0.117-0.764 0-0.26 0.035-0.501 0.107-0.723 0.074-0.221 0.18-0.411 0.318-0.57 0.141-0.162 0.312-0.287 0.515-0.377 0.206-0.09 0.441-0.135 0.706-0.135 0.247 0 0.463 0.04 0.65 0.121 0.189 0.078 0.356 0.19 0.501 0.335l-0.162 0.222zm1.94 2.936c-0.276 0-0.49-0.078-0.64-0.232-0.147-0.154-0.221-0.377-0.221-0.667v-2.144h-0.422c-0.037 0-0.068-0.011-0.093-0.032-0.026-0.023-0.038-0.057-0.038-0.103v-0.246l0.574-0.073 0.142-1.082c7e-3 -0.035 0.022-0.062 0.045-0.083 0.025-0.023 0.057-0.034 0.096-0.034h0.312v1.206h1.013v0.447h-1.013v2.102c0 0.148 0.035 0.257 0.107 0.329 0.071 0.071 0.164 0.107 0.277 0.107 0.064 0 0.119-8e-3 0.166-0.024 0.048-0.019 0.089-0.038 0.124-0.059s0.063-0.039 0.086-0.055c0.026-0.019 0.048-0.028 0.066-0.028 0.032 0 0.061 0.019 0.087 0.059l0.179 0.294c-0.106 0.099-0.234 0.177-0.383 0.235-0.15 0.055-0.305 0.083-0.464 0.083z"/>
  <path d="m449.41 172.52c0.067 0 0.12 0.02 0.159 0.059 0.04 0.039 0.059 0.09 0.059 0.152v0.373h-3.306v-0.211c0-0.043 9e-3 -0.088 0.028-0.134 0.018-0.047 0.047-0.089 0.086-0.128l1.588-1.595c0.131-0.133 0.251-0.261 0.359-0.383 0.109-0.125 0.201-0.249 0.277-0.374 0.076-0.124 0.135-0.25 0.176-0.377 0.042-0.129 0.062-0.266 0.062-0.411 0-0.146-0.023-0.272-0.069-0.381-0.046-0.11-0.109-0.202-0.19-0.273-0.078-0.071-0.172-0.125-0.28-0.159-0.108-0.037-0.225-0.055-0.349-0.055-0.127 0-0.244 0.018-0.35 0.055s-0.2 0.089-0.283 0.156c-0.081 0.064-0.149 0.141-0.204 0.231-0.056 0.09-0.095 0.189-0.118 0.298-0.027 0.08-0.065 0.135-0.114 0.162-0.046 0.026-0.112 0.032-0.197 0.021l-0.322-0.055c0.033-0.226 0.095-0.426 0.187-0.599 0.095-0.175 0.212-0.321 0.353-0.439 0.143-0.117 0.305-0.206 0.487-0.266 0.183-0.062 0.38-0.094 0.592-0.094 0.21 0 0.406 0.032 0.588 0.094s0.34 0.153 0.473 0.273c0.134 0.118 0.239 0.262 0.315 0.432 0.076 0.171 0.114 0.365 0.114 0.581 0 0.185-0.027 0.356-0.083 0.516-0.055 0.156-0.13 0.306-0.225 0.449-0.094 0.143-0.204 0.283-0.328 0.419-0.122 0.136-0.252 0.273-0.391 0.411l-1.307 1.335c0.092-0.025 0.186-0.045 0.28-0.059 0.095-0.016 0.186-0.024 0.273-0.024h1.66zm4.403-1.892c0 0.434-0.047 0.81-0.142 1.128-0.092 0.316-0.219 0.577-0.38 0.785-0.162 0.207-0.353 0.362-0.574 0.463-0.219 0.102-0.454 0.152-0.706 0.152-0.253 0-0.49-0.05-0.709-0.152-0.216-0.101-0.405-0.256-0.567-0.463-0.161-0.208-0.288-0.469-0.38-0.785-0.092-0.318-0.138-0.694-0.138-1.128 0-0.433 0.046-0.809 0.138-1.127s0.219-0.581 0.38-0.789c0.162-0.209 0.351-0.365 0.567-0.466 0.219-0.102 0.456-0.153 0.709-0.153 0.252 0 0.487 0.051 0.706 0.153 0.221 0.101 0.412 0.257 0.574 0.466 0.161 0.208 0.288 0.471 0.38 0.789 0.095 0.318 0.142 0.694 0.142 1.127zm-0.64 0c0-0.378-0.032-0.695-0.097-0.951-0.062-0.258-0.147-0.465-0.255-0.622-0.106-0.157-0.23-0.269-0.37-0.336-0.141-0.069-0.287-0.103-0.44-0.103-0.152 0-0.298 0.034-0.439 0.103-0.14 0.067-0.264 0.179-0.37 0.336s-0.191 0.364-0.256 0.622c-0.062 0.256-0.093 0.573-0.093 0.951s0.031 0.695 0.093 0.951c0.065 0.256 0.15 0.463 0.256 0.619 0.106 0.157 0.23 0.27 0.37 0.339 0.141 0.067 0.287 0.101 0.439 0.101 0.153 0 0.299-0.034 0.44-0.101 0.14-0.069 0.264-0.182 0.37-0.339 0.108-0.156 0.193-0.363 0.255-0.619 0.065-0.256 0.097-0.573 0.097-0.951zm4.261 1.892c0.067 0 0.12 0.02 0.159 0.059 0.04 0.039 0.059 0.09 0.059 0.152v0.373h-3.306v-0.211c0-0.043 9e-3 -0.088 0.028-0.134 0.018-0.047 0.047-0.089 0.086-0.128l1.588-1.595c0.131-0.133 0.251-0.261 0.359-0.383 0.109-0.125 0.201-0.249 0.277-0.374 0.076-0.124 0.135-0.25 0.176-0.377 0.042-0.129 0.063-0.266 0.063-0.411 0-0.146-0.024-0.272-0.07-0.381-0.046-0.11-0.109-0.202-0.19-0.273-0.078-0.071-0.172-0.125-0.28-0.159-0.108-0.037-0.225-0.055-0.349-0.055-0.127 0-0.243 0.018-0.35 0.055-0.106 0.037-0.2 0.089-0.283 0.156-0.081 0.064-0.149 0.141-0.204 0.231s-0.095 0.189-0.118 0.298c-0.027 0.08-0.065 0.135-0.114 0.162-0.046 0.026-0.112 0.032-0.197 0.021l-0.322-0.055c0.033-0.226 0.095-0.426 0.187-0.599 0.095-0.175 0.212-0.321 0.353-0.439 0.143-0.117 0.305-0.206 0.488-0.266 0.182-0.062 0.379-0.094 0.591-0.094 0.21 0 0.406 0.032 0.588 0.094s0.34 0.153 0.474 0.273c0.133 0.118 0.238 0.262 0.314 0.432 0.076 0.171 0.114 0.365 0.114 0.581 0 0.185-0.027 0.356-0.083 0.516-0.055 0.156-0.13 0.306-0.224 0.449-0.095 0.143-0.204 0.283-0.329 0.419-0.122 0.136-0.252 0.273-0.391 0.411l-1.307 1.335c0.092-0.025 0.186-0.045 0.28-0.059 0.095-0.016 0.186-0.024 0.273-0.024h1.66zm4.012 0c0.067 0 0.12 0.02 0.159 0.059 0.04 0.039 0.059 0.09 0.059 0.152v0.373h-3.306v-0.211c0-0.043 9e-3 -0.088 0.028-0.134 0.018-0.047 0.047-0.089 0.086-0.128l1.588-1.595c0.131-0.133 0.251-0.261 0.359-0.383 0.109-0.125 0.201-0.249 0.277-0.374 0.076-0.124 0.135-0.25 0.176-0.377 0.042-0.129 0.063-0.266 0.063-0.411 0-0.146-0.023-0.272-0.07-0.381-0.046-0.11-0.109-0.202-0.19-0.273-0.078-0.071-0.172-0.125-0.28-0.159-0.108-0.037-0.225-0.055-0.349-0.055-0.127 0-0.243 0.018-0.349 0.055-0.107 0.037-0.201 0.089-0.284 0.156-0.081 0.064-0.149 0.141-0.204 0.231s-0.095 0.189-0.118 0.298c-0.027 0.08-0.065 0.135-0.114 0.162-0.046 0.026-0.112 0.032-0.197 0.021l-0.322-0.055c0.033-0.226 0.095-0.426 0.187-0.599 0.095-0.175 0.212-0.321 0.353-0.439 0.143-0.117 0.305-0.206 0.488-0.266 0.182-0.062 0.379-0.094 0.591-0.094 0.21 0 0.406 0.032 0.588 0.094s0.34 0.153 0.474 0.273c0.133 0.118 0.238 0.262 0.314 0.432 0.076 0.171 0.114 0.365 0.114 0.581 0 0.185-0.027 0.356-0.083 0.516-0.055 0.156-0.13 0.306-0.224 0.449-0.095 0.143-0.204 0.283-0.329 0.419-0.122 0.136-0.252 0.273-0.391 0.411l-1.307 1.335c0.092-0.025 0.186-0.045 0.28-0.059 0.095-0.016 0.186-0.024 0.273-0.024h1.66z"/>
  <path d="m33.953 153.94c0 0.433-0.0472 0.809-0.1418 1.127-0.0922 0.316-0.219 0.578-0.3804 0.785-0.1613 0.208-0.3527 0.362-0.574 0.464-0.219 0.101-0.4542 0.152-0.7055 0.152-0.2536 0-0.4899-0.051-0.7089-0.152-0.2167-0.102-0.4058-0.256-0.5672-0.464-0.1613-0.207-0.2881-0.469-0.3804-0.785-0.0922-0.318-0.1383-0.694-0.1383-1.127s0.0461-0.809 0.1383-1.127c0.0923-0.318 0.2191-0.581 0.3804-0.789 0.1614-0.21 0.3505-0.365 0.5672-0.467 0.219-0.101 0.4553-0.152 0.7089-0.152 0.2513 0 0.4865 0.051 0.7055 0.152 0.2213 0.102 0.4127 0.257 0.574 0.467 0.1614 0.208 0.2882 0.471 0.3804 0.789 0.0946 0.318 0.1418 0.694 0.1418 1.127zm-0.6397 0c0-0.378-0.0323-0.695-0.0969-0.951-0.0622-0.258-0.1475-0.466-0.2559-0.622-0.106-0.157-0.2294-0.269-0.37-0.336-0.1406-0.069-0.287-0.104-0.4392-0.104s-0.2985 0.035-0.4392 0.104c-0.1406 0.067-0.264 0.179-0.37 0.336-0.1061 0.156-0.1914 0.364-0.2559 0.622-0.0623 0.256-0.0934 0.573-0.0934 0.951s0.0311 0.695 0.0934 0.951c0.0645 0.256 0.1498 0.462 0.2559 0.619 0.106 0.157 0.2294 0.27 0.37 0.339 0.1407 0.067 0.287 0.1 0.4392 0.1s0.2986-0.033 0.4392-0.1c0.1406-0.069 0.264-0.182 0.37-0.339 0.1084-0.157 0.1937-0.363 0.2559-0.619 0.0646-0.256 0.0969-0.573 0.0969-0.951z"/>
  <path d="m31.488 129.54c0.0669 0 0.1199 0.02 0.1591 0.059s0.0588 0.09 0.0588 0.152v0.374h-3.306v-0.211c0-0.044 0.0092-0.089 0.0276-0.135 0.0185-0.046 0.0473-0.089 0.0865-0.128l1.5873-1.594c0.1314-0.134 0.2513-0.262 0.3597-0.384 0.1083-0.124 0.2005-0.249 0.2766-0.373 0.0761-0.125 0.1349-0.251 0.1764-0.377 0.0415-0.13 0.0622-0.267 0.0622-0.412s-0.023-0.272-0.0691-0.38c-0.0461-0.111-0.1095-0.202-0.1902-0.274-0.0784-0.071-0.1718-0.124-0.2801-0.159-0.1084-0.036-0.2248-0.055-0.3493-0.055-0.1268 0-0.2433 0.019-0.3493 0.055-0.1061 0.037-0.2006 0.089-0.2836 0.156-0.0807 0.065-0.1487 0.142-0.204 0.232s-0.0945 0.189-0.1176 0.297c-0.0277 0.081-0.0657 0.135-0.1141 0.163-0.0461 0.025-0.1118 0.032-0.1971 0.02l-0.3216-0.055c0.0322-0.226 0.0945-0.425 0.1867-0.598 0.0945-0.175 0.2121-0.322 0.3527-0.439 0.143-0.118 0.3055-0.207 0.4876-0.267 0.1822-0.062 0.3793-0.093 0.5914-0.093 0.2098 0 0.4058 0.031 0.5879 0.093 0.1821 0.063 0.34 0.154 0.4738 0.274 0.1337 0.117 0.2386 0.261 0.3147 0.432 0.076 0.17 0.1141 0.364 0.1141 0.581 0 0.184-0.0277 0.356-0.083 0.515-0.0553 0.157-0.1303 0.307-0.2248 0.45s-0.204 0.282-0.3285 0.418c-0.1222 0.136-0.2525 0.273-0.3908 0.412l-1.3072 1.334c0.0922-0.025 0.1856-0.045 0.2801-0.058 0.0945-0.016 0.1856-0.025 0.2732-0.025h1.6599zm4.4029-1.891c0 0.433-0.0473 0.809-0.1418 1.127-0.0922 0.316-0.219 0.578-0.3804 0.785-0.1614 0.208-0.3528 0.362-0.5741 0.464-0.219 0.101-0.4542 0.152-0.7055 0.152-0.2536 0-0.4899-0.051-0.7089-0.152-0.2167-0.102-0.4057-0.256-0.5671-0.464-0.1614-0.207-0.2882-0.469-0.3804-0.785-0.0922-0.318-0.1384-0.694-0.1384-1.127 0-0.434 0.0462-0.809 0.1384-1.128 0.0922-0.318 0.219-0.581 0.3804-0.788 0.1614-0.21 0.3504-0.365 0.5671-0.467 0.219-0.101 0.4553-0.152 0.7089-0.152 0.2513 0 0.4865 0.051 0.7055 0.152 0.2213 0.102 0.4127 0.257 0.5741 0.467 0.1614 0.207 0.2882 0.47 0.3804 0.788 0.0945 0.319 0.1418 0.694 0.1418 1.128zm-0.6398 0c0-0.378-0.0323-0.695-0.0968-0.951-0.0623-0.258-0.1476-0.466-0.2559-0.623-0.1061-0.156-0.2294-0.268-0.3701-0.335-0.1406-0.069-0.287-0.104-0.4392-0.104-0.1521 0-0.2985 0.035-0.4391 0.104-0.1407 0.067-0.264 0.179-0.3701 0.335-0.106 0.157-0.1913 0.365-0.2559 0.623-0.0622 0.256-0.0933 0.573-0.0933 0.951s0.0311 0.695 0.0933 0.951c0.0646 0.256 0.1499 0.462 0.2559 0.619 0.1061 0.157 0.2294 0.27 0.3701 0.339 0.1406 0.067 0.287 0.1 0.4391 0.1 0.1522 0 0.2986-0.033 0.4392-0.1 0.1407-0.069 0.264-0.182 0.3701-0.339 0.1083-0.157 0.1936-0.363 0.2559-0.619 0.0645-0.256 0.0968-0.573 0.0968-0.951z"/>
  <path d="m30.599 102.06v-2.044c0-0.0599 0.0023-0.1256 0.0069-0.1971s0.0115-0.1441 0.0208-0.2179l-1.8052 2.459h1.7775zm1.2899 0v0.353c0 0.036-0.0115 0.068-0.0346 0.093-0.0207 0.025-0.0542 0.038-0.1003 0.038h-0.6155v1.304h-0.5395v-1.304h-2.1994c-0.0461 0-0.0865-0.013-0.1211-0.038-0.0322-0.028-0.053-0.061-0.0622-0.1l-0.0623-0.315 2.4104-3.1989h0.5741v3.1679h0.7504zm4.0017-0.688c0 0.433-0.0473 0.809-0.1418 1.127-0.0922 0.316-0.219 0.578-0.3804 0.785s-0.3528 0.362-0.5741 0.463c-0.219 0.102-0.4542 0.153-0.7055 0.153-0.2536 0-0.4899-0.051-0.7089-0.153-0.2167-0.101-0.4057-0.256-0.5671-0.463s-0.2882-0.469-0.3804-0.785c-0.0922-0.318-0.1384-0.694-0.1384-1.127 0-0.434 0.0462-0.81 0.1384-1.128 0.0922-0.3179 0.219-0.5807 0.3804-0.7882 0.1614-0.2098 0.3504-0.3654 0.5671-0.4669 0.219-0.1014 0.4553-0.1521 0.7089-0.1521 0.2513 0 0.4865 0.0507 0.7055 0.1521 0.2213 0.1015 0.4127 0.2571 0.5741 0.4669 0.1614 0.2075 0.2882 0.4703 0.3804 0.7882 0.0945 0.318 0.1418 0.694 0.1418 1.128zm-0.6398 0c0-0.378-0.0323-0.695-0.0968-0.951-0.0623-0.259-0.1476-0.4661-0.2559-0.6229-0.1061-0.1567-0.2294-0.2686-0.3701-0.3354-0.1406-0.0692-0.287-0.1038-0.4392-0.1038-0.1521 0-0.2985 0.0346-0.4391 0.1038-0.1407 0.0668-0.264 0.1787-0.3701 0.3354-0.106 0.1568-0.1913 0.3639-0.2559 0.6229-0.0622 0.256-0.0933 0.573-0.0933 0.951s0.0311 0.695 0.0933 0.951c0.0646 0.256 0.1499 0.462 0.2559 0.619 0.1061 0.156 0.2294 0.269 0.3701 0.339 0.1406 0.066 0.287 0.1 0.4391 0.1 0.1522 0 0.2986-0.034 0.4392-0.1 0.1407-0.07 0.264-0.183 0.3701-0.339 0.1083-0.157 0.1936-0.363 0.2559-0.619 0.0645-0.256 0.0968-0.573 0.0968-0.951z"/>
  <path d="m30.074 77.108c0.166 0 0.3159-0.0265 0.4496-0.0796 0.136-0.053 0.2513-0.1268 0.3458-0.2213 0.0969-0.0945 0.1706-0.2063 0.2214-0.3354 0.053-0.1291 0.0795-0.2698 0.0795-0.4219 0-0.1614-0.0254-0.3067-0.0761-0.4358-0.0507-0.1314-0.1233-0.242-0.2179-0.332-0.0922-0.0922-0.2028-0.1625-0.3319-0.2109s-0.2709-0.0726-0.4254-0.0726c-0.166 0-0.3158 0.0288-0.4496 0.0864-0.1337 0.0554-0.2478 0.1314-0.3423 0.2283-0.0922 0.0945-0.1637 0.2052-0.2144 0.332-0.0484 0.1245-0.0727 0.2547-0.0727 0.3907 0 0.1591 0.0231 0.3044 0.0692 0.4358s0.113 0.2443 0.2006 0.3389c0.0899 0.0945 0.1983 0.1683 0.3251 0.2213 0.1291 0.0507 0.2755 0.0761 0.4391 0.0761zm-0.3596-2.6421c-0.0438 0.0553-0.0865 0.1095-0.128 0.1625-0.0392 0.0508-0.0772 0.1015-0.1141 0.1522 0.1176-0.0807 0.2467-0.1429 0.3873-0.1867 0.1407-0.0438 0.294-0.0657 0.46-0.0657 0.2006 0 0.3896 0.0334 0.5671 0.1002 0.1775 0.0646 0.332 0.1603 0.4634 0.2871 0.1337 0.1245 0.2398 0.2789 0.3182 0.4634 0.0784 0.1821 0.1175 0.3908 0.1175 0.6259 0 0.2282-0.0414 0.4404-0.1244 0.6363-0.083 0.196-0.1995 0.3666-0.3493 0.5118-0.1476 0.1453-0.3262 0.2594-0.536 0.3424-0.2075 0.083-0.4369 0.1245-0.6882 0.1245-0.249 0-0.4749-0.0392-0.6778-0.1176-0.2029-0.0807-0.3758-0.1937-0.5188-0.3389-0.1406-0.1475-0.2501-0.3251-0.3285-0.5326-0.0761-0.2098-0.1141-0.4438-0.1141-0.702 0-0.2167 0.0473-0.4472 0.1418-0.6916 0.0968-0.2467 0.2501-0.5095 0.4599-0.7885l1.2588-1.691c0.0323-0.0415 0.0761-0.0761 0.1314-0.1038 0.0576-0.03 0.1234-0.0449 0.1971-0.0449h0.5464l-1.4697 1.857zm6.1769 0.6225c0 0.4334-0.0473 0.8092-0.1418 1.1274-0.0922 0.3158-0.219 0.5775-0.3804 0.785s-0.3528 0.3619-0.5741 0.4634c-0.219 0.1014-0.4542 0.1521-0.7055 0.1521-0.2536 0-0.4899-0.0507-0.7089-0.1521-0.2167-0.1015-0.4057-0.2559-0.5671-0.4634s-0.2882-0.4692-0.3804-0.785c-0.0922-0.3182-0.1384-0.694-0.1384-1.1274s0.0462-0.8092 0.1384-1.1274c0.0922-0.3181 0.219-0.581 0.3804-0.7885 0.1614-0.2098 0.3504-0.3654 0.5671-0.4668 0.219-0.1015 0.4553-0.1522 0.7089-0.1522 0.2513 0 0.4865 0.0507 0.7055 0.1522 0.2213 0.1014 0.4127 0.257 0.5741 0.4668 0.1614 0.2075 0.2882 0.4704 0.3804 0.7885 0.0945 0.3182 0.1418 0.694 0.1418 1.1274zm-0.6398 0c0-0.3781-0.0323-0.6951-0.0968-0.951-0.0623-0.2582-0.1476-0.4657-0.2559-0.6225-0.1061-0.1568-0.2294-0.2686-0.3701-0.3354-0.1406-0.0692-0.287-0.1038-0.4392-0.1038-0.1521 0-0.2985 0.0346-0.4391 0.1038-0.1407 0.0668-0.264 0.1786-0.3701 0.3354-0.106 0.1568-0.1913 0.3643-0.2559 0.6225-0.0622 0.2559-0.0933 0.5729-0.0933 0.951s0.0311 0.6951 0.0933 0.951c0.0646 0.2559 0.1499 0.4622 0.2559 0.619 0.1061 0.1568 0.2294 0.2697 0.3701 0.3389 0.1406 0.0669 0.287 0.1003 0.4391 0.1003 0.1522 0 0.2986-0.0334 0.4392-0.1003 0.1407-0.0692 0.264-0.1821 0.3701-0.3389 0.1083-0.1568 0.1936-0.3631 0.2559-0.619 0.0645-0.2559 0.0968-0.5729 0.0968-0.951z"/>
  <path d="m30.08 50.846c0.1613 0 0.3054-0.0219 0.4322-0.0657 0.1291-0.0461 0.2375-0.1095 0.3251-0.1902 0.0899-0.083 0.1579-0.181 0.204-0.294 0.0485-0.1152 0.0727-0.242 0.0727-0.3804 0-0.1706-0.0289-0.3158-0.0865-0.4357-0.0553-0.1222-0.1314-0.2213-0.2282-0.2974-0.0946-0.0761-0.2041-0.1314-0.3286-0.166-0.1245-0.0369-0.2547-0.0553-0.3907-0.0553-0.1361 0-0.2663 0.0184-0.3908 0.0553-0.1245 0.0346-0.2352 0.0899-0.332 0.166-0.0945 0.0761-0.1706 0.1752-0.2282 0.2974-0.0554 0.1199-0.083 0.2651-0.083 0.4357 0 0.1384 0.023 0.2652 0.0691 0.3804 0.0484 0.113 0.1164 0.211 0.2041 0.294 0.0899 0.0807 0.1982 0.1441 0.325 0.1902 0.1291 0.0438 0.2744 0.0657 0.4358 0.0657zm0-4.098c-0.1476 0-0.2778 0.0219-0.3908 0.0657-0.1107 0.0438-0.204 0.1038-0.2801 0.1799-0.0738 0.076-0.1303 0.1648-0.1695 0.2662-0.0369 0.1015-0.0553 0.2098-0.0553 0.3251 0 0.113 0.0161 0.2225 0.0484 0.3285 0.0323 0.1061 0.0842 0.2006 0.1556 0.2836 0.0715 0.0807 0.1637 0.1464 0.2767 0.1971 0.1152 0.0484 0.2536 0.0727 0.415 0.0727 0.1613 0 0.2985-0.0243 0.4115-0.0727 0.1153-0.0507 0.2086-0.1164 0.2801-0.1971 0.0715-0.083 0.1233-0.1775 0.1556-0.2836 0.0323-0.106 0.0484-0.2155 0.0484-0.3285 0-0.1153-0.0196-0.2236-0.0588-0.3251-0.0368-0.1014-0.0933-0.1902-0.1694-0.2662-0.0738-0.0761-0.1672-0.1361-0.2801-0.1799-0.1107-0.0438-0.2398-0.0657-0.3873-0.0657zm0.7089 1.9505c0.3089 0.0876 0.5464 0.234 0.7124 0.4391 0.166 0.2052 0.249 0.4681 0.249 0.7885 0 0.2167-0.0415 0.4127-0.1245 0.5879-0.0807 0.1729-0.1948 0.3205-0.3424 0.4427-0.1452 0.1221-0.3204 0.2167-0.5256 0.2835-0.2052 0.0646-0.4312 0.0969-0.6778 0.0969-0.2467 0-0.4727-0.0323-0.6778-0.0969-0.2052-0.0668-0.3816-0.1614-0.5292-0.2835-0.1475-0.1222-0.2616-0.2698-0.3423-0.4427-0.0807-0.1752-0.121-0.3712-0.121-0.5879 0-0.3204 0.0829-0.5833 0.2489-0.7885 0.166-0.2051 0.4035-0.3515 0.7124-0.4391-0.2605-0.0969-0.4576-0.241-0.5913-0.4323-0.1314-0.1937-0.1971-0.4242-0.1971-0.6917 0-0.1821 0.0357-0.3527 0.1072-0.5118 0.0714-0.159 0.1729-0.2974 0.3043-0.415 0.1314-0.1175 0.2882-0.2098 0.4703-0.2766 0.1844-0.0669 0.3896-0.1003 0.6156-0.1003 0.2236 0 0.4276 0.0334 0.6121 0.1003 0.1844 0.0668 0.3423 0.1591 0.4737 0.2766 0.1314 0.1176 0.2329 0.256 0.3044 0.415 0.0714 0.1591 0.1072 0.3297 0.1072 0.5118 0 0.2675-0.0669 0.498-0.2006 0.6917-0.1314 0.1913-0.3274 0.3354-0.5879 0.4323zm5.1014 0.1072c0 0.4334-0.0473 0.8092-0.1418 1.1273-0.0922 0.3159-0.219 0.5775-0.3804 0.785s-0.3528 0.362-0.5741 0.4634c-0.219 0.1015-0.4542 0.1522-0.7055 0.1522-0.2536 0-0.4899-0.0507-0.7089-0.1522-0.2167-0.1014-0.4057-0.2559-0.5671-0.4634s-0.2882-0.4691-0.3804-0.785c-0.0922-0.3181-0.1384-0.6939-0.1384-1.1273 0-0.4335 0.0462-0.8093 0.1384-1.1274 0.0922-0.3182 0.219-0.581 0.3804-0.7885 0.1614-0.2098 0.3504-0.3654 0.5671-0.4668 0.219-0.1015 0.4553-0.1522 0.7089-0.1522 0.2513 0 0.4865 0.0507 0.7055 0.1522 0.2213 0.1014 0.4127 0.257 0.5741 0.4668 0.1614 0.2075 0.2882 0.4703 0.3804 0.7885 0.0945 0.3181 0.1418 0.6939 0.1418 1.1274zm-0.6398 0c0-0.3781-0.0323-0.6951-0.0968-0.951-0.0623-0.2583-0.1476-0.4657-0.2559-0.6225-0.1061-0.1568-0.2294-0.2686-0.3701-0.3355-0.1406-0.0691-0.287-0.1037-0.4392-0.1037-0.1521 0-0.2985 0.0346-0.4391 0.1037-0.1407 0.0669-0.264 0.1787-0.3701 0.3355-0.106 0.1568-0.1913 0.3642-0.2559 0.6225-0.0622 0.2559-0.0933 0.5729-0.0933 0.951s0.0311 0.6951 0.0933 0.951c0.0646 0.2559 0.1499 0.4622 0.2559 0.619 0.1061 0.1568 0.2294 0.2697 0.3701 0.3389 0.1406 0.0668 0.287 0.1003 0.4391 0.1003 0.1522 0 0.2986-0.0335 0.4392-0.1003 0.1407-0.0692 0.264-0.1821 0.3701-0.3389 0.1083-0.1568 0.1936-0.3631 0.2559-0.619 0.0645-0.2559 0.0968-0.5729 0.0968-0.951z"/>
  <path d="m29.52 24.53v0.4703h-2.6559v-0.4703h1.0617v-3.3787c0-0.1014 0.0035-0.204 0.0104-0.3077l-0.8819 0.7573c-0.0299 0.0254-0.0599 0.0415-0.0899 0.0484-0.0299 0.0046-0.0576 0.0046-0.083 0-0.0253-0.0046-0.0495-0.0138-0.0726-0.0277-0.0207-0.0138-0.0369-0.0288-0.0484-0.0449l-0.1937-0.2663 1.4767-1.2761h0.5014v4.4957h0.9752zm4.2957-2.0058c0 0.4335-0.0473 0.8093-0.1418 1.1274-0.0922 0.3159-0.219 0.5775-0.3804 0.785s-0.3528 0.362-0.5741 0.4634c-0.219 0.1015-0.4542 0.1522-0.7055 0.1522-0.2536 0-0.4899-0.0507-0.7089-0.1522-0.2167-0.1014-0.4058-0.2559-0.5671-0.4634-0.1614-0.2075-0.2882-0.4691-0.3804-0.785-0.0923-0.3181-0.1384-0.6939-0.1384-1.1274 0-0.4334 0.0461-0.8092 0.1384-1.1273 0.0922-0.3182 0.219-0.581 0.3804-0.7885 0.1613-0.2098 0.3504-0.3654 0.5671-0.4669 0.219-0.1014 0.4553-0.1521 0.7089-0.1521 0.2513 0 0.4865 0.0507 0.7055 0.1521 0.2213 0.1015 0.4127 0.2571 0.5741 0.4669 0.1614 0.2075 0.2882 0.4703 0.3804 0.7885 0.0945 0.3181 0.1418 0.6939 0.1418 1.1273zm-0.6398 0c0-0.3781-0.0323-0.6951-0.0968-0.951-0.0623-0.2582-0.1476-0.4657-0.2559-0.6224-0.1061-0.1568-0.2294-0.2686-0.3701-0.3355-0.1406-0.0692-0.287-0.1037-0.4392-0.1037-0.1521 0-0.2985 0.0345-0.4392 0.1037-0.1406 0.0669-0.2639 0.1787-0.37 0.3355-0.106 0.1567-0.1913 0.3642-0.2559 0.6224-0.0622 0.2559-0.0934 0.5729-0.0934 0.951s0.0312 0.6951 0.0934 0.951c0.0646 0.2559 0.1499 0.4623 0.2559 0.6191 0.1061 0.1567 0.2294 0.2697 0.37 0.3389 0.1407 0.0668 0.2871 0.1002 0.4392 0.1002 0.1522 0 0.2986-0.0334 0.4392-0.1002 0.1407-0.0692 0.264-0.1822 0.3701-0.3389 0.1083-0.1568 0.1936-0.3632 0.2559-0.6191 0.0645-0.2559 0.0968-0.5729 0.0968-0.951zm4.6518 0c0 0.4335-0.0473 0.8093-0.1418 1.1274-0.0922 0.3159-0.219 0.5775-0.3804 0.785s-0.3527 0.362-0.574 0.4634c-0.2191 0.1015-0.4542 0.1522-0.7055 0.1522-0.2536 0-0.4899-0.0507-0.7089-0.1522-0.2168-0.1014-0.4058-0.2559-0.5672-0.4634s-0.2882-0.4691-0.3804-0.785c-0.0922-0.3181-0.1383-0.6939-0.1383-1.1274 0-0.4334 0.0461-0.8092 0.1383-1.1273 0.0922-0.3182 0.219-0.581 0.3804-0.7885 0.1614-0.2098 0.3504-0.3654 0.5672-0.4669 0.219-0.1014 0.4553-0.1521 0.7089-0.1521 0.2513 0 0.4864 0.0507 0.7055 0.1521 0.2213 0.1015 0.4126 0.2571 0.574 0.4669 0.1614 0.2075 0.2882 0.4703 0.3804 0.7885 0.0945 0.3181 0.1418 0.6939 0.1418 1.1273zm-0.6398 0c0-0.3781-0.0322-0.6951-0.0968-0.951-0.0622-0.2582-0.1475-0.4657-0.2559-0.6224-0.106-0.1568-0.2294-0.2686-0.37-0.3355-0.1407-0.0692-0.2871-0.1037-0.4392-0.1037-0.1522 0-0.2986 0.0345-0.4392 0.1037-0.1406 0.0669-0.264 0.1787-0.37 0.3355-0.1061 0.1567-0.1914 0.3642-0.2559 0.6224-0.0623 0.2559-0.0934 0.5729-0.0934 0.951s0.0311 0.6951 0.0934 0.951c0.0645 0.2559 0.1498 0.4623 0.2559 0.6191 0.106 0.1567 0.2294 0.2697 0.37 0.3389 0.1406 0.0668 0.287 0.1002 0.4392 0.1002 0.1521 0 0.2985-0.0334 0.4392-0.1002 0.1406-0.0692 0.264-0.1822 0.37-0.3389 0.1084-0.1568 0.1937-0.3632 0.2559-0.6191 0.0646-0.2559 0.0968-0.5729 0.0968-0.951z"/>
 </g>
</svg>
