<?xml version="1.0" encoding="UTF-8"?>
<svg width="1024" height="395" fill="none" version="1.1" viewBox="0 0 505 195" xmlns="http://www.w3.org/2000/svg" xmlns:cc="http://creativecommons.org/ns#" xmlns:dc="http://purl.org/dc/elements/1.1/" xmlns:rdf="http://www.w3.org/1999/02/22-rdf-syntax-ns#">
 <metadata>
  <rdf:RDF>
   <cc:Work rdf:about="">
    <dc:format>image/svg+xml</dc:format>
    <dc:type rdf:resource="http://purl.org/dc/dcmitype/StillImage"/>
    <dc:title/>
   </cc:Work>
  </rdf:RDF>
 </metadata>
 <rect x=".50849" y=".50849" width="503.98" height="193.98" rx="7.4051" fill="#fff" stroke="#000" stroke-opacity=".2" stroke-width="1.017"/>
 <path d="m52.243 155.83h425.43" stroke="#333" stroke-miterlimit="10" stroke-width=".42989"/>
 <g stroke="#ccc" stroke-miterlimit="10" stroke-width=".42989">
  <path d="m52.243 121.44h425.43"/>
  <path d="m52.243 83.607h425.43"/>
  <path d="m52.243 45.778h425.43"/>
  <path d="m52.243 64.692h425.43"/>
  <path d="m52.243 102.52h425.43"/>
  <path d="m51.057 140.35h425.43"/>
 </g>
 <path d="m52.652 155.48h6.4676l0.4976-0.037h6.4676l0.4975-0.037h3.9802l0.4975-0.036h2.4875l0.4976-0.037h0.995l0.4975-0.037 0.4975 0.037h1.4926l0.4975 0.037h0.4975l0.4975 0.036 0.4975-0.073h0.4975l0.4975 0.037h0.4976l0.4975 0.036h1.99l0.4975-0.036 0.4976 0.036 0.4975-0.036h0.995l0.4975 0.036h1.4925l0.4976 0.11h1.4925l0.4975 0.037 0.4975-0.037h0.9951l0.4975-0.036 0.4975 0.036h2.4876l0.4975-0.036 0.4975 0.036h0.995l0.4975-0.036h2.9854l0.497-0.037h0.995l0.498 0.037h2.487l0.498-0.037h5.473l0.497-0.037h5.97l0.498 0.037 0.497-0.037h0.995l0.498 0.037 0.497-0.037h1.493l0.497-0.036h0.995l0.498-0.037h2.985l0.497-0.037h2.488l0.498-0.036h1.99l0.497 0.036 0.498-0.036 0.497 0.036 0.498-0.036 0.497 0.073 0.498-0.037h0.497l0.498-0.036 0.497-0.074 0.498-0.036 0.497-0.037 0.498-0.037 0.497 0.037 0.498-0.073h0.497l0.498-0.037h1.99l0.497 0.037 0.498-0.037 0.497-0.037h0.498l0.497-0.036 0.498 0.036 0.497-0.073 0.498-0.037h0.498l0.497-0.036h0.498l0.497 0.036 0.498-0.036 0.497-0.037 0.498 0.037h0.995l0.497-0.074 0.498 0.074 0.497-0.11 0.498-0.037 0.497-0.073 0.498-0.11 0.497-0.074 0.498-0.073 0.497-0.073 0.498 0.073 0.497 0.073h0.995l0.498-0.036 0.497-0.074 0.498-0.073h0.497l0.498-0.073h0.497l0.498-0.074 0.497 0.404 0.498-0.367 0.497-0.037 0.498-0.036 0.497-0.037 0.498 0.037h0.497l0.498-0.074 0.498-0.183 0.497-0.22 0.498-0.073 0.497-0.074 0.498-0.036 0.497-0.037 0.498-0.073 0.497-0.037 0.498 0.037 0.497-0.037 0.498-0.037 0.497-0.073 0.498-0.11 0.497-0.073 0.498-0.11 0.497-0.147 0.498-0.183 0.497-0.147 0.498-0.33 0.497 0.11h0.498l0.497 0.037 0.498 0.476 0.497-0.073 0.498 0.33 0.497 0.037 0.498-0.074 0.497-0.256 0.498-0.037 0.497-0.037 0.498 0.037 0.497-0.037 0.498 0.037 0.497 0.11 0.498-0.183 0.498-0.147 0.497-0.183 0.498-0.184 0.497 0.22h0.498l0.497-0.036 0.498-0.037 0.497-0.147 0.498-0.33 0.497 0.037 0.498-0.073 0.497 0.073 0.498 0.073 0.497-0.036 0.498 0.183 0.497-0.073 0.498 0.036 0.497 0.037 0.498 0.147 0.497 0.11 0.498-0.037 0.497-0.183 0.498-0.11h0.995l0.497-0.037 0.498 0.037 0.497 0.036 0.498 0.074h0.995l0.497-0.037 0.498 0.11 0.497-0.037 0.498-0.036 0.497-0.074 0.498-0.036 0.498-0.367 0.497 0.257h0.498l0.497 0.036 0.498-0.036 0.497-0.184 0.498-0.073h0.497l0.498 0.037h0.497l0.498-0.037 0.497-0.073 0.498-0.221 0.497-0.036 0.498-0.074 0.497-0.183 0.498-0.037 0.497-0.183 0.498 0.073 0.497-0.146 0.498 0.073h0.497l0.498-0.037 0.497 0.11 0.498-0.036 0.497 0.036 0.498-0.256h0.995l0.497-0.037 0.498-0.037 0.497 0.037 0.498 0.44 0.497 0.073 0.498-0.146 0.498-0.22 0.497-0.257 0.498-0.037h0.497l0.498-0.146 0.497 0.183 0.498-0.11 0.497-0.037h0.498l0.497 0.11 0.498 0.037 0.497 0.073 0.498 0.11 0.497-0.22 0.498-0.183h0.497l0.498-0.147h0.497l0.498-0.22h0.497l0.498-0.22 0.497 0.074 0.498 0.22 0.497-0.147 0.498-0.147 0.497 0.11 0.498-0.256 0.497-0.074 0.498-0.073 0.497 0.037 0.498-0.404 0.497 0.33 0.498-0.146h0.497l0.498-0.147 0.498-0.66 0.497-0.33 0.498-0.733 0.497-0.551 0.498-0.293 0.497-0.22h0.498l0.497-0.147 0.498 1.137 0.497-0.22 0.498-0.33 0.497-0.44 0.498 0.11 0.497-0.367 0.498-0.036h0.497l0.498-0.697 0.497 0.477 0.498 0.623 0.497-0.33 0.498-0.367 0.497-0.733 0.498-0.257 0.497 0.147 0.498 0.293 0.497-0.55 0.498-0.55h0.497l0.498-0.073 0.497-0.147 0.498-0.696 0.497-1.357 0.498-0.55 0.497-0.844 0.498-0.11 0.497 0.367 0.498-0.917 0.498-0.88 0.497-0.513 0.498-0.44 0.497-0.367 0.498 0.66 0.497-0.587 0.498 0.184 0.497-0.404 0.498-0.403 0.497-0.697 0.498-0.586 0.497-1.357 0.498-0.037 0.497 1.284 0.498 2.603 0.497-1.393 0.498 0.293 0.497 0.954 0.498-0.257 0.497 0.587 0.498-1.394 0.497-0.183 0.498-0.954 0.497 0.404 0.498 0.33 0.497-0.404 0.498 0.734 0.497-0.44 0.498-1.064 0.497-0.366 0.498-0.184 0.497-0.44 0.498-1.393 0.497 0.036 0.498 3.337 0.498-2.53 0.497-0.44 0.498 1.98 0.497-2.97 0.498-0.66 0.497 3.3 0.498-2.53 0.497 0.88 0.498-0.44 0.497 3.227 0.498-3.52 0.497 1.98 0.498-2.75 0.497 1.32 0.498-3.63 0.497 2.823 0.498-3.74 0.497 1.65 0.498-5.097 0.497 2.97 0.498-1.907 0.497-3.85 0.498 4.95 0.497-4.07 0.498 2.164 0.497-4.254 0.498 3.63 0.497-0.513 0.498-5.281 0.497 1.981 0.498-0.734 0.497-4.107 0.498-0.33 0.497 6.711 0.498-4.217 0.498-0.33 0.497-0.33 0.498 2.457 0.497-2.091h0.498l0.497-1.173 0.498-3.85 0.497-1.834 0.498-1.503 0.497 0.036 0.498-0.88 0.497-1.723 0.498 0.33 0.497-2.97 0.498 2.237 0.497-4.071 0.498 2.86 0.497-0.55 0.498-0.696 0.497-5.244 0.498 4.4 0.497-2.42 0.498-1.21 0.497 0.99 0.498-0.037 0.497 1.211 0.498 1.1 0.497 1.136 0.498 7.261 0.497 4.584 0.498 2.97 0.497-0.55 0.498 4.143 0.497 0.294 0.498-3.081 0.498-1.723 0.497-2.163 0.498 1.246 0.497 2.274 0.498-0.77 0.497-1.907 0.498-0.843 0.497-1.137 0.498-2.384 0.497-0.146 0.498 1.833 0.497-1.357 0.498-0.366 0.497 0.11 0.498 0.586 0.497-0.66 0.498 0.55 0.497 0.807 0.498 0.073 0.497-2.09 0.498-1.21 0.497 1.247 0.498 0.807 0.497 1.063 0.498 1.027 0.497 0.293 0.498 3.19 0.497 2.054 0.498-0.037 0.497-1.247 0.498-0.036 0.497 0.953 0.498-0.623 0.497-0.99 0.498-1.1 0.497-1.21 0.498 0.366 0.498-0.11 0.497-0.33 0.498-1.503 0.497-0.66h0.498l0.497-1.284 0.498-0.44 0.497 0.954 0.498 0.366 0.497-0.513 0.498 0.33 0.497 1.247 0.498 0.476 0.497 0.661 0.498 0.403 0.497 0.44 0.498-0.513 0.497 0.55 0.498 0.77 0.497-0.184 0.498-1.687 0.497-0.623 0.498-0.917 0.497-0.623 0.498-0.807 0.497-0.073 0.498-0.44 0.497-0.513 0.498-0.771 0.497-0.733 0.498-0.44 0.497-0.257 0.498 0.33 0.497-0.403 0.498-1.687 0.498-0.806 0.497-0.661 0.498-1.54 0.497-0.256 0.498-1.027 0.497 0.66 0.498-0.587 0.497-0.88 0.498-1.283 0.497-0.514h0.498l0.497 0.55 0.498 0.11 0.497-0.953 0.498-1.6867 0.497-1.1001 0.498 0.1467 0.497-0.9535 0.498 0.0734 0.497 1.9435 0.498-0.5867 0.497-0.4401 0.498-1.3934 0.497-0.1467 0.498 0.4767 0.497-0.55 0.498-2.2002 0.497-3.0435 0.498-0.5501 0.497 0.1467 0.498-1.7235 0.497-0.9167 0.498 3.0069 0.497 2.0168 0.498-0.2934 0.498-0.0733 0.497 0.6601 0.498-2.0902 0.497-0.1833 0.498 0.1833 0.497-2.0902 0.498-0.1466 0.497 0.8434 0.498-0.2201 0.497 0.1101 0.498 4.0336 0.497 4.5103 0.498-1.4668 0.497-2.6768 0.498 0.3667 0.497 0.9534 0.498-0.2567 0.497-0.3667 0.498 1.3934 0.497 0.5867 0.498-1.3567 0.497-2.8236 0.498-2.2735 0.497-1.3201 0.498-0.2933 0.497-0.6601 0.498-0.7334 0.497-0.3666 0.498-1.3201 0.497-0.2201 0.498-0.3667 0.497 1.2101 0.498-0.8434 0.497-0.7334 0.498-1.6134 0.497-1.3934 0.498-1.2101 0.497 0.0366 0.498-0.2933 0.498 1.0267 0.497-1.7601 0.498-3.8136 0.497 0.9167 0.498 0.9901 0.497-2.2368 0.498 0.4767 0.497-2.1269 0.498 0.9534 0.497 2.7136 0.498-3.6303 0.497 2.6035 0.498-0.4033 0.497-0.9534 0.498-0.8801 0.497-2.9335 0.498-0.9901 0.497-0.0734 0.498 0.6601 0.497-1.5035 0.498-2.2001 0.497-1.8702 0.498 0.9168 0.497 1.7234 0.498-1.1734 0.497 0.2567 0.498-0.33 0.497-0.44 0.498 1.8334 0.497 3.7403 0.498-1.5768 0.497 3.3369 0.498-4.1436 0.497-2.2002 0.498 1.3568 0.498 1.8701 0.497-2.4568 0.498 0.1833 0.497-1.8334 0.498 5.3537 0.497-0.4767 0.498-3.1169 0.497-2.0535 0.498-1.9801 0.497-0.5868 0.498 0.9535 0.497 4.1803 0.498 3.4469 0.497 0.6967 0.498-2.1635 0.497 2.6769 0.498-4.6204 0.497 3.9237 0.498 2.7135 0.497-1.5401 0.498-1.1001 0.497 4.217 0.498-1.1735 0.497-2.4201 0.498 0.5133 0.497 0.4767 0.498-0.99 0.497-0.8801 0.498-0.55 0.497-2.5302 0.498 0.0366 0.497-3.0068 0.498 0.1833 0.497-0.8067 0.498-0.1467 0.498 1.2468 0.497 2.8235 0.498 1.3568 0.497-0.7334 0.498-0.4034 0.497-1.7968 0.498-0.6234 0.497 0.2201 0.498-0.3667 0.497 2.6768 0.498 1.6135 0.497 2.7869 0.498 1.3934 0.497-0.44 0.498 1.1367 0.497-2.5302 0.498-2.1635 0.497 0.8801 0.498-0.7701 0.497 0.11 0.498-0.44 0.497 2.1268 0.498 1.3935 0.497 0.3667 0.498 0.2933 0.497 8.4706 0.498 2.4569 0.497-1.4301 0.498 1.4668 0.497-0.1834 0.498-0.44 0.497 3.8503 0.498-0.0367 0.497-0.7701 0.498 1.0268 0.498-1.6868 0.497-1.1001 0.498 1.8701 0.497-0.6967 0.498-3.5202 0.497-1.1001 0.498 1.1001 0.497-1.4301 0.498-1.7602 0.497-1.3934 0.498 1.8701 0.497 1.7968 0.498-0.0366 0.497 0.6967 0.498-0.2934 0.497-3.2635 0.498 0.2933 0.497 3.0802 0.498 1.1735 0.497 0.33 0.498 1.5034 0.497 0.1467 0.498-0.9167 0.497-0.3301 0.498 2.8603 0.497-2.4936 0.498-0.4033 0.497 1.9434 0.498-4.547 0.497-0.2933 0.498-0.44 0.497 2.8968 0.498 2.3469 0.497-1.1368 0.498 2.3835h0.498l0.497-1.7601 0.498-2.1635 0.497 1.3935 0.498 0.6233 0.497-0.0733 0.498 0.8067 0.497-2.2735 0.498-0.9167 0.497-0.2567 0.498-0.2567 0.497-2.1635 0.498-0.1467 0.497 0.9901 0.498-3.6303 0.497-0.77 0.498-0.7334 0.497 0.9534 0.498 0.4767 0.497-0.9534 0.498-1.7968 0.497-0.9534 0.498-1.1734 0.497-0.7701 0.498 1.5401 0.497-2.1268 0.498-0.3667 0.497-0.44 0.498-0.0367 0.497 1.8702 0.498 2.8602 0.497-1.0634 0.498 1.6134 0.497-1.0267 0.498 1.3934 0.497 3.9603 0.498-1.3201 0.497-1.2101 0.498 1.5401 0.498-0.66 0.497-0.1467 0.498 3.8503 0.497-4.767 0.498-0.6234 0.497 3.4836 0.498 1.5034 0.497 0.0367 0.498-1.3568 0.497 0.7334 0.498-2.0168 0.497 2.8602 0.498-1.1367 0.497-2.6036 0.498 1.8702 0.497 2.4935 0.498-1.1001 0.497-0.11 0.498 0.0733" stroke="#8AC327" stroke-miterlimit="10" stroke-width="1.2897"/>
 <g fill="#000">
  <path d="m55.158 173.26c0.0669 0 0.1199 0.02 0.1592 0.059 0.0392 0.039 0.0588 0.09 0.0588 0.152v0.374h-3.3078v-0.211c0-0.044 0.0092-0.089 0.0277-0.135 0.0184-0.046 0.0473-0.089 0.0865-0.128l1.5881-1.595c0.1315-0.134 0.2515-0.262 0.3599-0.384 0.1084-0.125 0.2007-0.249 0.2768-0.374s0.1349-0.25 0.1764-0.377c0.0416-0.129 0.0623-0.267 0.0623-0.412s-0.0231-0.272-0.0692-0.38c-0.0461-0.111-0.1096-0.202-0.1903-0.274-0.0784-0.071-0.1718-0.124-0.2802-0.159-0.1085-0.037-0.2249-0.055-0.3495-0.055-0.1269 0-0.2434 0.018-0.3495 0.055s-0.2006 0.089-0.2837 0.156c-0.0807 0.064-0.1488 0.142-0.2041 0.232-0.0554 0.09-0.0946 0.189-0.1177 0.297-0.0276 0.081-0.0657 0.135-0.1141 0.163-0.0462 0.025-0.1119 0.032-0.1973 0.021l-0.3217-0.056c0.0322-0.226 0.0945-0.425 0.1868-0.598 0.0946-0.176 0.2122-0.322 0.3529-0.44 0.143-0.117 0.3056-0.206 0.4879-0.266 0.1822-0.063 0.3794-0.094 0.5916-0.094 0.2099 0 0.406 0.031 0.5882 0.094 0.1823 0.062 0.3403 0.153 0.4741 0.273 0.1337 0.118 0.2387 0.262 0.3148 0.433 0.0761 0.17 0.1142 0.364 0.1142 0.581 0 0.184-0.0277 0.356-0.083 0.515-0.0554 0.157-0.1304 0.307-0.2249 0.45-0.0946 0.143-0.2042 0.283-0.3287 0.419-0.1223 0.136-0.2526 0.273-0.391 0.412l-1.3079 1.335c0.0923-0.025 0.1857-0.045 0.2803-0.059 0.0945-0.016 0.1856-0.024 0.2733-0.024h1.6608zm4.4051-1.893c0 0.434-0.0473 0.81-0.1418 1.128-0.0923 0.316-0.2192 0.578-0.3806 0.786-0.1615 0.207-0.353 0.362-0.5744 0.464-0.2191 0.101-0.4544 0.152-0.7058 0.152-0.2538 0-0.4902-0.051-0.7093-0.152-0.2169-0.102-0.406-0.257-0.5675-0.464-0.1615-0.208-0.2883-0.47-0.3806-0.786-0.0923-0.318-0.1384-0.694-0.1384-1.128 0-0.433 0.0461-0.809 0.1384-1.127 0.0923-0.319 0.2191-0.582 0.3806-0.789 0.1615-0.21 0.3506-0.366 0.5675-0.467 0.2191-0.102 0.4555-0.153 0.7093-0.153 0.2514 0 0.4867 0.051 0.7058 0.153 0.2214 0.101 0.4129 0.257 0.5744 0.467 0.1614 0.207 0.2883 0.47 0.3806 0.789 0.0945 0.318 0.1418 0.694 0.1418 1.127zm-0.6401 0c0-0.378-0.0323-0.695-0.0969-0.951-0.0622-0.258-0.1476-0.466-0.256-0.623-0.1061-0.157-0.2295-0.269-0.3702-0.335-0.1407-0.07-0.2872-0.104-0.4394-0.104-0.1523 0-0.2988 0.034-0.4395 0.104-0.1407 0.066-0.2641 0.178-0.3702 0.335s-0.1914 0.365-0.256 0.623c-0.0623 0.256-0.0934 0.573-0.0934 0.951 0 0.379 0.0311 0.696 0.0934 0.952 0.0646 0.256 0.1499 0.462 0.256 0.619s0.2295 0.27 0.3702 0.339c0.1407 0.067 0.2872 0.101 0.4395 0.101 0.1522 0 0.2987-0.034 0.4394-0.101 0.1407-0.069 0.2641-0.182 0.3702-0.339 0.1084-0.157 0.1938-0.363 0.256-0.619 0.0646-0.256 0.0969-0.573 0.0969-0.952zm4.2633 1.893c0.0669 0 0.1199 0.02 0.1591 0.059 0.0393 0.039 0.0589 0.09 0.0589 0.152v0.374h-3.3078v-0.211c0-0.044 0.0092-0.089 0.0277-0.135 0.0184-0.046 0.0473-0.089 0.0865-0.128l1.5881-1.595c0.1315-0.134 0.2514-0.262 0.3599-0.384 0.1084-0.125 0.2006-0.249 0.2768-0.374 0.0761-0.125 0.1349-0.25 0.1764-0.377 0.0415-0.129 0.0623-0.267 0.0623-0.412s-0.0231-0.272-0.0692-0.38c-0.0461-0.111-0.1096-0.202-0.1903-0.274-0.0784-0.071-0.1718-0.124-0.2803-0.159-0.1084-0.037-0.2249-0.055-0.3494-0.055-0.1269 0-0.2434 0.018-0.3495 0.055s-0.2007 0.089-0.2837 0.156c-0.0807 0.064-0.1488 0.142-0.2041 0.232-0.0554 0.09-0.0946 0.189-0.1177 0.297-0.0277 0.081-0.0657 0.135-0.1142 0.163-0.0461 0.025-0.1118 0.032-0.1972 0.021l-0.3218-0.056c0.0323-0.226 0.0946-0.425 0.1869-0.598 0.0946-0.176 0.2122-0.322 0.3529-0.44 0.143-0.117 0.3056-0.206 0.4879-0.266 0.1822-0.063 0.3794-0.094 0.5916-0.094 0.2099 0 0.406 0.031 0.5882 0.094 0.1822 0.062 0.3403 0.153 0.474 0.273 0.1338 0.118 0.2388 0.262 0.3149 0.433 0.0761 0.17 0.1142 0.364 0.1142 0.581 0 0.184-0.0277 0.356-0.0831 0.515-0.0553 0.157-0.1303 0.307-0.2249 0.45-0.0945 0.143-0.2041 0.283-0.3287 0.419-0.1222 0.136-0.2525 0.273-0.3909 0.412l-1.3079 1.335c0.0922-0.025 0.1857-0.045 0.2802-0.059 0.0946-0.016 0.1857-0.024 0.2734-0.024h1.6608zm4.4051-1.893c0 0.434-0.0473 0.81-0.1419 1.128-0.0922 0.316-0.2191 0.578-0.3806 0.786-0.1614 0.207-0.3529 0.362-0.5743 0.464-0.2192 0.101-0.4544 0.152-0.7059 0.152-0.2537 0-0.4901-0.051-0.7093-0.152-0.2168-0.102-0.4059-0.257-0.5674-0.464-0.1615-0.208-0.2883-0.47-0.3806-0.786-0.0923-0.318-0.1384-0.694-0.1384-1.128 0-0.433 0.0461-0.809 0.1384-1.127 0.0923-0.319 0.2191-0.582 0.3806-0.789 0.1615-0.21 0.3506-0.366 0.5674-0.467 0.2192-0.102 0.4556-0.153 0.7093-0.153 0.2515 0 0.4867 0.051 0.7059 0.153 0.2214 0.101 0.4129 0.257 0.5743 0.467 0.1615 0.207 0.2884 0.47 0.3806 0.789 0.0946 0.318 0.1419 0.694 0.1419 1.127zm-0.6401 0c0-0.378-0.0323-0.695-0.0969-0.951-0.0623-0.258-0.1476-0.466-0.256-0.623-0.1061-0.157-0.2295-0.269-0.3702-0.335-0.1407-0.07-0.2872-0.104-0.4395-0.104-0.1522 0-0.2987 0.034-0.4394 0.104-0.1407 0.066-0.2641 0.178-0.3702 0.335s-0.1915 0.365-0.256 0.623c-0.0623 0.256-0.0935 0.573-0.0935 0.951 0 0.379 0.0312 0.696 0.0935 0.952 0.0645 0.256 0.1499 0.462 0.256 0.619s0.2295 0.27 0.3702 0.339c0.1407 0.067 0.2872 0.101 0.4394 0.101 0.1523 0 0.2988-0.034 0.4395-0.101 0.1407-0.069 0.2641-0.182 0.3702-0.339 0.1084-0.157 0.1937-0.363 0.256-0.619 0.0646-0.256 0.0969-0.573 0.0969-0.952z"/>
  <path d="m109.78 172-0.779-2.017c-0.023-0.06-0.047-0.129-0.072-0.208-0.026-0.08-0.05-0.166-0.073-0.256-0.048 0.187-0.098 0.343-0.149 0.467l-0.778 2.014h1.851zm1.398 1.841h-0.519c-0.06 0-0.109-0.015-0.146-0.045s-0.064-0.068-0.083-0.114l-0.463-1.197h-2.225l-0.464 1.197c-0.014 0.041-0.04 0.078-0.079 0.11-0.04 0.033-0.088 0.049-0.146 0.049h-0.519l1.983-4.958h0.678l1.983 4.958zm1.112-0.844c0.113 0.152 0.237 0.259 0.371 0.321 0.133 0.063 0.283 0.094 0.449 0.094 0.328 0 0.579-0.117 0.755-0.35 0.175-0.233 0.263-0.565 0.263-0.996 0-0.228-0.021-0.425-0.063-0.588-0.039-0.164-0.096-0.298-0.173-0.402-0.076-0.106-0.169-0.183-0.28-0.232-0.111-0.048-0.236-0.072-0.377-0.072-0.201 0-0.377 0.046-0.529 0.138-0.15 0.092-0.289 0.223-0.416 0.391v1.696zm-0.031-2.118c0.148-0.182 0.319-0.329 0.512-0.439 0.194-0.111 0.416-0.166 0.665-0.166 0.203 0 0.386 0.039 0.55 0.117 0.164 0.076 0.303 0.191 0.419 0.343 0.115 0.15 0.204 0.337 0.266 0.56 0.062 0.224 0.093 0.481 0.093 0.772 0 0.258-0.034 0.499-0.103 0.723-0.07 0.221-0.17 0.414-0.301 0.578-0.13 0.161-0.289 0.289-0.478 0.384-0.187 0.092-0.398 0.138-0.633 0.138-0.215 0-0.399-0.035-0.554-0.107-0.152-0.074-0.287-0.175-0.405-0.304v1.55h-0.619v-4.692h0.37c0.088 0 0.142 0.043 0.163 0.128l0.055 0.415zm3.876 0.159c0.111-0.24 0.247-0.426 0.408-0.56 0.162-0.136 0.359-0.204 0.592-0.204 0.074 0 0.144 8e-3 0.211 0.024 0.069 0.016 0.13 0.041 0.183 0.076l-0.045 0.46c-0.014 0.058-0.048 0.087-0.104 0.087-0.032 0-0.079-7e-3 -0.141-0.021-0.063-0.014-0.133-0.021-0.211-0.021-0.111 0-0.21 0.016-0.298 0.049-0.085 0.032-0.163 0.08-0.232 0.145-0.067 0.062-0.128 0.141-0.183 0.235-0.053 0.092-0.102 0.198-0.146 0.318v2.215h-0.619v-3.505h0.353c0.067 0 0.113 0.013 0.138 0.038 0.026 0.025 0.043 0.069 0.052 0.131l0.042 0.533z"/>
  <path d="m159.38 172.13c0 0.277-0.035 0.525-0.104 0.744-0.067 0.219-0.167 0.405-0.301 0.557-0.132 0.15-0.294 0.265-0.488 0.346s-0.416 0.121-0.668 0.121c-0.228 0-0.461-0.032-0.699-0.097 5e-3 -0.067 0.011-0.132 0.017-0.197 7e-3 -0.067 0.013-0.133 0.018-0.197 4e-3 -0.039 0.018-0.07 0.041-0.094 0.026-0.025 0.064-0.038 0.114-0.038 0.042 0 0.096 0.011 0.163 0.032 0.069 0.02 0.162 0.031 0.277 0.031 0.152 0 0.288-0.023 0.408-0.07 0.12-0.046 0.22-0.117 0.301-0.214s0.142-0.22 0.184-0.37c0.043-0.152 0.065-0.332 0.065-0.54v-3.259h0.672v3.245zm3.859-1.792v3.505h-0.367c-0.088 0-0.143-0.043-0.166-0.128l-0.049-0.377c-0.152 0.168-0.323 0.304-0.512 0.408-0.189 0.101-0.406 0.152-0.65 0.152-0.192 0-0.361-0.031-0.509-0.093-0.145-0.065-0.267-0.155-0.367-0.27-0.099-0.115-0.174-0.255-0.224-0.419-0.049-0.164-0.073-0.345-0.073-0.543v-2.235h0.616v2.235c0 0.265 0.06 0.471 0.18 0.616 0.122 0.145 0.308 0.218 0.557 0.218 0.182 0 0.352-0.043 0.508-0.128 0.16-0.088 0.306-0.208 0.44-0.36v-2.581h0.616zm1.613-1.592v5.097h-0.616v-5.097h0.616z"/>
  <path d="m210.11 171.36c0 0.372-0.059 0.713-0.177 1.025-0.117 0.309-0.283 0.575-0.498 0.799s-0.473 0.398-0.775 0.522c-0.3 0.123-0.632 0.184-0.997 0.184-0.364 0-0.696-0.061-0.996-0.184-0.3-0.124-0.557-0.298-0.772-0.522-0.214-0.224-0.38-0.49-0.498-0.799-0.117-0.312-0.176-0.653-0.176-1.025 0-0.371 0.059-0.711 0.176-1.02 0.118-0.312 0.284-0.579 0.498-0.803 0.215-0.226 0.472-0.401 0.772-0.526 0.3-0.124 0.632-0.187 0.996-0.187 0.365 0 0.697 0.063 0.997 0.187 0.302 0.125 0.56 0.3 0.775 0.526 0.215 0.224 0.381 0.491 0.498 0.803 0.118 0.309 0.177 0.649 0.177 1.02zm-0.689 0c0-0.304-0.041-0.577-0.124-0.82-0.083-0.242-0.201-0.446-0.353-0.612-0.153-0.168-0.337-0.298-0.554-0.387-0.217-0.09-0.459-0.135-0.727-0.135-0.265 0-0.506 0.045-0.723 0.135-0.217 0.089-0.402 0.219-0.557 0.387-0.152 0.166-0.27 0.37-0.353 0.612-0.083 0.243-0.124 0.516-0.124 0.82 0 0.305 0.041 0.578 0.124 0.821 0.083 0.239 0.201 0.444 0.353 0.612 0.155 0.166 0.34 0.294 0.557 0.384 0.217 0.088 0.458 0.131 0.723 0.131 0.268 0 0.51-0.043 0.727-0.131 0.217-0.09 0.401-0.218 0.554-0.384 0.152-0.168 0.27-0.373 0.353-0.612 0.083-0.243 0.124-0.516 0.124-0.821zm3.896-0.404c-0.019 0.025-0.037 0.045-0.056 0.058-0.018 0.014-0.043 0.021-0.076 0.021-0.034 0-0.072-0.014-0.114-0.041-0.041-0.03-0.093-0.063-0.156-0.097-0.06-0.035-0.135-0.066-0.225-0.094-0.087-0.03-0.196-0.045-0.325-0.045-0.173 0-0.325 0.032-0.456 0.094-0.132 0.06-0.243 0.147-0.333 0.263-0.087 0.115-0.154 0.255-0.2 0.418-0.044 0.164-0.066 0.348-0.066 0.551 0 0.212 0.024 0.401 0.073 0.567 0.048 0.164 0.116 0.302 0.204 0.415 0.09 0.111 0.197 0.196 0.322 0.256 0.126 0.058 0.268 0.087 0.425 0.087 0.15 0 0.273-0.017 0.37-0.052 0.097-0.037 0.177-0.077 0.239-0.121 0.065-0.044 0.118-0.083 0.159-0.118 0.044-0.037 0.087-0.055 0.128-0.055 0.051 0 0.09 0.019 0.118 0.059l0.173 0.225c-0.076 0.094-0.163 0.175-0.26 0.242s-0.201 0.123-0.314 0.169c-0.111 0.044-0.228 0.076-0.35 0.097s-0.247 0.031-0.374 0.031c-0.219 0-0.423-0.04-0.612-0.121-0.187-0.081-0.35-0.197-0.488-0.349-0.138-0.155-0.247-0.344-0.325-0.568-0.079-0.223-0.118-0.478-0.118-0.764 0-0.261 0.036-0.502 0.107-0.724 0.074-0.221 0.18-0.411 0.319-0.57 0.14-0.162 0.312-0.288 0.515-0.378 0.206-0.09 0.441-0.134 0.706-0.134 0.247 0 0.464 0.04 0.651 0.121 0.189 0.078 0.356 0.19 0.501 0.335l-0.162 0.222zm1.941 2.937c-0.277 0-0.49-0.077-0.64-0.232-0.148-0.154-0.221-0.377-0.221-0.667v-2.146h-0.423c-0.037 0-0.068-0.01-0.093-0.031-0.025-0.023-0.038-0.057-0.038-0.104v-0.245l0.574-0.073 0.142-1.083c7e-3 -0.034 0.022-0.062 0.045-0.083 0.025-0.023 0.058-0.034 0.097-0.034h0.311v1.207h1.014v0.446h-1.014v2.104c0 0.148 0.036 0.257 0.108 0.329 0.071 0.071 0.163 0.107 0.276 0.107 0.065 0 0.12-8e-3 0.167-0.024 0.048-0.019 0.089-0.038 0.124-0.059s0.064-0.039 0.087-0.055c0.025-0.019 0.047-0.028 0.065-0.028 0.033 0 0.061 0.02 0.087 0.059l0.18 0.294c-0.106 0.099-0.234 0.177-0.384 0.235-0.15 0.056-0.305 0.083-0.464 0.083z"/>
  <path d="m258.83 173.26c0.067 0 0.12 0.02 0.159 0.059s0.059 0.09 0.059 0.152v0.374h-3.308v-0.211c0-0.044 9e-3 -0.089 0.028-0.135 0.018-0.046 0.047-0.089 0.086-0.128l1.589-1.595c0.131-0.134 0.251-0.262 0.359-0.384 0.109-0.125 0.201-0.249 0.277-0.374s0.135-0.25 0.177-0.377c0.041-0.129 0.062-0.267 0.062-0.412s-0.023-0.272-0.069-0.38c-0.046-0.111-0.11-0.202-0.191-0.274-0.078-0.071-0.171-0.124-0.28-0.159-0.108-0.037-0.225-0.055-0.349-0.055-0.127 0-0.244 0.018-0.35 0.055s-0.2 0.089-0.283 0.156c-0.081 0.064-0.149 0.142-0.205 0.232-0.055 0.09-0.094 0.189-0.117 0.297-0.028 0.081-0.066 0.135-0.114 0.163-0.047 0.025-0.112 0.032-0.198 0.021l-0.321-0.056c0.032-0.226 0.094-0.425 0.186-0.598 0.095-0.176 0.213-0.322 0.353-0.44 0.143-0.117 0.306-0.206 0.488-0.266 0.182-0.063 0.38-0.094 0.592-0.094 0.21 0 0.406 0.031 0.588 0.094 0.182 0.062 0.34 0.153 0.474 0.273 0.134 0.118 0.239 0.262 0.315 0.433 0.076 0.17 0.114 0.364 0.114 0.581 0 0.184-0.028 0.356-0.083 0.515-0.055 0.157-0.13 0.307-0.225 0.45-0.094 0.143-0.204 0.283-0.329 0.419-0.122 0.136-0.252 0.273-0.39 0.412l-1.308 1.335c0.092-0.025 0.185-0.045 0.28-0.059 0.094-0.016 0.186-0.024 0.273-0.024h1.661zm4.405-1.893c0 0.434-0.047 0.81-0.142 1.128-0.092 0.316-0.219 0.578-0.38 0.786-0.162 0.207-0.353 0.362-0.575 0.464-0.219 0.101-0.454 0.152-0.706 0.152-0.253 0-0.49-0.051-0.709-0.152-0.217-0.102-0.406-0.257-0.567-0.464-0.162-0.208-0.289-0.47-0.381-0.786-0.092-0.318-0.138-0.694-0.138-1.128 0-0.433 0.046-0.809 0.138-1.127 0.092-0.319 0.219-0.582 0.381-0.789 0.161-0.21 0.35-0.366 0.567-0.467 0.219-0.102 0.456-0.153 0.709-0.153 0.252 0 0.487 0.051 0.706 0.153 0.222 0.101 0.413 0.257 0.575 0.467 0.161 0.207 0.288 0.47 0.38 0.789 0.095 0.318 0.142 0.694 0.142 1.127zm-0.64 0c0-0.378-0.032-0.695-0.097-0.951-0.062-0.258-0.147-0.466-0.256-0.623-0.106-0.157-0.229-0.269-0.37-0.335-0.141-0.07-0.287-0.104-0.44-0.104-0.152 0-0.298 0.034-0.439 0.104-0.141 0.066-0.264 0.178-0.37 0.335s-0.192 0.365-0.256 0.623c-0.062 0.256-0.094 0.573-0.094 0.951 0 0.379 0.032 0.696 0.094 0.952 0.064 0.256 0.15 0.462 0.256 0.619s0.229 0.27 0.37 0.339c0.141 0.067 0.287 0.101 0.439 0.101 0.153 0 0.299-0.034 0.44-0.101 0.141-0.069 0.264-0.182 0.37-0.339 0.109-0.157 0.194-0.363 0.256-0.619 0.065-0.256 0.097-0.573 0.097-0.952zm4.263 1.893c0.067 0 0.12 0.02 0.159 0.059 0.04 0.039 0.059 0.09 0.059 0.152v0.374h-3.307v-0.211c0-0.044 9e-3 -0.089 0.027-0.135 0.019-0.046 0.048-0.089 0.087-0.128l1.588-1.595c0.131-0.134 0.251-0.262 0.36-0.384 0.108-0.125 0.2-0.249 0.276-0.374 0.077-0.125 0.135-0.25 0.177-0.377 0.041-0.129 0.062-0.267 0.062-0.412s-0.023-0.272-0.069-0.38c-0.046-0.111-0.11-0.202-0.19-0.274-0.079-0.071-0.172-0.124-0.281-0.159-0.108-0.037-0.224-0.055-0.349-0.055-0.127 0-0.243 0.018-0.349 0.055-0.107 0.037-0.201 0.089-0.284 0.156-0.081 0.064-0.149 0.142-0.204 0.232-0.056 0.09-0.095 0.189-0.118 0.297-0.028 0.081-0.066 0.135-0.114 0.163-0.046 0.025-0.112 0.032-0.197 0.021l-0.322-0.056c0.032-0.226 0.094-0.425 0.187-0.598 0.094-0.176 0.212-0.322 0.353-0.44 0.143-0.117 0.305-0.206 0.487-0.266 0.183-0.063 0.38-0.094 0.592-0.094 0.21 0 0.406 0.031 0.588 0.094 0.183 0.062 0.341 0.153 0.474 0.273 0.134 0.118 0.239 0.262 0.315 0.433 0.076 0.17 0.114 0.364 0.114 0.581 0 0.184-0.027 0.356-0.083 0.515-0.055 0.157-0.13 0.307-0.225 0.45-0.094 0.143-0.204 0.283-0.328 0.419-0.122 0.136-0.253 0.273-0.391 0.412l-1.308 1.335c0.092-0.025 0.186-0.045 0.28-0.059 0.095-0.016 0.186-0.024 0.274-0.024h1.66zm4.122 0.114v0.471h-2.658v-0.471h1.063v-3.38c0-0.102 3e-3 -0.204 0.01-0.308l-0.882 0.758c-0.03 0.025-0.06 0.041-0.09 0.048-0.03 5e-3 -0.058 5e-3 -0.083 0-0.026-5e-3 -0.05-0.014-0.073-0.028-0.021-0.013-0.037-0.028-0.048-0.045l-0.194-0.266 1.477-1.277h0.502v4.498h0.976z"/>
  <path d="m313.46 172-0.778-2.017c-0.023-0.06-0.048-0.129-0.073-0.208-0.025-0.08-0.05-0.166-0.073-0.256-0.048 0.187-0.098 0.343-0.148 0.467l-0.779 2.014h1.851zm1.398 1.841h-0.519c-0.06 0-0.108-0.015-0.145-0.045s-0.065-0.068-0.083-0.114l-0.464-1.197h-2.225l-0.463 1.197c-0.014 0.041-0.041 0.078-0.08 0.11-0.039 0.033-0.088 0.049-0.145 0.049h-0.519l1.982-4.958h0.678l1.983 4.958zm1.113-0.844c0.113 0.152 0.236 0.259 0.37 0.321 0.134 0.063 0.284 0.094 0.45 0.094 0.327 0 0.579-0.117 0.754-0.35s0.263-0.565 0.263-0.996c0-0.228-0.021-0.425-0.062-0.588-0.039-0.164-0.097-0.298-0.173-0.402-0.076-0.106-0.17-0.183-0.28-0.232-0.111-0.048-0.237-0.072-0.378-0.072-0.2 0-0.377 0.046-0.529 0.138-0.15 0.092-0.288 0.223-0.415 0.391v1.696zm-0.031-2.118c0.147-0.182 0.318-0.329 0.512-0.439 0.193-0.111 0.415-0.166 0.664-0.166 0.203 0 0.386 0.039 0.55 0.117 0.164 0.076 0.304 0.191 0.419 0.343 0.115 0.15 0.204 0.337 0.266 0.56 0.063 0.224 0.094 0.481 0.094 0.772 0 0.258-0.035 0.499-0.104 0.723-0.069 0.221-0.17 0.414-0.301 0.578-0.129 0.161-0.288 0.289-0.478 0.384-0.186 0.092-0.398 0.138-0.633 0.138-0.214 0-0.399-0.035-0.553-0.107-0.153-0.074-0.288-0.175-0.405-0.304v1.55h-0.62v-4.692h0.371c0.087 0 0.142 0.043 0.162 0.128l0.056 0.415zm3.875 0.159c0.111-0.24 0.247-0.426 0.408-0.56 0.162-0.136 0.359-0.204 0.592-0.204 0.074 0 0.144 8e-3 0.211 0.024 0.069 0.016 0.131 0.041 0.184 0.076l-0.045 0.46c-0.014 0.058-0.049 0.087-0.104 0.087-0.033 0-0.08-7e-3 -0.142-0.021s-0.133-0.021-0.211-0.021c-0.111 0-0.21 0.016-0.298 0.049-0.085 0.032-0.162 0.08-0.232 0.145-0.066 0.062-0.128 0.141-0.183 0.235-0.053 0.092-0.101 0.198-0.145 0.318v2.215h-0.62v-3.505h0.353c0.067 0 0.113 0.013 0.139 0.038 0.025 0.025 0.042 0.069 0.052 0.131l0.041 0.533z"/>
  <path d="m363.05 172.13c0 0.277-0.035 0.525-0.104 0.744-0.067 0.219-0.167 0.405-0.301 0.557-0.131 0.15-0.294 0.265-0.488 0.346s-0.416 0.121-0.668 0.121c-0.228 0-0.461-0.032-0.698-0.097 4e-3 -0.067 0.01-0.132 0.017-0.197 7e-3 -0.067 0.012-0.133 0.017-0.197 5e-3 -0.039 0.019-0.07 0.042-0.094 0.025-0.025 0.063-0.038 0.114-0.038 0.041 0 0.096 0.011 0.162 0.032 0.07 0.02 0.162 0.031 0.277 0.031 0.152 0 0.289-0.023 0.409-0.07 0.119-0.046 0.22-0.117 0.301-0.214 0.08-0.097 0.141-0.22 0.183-0.37 0.044-0.152 0.066-0.332 0.066-0.54v-3.259h0.671v3.245zm3.859-1.792v3.505h-0.367c-0.087 0-0.143-0.043-0.166-0.128l-0.048-0.377c-0.152 0.168-0.323 0.304-0.512 0.408-0.189 0.101-0.406 0.152-0.651 0.152-0.191 0-0.361-0.031-0.508-0.093-0.146-0.065-0.268-0.155-0.367-0.27s-0.174-0.255-0.225-0.419c-0.049-0.164-0.073-0.345-0.073-0.543v-2.235h0.616v2.235c0 0.265 0.06 0.471 0.18 0.616 0.122 0.145 0.308 0.218 0.557 0.218 0.182 0 0.352-0.043 0.509-0.128 0.159-0.088 0.305-0.208 0.439-0.36v-2.581h0.616zm1.613-1.592v5.097h-0.616v-5.097h0.616z"/>
  <path d="m413.78 171.36c0 0.372-0.059 0.713-0.176 1.025-0.118 0.309-0.284 0.575-0.499 0.799-0.214 0.224-0.473 0.398-0.775 0.522-0.3 0.123-0.632 0.184-0.996 0.184-0.365 0-0.697-0.061-0.997-0.184-0.3-0.124-0.557-0.298-0.771-0.522-0.215-0.224-0.381-0.49-0.498-0.799-0.118-0.312-0.177-0.653-0.177-1.025 0-0.371 0.059-0.711 0.177-1.02 0.117-0.312 0.283-0.579 0.498-0.803 0.214-0.226 0.471-0.401 0.771-0.526 0.3-0.124 0.632-0.187 0.997-0.187 0.364 0 0.696 0.063 0.996 0.187 0.302 0.125 0.561 0.3 0.775 0.526 0.215 0.224 0.381 0.491 0.499 0.803 0.117 0.309 0.176 0.649 0.176 1.02zm-0.688 0c0-0.304-0.042-0.577-0.125-0.82-0.083-0.242-0.201-0.446-0.353-0.612-0.152-0.168-0.337-0.298-0.554-0.387-0.216-0.09-0.459-0.135-0.726-0.135-0.265 0-0.506 0.045-0.723 0.135-0.217 0.089-0.403 0.219-0.557 0.387-0.153 0.166-0.27 0.37-0.353 0.612-0.083 0.243-0.125 0.516-0.125 0.82 0 0.305 0.042 0.578 0.125 0.821 0.083 0.239 0.2 0.444 0.353 0.612 0.154 0.166 0.34 0.294 0.557 0.384 0.217 0.088 0.458 0.131 0.723 0.131 0.267 0 0.51-0.043 0.726-0.131 0.217-0.09 0.402-0.218 0.554-0.384 0.152-0.168 0.27-0.373 0.353-0.612 0.083-0.243 0.125-0.516 0.125-0.821zm3.895-0.404c-0.018 0.025-0.037 0.045-0.055 0.058-0.019 0.014-0.044 0.021-0.076 0.021-0.035 0-0.073-0.014-0.115-0.041-0.041-0.03-0.093-0.063-0.155-0.097-0.06-0.035-0.135-0.066-0.225-0.094-0.088-0.03-0.196-0.045-0.325-0.045-0.173 0-0.326 0.032-0.457 0.094-0.132 0.06-0.242 0.147-0.332 0.263-0.088 0.115-0.155 0.255-0.201 0.418-0.044 0.164-0.066 0.348-0.066 0.551 0 0.212 0.025 0.401 0.073 0.567 0.048 0.164 0.116 0.302 0.204 0.415 0.09 0.111 0.197 0.196 0.322 0.256 0.127 0.058 0.269 0.087 0.425 0.087 0.15 0 0.274-0.017 0.371-0.052 0.097-0.037 0.176-0.077 0.238-0.121 0.065-0.044 0.118-0.083 0.16-0.118 0.043-0.037 0.086-0.055 0.128-0.055 0.05 0 0.09 0.019 0.117 0.059l0.173 0.225c-0.076 0.094-0.162 0.175-0.259 0.242s-0.202 0.123-0.315 0.169c-0.111 0.044-0.227 0.076-0.35 0.097-0.122 0.021-0.246 0.031-0.373 0.031-0.219 0-0.424-0.04-0.613-0.121-0.187-0.081-0.349-0.197-0.488-0.349-0.138-0.155-0.246-0.344-0.325-0.568-0.078-0.223-0.117-0.478-0.117-0.764 0-0.261 0.035-0.502 0.107-0.724 0.074-0.221 0.18-0.411 0.318-0.57 0.141-0.162 0.313-0.288 0.516-0.378 0.205-0.09 0.44-0.134 0.706-0.134 0.246 0 0.463 0.04 0.65 0.121 0.189 0.078 0.356 0.19 0.502 0.335l-0.163 0.222zm1.941 2.937c-0.276 0-0.49-0.077-0.64-0.232-0.147-0.154-0.221-0.377-0.221-0.667v-2.146h-0.422c-0.037 0-0.068-0.01-0.094-0.031-0.025-0.023-0.038-0.057-0.038-0.104v-0.245l0.575-0.073 0.141-1.083c7e-3 -0.034 0.022-0.062 0.045-0.083 0.026-0.023 0.058-0.034 0.097-0.034h0.312v1.207h1.014v0.446h-1.014v2.104c0 0.148 0.036 0.257 0.107 0.329 0.072 0.071 0.164 0.107 0.277 0.107 0.064 0 0.12-8e-3 0.166-0.024 0.048-0.019 0.09-0.038 0.124-0.059 0.035-0.021 0.064-0.039 0.087-0.055 0.025-0.019 0.047-0.028 0.066-0.028 0.032 0 0.061 0.02 0.086 0.059l0.18 0.294c-0.106 0.099-0.234 0.177-0.384 0.235-0.15 0.056-0.304 0.083-0.464 0.083z"/>
  <path d="m461.38 173.26c0.067 0 0.12 0.02 0.159 0.059 0.04 0.039 0.059 0.09 0.059 0.152v0.374h-3.308v-0.211c0-0.044 0.01-0.089 0.028-0.135 0.019-0.046 0.047-0.089 0.087-0.128l1.588-1.595c0.131-0.134 0.251-0.262 0.36-0.384 0.108-0.125 0.2-0.249 0.276-0.374 0.077-0.125 0.135-0.25 0.177-0.377 0.041-0.129 0.062-0.267 0.062-0.412s-0.023-0.272-0.069-0.38c-0.046-0.111-0.11-0.202-0.19-0.274-0.079-0.071-0.172-0.124-0.281-0.159-0.108-0.037-0.225-0.055-0.349-0.055-0.127 0-0.243 0.018-0.35 0.055-0.106 0.037-0.2 0.089-0.283 0.156-0.081 0.064-0.149 0.142-0.204 0.232-0.056 0.09-0.095 0.189-0.118 0.297-0.028 0.081-0.066 0.135-0.114 0.163-0.046 0.025-0.112 0.032-0.197 0.021l-0.322-0.056c0.032-0.226 0.094-0.425 0.187-0.598 0.094-0.176 0.212-0.322 0.353-0.44 0.143-0.117 0.305-0.206 0.487-0.266 0.183-0.063 0.38-0.094 0.592-0.094 0.21 0 0.406 0.031 0.588 0.094 0.183 0.062 0.341 0.153 0.474 0.273 0.134 0.118 0.239 0.262 0.315 0.433 0.076 0.17 0.114 0.364 0.114 0.581 0 0.184-0.027 0.356-0.083 0.515-0.055 0.157-0.13 0.307-0.225 0.45-0.094 0.143-0.204 0.283-0.328 0.419-0.123 0.136-0.253 0.273-0.391 0.412l-1.308 1.335c0.092-0.025 0.186-0.045 0.28-0.059 0.095-0.016 0.186-0.024 0.273-0.024h1.661zm4.405-1.893c0 0.434-0.047 0.81-0.142 1.128-0.092 0.316-0.219 0.578-0.38 0.786-0.162 0.207-0.353 0.362-0.574 0.464-0.22 0.101-0.455 0.152-0.706 0.152-0.254 0-0.49-0.051-0.71-0.152-0.216-0.102-0.406-0.257-0.567-0.464-0.162-0.208-0.288-0.47-0.381-0.786-0.092-0.318-0.138-0.694-0.138-1.128 0-0.433 0.046-0.809 0.138-1.127 0.093-0.319 0.219-0.582 0.381-0.789 0.161-0.21 0.351-0.366 0.567-0.467 0.22-0.102 0.456-0.153 0.71-0.153 0.251 0 0.486 0.051 0.706 0.153 0.221 0.101 0.412 0.257 0.574 0.467 0.161 0.207 0.288 0.47 0.38 0.789 0.095 0.318 0.142 0.694 0.142 1.127zm-0.64 0c0-0.378-0.032-0.695-0.097-0.951-0.062-0.258-0.147-0.466-0.256-0.623-0.106-0.157-0.229-0.269-0.37-0.335-0.141-0.07-0.287-0.104-0.439-0.104-0.153 0-0.299 0.034-0.44 0.104-0.14 0.066-0.264 0.178-0.37 0.335s-0.191 0.365-0.256 0.623c-0.062 0.256-0.093 0.573-0.093 0.951 0 0.379 0.031 0.696 0.093 0.952 0.065 0.256 0.15 0.462 0.256 0.619s0.23 0.27 0.37 0.339c0.141 0.067 0.287 0.101 0.44 0.101 0.152 0 0.298-0.034 0.439-0.101 0.141-0.069 0.264-0.182 0.37-0.339 0.109-0.157 0.194-0.363 0.256-0.619 0.065-0.256 0.097-0.573 0.097-0.952zm4.264 1.893c0.066 0 0.119 0.02 0.159 0.059 0.039 0.039 0.058 0.09 0.058 0.152v0.374h-3.307v-0.211c0-0.044 9e-3 -0.089 0.027-0.135 0.019-0.046 0.048-0.089 0.087-0.128l1.588-1.595c0.132-0.134 0.251-0.262 0.36-0.384 0.108-0.125 0.201-0.249 0.277-0.374s0.135-0.25 0.176-0.377c0.042-0.129 0.062-0.267 0.062-0.412s-0.023-0.272-0.069-0.38c-0.046-0.111-0.109-0.202-0.19-0.274-0.078-0.071-0.172-0.124-0.28-0.159-0.109-0.037-0.225-0.055-0.35-0.055-0.127 0-0.243 0.018-0.349 0.055s-0.201 0.089-0.284 0.156c-0.081 0.064-0.149 0.142-0.204 0.232s-0.095 0.189-0.118 0.297c-0.027 0.081-0.065 0.135-0.114 0.163-0.046 0.025-0.112 0.032-0.197 0.021l-0.322-0.056c0.032-0.226 0.095-0.425 0.187-0.598 0.094-0.176 0.212-0.322 0.353-0.44 0.143-0.117 0.305-0.206 0.488-0.266 0.182-0.063 0.379-0.094 0.591-0.094 0.21 0 0.406 0.031 0.589 0.094 0.182 0.062 0.34 0.153 0.474 0.273 0.133 0.118 0.238 0.262 0.314 0.433 0.077 0.17 0.115 0.364 0.115 0.581 0 0.184-0.028 0.356-0.083 0.515-0.056 0.157-0.131 0.307-0.225 0.45-0.095 0.143-0.204 0.283-0.329 0.419-0.122 0.136-0.253 0.273-0.391 0.412l-1.308 1.335c0.092-0.025 0.186-0.045 0.28-0.059 0.095-0.016 0.186-0.024 0.274-0.024h1.661zm4.014 0c0.067 0 0.12 0.02 0.159 0.059s0.059 0.09 0.059 0.152v0.374h-3.308v-0.211c0-0.044 9e-3 -0.089 0.028-0.135 0.018-0.046 0.047-0.089 0.086-0.128l1.588-1.595c0.132-0.134 0.252-0.262 0.36-0.384 0.108-0.125 0.201-0.249 0.277-0.374s0.135-0.25 0.176-0.377c0.042-0.129 0.063-0.267 0.063-0.412s-0.023-0.272-0.07-0.38c-0.046-0.111-0.109-0.202-0.19-0.274-0.078-0.071-0.172-0.124-0.28-0.159-0.109-0.037-0.225-0.055-0.35-0.055-0.127 0-0.243 0.018-0.349 0.055s-0.201 0.089-0.284 0.156c-0.081 0.064-0.149 0.142-0.204 0.232s-0.095 0.189-0.118 0.297c-0.027 0.081-0.065 0.135-0.114 0.163-0.046 0.025-0.112 0.032-0.197 0.021l-0.322-0.056c0.033-0.226 0.095-0.425 0.187-0.598 0.095-0.176 0.212-0.322 0.353-0.44 0.143-0.117 0.306-0.206 0.488-0.266 0.182-0.063 0.379-0.094 0.591-0.094 0.21 0 0.406 0.031 0.589 0.094 0.182 0.062 0.34 0.153 0.474 0.273 0.134 0.118 0.238 0.262 0.315 0.433 0.076 0.17 0.114 0.364 0.114 0.581 0 0.184-0.028 0.356-0.083 0.515-0.056 0.157-0.131 0.307-0.225 0.45-0.095 0.143-0.204 0.283-0.329 0.419-0.122 0.136-0.252 0.273-0.391 0.412l-1.308 1.335c0.093-0.025 0.186-0.045 0.281-0.059 0.094-0.016 0.185-0.024 0.273-0.024h1.661z"/>
  <path d="m27.839 47.624c0.132-0.012 0.248-0.04 0.348-0.084 0.1-0.046 0.184-0.104 0.252-0.174 0.07-0.07 0.122-0.151 0.156-0.243 0.036-0.094 0.054-0.197 0.054-0.309 0-0.1-0.019-0.186-0.057-0.258-0.036-0.072-0.086-0.134-0.15-0.186-0.064-0.054-0.139-0.099-0.225-0.135-0.086-0.038-0.178-0.073-0.276-0.105l-0.102 1.494zm-0.099-3.468c-0.13 0.012-0.243 0.038-0.339 0.078-0.094 0.04-0.172 0.09-0.234 0.15s-0.108 0.128-0.138 0.204c-0.03 0.074-0.045 0.152-0.045 0.234 0 0.096 0.017 0.18 0.051 0.252 0.034 0.07 0.081 0.132 0.141 0.186s0.13 0.101 0.21 0.141 0.167 0.076 0.261 0.108l0.093-1.353zm0.237 1.458c0.144 0.046 0.286 0.095 0.426 0.147s0.266 0.119 0.378 0.201 0.202 0.185 0.27 0.309c0.07 0.122 0.105 0.275 0.105 0.459 0 0.18-0.03 0.349-0.09 0.507s-0.148 0.297-0.264 0.417c-0.114 0.12-0.255 0.218-0.423 0.294-0.166 0.074-0.356 0.118-0.57 0.132l-0.036 0.525c-2e-3 0.038-0.017 0.071-0.045 0.099-0.028 0.03-0.063 0.045-0.105 0.045h-0.198l0.045-0.675c-0.242-0.024-0.463-0.084-0.663-0.18-0.198-0.098-0.369-0.222-0.513-0.372l0.162-0.246c0.016-0.022 0.036-0.04 0.06-0.054s0.05-0.021 0.078-0.021c0.038 0 0.081 0.019 0.129 0.057s0.107 0.081 0.177 0.129c0.072 0.048 0.156 0.095 0.252 0.141 0.098 0.046 0.215 0.077 0.351 0.093l0.108-1.593c-0.14-0.042-0.278-0.089-0.414-0.141-0.134-0.052-0.255-0.121-0.363-0.207-0.106-0.086-0.192-0.193-0.258-0.321-0.064-0.128-0.096-0.289-0.096-0.483 0-0.146 0.028-0.288 0.084-0.426 0.058-0.14 0.142-0.264 0.252-0.372s0.245-0.196 0.405-0.264c0.16-0.07 0.343-0.109 0.549-0.117l0.03-0.432c2e-3 -0.038 0.016-0.072 0.042-0.102 0.028-0.03 0.064-0.045 0.108-0.045h0.198l-0.039 0.591c0.208 0.026 0.388 0.08 0.54 0.162 0.154 0.082 0.29 0.182 0.408 0.3l-0.129 0.198c-0.04 0.06-0.086 0.09-0.138 0.09-0.028 0-0.063-0.012-0.105-0.036-0.04-0.026-0.089-0.056-0.147-0.09-0.056-0.034-0.123-0.067-0.201-0.099-0.076-0.032-0.163-0.056-0.261-0.072l-0.099 1.452zm1.8935-0.714c0.028-0.196 0.082-0.369 0.162-0.519 0.08-0.152 0.181-0.279 0.303-0.381 0.124-0.102 0.265-0.179 0.423-0.231 0.16-0.054 0.332-0.081 0.516-0.081 0.182 0 0.35 0.026 0.504 0.078s0.286 0.126 0.396 0.222c0.112 0.096 0.199 0.212 0.261 0.348s0.093 0.287 0.093 0.453c0 0.136-0.018 0.258-0.054 0.366-0.034 0.106-0.084 0.199-0.15 0.279-0.064 0.08-0.142 0.148-0.234 0.204s-0.195 0.102-0.309 0.138c0.28 0.072 0.49 0.196 0.63 0.372 0.142 0.174 0.213 0.392 0.213 0.654 0 0.198-0.038 0.376-0.114 0.534-0.074 0.158-0.176 0.293-0.306 0.405-0.13 0.11-0.282 0.195-0.456 0.255-0.172 0.058-0.357 0.087-0.555 0.087-0.228 0-0.423-0.028-0.585-0.084-0.162-0.058-0.299-0.137-0.411-0.237s-0.204-0.218-0.276-0.354c-0.072-0.138-0.133-0.287-0.183-0.447l0.231-0.096c0.06-0.026 0.118-0.033 0.174-0.021 0.058 0.012 0.1 0.045 0.126 0.099 0.026 0.056 0.058 0.123 0.096 0.201 0.04 0.078 0.094 0.153 0.162 0.225s0.154 0.133 0.258 0.183c0.106 0.05 0.24 0.075 0.402 0.075 0.15 0 0.281-0.024 0.393-0.072 0.114-0.05 0.208-0.114 0.282-0.192 0.076-0.078 0.133-0.165 0.171-0.261s0.057-0.191 0.057-0.285c0-0.116-0.015-0.222-0.045-0.318s-0.086-0.179-0.168-0.249-0.195-0.125-0.339-0.165c-0.142-0.04-0.325-0.06-0.549-0.06v-0.387c0.184-2e-3 0.34-0.022 0.468-0.06 0.13-0.038 0.235-0.09 0.315-0.156 0.082-0.066 0.141-0.145 0.177-0.237 0.038-0.092 0.057-0.194 0.057-0.306 0-0.124-0.02-0.232-0.06-0.324-0.038-0.092-0.091-0.168-0.159-0.228s-0.149-0.105-0.243-0.135c-0.092-0.03-0.192-0.045-0.3-0.045s-0.209 0.016-0.303 0.048c-0.092 0.032-0.174 0.077-0.246 0.135-0.07 0.056-0.129 0.123-0.177 0.201s-0.082 0.164-0.102 0.258c-0.026 0.07-0.059 0.117-0.099 0.141-0.038 0.022-0.094 0.028-0.168 0.018l-0.279-0.048zm6.3904 0.987c0 0.376-0.041 0.702-0.123 0.978-0.08 0.274-0.19 0.501-0.33 0.681s-0.306 0.314-0.498 0.402c-0.19 0.088-0.394 0.132-0.612 0.132-0.22 0-0.425-0.044-0.615-0.132-0.188-0.088-0.352-0.222-0.492-0.402s-0.25-0.407-0.33-0.681c-0.08-0.276-0.12-0.602-0.12-0.978s0.04-0.702 0.12-0.978 0.19-0.504 0.33-0.684c0.14-0.182 0.304-0.317 0.492-0.405 0.19-0.088 0.395-0.132 0.615-0.132 0.218 0 0.422 0.044 0.612 0.132 0.192 0.088 0.358 0.223 0.498 0.405 0.14 0.18 0.25 0.408 0.33 0.684 0.082 0.276 0.123 0.602 0.123 0.978zm-0.555 0c0-0.328-0.028-0.603-0.084-0.825-0.054-0.224-0.128-0.404-0.222-0.54-0.092-0.136-0.199-0.233-0.321-0.291-0.122-0.06-0.249-0.09-0.381-0.09s-0.259 0.03-0.381 0.09c-0.122 0.058-0.229 0.155-0.321 0.291s-0.166 0.316-0.222 0.54c-0.054 0.222-0.081 0.497-0.081 0.825s0.027 0.603 0.081 0.825c0.056 0.222 0.13 0.401 0.222 0.537s0.199 0.234 0.321 0.294c0.122 0.058 0.249 0.087 0.381 0.087s0.259-0.029 0.381-0.087c0.122-0.06 0.229-0.158 0.321-0.294 0.094-0.136 0.168-0.315 0.222-0.537 0.056-0.222 0.084-0.497 0.084-0.825zm4.0355 0c0 0.376-0.041 0.702-0.123 0.978-0.08 0.274-0.19 0.501-0.33 0.681s-0.306 0.314-0.498 0.402c-0.19 0.088-0.394 0.132-0.612 0.132-0.22 0-0.425-0.044-0.615-0.132-0.188-0.088-0.352-0.222-0.492-0.402s-0.25-0.407-0.33-0.681c-0.08-0.276-0.12-0.602-0.12-0.978s0.04-0.702 0.12-0.978 0.19-0.504 0.33-0.684c0.14-0.182 0.304-0.317 0.492-0.405 0.19-0.088 0.395-0.132 0.615-0.132 0.218 0 0.422 0.044 0.612 0.132 0.192 0.088 0.358 0.223 0.498 0.405 0.14 0.18 0.25 0.408 0.33 0.684 0.082 0.276 0.123 0.602 0.123 0.978zm-0.555 0c0-0.328-0.028-0.603-0.084-0.825-0.054-0.224-0.128-0.404-0.222-0.54-0.092-0.136-0.199-0.233-0.321-0.291-0.122-0.06-0.249-0.09-0.381-0.09s-0.259 0.03-0.381 0.09c-0.122 0.058-0.229 0.155-0.321 0.291s-0.166 0.316-0.222 0.54c-0.054 0.222-0.081 0.497-0.081 0.825s0.027 0.603 0.081 0.825c0.056 0.222 0.13 0.401 0.222 0.537s0.199 0.234 0.321 0.294c0.122 0.058 0.249 0.087 0.381 0.087s0.259-0.029 0.381-0.087c0.122-0.06 0.229-0.158 0.321-0.294 0.094-0.136 0.168-0.315 0.222-0.537 0.056-0.222 0.084-0.497 0.084-0.825zm3.2306 1.416c0.098 0.132 0.205 0.225 0.321 0.279 0.118 0.054 0.247 0.081 0.387 0.081 0.286 0 0.505-0.101 0.657-0.303s0.228-0.503 0.228-0.903c0-0.372-0.068-0.645-0.204-0.819-0.134-0.176-0.326-0.264-0.576-0.264-0.174 0-0.326 0.04-0.456 0.12-0.128 0.08-0.247 0.193-0.357 0.339v1.47zm0-1.869c0.128-0.148 0.272-0.266 0.432-0.354 0.162-0.088 0.348-0.132 0.558-0.132 0.178 0 0.338 0.034 0.48 0.102 0.144 0.068 0.266 0.167 0.366 0.297 0.1 0.128 0.176 0.284 0.228 0.468 0.054 0.184 0.081 0.391 0.081 0.621 0 0.246-0.03 0.47-0.09 0.672s-0.147 0.375-0.261 0.519c-0.112 0.142-0.249 0.253-0.411 0.333-0.162 0.078-0.344 0.117-0.546 0.117-0.2 0-0.369-0.037-0.507-0.111-0.136-0.076-0.255-0.183-0.357-0.321l-0.027 0.276c-0.016 0.076-0.062 0.114-0.138 0.114h-0.345v-4.419h0.537v1.818z"/>
  <path d="m27.839 66.539c0.132-0.012 0.248-0.04 0.348-0.084 0.1-0.046 0.184-0.104 0.252-0.174 0.07-0.07 0.122-0.151 0.156-0.243 0.036-0.094 0.054-0.197 0.054-0.309 0-0.1-0.019-0.186-0.057-0.258-0.036-0.072-0.086-0.134-0.15-0.186-0.064-0.054-0.139-0.099-0.225-0.135-0.086-0.038-0.178-0.073-0.276-0.105l-0.102 1.494zm-0.099-3.468c-0.13 0.012-0.243 0.038-0.339 0.078-0.094 0.04-0.172 0.09-0.234 0.15s-0.108 0.128-0.138 0.204c-0.03 0.074-0.045 0.152-0.045 0.234 0 0.096 0.017 0.18 0.051 0.252 0.034 0.07 0.081 0.132 0.141 0.186s0.13 0.101 0.21 0.141 0.167 0.076 0.261 0.108l0.093-1.353zm0.237 1.458c0.144 0.046 0.286 0.095 0.426 0.147s0.266 0.119 0.378 0.201 0.202 0.185 0.27 0.309c0.07 0.122 0.105 0.275 0.105 0.459 0 0.18-0.03 0.349-0.09 0.507s-0.148 0.297-0.264 0.417c-0.114 0.12-0.255 0.218-0.423 0.294-0.166 0.074-0.356 0.118-0.57 0.132l-0.036 0.525c-2e-3 0.038-0.017 0.071-0.045 0.099-0.028 0.03-0.063 0.045-0.105 0.045h-0.198l0.045-0.675c-0.242-0.024-0.463-0.084-0.663-0.18-0.198-0.098-0.369-0.222-0.513-0.372l0.162-0.246c0.016-0.022 0.036-0.04 0.06-0.054s0.05-0.021 0.078-0.021c0.038 0 0.081 0.019 0.129 0.057s0.107 0.081 0.177 0.129c0.072 0.048 0.156 0.095 0.252 0.141 0.098 0.046 0.215 0.077 0.351 0.093l0.108-1.593c-0.14-0.042-0.278-0.089-0.414-0.141-0.134-0.052-0.255-0.121-0.363-0.207-0.106-0.086-0.192-0.193-0.258-0.321-0.064-0.128-0.096-0.289-0.096-0.483 0-0.146 0.028-0.288 0.084-0.426 0.058-0.14 0.142-0.264 0.252-0.372s0.245-0.196 0.405-0.264c0.16-0.07 0.343-0.109 0.549-0.117l0.03-0.432c2e-3 -0.038 0.016-0.072 0.042-0.102 0.028-0.03 0.064-0.045 0.108-0.045h0.198l-0.039 0.591c0.208 0.026 0.388 0.08 0.54 0.162 0.154 0.082 0.29 0.182 0.408 0.3l-0.129 0.198c-0.04 0.06-0.086 0.09-0.138 0.09-0.028 0-0.063-0.012-0.105-0.036-0.04-0.026-0.089-0.056-0.147-0.09-0.056-0.034-0.123-0.067-0.201-0.099-0.076-0.032-0.163-0.056-0.261-0.072l-0.099 1.452zm4.4645 1.914c0.058 0 0.104 0.017 0.138 0.051s0.051 0.078 0.051 0.132v0.324h-2.868v-0.183c0-0.038 8e-3 -0.077 0.024-0.117s0.041-0.077 0.075-0.111l1.377-1.383c0.114-0.116 0.218-0.227 0.312-0.333 0.094-0.108 0.174-0.216 0.24-0.324s0.117-0.217 0.153-0.327c0.036-0.112 0.054-0.231 0.054-0.357s-0.02-0.236-0.06-0.33c-0.04-0.096-0.095-0.175-0.165-0.237-0.068-0.062-0.149-0.108-0.243-0.138-0.094-0.032-0.195-0.048-0.303-0.048-0.11 0-0.211 0.016-0.303 0.048s-0.174 0.077-0.246 0.135c-0.07 0.056-0.129 0.123-0.177 0.201s-0.082 0.164-0.102 0.258c-0.024 0.07-0.057 0.117-0.099 0.141-0.04 0.022-0.097 0.028-0.171 0.018l-0.279-0.048c0.028-0.196 0.082-0.369 0.162-0.519 0.082-0.152 0.184-0.279 0.306-0.381 0.124-0.102 0.265-0.179 0.423-0.231 0.158-0.054 0.329-0.081 0.513-0.081 0.182 0 0.352 0.027 0.51 0.081s0.295 0.133 0.411 0.237c0.116 0.102 0.207 0.227 0.273 0.375s0.099 0.316 0.099 0.504c0 0.16-0.024 0.309-0.072 0.447-0.048 0.136-0.113 0.266-0.195 0.39s-0.177 0.245-0.285 0.363c-0.106 0.118-0.219 0.237-0.339 0.357l-1.134 1.158c0.08-0.022 0.161-0.039 0.243-0.051 0.082-0.014 0.161-0.021 0.237-0.021h1.44zm1.6054-2.169c0.224-0.048 0.43-0.072 0.618-0.072 0.224 0 0.422 0.033 0.594 0.099s0.315 0.157 0.429 0.273c0.116 0.116 0.203 0.253 0.261 0.411 0.06 0.158 0.09 0.33 0.09 0.516 0 0.228-0.04 0.434-0.12 0.618-0.078 0.184-0.187 0.342-0.327 0.474-0.138 0.13-0.301 0.23-0.489 0.3s-0.391 0.105-0.609 0.105c-0.126 0-0.247-0.013-0.363-0.039-0.116-0.024-0.225-0.057-0.327-0.099-0.1-0.042-0.193-0.09-0.279-0.144s-0.162-0.111-0.228-0.171l0.165-0.228c0.036-0.052 0.083-0.078 0.141-0.078 0.04 0 0.085 0.016 0.135 0.048 0.05 0.03 0.111 0.064 0.183 0.102s0.156 0.073 0.252 0.105c0.098 0.03 0.214 0.045 0.348 0.045 0.15 0 0.285-0.024 0.405-0.072s0.223-0.116 0.309-0.204c0.086-0.09 0.152-0.197 0.198-0.321s0.069-0.263 0.069-0.417c0-0.134-0.02-0.255-0.06-0.363-0.038-0.108-0.097-0.2-0.177-0.276-0.078-0.076-0.176-0.135-0.294-0.177s-0.256-0.063-0.414-0.063c-0.108 0-0.221 9e-3 -0.339 0.027-0.116 0.018-0.235 0.047-0.357 0.087l-0.336-0.099 0.345-2.01h2.037v0.234c0 0.076-0.024 0.139-0.072 0.189-0.046 0.048-0.126 0.072-0.24 0.072h-1.35l-0.198 1.128zm5.6945 0.528c0 0.376-0.041 0.702-0.123 0.978-0.08 0.274-0.19 0.501-0.33 0.681s-0.306 0.314-0.498 0.402c-0.19 0.088-0.394 0.132-0.612 0.132-0.22 0-0.425-0.044-0.615-0.132-0.188-0.088-0.352-0.222-0.492-0.402s-0.25-0.407-0.33-0.681c-0.08-0.276-0.12-0.602-0.12-0.978s0.04-0.702 0.12-0.978 0.19-0.504 0.33-0.684c0.14-0.182 0.304-0.317 0.492-0.405 0.19-0.088 0.395-0.132 0.615-0.132 0.218 0 0.422 0.044 0.612 0.132 0.192 0.088 0.358 0.223 0.498 0.405 0.14 0.18 0.25 0.408 0.33 0.684 0.082 0.276 0.123 0.602 0.123 0.978zm-0.555 0c0-0.328-0.028-0.603-0.084-0.825-0.054-0.224-0.128-0.404-0.222-0.54-0.092-0.136-0.199-0.233-0.321-0.291-0.122-0.06-0.249-0.09-0.381-0.09s-0.259 0.03-0.381 0.09c-0.122 0.058-0.229 0.155-0.321 0.291s-0.166 0.316-0.222 0.54c-0.054 0.222-0.081 0.497-0.081 0.825s0.027 0.603 0.081 0.825c0.056 0.222 0.13 0.401 0.222 0.537s0.199 0.234 0.321 0.294c0.122 0.058 0.249 0.087 0.381 0.087s0.259-0.029 0.381-0.087c0.122-0.06 0.229-0.158 0.321-0.294 0.094-0.136 0.168-0.315 0.222-0.537 0.056-0.222 0.084-0.497 0.084-0.825zm3.2306 1.416c0.098 0.132 0.205 0.225 0.321 0.279 0.118 0.054 0.247 0.081 0.387 0.081 0.286 0 0.505-0.101 0.657-0.303s0.228-0.503 0.228-0.903c0-0.372-0.068-0.645-0.204-0.819-0.134-0.176-0.326-0.264-0.576-0.264-0.174 0-0.326 0.04-0.456 0.12-0.128 0.08-0.247 0.193-0.357 0.339v1.47zm0-1.869c0.128-0.148 0.272-0.266 0.432-0.354 0.162-0.088 0.348-0.132 0.558-0.132 0.178 0 0.338 0.034 0.48 0.102 0.144 0.068 0.266 0.167 0.366 0.297 0.1 0.128 0.176 0.284 0.228 0.468 0.054 0.184 0.081 0.391 0.081 0.621 0 0.246-0.03 0.47-0.09 0.672s-0.147 0.375-0.261 0.519c-0.112 0.142-0.249 0.253-0.411 0.333-0.162 0.078-0.344 0.117-0.546 0.117-0.2 0-0.369-0.037-0.507-0.111-0.136-0.076-0.255-0.183-0.357-0.321l-0.027 0.276c-0.016 0.076-0.062 0.114-0.138 0.114h-0.345v-4.419h0.537v1.818z"/>
  <path d="m27.839 85.454c0.132-0.012 0.248-0.04 0.348-0.084 0.1-0.046 0.184-0.104 0.252-0.174 0.07-0.07 0.122-0.151 0.156-0.243 0.036-0.094 0.054-0.197 0.054-0.309 0-0.1-0.019-0.186-0.057-0.258-0.036-0.072-0.086-0.134-0.15-0.186-0.064-0.054-0.139-0.099-0.225-0.135-0.086-0.038-0.178-0.073-0.276-0.105l-0.102 1.494zm-0.099-3.468c-0.13 0.012-0.243 0.038-0.339 0.078-0.094 0.04-0.172 0.09-0.234 0.15s-0.108 0.128-0.138 0.204c-0.03 0.074-0.045 0.152-0.045 0.234 0 0.096 0.017 0.18 0.051 0.252 0.034 0.07 0.081 0.132 0.141 0.186s0.13 0.101 0.21 0.141 0.167 0.076 0.261 0.108l0.093-1.353zm0.237 1.458c0.144 0.046 0.286 0.095 0.426 0.147s0.266 0.119 0.378 0.201 0.202 0.185 0.27 0.309c0.07 0.122 0.105 0.275 0.105 0.459 0 0.18-0.03 0.349-0.09 0.507s-0.148 0.297-0.264 0.417c-0.114 0.12-0.255 0.218-0.423 0.294-0.166 0.074-0.356 0.118-0.57 0.132l-0.036 0.525c-2e-3 0.038-0.017 0.071-0.045 0.099-0.028 0.03-0.063 0.045-0.105 0.045h-0.198l0.045-0.675c-0.242-0.024-0.463-0.084-0.663-0.18-0.198-0.098-0.369-0.222-0.513-0.372l0.162-0.246c0.016-0.022 0.036-0.04 0.06-0.054s0.05-0.021 0.078-0.021c0.038 0 0.081 0.019 0.129 0.057s0.107 0.081 0.177 0.129c0.072 0.048 0.156 0.095 0.252 0.141 0.098 0.046 0.215 0.077 0.351 0.093l0.108-1.593c-0.14-0.042-0.278-0.089-0.414-0.141-0.134-0.052-0.255-0.121-0.363-0.207-0.106-0.086-0.192-0.193-0.258-0.321-0.064-0.128-0.096-0.289-0.096-0.483 0-0.146 0.028-0.288 0.084-0.426 0.058-0.14 0.142-0.264 0.252-0.372s0.245-0.196 0.405-0.264c0.16-0.07 0.343-0.109 0.549-0.117l0.03-0.432c2e-3 -0.038 0.016-0.072 0.042-0.102 0.028-0.03 0.064-0.045 0.108-0.045h0.198l-0.039 0.591c0.208 0.026 0.388 0.08 0.54 0.162 0.154 0.082 0.29 0.182 0.408 0.3l-0.129 0.198c-0.04 0.06-0.086 0.09-0.138 0.09-0.028 0-0.063-0.012-0.105-0.036-0.04-0.026-0.089-0.056-0.147-0.09-0.056-0.034-0.123-0.067-0.201-0.099-0.076-0.032-0.163-0.056-0.261-0.072l-0.099 1.452zm4.4645 1.914c0.058 0 0.104 0.017 0.138 0.051s0.051 0.078 0.051 0.132v0.324h-2.868v-0.183c0-0.038 8e-3 -0.077 0.024-0.117s0.041-0.077 0.075-0.111l1.377-1.383c0.114-0.116 0.218-0.227 0.312-0.333 0.094-0.108 0.174-0.216 0.24-0.324s0.117-0.217 0.153-0.327c0.036-0.112 0.054-0.231 0.054-0.357s-0.02-0.236-0.06-0.33c-0.04-0.096-0.095-0.175-0.165-0.237-0.068-0.062-0.149-0.108-0.243-0.138-0.094-0.032-0.195-0.048-0.303-0.048-0.11 0-0.211 0.016-0.303 0.048s-0.174 0.077-0.246 0.135c-0.07 0.056-0.129 0.123-0.177 0.201s-0.082 0.164-0.102 0.258c-0.024 0.07-0.057 0.117-0.099 0.141-0.04 0.022-0.097 0.028-0.171 0.018l-0.279-0.048c0.028-0.196 0.082-0.369 0.162-0.519 0.082-0.152 0.184-0.279 0.306-0.381 0.124-0.102 0.265-0.179 0.423-0.231 0.158-0.054 0.329-0.081 0.513-0.081 0.182 0 0.352 0.027 0.51 0.081s0.295 0.133 0.411 0.237c0.116 0.102 0.207 0.227 0.273 0.375s0.099 0.316 0.099 0.504c0 0.16-0.024 0.309-0.072 0.447-0.048 0.136-0.113 0.266-0.195 0.39s-0.177 0.245-0.285 0.363c-0.106 0.118-0.219 0.237-0.339 0.357l-1.134 1.158c0.08-0.022 0.161-0.039 0.243-0.051 0.082-0.014 0.161-0.021 0.237-0.021h1.44zm3.8194-1.641c0 0.376-0.041 0.702-0.123 0.978-0.08 0.274-0.19 0.501-0.33 0.681s-0.306 0.314-0.498 0.402c-0.19 0.088-0.394 0.132-0.612 0.132-0.22 0-0.425-0.044-0.615-0.132-0.188-0.088-0.352-0.222-0.492-0.402s-0.25-0.407-0.33-0.681c-0.08-0.276-0.12-0.602-0.12-0.978s0.04-0.702 0.12-0.978 0.19-0.504 0.33-0.684c0.14-0.182 0.304-0.317 0.492-0.405 0.19-0.088 0.395-0.132 0.615-0.132 0.218 0 0.422 0.044 0.612 0.132 0.192 0.088 0.358 0.223 0.498 0.405 0.14 0.18 0.25 0.408 0.33 0.684 0.082 0.276 0.123 0.602 0.123 0.978zm-0.555 0c0-0.328-0.028-0.603-0.084-0.825-0.054-0.224-0.128-0.404-0.222-0.54-0.092-0.136-0.199-0.233-0.321-0.291-0.122-0.06-0.249-0.09-0.381-0.09s-0.259 0.03-0.381 0.09c-0.122 0.058-0.229 0.155-0.321 0.291s-0.166 0.316-0.222 0.54c-0.054 0.222-0.081 0.497-0.081 0.825s0.027 0.603 0.081 0.825c0.056 0.222 0.13 0.401 0.222 0.537s0.199 0.234 0.321 0.294c0.122 0.058 0.249 0.087 0.381 0.087s0.259-0.029 0.381-0.087c0.122-0.06 0.229-0.158 0.321-0.294 0.094-0.136 0.168-0.315 0.222-0.537 0.056-0.222 0.084-0.497 0.084-0.825zm4.0355 0c0 0.376-0.041 0.702-0.123 0.978-0.08 0.274-0.19 0.501-0.33 0.681s-0.306 0.314-0.498 0.402c-0.19 0.088-0.394 0.132-0.612 0.132-0.22 0-0.425-0.044-0.615-0.132-0.188-0.088-0.352-0.222-0.492-0.402s-0.25-0.407-0.33-0.681c-0.08-0.276-0.12-0.602-0.12-0.978s0.04-0.702 0.12-0.978 0.19-0.504 0.33-0.684c0.14-0.182 0.304-0.317 0.492-0.405 0.19-0.088 0.395-0.132 0.615-0.132 0.218 0 0.422 0.044 0.612 0.132 0.192 0.088 0.358 0.223 0.498 0.405 0.14 0.18 0.25 0.408 0.33 0.684 0.082 0.276 0.123 0.602 0.123 0.978zm-0.555 0c0-0.328-0.028-0.603-0.084-0.825-0.054-0.224-0.128-0.404-0.222-0.54-0.092-0.136-0.199-0.233-0.321-0.291-0.122-0.06-0.249-0.09-0.381-0.09s-0.259 0.03-0.381 0.09c-0.122 0.058-0.229 0.155-0.321 0.291s-0.166 0.316-0.222 0.54c-0.054 0.222-0.081 0.497-0.081 0.825s0.027 0.603 0.081 0.825c0.056 0.222 0.13 0.401 0.222 0.537s0.199 0.234 0.321 0.294c0.122 0.058 0.249 0.087 0.381 0.087s0.259-0.029 0.381-0.087c0.122-0.06 0.229-0.158 0.321-0.294 0.094-0.136 0.168-0.315 0.222-0.537 0.056-0.222 0.084-0.497 0.084-0.825zm3.2306 1.416c0.098 0.132 0.205 0.225 0.321 0.279 0.118 0.054 0.247 0.081 0.387 0.081 0.286 0 0.505-0.101 0.657-0.303s0.228-0.503 0.228-0.903c0-0.372-0.068-0.645-0.204-0.819-0.134-0.176-0.326-0.264-0.576-0.264-0.174 0-0.326 0.04-0.456 0.12-0.128 0.08-0.247 0.193-0.357 0.339v1.47zm0-1.869c0.128-0.148 0.272-0.266 0.432-0.354 0.162-0.088 0.348-0.132 0.558-0.132 0.178 0 0.338 0.034 0.48 0.102 0.144 0.068 0.266 0.167 0.366 0.297 0.1 0.128 0.176 0.284 0.228 0.468 0.054 0.184 0.081 0.391 0.081 0.621 0 0.246-0.03 0.47-0.09 0.672s-0.147 0.375-0.261 0.519c-0.112 0.142-0.249 0.253-0.411 0.333-0.162 0.078-0.344 0.117-0.546 0.117-0.2 0-0.369-0.037-0.507-0.111-0.136-0.076-0.255-0.183-0.357-0.321l-0.027 0.276c-0.016 0.076-0.062 0.114-0.138 0.114h-0.345v-4.419h0.537v1.818z"/>
  <path d="m27.839 104.37c0.132-0.012 0.248-0.04 0.348-0.084 0.1-0.046 0.184-0.104 0.252-0.174 0.07-0.07 0.122-0.151 0.156-0.243 0.036-0.094 0.054-0.197 0.054-0.309 0-0.1-0.019-0.186-0.057-0.258-0.036-0.072-0.086-0.134-0.15-0.186-0.064-0.054-0.139-0.099-0.225-0.135-0.086-0.038-0.178-0.073-0.276-0.105l-0.102 1.494zm-0.099-3.468c-0.13 0.012-0.243 0.038-0.339 0.078-0.094 0.04-0.172 0.09-0.234 0.15s-0.108 0.128-0.138 0.204c-0.03 0.074-0.045 0.152-0.045 0.234 0 0.096 0.017 0.18 0.051 0.252 0.034 0.07 0.081 0.132 0.141 0.186s0.13 0.101 0.21 0.141 0.167 0.076 0.261 0.108l0.093-1.353zm0.237 1.458c0.144 0.046 0.286 0.095 0.426 0.147s0.266 0.119 0.378 0.201 0.202 0.185 0.27 0.309c0.07 0.122 0.105 0.275 0.105 0.459 0 0.18-0.03 0.349-0.09 0.507s-0.148 0.297-0.264 0.417c-0.114 0.12-0.255 0.218-0.423 0.294-0.166 0.074-0.356 0.118-0.57 0.132l-0.036 0.525c-2e-3 0.038-0.017 0.071-0.045 0.099-0.028 0.03-0.063 0.045-0.105 0.045h-0.198l0.045-0.675c-0.242-0.024-0.463-0.084-0.663-0.18-0.198-0.098-0.369-0.222-0.513-0.372l0.162-0.246c0.016-0.022 0.036-0.04 0.06-0.054s0.05-0.021 0.078-0.021c0.038 0 0.081 0.019 0.129 0.057s0.107 0.081 0.177 0.129c0.072 0.048 0.156 0.095 0.252 0.141 0.098 0.046 0.215 0.077 0.351 0.093l0.108-1.593c-0.14-0.042-0.278-0.089-0.414-0.141-0.134-0.052-0.255-0.121-0.363-0.207-0.106-0.086-0.192-0.193-0.258-0.321-0.064-0.128-0.096-0.289-0.096-0.483 0-0.146 0.028-0.288 0.084-0.426 0.058-0.14 0.142-0.264 0.252-0.372s0.245-0.196 0.405-0.264c0.16-0.07 0.343-0.109 0.549-0.117l0.03-0.432c2e-3 -0.0377 0.016-0.0717 0.042-0.1017 0.028-0.03 0.064-0.045 0.108-0.045h0.198l-0.039 0.5907c0.208 0.026 0.388 0.08 0.54 0.162 0.154 0.082 0.29 0.182 0.408 0.3l-0.129 0.198c-0.04 0.06-0.086 0.09-0.138 0.09-0.028 0-0.063-0.012-0.105-0.036-0.04-0.026-0.089-0.056-0.147-0.09-0.056-0.034-0.123-0.067-0.201-0.099-0.076-0.032-0.163-0.056-0.261-0.072l-0.099 1.452zm4.5575 2.013v0.408h-2.304v-0.408h0.921v-2.931c0-0.088 3e-3 -0.177 9e-3 -0.267l-0.765 0.657c-0.026 0.022-0.052 0.036-0.078 0.042-0.026 4e-3 -0.05 4e-3 -0.072 0s-0.043-0.012-0.063-0.024c-0.018-0.012-0.032-0.025-0.042-0.039l-0.168-0.231 1.281-1.107h0.435v3.9h0.846zm1.5124-2.268c0.224-0.048 0.43-0.072 0.618-0.072 0.224 0 0.422 0.033 0.594 0.099s0.315 0.157 0.429 0.273c0.116 0.116 0.203 0.253 0.261 0.411 0.06 0.158 0.09 0.33 0.09 0.516 0 0.228-0.04 0.434-0.12 0.618-0.078 0.184-0.187 0.342-0.327 0.474-0.138 0.13-0.301 0.23-0.489 0.3s-0.391 0.105-0.609 0.105c-0.126 0-0.247-0.013-0.363-0.039-0.116-0.024-0.225-0.057-0.327-0.099-0.1-0.042-0.193-0.09-0.279-0.144s-0.162-0.111-0.228-0.171l0.165-0.228c0.036-0.052 0.083-0.078 0.141-0.078 0.04 0 0.085 0.016 0.135 0.048 0.05 0.03 0.111 0.064 0.183 0.102s0.156 0.073 0.252 0.105c0.098 0.03 0.214 0.045 0.348 0.045 0.15 0 0.285-0.024 0.405-0.072s0.223-0.116 0.309-0.204c0.086-0.09 0.152-0.197 0.198-0.321s0.069-0.263 0.069-0.417c0-0.134-0.02-0.255-0.06-0.363-0.038-0.108-0.097-0.2-0.177-0.276-0.078-0.076-0.176-0.135-0.294-0.177s-0.256-0.063-0.414-0.063c-0.108 0-0.221 9e-3 -0.339 0.027-0.116 0.018-0.235 0.047-0.357 0.087l-0.336-0.099 0.345-2.01h2.037v0.234c0 0.076-0.024 0.139-0.072 0.189-0.046 0.048-0.126 0.072-0.24 0.072h-1.35l-0.198 1.128zm5.6945 0.528c0 0.376-0.041 0.702-0.123 0.978-0.08 0.274-0.19 0.501-0.33 0.681s-0.306 0.314-0.498 0.402c-0.19 0.088-0.394 0.132-0.612 0.132-0.22 0-0.425-0.044-0.615-0.132-0.188-0.088-0.352-0.222-0.492-0.402s-0.25-0.407-0.33-0.681c-0.08-0.276-0.12-0.602-0.12-0.978s0.04-0.702 0.12-0.978 0.19-0.504 0.33-0.684c0.14-0.182 0.304-0.317 0.492-0.405 0.19-0.088 0.395-0.132 0.615-0.132 0.218 0 0.422 0.044 0.612 0.132 0.192 0.088 0.358 0.223 0.498 0.405 0.14 0.18 0.25 0.408 0.33 0.684 0.082 0.276 0.123 0.602 0.123 0.978zm-0.555 0c0-0.328-0.028-0.603-0.084-0.825-0.054-0.224-0.128-0.404-0.222-0.54-0.092-0.136-0.199-0.233-0.321-0.291-0.122-0.06-0.249-0.09-0.381-0.09s-0.259 0.03-0.381 0.09c-0.122 0.058-0.229 0.155-0.321 0.291s-0.166 0.316-0.222 0.54c-0.054 0.222-0.081 0.497-0.081 0.825s0.027 0.603 0.081 0.825c0.056 0.222 0.13 0.401 0.222 0.537s0.199 0.234 0.321 0.294c0.122 0.058 0.249 0.087 0.381 0.087s0.259-0.029 0.381-0.087c0.122-0.06 0.229-0.158 0.321-0.294 0.094-0.136 0.168-0.315 0.222-0.537 0.056-0.222 0.084-0.497 0.084-0.825zm3.2306 1.416c0.098 0.132 0.205 0.225 0.321 0.279 0.118 0.054 0.247 0.081 0.387 0.081 0.286 0 0.505-0.101 0.657-0.303s0.228-0.503 0.228-0.903c0-0.372-0.068-0.645-0.204-0.819-0.134-0.176-0.326-0.264-0.576-0.264-0.174 0-0.326 0.04-0.456 0.12-0.128 0.08-0.247 0.193-0.357 0.339v1.47zm0-1.869c0.128-0.148 0.272-0.266 0.432-0.354 0.162-0.088 0.348-0.132 0.558-0.132 0.178 0 0.338 0.034 0.48 0.102 0.144 0.068 0.266 0.167 0.366 0.297 0.1 0.128 0.176 0.284 0.228 0.468 0.054 0.184 0.081 0.391 0.081 0.621 0 0.246-0.03 0.47-0.09 0.672s-0.147 0.375-0.261 0.519c-0.112 0.142-0.249 0.253-0.411 0.333-0.162 0.078-0.344 0.117-0.546 0.117-0.2 0-0.369-0.037-0.507-0.111-0.136-0.076-0.255-0.183-0.357-0.321l-0.027 0.276c-0.016 0.076-0.062 0.114-0.138 0.114h-0.345v-4.419h0.537v1.818z"/>
  <path d="m27.839 123.28c0.132-0.012 0.248-0.04 0.348-0.084 0.1-0.046 0.184-0.104 0.252-0.174 0.07-0.07 0.122-0.151 0.156-0.243 0.036-0.094 0.054-0.197 0.054-0.309 0-0.1-0.019-0.186-0.057-0.258-0.036-0.072-0.086-0.134-0.15-0.186-0.064-0.054-0.139-0.099-0.225-0.135-0.086-0.038-0.178-0.073-0.276-0.105l-0.102 1.494zm-0.099-3.468c-0.13 0.012-0.243 0.038-0.339 0.078-0.094 0.04-0.172 0.09-0.234 0.15s-0.108 0.128-0.138 0.204c-0.03 0.074-0.045 0.152-0.045 0.234 0 0.096 0.017 0.18 0.051 0.252 0.034 0.07 0.081 0.132 0.141 0.186s0.13 0.101 0.21 0.141 0.167 0.076 0.261 0.108l0.093-1.353zm0.237 1.458c0.144 0.046 0.286 0.095 0.426 0.147s0.266 0.119 0.378 0.201 0.202 0.185 0.27 0.309c0.07 0.122 0.105 0.275 0.105 0.459 0 0.18-0.03 0.349-0.09 0.507s-0.148 0.297-0.264 0.417c-0.114 0.12-0.255 0.218-0.423 0.294-0.166 0.074-0.356 0.118-0.57 0.132l-0.036 0.525c-2e-3 0.038-0.017 0.071-0.045 0.099-0.028 0.03-0.063 0.045-0.105 0.045h-0.198l0.045-0.675c-0.242-0.024-0.463-0.084-0.663-0.18-0.198-0.098-0.369-0.222-0.513-0.372l0.162-0.246c0.016-0.022 0.036-0.04 0.06-0.054s0.05-0.021 0.078-0.021c0.038 0 0.081 0.019 0.129 0.057s0.107 0.081 0.177 0.129c0.072 0.048 0.156 0.095 0.252 0.141 0.098 0.046 0.215 0.077 0.351 0.093l0.108-1.593c-0.14-0.042-0.278-0.089-0.414-0.141-0.134-0.052-0.255-0.121-0.363-0.207-0.106-0.086-0.192-0.193-0.258-0.321-0.064-0.128-0.096-0.289-0.096-0.483 0-0.146 0.028-0.288 0.084-0.426 0.058-0.14 0.142-0.264 0.252-0.372s0.245-0.196 0.405-0.264c0.16-0.07 0.343-0.109 0.549-0.117l0.03-0.432c2e-3 -0.038 0.016-0.072 0.042-0.102 0.028-0.03 0.064-0.045 0.108-0.045h0.198l-0.039 0.591c0.208 0.026 0.388 0.08 0.54 0.162 0.154 0.082 0.29 0.182 0.408 0.3l-0.129 0.198c-0.04 0.06-0.086 0.09-0.138 0.09-0.028 0-0.063-0.012-0.105-0.036-0.04-0.026-0.089-0.056-0.147-0.09-0.056-0.034-0.123-0.067-0.201-0.099-0.076-0.032-0.163-0.056-0.261-0.072l-0.099 1.452zm4.5575 2.013v0.408h-2.304v-0.408h0.921v-2.931c0-0.088 3e-3 -0.177 9e-3 -0.267l-0.765 0.657c-0.026 0.022-0.052 0.036-0.078 0.042-0.026 4e-3 -0.05 4e-3 -0.072 0s-0.043-0.012-0.063-0.024c-0.018-0.012-0.032-0.025-0.042-0.039l-0.168-0.231 1.281-1.107h0.435v3.9h0.846zm3.7264-1.74c0 0.376-0.041 0.702-0.123 0.978-0.08 0.274-0.19 0.501-0.33 0.681s-0.306 0.314-0.498 0.402c-0.19 0.088-0.394 0.132-0.612 0.132-0.22 0-0.425-0.044-0.615-0.132-0.188-0.088-0.352-0.222-0.492-0.402s-0.25-0.407-0.33-0.681c-0.08-0.276-0.12-0.602-0.12-0.978s0.04-0.702 0.12-0.978 0.19-0.504 0.33-0.684c0.14-0.182 0.304-0.317 0.492-0.405 0.19-0.088 0.395-0.132 0.615-0.132 0.218 0 0.422 0.044 0.612 0.132 0.192 0.088 0.358 0.223 0.498 0.405 0.14 0.18 0.25 0.408 0.33 0.684 0.082 0.276 0.123 0.602 0.123 0.978zm-0.555 0c0-0.328-0.028-0.603-0.084-0.825-0.054-0.224-0.128-0.404-0.222-0.54-0.092-0.136-0.199-0.233-0.321-0.291-0.122-0.06-0.249-0.09-0.381-0.09s-0.259 0.03-0.381 0.09c-0.122 0.058-0.229 0.155-0.321 0.291s-0.166 0.316-0.222 0.54c-0.054 0.222-0.081 0.497-0.081 0.825s0.027 0.603 0.081 0.825c0.056 0.222 0.13 0.401 0.222 0.537s0.199 0.234 0.321 0.294c0.122 0.058 0.249 0.087 0.381 0.087s0.259-0.029 0.381-0.087c0.122-0.06 0.229-0.158 0.321-0.294 0.094-0.136 0.168-0.315 0.222-0.537 0.056-0.222 0.084-0.497 0.084-0.825zm4.0355 0c0 0.376-0.041 0.702-0.123 0.978-0.08 0.274-0.19 0.501-0.33 0.681s-0.306 0.314-0.498 0.402c-0.19 0.088-0.394 0.132-0.612 0.132-0.22 0-0.425-0.044-0.615-0.132-0.188-0.088-0.352-0.222-0.492-0.402s-0.25-0.407-0.33-0.681c-0.08-0.276-0.12-0.602-0.12-0.978s0.04-0.702 0.12-0.978 0.19-0.504 0.33-0.684c0.14-0.182 0.304-0.317 0.492-0.405 0.19-0.088 0.395-0.132 0.615-0.132 0.218 0 0.422 0.044 0.612 0.132 0.192 0.088 0.358 0.223 0.498 0.405 0.14 0.18 0.25 0.408 0.33 0.684 0.082 0.276 0.123 0.602 0.123 0.978zm-0.555 0c0-0.328-0.028-0.603-0.084-0.825-0.054-0.224-0.128-0.404-0.222-0.54-0.092-0.136-0.199-0.233-0.321-0.291-0.122-0.06-0.249-0.09-0.381-0.09s-0.259 0.03-0.381 0.09c-0.122 0.058-0.229 0.155-0.321 0.291s-0.166 0.316-0.222 0.54c-0.054 0.222-0.081 0.497-0.081 0.825s0.027 0.603 0.081 0.825c0.056 0.222 0.13 0.401 0.222 0.537s0.199 0.234 0.321 0.294c0.122 0.058 0.249 0.087 0.381 0.087s0.259-0.029 0.381-0.087c0.122-0.06 0.229-0.158 0.321-0.294 0.094-0.136 0.168-0.315 0.222-0.537 0.056-0.222 0.084-0.497 0.084-0.825zm3.2306 1.416c0.098 0.132 0.205 0.225 0.321 0.279 0.118 0.054 0.247 0.081 0.387 0.081 0.286 0 0.505-0.101 0.657-0.303s0.228-0.503 0.228-0.903c0-0.372-0.068-0.645-0.204-0.819-0.134-0.176-0.326-0.264-0.576-0.264-0.174 0-0.326 0.04-0.456 0.12-0.128 0.08-0.247 0.193-0.357 0.339v1.47zm0-1.869c0.128-0.148 0.272-0.266 0.432-0.354 0.162-0.088 0.348-0.132 0.558-0.132 0.178 0 0.338 0.034 0.48 0.102 0.144 0.068 0.266 0.167 0.366 0.297 0.1 0.128 0.176 0.284 0.228 0.468 0.054 0.184 0.081 0.391 0.081 0.621 0 0.246-0.03 0.47-0.09 0.672s-0.147 0.375-0.261 0.519c-0.112 0.142-0.249 0.253-0.411 0.333-0.162 0.078-0.344 0.117-0.546 0.117-0.2 0-0.369-0.037-0.507-0.111-0.136-0.076-0.255-0.183-0.357-0.321l-0.027 0.276c-0.016 0.076-0.062 0.114-0.138 0.114h-0.345v-4.419h0.537v1.818z"/>
  <path d="m27.839 141.2c0.132-0.012 0.248-0.04 0.348-0.084 0.1-0.046 0.184-0.104 0.252-0.174 0.07-0.07 0.122-0.151 0.156-0.243 0.036-0.094 0.054-0.197 0.054-0.309 0-0.1-0.019-0.186-0.057-0.258-0.036-0.072-0.086-0.134-0.15-0.186-0.064-0.054-0.139-0.099-0.225-0.135-0.086-0.038-0.178-0.073-0.276-0.105l-0.102 1.494zm-0.099-3.468c-0.13 0.012-0.243 0.038-0.339 0.078-0.094 0.04-0.172 0.09-0.234 0.15s-0.108 0.128-0.138 0.204c-0.03 0.074-0.045 0.152-0.045 0.234 0 0.096 0.017 0.18 0.051 0.252 0.034 0.07 0.081 0.132 0.141 0.186s0.13 0.101 0.21 0.141 0.167 0.076 0.261 0.108l0.093-1.353zm0.237 1.458c0.144 0.046 0.286 0.095 0.426 0.147s0.266 0.119 0.378 0.201 0.202 0.185 0.27 0.309c0.07 0.122 0.105 0.275 0.105 0.459 0 0.18-0.03 0.349-0.09 0.507s-0.148 0.297-0.264 0.417c-0.114 0.12-0.255 0.218-0.423 0.294-0.166 0.074-0.356 0.118-0.57 0.132l-0.036 0.525c-2e-3 0.038-0.017 0.071-0.045 0.099-0.028 0.03-0.063 0.045-0.105 0.045h-0.198l0.045-0.675c-0.242-0.024-0.463-0.084-0.663-0.18-0.198-0.098-0.369-0.222-0.513-0.372l0.162-0.246c0.016-0.022 0.036-0.04 0.06-0.054s0.05-0.021 0.078-0.021c0.038 0 0.081 0.019 0.129 0.057s0.107 0.081 0.177 0.129c0.072 0.048 0.156 0.095 0.252 0.141 0.098 0.046 0.215 0.077 0.351 0.093l0.108-1.593c-0.14-0.042-0.278-0.089-0.414-0.141-0.134-0.052-0.255-0.121-0.363-0.207-0.106-0.086-0.192-0.193-0.258-0.321-0.064-0.128-0.096-0.289-0.096-0.483 0-0.146 0.028-0.288 0.084-0.426 0.058-0.14 0.142-0.264 0.252-0.372s0.245-0.196 0.405-0.264c0.16-0.07 0.343-0.109 0.549-0.117l0.03-0.432c2e-3 -0.038 0.016-0.072 0.042-0.102 0.028-0.03 0.064-0.045 0.108-0.045h0.198l-0.039 0.591c0.208 0.026 0.388 0.08 0.54 0.162 0.154 0.082 0.29 0.182 0.408 0.3l-0.129 0.198c-0.04 0.06-0.086 0.09-0.138 0.09-0.028 0-0.063-0.012-0.105-0.036-0.04-0.026-0.089-0.056-0.147-0.09-0.056-0.034-0.123-0.067-0.201-0.099-0.076-0.032-0.163-0.056-0.261-0.072l-0.099 1.452zm2.5895-0.255c0.224-0.048 0.43-0.072 0.618-0.072 0.224 0 0.422 0.033 0.594 0.099s0.315 0.157 0.429 0.273c0.116 0.116 0.203 0.253 0.261 0.411 0.06 0.158 0.09 0.33 0.09 0.516 0 0.228-0.04 0.434-0.12 0.618-0.078 0.184-0.187 0.342-0.327 0.474-0.138 0.13-0.301 0.23-0.489 0.3s-0.391 0.105-0.609 0.105c-0.126 0-0.247-0.013-0.363-0.039-0.116-0.024-0.225-0.057-0.327-0.099-0.1-0.042-0.193-0.09-0.279-0.144s-0.162-0.111-0.228-0.171l0.165-0.228c0.036-0.052 0.083-0.078 0.141-0.078 0.04 0 0.085 0.016 0.135 0.048 0.05 0.03 0.111 0.064 0.183 0.102s0.156 0.073 0.252 0.105c0.098 0.03 0.214 0.045 0.348 0.045 0.15 0 0.285-0.024 0.405-0.072s0.223-0.116 0.309-0.204c0.086-0.09 0.152-0.197 0.198-0.321s0.069-0.263 0.069-0.417c0-0.134-0.02-0.255-0.06-0.363-0.038-0.108-0.097-0.2-0.177-0.276-0.078-0.076-0.176-0.135-0.294-0.177s-0.256-0.063-0.414-0.063c-0.108 0-0.221 9e-3 -0.339 0.027-0.116 0.018-0.235 0.047-0.357 0.087l-0.336-0.099 0.345-2.01h2.037v0.234c0 0.076-0.024 0.139-0.072 0.189-0.046 0.048-0.126 0.072-0.24 0.072h-1.35l-0.198 1.128zm5.6944 0.528c0 0.376-0.041 0.702-0.123 0.978-0.08 0.274-0.19 0.501-0.33 0.681s-0.306 0.314-0.498 0.402c-0.19 0.088-0.394 0.132-0.612 0.132-0.22 0-0.425-0.044-0.615-0.132-0.188-0.088-0.352-0.222-0.492-0.402s-0.25-0.407-0.33-0.681c-0.08-0.276-0.12-0.602-0.12-0.978s0.04-0.702 0.12-0.978 0.19-0.504 0.33-0.684c0.14-0.182 0.304-0.317 0.492-0.405 0.19-0.088 0.395-0.132 0.615-0.132 0.218 0 0.422 0.044 0.612 0.132 0.192 0.088 0.358 0.223 0.498 0.405 0.14 0.18 0.25 0.408 0.33 0.684 0.082 0.276 0.123 0.602 0.123 0.978zm-0.555 0c0-0.328-0.028-0.603-0.084-0.825-0.054-0.224-0.128-0.404-0.222-0.54-0.092-0.136-0.199-0.233-0.321-0.291-0.122-0.06-0.249-0.09-0.381-0.09s-0.259 0.03-0.381 0.09c-0.122 0.058-0.229 0.155-0.321 0.291s-0.166 0.316-0.222 0.54c-0.054 0.222-0.081 0.497-0.081 0.825s0.027 0.603 0.081 0.825c0.056 0.222 0.13 0.401 0.222 0.537s0.199 0.234 0.321 0.294c0.122 0.058 0.249 0.087 0.381 0.087s0.259-0.029 0.381-0.087c0.122-0.06 0.229-0.158 0.321-0.294 0.094-0.136 0.168-0.315 0.222-0.537 0.056-0.222 0.084-0.497 0.084-0.825zm3.2307 1.416c0.098 0.132 0.205 0.225 0.321 0.279 0.118 0.054 0.247 0.081 0.387 0.081 0.286 0 0.505-0.101 0.657-0.303s0.228-0.503 0.228-0.903c0-0.372-0.068-0.645-0.204-0.819-0.134-0.176-0.326-0.264-0.576-0.264-0.174 0-0.326 0.04-0.456 0.12-0.128 0.08-0.247 0.193-0.357 0.339v1.47zm0-1.869c0.128-0.148 0.272-0.266 0.432-0.354 0.162-0.088 0.348-0.132 0.558-0.132 0.178 0 0.338 0.034 0.48 0.102 0.144 0.068 0.266 0.167 0.366 0.297 0.1 0.128 0.176 0.284 0.228 0.468 0.054 0.184 0.081 0.391 0.081 0.621 0 0.246-0.03 0.47-0.09 0.672s-0.147 0.375-0.261 0.519c-0.112 0.142-0.249 0.253-0.411 0.333-0.162 0.078-0.344 0.117-0.546 0.117-0.2 0-0.369-0.037-0.507-0.111-0.136-0.076-0.255-0.183-0.357-0.321l-0.027 0.276c-0.016 0.076-0.062 0.114-0.138 0.114h-0.345v-4.419h0.537v1.818z"/>
  <path d="m26.96 155.87c0.098 0.132 0.205 0.225 0.321 0.279 0.118 0.054 0.247 0.081 0.387 0.081 0.286 0 0.505-0.101 0.657-0.303s0.228-0.503 0.228-0.903c0-0.372-0.068-0.645-0.204-0.819-0.134-0.176-0.326-0.264-0.576-0.264-0.174 0-0.326 0.04-0.456 0.12-0.128 0.08-0.247 0.193-0.357 0.339v1.47zm0-1.869c0.128-0.148 0.272-0.266 0.432-0.354 0.162-0.088 0.348-0.132 0.558-0.132 0.178 0 0.338 0.034 0.48 0.102 0.144 0.068 0.266 0.167 0.366 0.297 0.1 0.128 0.176 0.284 0.228 0.468 0.054 0.184 0.081 0.391 0.081 0.621 0 0.246-0.03 0.47-0.09 0.672s-0.147 0.375-0.261 0.519c-0.112 0.142-0.249 0.253-0.411 0.333-0.162 0.078-0.344 0.117-0.546 0.117-0.2 0-0.369-0.037-0.507-0.111-0.136-0.076-0.255-0.183-0.357-0.321l-0.027 0.276c-0.016 0.076-0.062 0.114-0.138 0.114h-0.345v-4.419h0.537v1.818z"/>
  <path d="m59.443 22.236h-2.5951v7.103h-1.0794v-7.103h-2.6007v-0.9116h6.2752v0.9116zm1.977 1.3479c0.4139 0 0.7868 0.069 1.1186 0.207 0.3319 0.1379 0.6152 0.3337 0.8501 0.5872s0.4139 0.5612 0.5369 0.9228c0.1268 0.358 0.1902 0.7588 0.1902 1.2025 0 0.4474-0.0634 0.8501-0.1902 1.208-0.123 0.358-0.302 0.6637-0.5369 0.9173-0.2349 0.2535-0.5182 0.4493-0.8501 0.5872-0.3318 0.1343-0.7047 0.2014-1.1186 0.2014-0.4176 0-0.7941-0.0671-1.1297-0.2014-0.3319-0.1379-0.6152-0.3337-0.8501-0.5872-0.2349-0.2536-0.4158-0.5593-0.5425-0.9173-0.1231-0.3579-0.1846-0.7606-0.1846-1.208 0-0.4437 0.0615-0.8445 0.1846-1.2025 0.1267-0.3616 0.3076-0.6693 0.5425-0.9228s0.5182-0.4493 0.8501-0.5872c0.3356-0.138 0.7121-0.207 1.1297-0.207zm0 5.056c0.5593 0 0.9769-0.1865 1.2528-0.5593 0.276-0.3766 0.4139-0.9005 0.4139-1.5716 0-0.6749-0.1379-1.2006-0.4139-1.5772-0.2759-0.3766-0.6935-0.5649-1.2528-0.5649-0.2833 0-0.5313 0.0485-0.7438 0.1454-0.2088 0.097-0.384 0.2368-0.5257 0.4195-0.138 0.1827-0.2424 0.4083-0.3132 0.6767-0.0671 0.2648-0.1007 0.5649-0.1007 0.9005 0 0.6711 0.138 1.195 0.4139 1.5716 0.2796 0.3728 0.7028 0.5593 1.2695 0.5593zm5.5995 0.7886c-0.4474 0-0.7923-0.125-1.0346-0.3748-0.2387-0.2498-0.358-0.6096-0.358-1.0794v-3.4676h-0.6823c-0.0597 0-0.11-0.0167-0.151-0.0503-0.041-0.0373-0.0615-0.0932-0.0615-0.1678v-0.3971l0.9284-0.1174 0.2293-1.7506c0.0112-0.0559 0.0354-0.1007 0.0727-0.1342 0.041-0.0373 0.0932-0.0559 0.1566-0.0559h0.5034v1.9519h1.6387v0.7214h-1.6387v3.4005c0 0.2386 0.0577 0.4157 0.1733 0.5313s0.2648 0.1734 0.4475 0.1734c0.1044 0 0.1938-0.0131 0.2684-0.0392 0.0783-0.0298 0.1454-0.0615 0.2014-0.095 0.0559-0.0336 0.1025-0.0634 0.1398-0.0895 0.041-0.0298 0.0764-0.0448 0.1062-0.0448 0.0522 0 0.0989 0.0317 0.1399 0.0951l0.2908 0.4754c-0.1715 0.1603-0.3785 0.2871-0.6208 0.3803-0.2424 0.0895-0.4922 0.1343-0.7495 0.1343zm5.3401-2.6399c-0.4586 0.0149-0.8501 0.0522-1.1745 0.1119-0.3207 0.0559-0.5835 0.1305-0.7886 0.2237-0.2013 0.0932-0.3486 0.2032-0.4418 0.33-0.0895 0.1267-0.1343 0.2684-0.1343 0.425 0 0.1492 0.0243 0.2778 0.0727 0.3859 0.0485 0.1082 0.1138 0.1977 0.1958 0.2685 0.0857 0.0671 0.1846 0.1174 0.2964 0.151 0.1156 0.0298 0.2386 0.0447 0.3691 0.0447 0.1753 0 0.3356-0.0167 0.481-0.0503 0.1454-0.0373 0.2815-0.0895 0.4083-0.1566 0.1305-0.0671 0.2535-0.1473 0.3691-0.2405 0.1193-0.0932 0.2349-0.1995 0.3468-0.3188v-1.1745zm-3.2159-2.3154c0.3132-0.302 0.6506-0.5276 1.0123-0.6768 0.3617-0.1491 0.7625-0.2237 1.2025-0.2237 0.3169 0 0.5984 0.0522 0.8445 0.1566s0.453 0.2498 0.6208 0.4363c0.1678 0.1864 0.2946 0.412 0.3803 0.6767 0.0858 0.2647 0.1286 0.5556 0.1286 0.8725v3.6242h-0.4418c-0.0969 0-0.1715-0.0149-0.2237-0.0448-0.0522-0.0335-0.0932-0.0969-0.123-0.1901l-0.1119-0.5369c-0.1491 0.1379-0.2946 0.261-0.4362 0.3691-0.1417 0.1044-0.2909 0.1939-0.4475 0.2684-0.1566 0.0709-0.3244 0.1249-0.5033 0.1622-0.1753 0.041-0.371 0.0616-0.5873 0.0616-0.22 0-0.4269-0.0299-0.6208-0.0895-0.1939-0.0634-0.3635-0.1566-0.5089-0.2797-0.1417-0.123-0.2554-0.2778-0.3412-0.4642-0.082-0.1901-0.123-0.4139-0.123-0.6711 0-0.2237 0.0615-0.4381 0.1845-0.6432 0.1231-0.2088 0.3225-0.3934 0.5985-0.5537 0.2759-0.1603 0.6357-0.2908 1.0794-0.3915 0.4437-0.1044 0.988-0.1641 1.6331-0.179v-0.4418c0-0.44-0.0951-0.7718-0.2852-0.9955-0.1902-0.2275-0.468-0.3412-0.8334-0.3412-0.2461 0-0.453 0.0317-0.6208 0.0951-0.164 0.0596-0.3076 0.1286-0.4306 0.2069-0.1194 0.0746-0.2238 0.1436-0.3132 0.207-0.0858 0.0596-0.1716 0.0894-0.2573 0.0894-0.0671 0-0.1249-0.0167-0.1734-0.0503-0.0485-0.0373-0.0895-0.082-0.123-0.1342l-0.179-0.3188zm6.7346-3.3725v8.2383h-0.9955v-8.2383h0.9955zm9.7921 1.1353h-2.5951v7.103h-1.0794v-7.103h-2.6007v-0.9116h6.2752v0.9116zm7.705-0.9116-3.2663 8.0146h-0.9731l-3.2662-8.0146h0.8668c0.097 0 0.1753 0.0242 0.2349 0.0727 0.0597 0.0485 0.1044 0.11 0.1343 0.1846l2.2595 5.6544c0.0485 0.1267 0.0951 0.2647 0.1398 0.4138 0.0485 0.1492 0.0914 0.3058 0.1286 0.4698 0.0373-0.164 0.0765-0.3206 0.1175-0.4698 0.041-0.1491 0.0858-0.2871 0.1342-0.4138l2.2539-5.6544c0.0224-0.0634 0.0653-0.1212 0.1287-0.1734 0.0671-0.0559 0.1473-0.0839 0.2405-0.0839h0.8669zm5.6013 7.1029v0.9117h-4.547v-8.0146h1.0794v7.1029h3.4676zm6.1273 0.1454c0.246-0.0223 0.462-0.0745 0.649-0.1566 0.186-0.0857 0.343-0.1938 0.469-0.3243 0.131-0.1305 0.228-0.2815 0.291-0.4531 0.067-0.1752 0.101-0.3672 0.101-0.576 0-0.1865-0.036-0.3468-0.106-0.481-0.068-0.1342-0.161-0.2498-0.28-0.3468-0.119-0.1006-0.259-0.1845-0.42-0.2516-0.16-0.0709-0.331-0.1361-0.514-0.1958l-0.19 2.7852zm-0.185-6.4653c-0.242 0.0224-0.453 0.0708-0.632 0.1454-0.175 0.0746-0.32 0.1678-0.436 0.2797-0.116 0.1118-0.201 0.2386-0.257 0.3803-0.056 0.1379-0.084 0.2833-0.084 0.4362 0 0.179 0.031 0.3356 0.095 0.4698 0.063 0.1305 0.151 0.2461 0.263 0.3468 0.112 0.1006 0.242 0.1883 0.391 0.2628 0.149 0.0746 0.312 0.1417 0.487 0.2014l0.173-2.5224zm0.442 2.7181c0.268 0.0858 0.533 0.1771 0.794 0.2741 0.261 0.0969 0.496 0.2218 0.705 0.3747s0.377 0.3449 0.503 0.5761c0.131 0.2274 0.196 0.5126 0.196 0.8557 0 0.3355-0.056 0.6506-0.168 0.9452-0.112 0.2945-0.276 0.5537-0.492 0.7774-0.212 0.2237-0.475 0.4064-0.789 0.5481-0.309 0.1379-0.663 0.22-1.062 0.2461l-0.067 0.9787c-4e-3 0.0709-0.032 0.1324-0.084 0.1846-0.052 0.0559-0.118 0.0839-0.196 0.0839h-0.369l0.084-1.2584c-0.451-0.0448-0.863-0.1566-1.236-0.3356-0.369-0.1827-0.688-0.4139-0.957-0.6935l0.302-0.4586c0.03-0.041 0.068-0.0746 0.112-0.1007 0.045-0.0261 0.094-0.0391 0.146-0.0391 0.071 0 0.151 0.0354 0.24 0.1062 0.09 0.0709 0.2 0.151 0.33 0.2405 0.134 0.0895 0.291 0.1771 0.47 0.2629 0.183 0.0857 0.401 0.1435 0.654 0.1734l0.202-2.9699c-0.261-0.0783-0.519-0.1659-0.772-0.2628-0.25-0.097-0.475-0.2256-0.677-0.3859-0.197-0.1604-0.358-0.3598-0.481-0.5985-0.119-0.2386-0.179-0.5387-0.179-0.9004 0-0.2722 0.052-0.5369 0.157-0.7942 0.108-0.261 0.265-0.4922 0.47-0.6935 0.205-0.2014 0.456-0.3654 0.755-0.4922 0.298-0.1305 0.639-0.2032 1.023-0.2181l0.056-0.8054c4e-3 -0.0708 0.03-0.1342 0.078-0.1901 0.053-0.056 0.12-0.0839 0.202-0.0839h0.369l-0.073 1.1018c0.388 0.0484 0.723 0.1491 1.007 0.302 0.287 0.1529 0.54 0.3393 0.76 0.5593l-0.24 0.3691c-0.075 0.1119-0.16 0.1678-0.257 0.1678-0.052 0-0.118-0.0224-0.196-0.0671-0.075-0.0485-0.166-0.1044-0.274-0.1678-0.104-0.0634-0.229-0.1249-0.375-0.1846-0.142-0.0596-0.304-0.1044-0.486-0.1342l-0.185 2.7069zm8.496 3.7528v0.7607h-4.295v-0.7607h1.717v-5.4642c0-0.164 6e-3 -0.33 0.017-0.4977l-1.426 1.2248c-0.049 0.041-0.097 0.0671-0.146 0.0783-0.048 0.0074-0.093 0.0074-0.134 0-0.041-0.0075-0.08-0.0224-0.117-0.0448-0.034-0.0223-0.06-0.0466-0.079-0.0727l-0.313-0.4306 2.388-2.0638h0.811v7.2707h1.577zm2.378-4.8993c0 0.2535 0.036 0.481 0.107 0.6823 0.074 0.1976 0.179 0.3654 0.313 0.5034 0.138 0.1379 0.304 0.2423 0.498 0.3132 0.197 0.0708 0.417 0.1062 0.659 0.1062 0.269 0 0.506-0.0428 0.711-0.1286 0.209-0.0895 0.384-0.2069 0.526-0.3523 0.141-0.1455 0.249-0.3132 0.324-0.5034 0.074-0.1902 0.112-0.3878 0.112-0.5928 0-0.2499-0.041-0.4754-0.123-0.6768-0.079-0.205-0.189-0.3784-0.33-0.5201-0.142-0.1417-0.312-0.2498-0.509-0.3244-0.194-0.0783-0.408-0.1174-0.643-0.1174-0.246 0-0.47 0.041-0.672 0.123-0.201 0.0783-0.374 0.1883-0.52 0.33-0.145 0.1417-0.257 0.3113-0.335 0.5089-0.079 0.1976-0.118 0.4139-0.118 0.6488zm2.327 2.4664c0.082-0.1081 0.158-0.2106 0.229-0.3076 0.071-0.0969 0.138-0.1938 0.202-0.2908-0.205 0.1641-0.437 0.289-0.694 0.3747-0.257 0.0858-0.529 0.1287-0.816 0.1287-0.303 0-0.59-0.0504-0.862-0.151-0.268-0.1007-0.505-0.248-0.71-0.4419-0.205-0.1976-0.369-0.4381-0.492-0.7215-0.12-0.2871-0.179-0.6152-0.179-0.9843 0-0.3505 0.065-0.6786 0.196-0.9843 0.13-0.3058 0.313-0.5724 0.548-0.7998 0.235-0.2275 0.514-0.4064 0.839-0.5369 0.324-0.1305 0.68-0.1958 1.068-0.1958 0.384 0 0.732 0.0634 1.046 0.1902 0.313 0.1267 0.581 0.3039 0.805 0.5313s0.395 0.4996 0.515 0.8166c0.123 0.3169 0.184 0.6674 0.184 1.0514 0 0.2312-0.022 0.4512-0.067 0.66-0.041 0.205-0.103 0.4082-0.185 0.6096-0.078 0.1976-0.175 0.3952-0.29 0.5928-0.116 0.1939-0.246 0.3934-0.392 0.5985l-1.952 2.8188c-0.048 0.0708-0.117 0.1286-0.207 0.1733-0.089 0.0411-0.192 0.0616-0.307 0.0616h-0.918l2.439-3.1936zm5.823 2.4889c0.261 0 0.494-0.0355 0.699-0.1063 0.209-0.0746 0.384-0.1771 0.526-0.3076 0.145-0.1342 0.255-0.2927 0.33-0.4754 0.078-0.1864 0.117-0.3915 0.117-0.6152 0-0.2759-0.046-0.5108-0.14-0.7047-0.089-0.1976-0.212-0.358-0.369-0.481-0.153-0.123-0.33-0.2125-0.531-0.2685-0.201-0.0596-0.412-0.0894-0.632-0.0894s-0.431 0.0298-0.632 0.0894c-0.201 0.056-0.38 0.1455-0.537 0.2685-0.153 0.123-0.276 0.2834-0.369 0.481-0.09 0.1939-0.134 0.4288-0.134 0.7047 0 0.2237 0.037 0.4288 0.112 0.6152 0.078 0.1827 0.188 0.3412 0.33 0.4754 0.145 0.1305 0.32 0.233 0.525 0.3076 0.209 0.0708 0.444 0.1063 0.705 0.1063zm0-6.6276c-0.239 0-0.449 0.0355-0.632 0.1063-0.179 0.0708-0.33 0.1678-0.453 0.2908-0.119 0.1231-0.211 0.2666-0.274 0.4307-0.06 0.164-0.09 0.3393-0.09 0.5257 0 0.1827 0.027 0.3598 0.079 0.5313s0.136 0.3244 0.251 0.4586c0.116 0.1305 0.265 0.2368 0.448 0.3188 0.186 0.0783 0.41 0.1175 0.671 0.1175s0.483-0.0392 0.666-0.1175c0.186-0.082 0.337-0.1883 0.453-0.3188 0.115-0.1342 0.199-0.2871 0.251-0.4586s0.079-0.3486 0.079-0.5313c0-0.1864-0.032-0.3617-0.096-0.5257-0.059-0.1641-0.151-0.3076-0.274-0.4307-0.119-0.123-0.27-0.22-0.453-0.2908-0.179-0.0708-0.387-0.1063-0.626-0.1063zm1.147 3.1544c0.499 0.1417 0.883 0.3785 1.152 0.7103 0.268 0.3318 0.402 0.7569 0.402 1.2752 0 0.3505-0.067 0.6674-0.201 0.9508-0.131 0.2796-0.315 0.5182-0.554 0.7158-0.235 0.1977-0.518 0.3505-0.85 0.4587-0.332 0.1044-0.697 0.1566-1.096 0.1566s-0.764-0.0522-1.096-0.1566c-0.332-0.1082-0.617-0.261-0.856-0.4587-0.239-0.1976-0.423-0.4362-0.554-0.7158-0.13-0.2834-0.195-0.6003-0.195-0.9508 0-0.5183 0.134-0.9434 0.402-1.2752 0.269-0.3318 0.653-0.5686 1.152-0.7103-0.421-0.1566-0.74-0.3896-0.956-0.6991-0.212-0.3132-0.319-0.6861-0.319-1.1186 0-0.2945 0.058-0.5704 0.174-0.8277 0.115-0.2573 0.279-0.481 0.492-0.6712 0.212-0.1901 0.466-0.3393 0.76-0.4474 0.299-0.1081 0.631-0.1622 0.996-0.1622 0.362 0 0.692 0.0541 0.99 0.1622s0.554 0.2573 0.766 0.4474c0.213 0.1902 0.377 0.4139 0.492 0.6712 0.116 0.2573 0.174 0.5332 0.174 0.8277 0 0.4325-0.108 0.8054-0.325 1.1186-0.212 0.3095-0.529 0.5425-0.95 0.6991zm2.719 3.5627c0-0.097 0.016-0.1883 0.05-0.2741 0.037-0.0858 0.086-0.1603 0.145-0.2237 0.064-0.0634 0.138-0.1137 0.224-0.151s0.177-0.0559 0.274-0.0559 0.188 0.0186 0.274 0.0559 0.16 0.0876 0.224 0.151c0.063 0.0634 0.114 0.1379 0.151 0.2237s0.056 0.1771 0.056 0.2741c0 0.1006-0.019 0.1938-0.056 0.2796-0.037 0.082-0.088 0.1547-0.151 0.2181-0.064 0.0634-0.138 0.1119-0.224 0.1454-0.086 0.0373-0.177 0.056-0.274 0.056s-0.188-0.0187-0.274-0.056c-0.086-0.0335-0.16-0.082-0.224-0.1454-0.059-0.0634-0.108-0.1361-0.145-0.2181-0.034-0.0858-0.05-0.179-0.05-0.2796zm7.542-0.33c0.108 0 0.194 0.0317 0.258 0.0951 0.063 0.0633 0.095 0.1454 0.095 0.246v0.6041h-5.347v-0.3412c0-0.0708 0.015-0.1435 0.045-0.2181s0.076-0.1436 0.139-0.207l2.568-2.5783c0.212-0.2162 0.406-0.4232 0.581-0.6208 0.176-0.2013 0.325-0.4027 0.448-0.604s0.218-0.4045 0.285-0.6096c0.067-0.2088 0.101-0.4307 0.101-0.6656s-0.038-0.4399-0.112-0.6152c-0.075-0.179-0.177-0.3262-0.308-0.4418-0.127-0.1156-0.278-0.2014-0.453-0.2573-0.175-0.0596-0.363-0.0895-0.565-0.0895-0.205 0-0.393 0.0299-0.565 0.0895-0.171 0.0597-0.324 0.1436-0.458 0.2517-0.131 0.1044-0.241 0.2293-0.33 0.3747-0.09 0.1454-0.153 0.3058-0.19 0.481-0.045 0.1305-0.107 0.2181-0.185 0.2629-0.075 0.041-0.181 0.0522-0.319 0.0335l-0.52-0.0895c0.052-0.3654 0.153-0.6879 0.302-0.9675 0.153-0.2834 0.343-0.5202 0.571-0.7103 0.231-0.1902 0.494-0.3337 0.788-0.4307 0.295-0.1006 0.614-0.151 0.957-0.151 0.339 0 0.656 0.0504 0.95 0.151 0.295 0.1007 0.55 0.248 0.767 0.4419 0.216 0.1901 0.385 0.4232 0.509 0.6991 0.123 0.2759 0.184 0.5891 0.184 0.9396 0 0.2983-0.045 0.576-0.134 0.8333-0.09 0.2535-0.211 0.4959-0.364 0.7271-0.153 0.2311-0.33 0.4567-0.531 0.6767-0.198 0.22-0.408 0.4418-0.632 0.6656l-2.114 2.1588c0.149-0.041 0.3-0.0727 0.453-0.0951 0.153-0.0261 0.3-0.0391 0.442-0.0391h2.684zm5.62-0.4195c0.183 0.2461 0.383 0.4195 0.599 0.5201 0.22 0.1007 0.46 0.1511 0.721 0.1511 0.534 0 0.942-0.1883 1.225-0.5649 0.284-0.3766 0.425-0.9378 0.425-1.6835 0-0.6935-0.126-1.2024-0.38-1.5268-0.25-0.3281-0.608-0.4922-1.074-0.4922-0.324 0-0.608 0.0746-0.85 0.2237-0.239 0.1492-0.46 0.3598-0.666 0.632v2.7405zm0-3.4843c0.239-0.276 0.508-0.4959 0.806-0.66 0.302-0.1641 0.649-0.2461 1.04-0.2461 0.332 0 0.63 0.0634 0.895 0.1902 0.268 0.1267 0.496 0.3113 0.682 0.5537 0.187 0.2386 0.328 0.5294 0.425 0.8725 0.101 0.343 0.151 0.7289 0.151 1.1577 0 0.4586-0.056 0.8762-0.167 1.2528-0.112 0.3766-0.274 0.6991-0.487 0.9675-0.209 0.2648-0.464 0.4717-0.766 0.6208-0.302 0.1455-0.642 0.2182-1.018 0.2182-0.373 0-0.688-0.069-0.945-0.207-0.254-0.1417-0.476-0.3411-0.666-0.5984l-0.05 0.5145c-0.03 0.1417-0.116 0.2126-0.257 0.2126h-0.644v-8.2383h1.001v3.3893z"/>
 </g>
</svg>
