<?xml version="1.0" encoding="UTF-8"?>
<svg width="1024" height="175" fill="none" version="1.1" viewBox="0 0 462 79" xmlns="http://www.w3.org/2000/svg" xmlns:cc="http://creativecommons.org/ns#" xmlns:dc="http://purl.org/dc/elements/1.1/" xmlns:rdf="http://www.w3.org/1999/02/22-rdf-syntax-ns#">
 <metadata>
  <rdf:RDF>
   <cc:Work rdf:about="">
    <dc:format>image/svg+xml</dc:format>
    <dc:type rdf:resource="http://purl.org/dc/dcmitype/StillImage"/>
    <dc:title/>
   </cc:Work>
  </rdf:RDF>
 </metadata>
 <rect x="57" width="405" height="36" rx="5.5661" fill="#E5D049"/>
 <path d="m82.015 16.753-2.384-0.0137c-0.9773 1.7721-1.5254 2.754-1.6441 2.9458-0.1188 0.1918-0.2329 0.4065-0.3426 0.6439-0.2557 0.5572-0.4658 0.8358-0.6302 0.8358-0.3928 0-0.6714-0.0913-0.8358-0.274-0.0091-0.0183-0.0137-0.0457-0.0137-0.0822 0-0.0366 0.0274-0.1051 0.0822-0.2055 0.064-0.1096 0.1599-0.2558 0.2877-0.4385 0.1371-0.1827 0.2284-0.3105 0.2741-0.3836 1.0961-1.9456 2.0871-3.6719 2.9731-5.1791 0.8952-1.5162 1.4021-2.3885 1.5209-2.6169 0.1278-0.2375 0.2374-0.4156 0.3288-0.5343 0.1644-0.1005 0.3517-0.1507 0.5617-0.1507 0.2193 0 0.3608 0.0091 0.4248 0.0274 0.0639 0.0182 0.1187 0.0548 0.1644 0.1096 0.0457 0.0456 0.0776 0.0867 0.0959 0.1233 0.0274 0.0365 0.0639 0.105 0.1096 0.2055s0.1187 0.2603 0.2192 0.4795c0.1005 0.2193 0.4248 0.8541 0.9728 1.9045 0.5481 1.0413 0.9134 1.7675 1.0961 2.1785s0.3608 0.8175 0.5343 1.2194c0.3654 0.8312 0.6942 1.5117 0.9865 2.0415 0.3015 0.5206 0.4522 0.8632 0.4522 1.0276 0 0.1004-0.1416 0.2192-0.4248 0.3562-0.274 0.1279-0.4658 0.1918-0.5754 0.1918-0.1918 0-0.3699-0.2466-0.5344-0.7398l-0.2603-0.5207c-0.1735-0.3745-0.4065-0.8632-0.6987-1.466-0.2923-0.612-0.5709-1.1875-0.8358-1.7264-0.2101 0.0092-0.4248 0.0137-0.644 0.0137-0.2101 0.0183-0.6302 0.0274-1.2605 0.0274zm-1.8633-0.9453 1.4934-0.0138h1.8359c-0.0913-0.1826-0.2009-0.411-0.3288-0.685-0.1187-0.274-0.1918-0.4293-0.2192-0.4658-0.0183-0.0457-0.0502-0.1188-0.0959-0.2193-0.0457-0.1004-0.0914-0.1964-0.137-0.2877-0.0457-0.0913-0.1005-0.2009-0.1644-0.3288-0.0548-0.1279-0.1096-0.2421-0.1644-0.3426-0.0549-0.1096-0.1097-0.21-0.1645-0.3014-0.1187-0.2101-0.2009-0.3151-0.2466-0.3151s-0.105 0.0502-0.1781 0.1507c-0.0731 0.0913-0.1598 0.2147-0.2603 0.3699-0.0914 0.1553-0.1781 0.306-0.2603 0.4522-0.2467 0.4567-0.3928 0.717-0.4385 0.7809-0.0365 0.064-0.0868 0.1508-0.1507 0.2604-0.0548 0.1096-0.137 0.2557-0.2466 0.4384-0.1005 0.1827-0.1918 0.3517-0.274 0.507zm9.7145 1.6304-0.0274 1.8222c0 0.4202 0.0777 0.7034 0.2329 0.8495 0.1553 0.1462 0.5116 0.2192 1.0687 0.2192 0.749 0 1.2971-0.21 1.6442-0.6302 0.3471-0.4293 0.5206-0.9911 0.5206-1.6853 0-0.7033-0.1598-1.2422-0.4795-1.6167-0.3106-0.3836-0.7353-0.5754-1.2742-0.5754-0.3015 0-0.6486 0.0639-1.0413 0.1918-0.3837 0.1187-0.5983 0.2329-0.644 0.3425-0.0182 0.0274-0.0274 0.0868-0.0274 0.1781l0.0137 0.3836c0.0092 0.1279 0.0137 0.3015 0.0137 0.5207zm0.0274 3.5075c-0.0274 0.5115-0.0411 1.2514-0.0411 2.2196 0.0183 0.2466 0.0274 0.5115 0.0274 0.7947 0 0.2922-0.0319 0.4704-0.0959 0.5343-0.0639 0.0731-0.3927 0.1096-0.9865 0.1096-0.137 0-0.2283-0.0594-0.274-0.1781s-0.0639-0.2649-0.0548-0.4384c0.0548-2.4663 0.0822-4.2109 0.0822-5.2339l-0.0274-2.8224v-0.1782-0.1644c0.0091-0.0274 0.0137-0.0685 0.0137-0.1233 0.0091-0.0639 0.0183-0.105 0.0274-0.1233 0.0091-0.0274 0.0183-0.0594 0.0274-0.0959 0.0183-0.0457 0.0366-0.0731 0.0548-0.0822 0.0274-0.0183 0.0594-0.0365 0.0959-0.0548 0.0548-0.0365 0.2238-0.0548 0.507-0.0548 0.2923 0 0.4521 0.0046 0.4795 0.0137 0.0091 0.0183 0.0183 0.105 0.0274 0.2603 0.0092 0.1553 0.0229 0.2695 0.0411 0.3425 0.6851-0.5023 1.4295-0.7535 2.2333-0.7535 0.8129 0 1.4478 0.2831 1.9045 0.8494 0.4567 0.5664 0.685 1.1966 0.685 1.8908s-0.1096 1.2879-0.3288 1.7812c-0.2101 0.4932-0.5709 0.9042-1.0824 1.2331-0.5115 0.3288-1.1372 0.4932-1.877 0.4932-0.4202 0-0.8998-0.0731-1.4387-0.2192zm7.8-3.5075-0.0274 1.8222c0 0.4202 0.0776 0.7034 0.2329 0.8495 0.1553 0.1462 0.5115 0.2192 1.0687 0.2192 0.749 0 1.2974-0.21 1.6444-0.6302 0.347-0.4293 0.52-0.9911 0.52-1.6853 0-0.7033-0.159-1.2422-0.479-1.6167-0.311-0.3836-0.7355-0.5754-1.2744-0.5754-0.3014 0-0.6485 0.0639-1.0413 0.1918-0.3836 0.1187-0.5983 0.2329-0.6439 0.3425-0.0183 0.0274-0.0274 0.0868-0.0274 0.1781l0.0137 0.3836c0.0091 0.1279 0.0137 0.3015 0.0137 0.5207zm0.0274 3.5075c-0.0274 0.5115-0.0411 1.2514-0.0411 2.2196 0.0182 0.2466 0.0274 0.5115 0.0274 0.7947 0 0.2922-0.032 0.4704-0.0959 0.5343-0.064 0.0731-0.3928 0.1096-0.9865 0.1096-0.137 0-0.2284-0.0594-0.2741-0.1781-0.0456-0.1187-0.0639-0.2649-0.0548-0.4384 0.0548-2.4663 0.0822-4.2109 0.0822-5.2339l-0.0274-2.8224v-0.1782-0.1644c0.0092-0.0274 0.0137-0.0685 0.0137-0.1233 0.0092-0.0639 0.0183-0.105 0.0275-0.1233 0.0091-0.0274 0.0182-0.0594 0.0274-0.0959 0.0182-0.0457 0.0365-0.0731 0.0548-0.0822 0.0274-0.0183 0.0593-0.0365 0.0959-0.0548 0.0548-0.0365 0.2238-0.0548 0.5069-0.0548 0.2923 0 0.4521 0.0046 0.4796 0.0137 0.0091 0.0183 0.0182 0.105 0.0274 0.2603 0.0091 0.1553 0.0228 0.2695 0.0411 0.3425 0.685-0.5023 1.4294-0.7535 2.2333-0.7535 0.8128 0 1.4478 0.2831 1.9048 0.8494 0.456 0.5664 0.685 1.1966 0.685 1.8908s-0.11 1.2879-0.329 1.7812c-0.21 0.4932-0.571 0.9042-1.083 1.2331-0.511 0.3288-1.1367 0.4932-1.8766 0.4932-0.4202 0-0.8997-0.0731-1.4386-0.2192zm6.4162-4.5899-0.028-2.795v-0.5207c0.01-0.1735 0.014-0.3242 0.014-0.4521v-0.644c0-0.411 0.028-0.6896 0.082-0.8358 0.064-0.1461 0.242-0.2192 0.535-0.2192 0.301 0 0.488 0.0229 0.561 0.0685 0.074 0.0366 0.11 0.1279 0.11 0.2741l0.014 5.0557 0.013 3.0143c0 0.274 0.083 0.4932 0.247 0.6576 0.165 0.1644 0.352 0.2466 0.562 0.2466s0.42-0.0228 0.63-0.0685c0.219-0.0548 0.356-0.0822 0.411-0.0822 0.119 0 0.178 0.0731 0.178 0.2192 0 0.3106-0.214 0.539-0.644 0.6851-0.301 0.0913-0.625 0.137-0.972 0.137-0.338 0-0.612-0.0594-0.823-0.1781-0.21-0.1188-0.374-0.2649-0.493-0.4384-0.109-0.1736-0.196-0.4202-0.26-0.7399-0.091-0.4476-0.137-1.0961-0.137-1.9456v-1.4386zm4.826-3.2335c-0.091-0.0274-0.201-0.1187-0.329-0.274-0.119-0.1644-0.178-0.3151-0.178-0.4521 9e-3 -0.1462 0.101-0.2923 0.274-0.4385 0.183-0.1553 0.416-0.2329 0.699-0.2329 0.42 0 0.63 0.2009 0.63 0.6029 0 0.2831-0.091 0.4932-0.274 0.6302-0.173 0.137-0.333 0.2055-0.479 0.2055-0.137 0-0.252-0.0137-0.343-0.0411zm0.849 4.905 0.042 2.7129c0 0.1096-0.014 0.1781-0.042 0.2055-0.091 0.0457-0.283 0.0685-0.575 0.0685s-0.475-0.0183-0.548-0.0548c-0.064-0.0457-0.096-0.1736-0.096-0.3836l-0.055-2.5074c0-0.8768 5e-3 -1.434 0.014-1.6715l0.041-0.8084c0-0.2557 0.041-0.4064 0.123-0.4521 0.083-0.0457 0.238-0.0685 0.466-0.0685 0.238 0 0.439 0.0137 0.603 0.0411 0.018 0.4019 0.027 0.717 0.027 0.9454v1.9729zm6.784 2.0278c0.155 0 0.233 0.1096 0.233 0.3288 0 0.5207-0.676 0.781-2.028 0.781-0.575 0-1.087-0.0913-1.535-0.274-0.447-0.1827-0.794-0.4202-1.041-0.7125-0.511-0.6028-0.767-1.2742-0.767-2.014 0-0.95 0.356-1.7173 1.069-2.3018 0.712-0.5938 1.598-0.8906 2.658-0.8906 1.059 0 1.589 0.1507 1.589 0.4521 0 0.2101-0.037 0.3288-0.11 0.3562-0.073 0.0275-0.128 0.0412-0.164 0.0412h-0.247c-1.087 0-1.932 0.1598-2.534 0.4795-0.603 0.3106-0.905 0.8495-0.905 1.6167 0 0.7673 0.229 1.3519 0.685 1.7538 0.466 0.3928 1.115 0.5891 1.946 0.5891 0.192 0 0.411-0.0319 0.658-0.0959 0.246-0.073 0.411-0.1096 0.493-0.1096zm5.422 0.9591c-0.274 0-0.402-0.1507-0.384-0.4521 0-0.1005-0.013-0.1508-0.041-0.1508-0.073 0.0275-0.219 0.1051-0.438 0.233-1.087 0.6668-2.042 0.7079-2.864 0.1233-0.374-0.2649-0.561-0.6303-0.561-1.0961 0-0.7033 0.324-1.2149 0.972-1.5345 0.658-0.3197 1.471-0.4796 2.439-0.4796 0.174 0 0.302 0.0046 0.384 0.0137 0-0.1553 4e-3 -0.2649 0.014-0.3288 0-0.5207-0.147-0.9089-0.439-1.1646-0.283-0.2649-0.68-0.3974-1.192-0.3974-0.247 0-0.511 0.0366-0.795 0.1097-0.283 0.073-0.465 0.1096-0.548 0.1096-0.082 0-0.15-0.0503-0.205-0.1507-0.046-0.1005-0.069-0.233-0.069-0.3974s0.201-0.2923 0.603-0.3836c0.411-0.1005 0.804-0.1507 1.179-0.1507 0.886 0 1.557 0.2329 2.014 0.6987 0.465 0.4659 0.698 1.1464 0.698 2.0415v2.8225c0 0.2466-0.045 0.3973-0.137 0.4521-0.091 0.0548-0.301 0.0822-0.63 0.0822zm-0.507-1.4386c0.018-0.2558 0.028-0.5298 0.028-0.8221s-5e-3 -0.4567-0.014-0.4932c-1.261 0.1187-2.028 0.3471-2.302 0.685-0.146 0.1736-0.219 0.3745-0.219 0.6029 0 0.4841 0.361 0.7261 1.082 0.7261 0.366 0 0.69-0.0822 0.973-0.2466 0.292-0.1735 0.443-0.3242 0.452-0.4521zm4.847-2.5347-0.027 1.9729c0 0.3745 0.064 0.6623 0.192 0.8632 0.128 0.1918 0.342 0.2877 0.644 0.2877 0.301 0 0.557-0.0274 0.767-0.0822 0.393-0.1096 0.589-0.0548 0.589 0.1644 0 0.612-0.566 0.918-1.699 0.918-0.639 0-1.137-0.2877-1.493-0.8632-0.174-0.3653-0.261-0.7992-0.261-1.3016l0.028-1.5893 0.027-1.1509c0-0.1279-0.018-0.2055-0.055-0.2329-0.036-0.0366-0.105-0.0548-0.205-0.0548l-0.535 0.0411c-0.228 0-0.342-0.0731-0.342-0.2193 0-0.2557 0.027-0.4338 0.082-0.5343 0.064-0.1096 0.178-0.1644 0.343-0.1644l0.534 0.0411c0.128 0 0.192-0.1553 0.192-0.4658v-0.0686-0.7809c0-0.2375 4e-3 -0.3745 0.014-0.4111 0.109-0.0548 0.47-0.0822 1.082-0.0822 0.164 0 0.247 0.0868 0.247 0.2604l-0.042 1.5071c0.11 0.0091 0.288 0.0137 0.535 0.0137l1.096-0.0822c0.146 0 0.219 0.0868 0.219 0.2603 0 0.5024-0.246 0.7536-0.74 0.7536l-0.89-0.0548c-0.146 0-0.238 0.0091-0.274 0.0274-0.019 0.1644-0.028 0.5069-0.028 1.0276zm3.946-3.9186c-0.091-0.0274-0.201-0.1187-0.329-0.274-0.118-0.1644-0.178-0.3151-0.178-0.4521 9e-3 -0.1462 0.101-0.2923 0.274-0.4385 0.183-0.1553 0.416-0.2329 0.699-0.2329 0.42 0 0.63 0.2009 0.63 0.6029 0 0.2831-0.091 0.4932-0.274 0.6302-0.173 0.137-0.333 0.2055-0.479 0.2055-0.137 0-0.251-0.0137-0.343-0.0411zm0.85 4.905 0.041 2.7129c0 0.1096-0.014 0.1781-0.041 0.2055-0.092 0.0457-0.283 0.0685-0.576 0.0685-0.292 0-0.475-0.0183-0.548-0.0548-0.064-0.0457-0.096-0.1736-0.096-0.3836l-0.055-2.5074c0-0.8768 5e-3 -1.434 0.014-1.6715l0.041-0.8084c0-0.2557 0.041-0.4064 0.124-0.4521 0.082-0.0457 0.237-0.0685 0.465-0.0685 0.238 0 0.439 0.0137 0.603 0.0411 0.019 0.4019 0.028 0.717 0.028 0.9454v1.9729zm8.044-0.1233c0 0.9408-0.325 1.7218-0.973 2.3429-0.64 0.612-1.411 0.918-2.316 0.918-0.895 0-1.639-0.2831-2.233-0.8495-0.585-0.5663-0.877-1.329-0.877-2.2881 0-0.9682 0.311-1.7263 0.932-2.2744 0.63-0.5571 1.493-0.8357 2.589-0.8357 0.612 0 1.22 0.1918 1.823 0.5754 0.31 0.2101 0.561 0.5252 0.753 0.9454 0.201 0.411 0.302 0.8997 0.302 1.466zm-3.097 2.247c0.576 0 1.037-0.2055 1.384-0.6165 0.356-0.4202 0.534-0.9363 0.534-1.5483 0-0.6119-0.155-1.1189-0.466-1.5208-0.301-0.4019-0.749-0.6028-1.342-0.6028-0.585 0-1.078 0.1826-1.48 0.548-0.393 0.3654-0.589 0.886-0.589 1.5619 0 0.676 0.183 1.2103 0.548 1.6031 0.365 0.3836 0.836 0.5754 1.411 0.5754zm5.271-5.0831 0.644-0.0137c0 0.0457 0.027 0.1598 0.082 0.3425 0.055-0.0183 0.21-0.0731 0.466-0.1644 0.603-0.2101 1.1-0.3151 1.493-0.3151 0.402 0 0.754 0.0639 1.055 0.1918 0.302 0.1187 0.535 0.274 0.699 0.4658 0.164 0.1827 0.297 0.4293 0.397 0.7399 0.146 0.5024 0.22 1.1692 0.22 2.0004 0 0-0.023 0.7809-0.069 2.3429 0 0.1827-0.018 0.2877-0.055 0.3151-0.027 0.0274-0.155 0.0411-0.383 0.0411-0.22 0-0.475-0.0183-0.768-0.0548-0.027-0.2192-0.041-0.6029-0.041-1.1509l0.014-1.7538c0-0.7307-0.123-1.2787-0.37-1.6441-0.247-0.3745-0.671-0.5617-1.274-0.5617-0.594 0-1.046 0.0867-1.357 0.2603l0.028 1.8359c9e-3 0.8221 0.013 1.4615 0.013 1.9182l0.028 0.8084c0 0.1461-0.037 0.242-0.11 0.2877-0.073 0.0365-0.228 0.0548-0.466 0.0548l-0.712-0.0274-0.055-2.8635 0.055-2.0826v-0.4933c0-0.3197 0.155-0.4795 0.466-0.4795z" fill="#121212"/>
 <rect x="57" y="43" width="405" height="36" rx="5.5661" fill="#E5D049"/>
 <path d="m80.96 55.437-1.6852 0.0137h-0.3425c-0.2375 0.0091-0.3563 0.0091-0.3563 0-0.0091 0.1644-0.0137 0.3471-0.0137 0.548l0.0137 1.2057-0.0137 0.8358c0 0.1735 0.0046 0.306 0.0137 0.3973l2.2059-0.0137h0.6851c0.1918 0 0.3379 0.0092 0.4384 0.0274 0.1005 0.0092 0.1964 0.0229 0.2877 0.0411 0.1919 0.0274 0.2878 0.0822 0.2878 0.1644s-0.0366 0.1964-0.1096 0.3426c-0.064 0.1461-0.1142 0.2466-0.1508 0.3014-0.0365 0.0548-0.105 0.0959-0.2055 0.1233-0.0913 0.0183-0.1507 0.0274-0.1781 0.0274h-0.3014l-1.2194-0.0137c-0.8495 0-1.4341-0.0091-1.7538-0.0274-0.0182 0.2375-0.0274 0.5846-0.0274 1.0413l0.0137 0.9317c0 0.3562-0.0045 0.6485-0.0137 0.8768v0.7536l0.0137 0.6988c0 0.137-0.0639 0.2238-0.1918 0.2603-0.1187 0.0365-0.2923 0.0548-0.5206 0.0548-0.2193 0-0.3608-0.0091-0.4248-0.0274-0.0639-0.0183-0.1096-0.0639-0.137-0.137-0.0365-0.0914-0.0548-0.2329-0.0548-0.4247v-3.3842c0-2.1466 0.0137-3.4299 0.0411-3.8501 0.0274-0.4293 0.0411-0.7398 0.0411-0.9317 0-0.411 0.0228-0.6393 0.0685-0.685s0.1233-0.0777 0.2329-0.0959c0.1188-0.0183 0.2604-0.032 0.4248-0.0411 0.1644-0.0092 0.3197-0.0137 0.4658-0.0137 0.1553-0.0092 0.3106-0.0137 0.4659-0.0137h0.3288l0.3151-0.0137c1.9547 0 2.9777 0.0365 3.0691 0.1096 0 0.0913-0.032 0.2557-0.0959 0.4932-0.064 0.2284-0.1233 0.3608-0.1781 0.3974-0.0549 0.0274-0.1827 0.0411-0.3837 0.0411l-1.055-0.0137zm7.31 7.015 0.0685-2.4936v-0.7125c0-0.3836 0.0274-0.6714 0.0823-0.8632 0.0639-0.2009 0.1918-0.3014 0.3836-0.3014 0.3197 0 0.548 0.0228 0.685 0.0685 0.0548 0.0731 0.0823 0.3151 0.0823 0.7262l0.0411 3.4664 0.0548 1.2057c0 0.2923-0.0366 0.443-0.1097 0.4521-0.1918 0.0274-0.3699 0.0411-0.5343 0.0411-0.1553 0-0.2649-0.0137-0.3288-0.0411-0.0548-0.0365-0.0914-0.0822-0.1096-0.137-0.0183-0.064-0.032-0.1279-0.0411-0.1918-0.0092-0.064-0.0183-0.1279-0.0274-0.1918-0.0092-0.1462-0.032-0.2101-0.0685-0.1919-0.1097-0.0091-0.3289 0.1279-0.6577 0.4111-0.1279 0.1187-0.3288 0.2238-0.6029 0.3151-0.274 0.1005-0.6074 0.1507-1.0001 0.1507-0.3928 0-0.7445-0.0959-1.055-0.2877-0.3015-0.1918-0.5252-0.4521-0.6714-0.781-0.2557-0.6028-0.3836-1.2788-0.3836-2.0278l0.0274-2.1784 0.0137-0.2467c0-0.2009 0.0411-0.3425 0.1233-0.4247 0.0822-0.0913 0.2512-0.137 0.5069-0.137 0.2558 0 0.4156 0.0228 0.4796 0.0685 0.073 0.0365 0.1096 0.137 0.1096 0.3014l-0.0274 2.0004c0 1.0504 0.1096 1.7492 0.3288 2.0963 0.1005 0.1553 0.2466 0.2877 0.4384 0.3973 0.201 0.1096 0.4385 0.1644 0.7125 0.1644s0.5892-0.0548 0.9454-0.1644 0.5343-0.274 0.5343-0.4932zm4.0239-4.3844 0.644-0.0137c0 0.0457 0.0274 0.1598 0.0822 0.3425 0.0548-0.0183 0.2101-0.0731 0.4658-0.1644 0.6029-0.2101 1.1007-0.3151 1.4934-0.3151 0.4019 0 0.7536 0.0639 1.055 0.1918 0.3015 0.1187 0.5344 0.274 0.6988 0.4658 0.1644 0.1827 0.2968 0.4293 0.3973 0.7399 0.1462 0.5024 0.2192 1.1692 0.2192 2.0004 0 0-0.0228 0.7809-0.0685 2.3429 0 0.1827-0.0182 0.2877-0.0548 0.3151-0.0274 0.0274-0.1553 0.0411-0.3836 0.0411-0.2192 0-0.475-0.0183-0.7673-0.0548-0.0274-0.2192-0.0411-0.6029-0.0411-1.1509l0.0137-1.7538c0-0.7307-0.1233-1.2787-0.3699-1.6441-0.2466-0.3745-0.6714-0.5617-1.2742-0.5617-0.5937 0-1.0459 0.0867-1.3564 0.2603l0.0274 1.8359c0.0091 0.8221 0.0137 1.4615 0.0137 1.9182l0.0274 0.8084c0 0.1461-0.0366 0.242-0.1096 0.2877-0.0731 0.0365-0.2284 0.0548-0.4659 0.0548l-0.7124-0.0274-0.0548-2.8635 0.0548-2.0826v-0.4933c0-0.3197 0.1552-0.4795 0.4658-0.4795zm12.724-3.0417 0.014 5.4668v2.7813c0 0.0822-5e-3 0.137-0.014 0.1645 0 0.0274-4e-3 0.073-0.014 0.137 0 0.0639-4e-3 0.1096-0.013 0.137-0.037 0.1096-0.069 0.1735-0.096 0.1918-0.018 0.0183-0.041 0.0365-0.069 0.0548-0.064 0.0365-0.214 0.0548-0.452 0.0548-0.237 0-0.397-0.0137-0.479-0.0411-0.019-0.0457-0.032-0.1279-0.041-0.2466-0.01-0.1188-0.019-0.1964-0.028-0.2329-0.192 0.137-0.502 0.2831-0.932 0.4384-0.42 0.1553-0.799 0.2329-1.137 0.2329-0.849 0-1.539-0.2877-2.0686-0.8632-0.5207-0.5754-0.781-1.2879-0.781-2.1373 0-1.1783 0.5115-2.0872 1.5346-2.7266 0.502-0.3471 1.142-0.5206 1.918-0.5206 0.21 0 0.676 0.0959 1.398 0.2877l0.013-0.6029v-0.7261c0-1.023 5e-3 -1.6213 0.014-1.7949 0.018-0.1735 0.027-0.3425 0.027-0.5069s5e-3 -0.2695 0.014-0.3151c9e-3 -0.0548 0.032-0.1188 0.069-0.1919 0.064-0.1096 0.21-0.1644 0.438-0.1644s0.379 0.0183 0.452 0.0548c0.082 0.0366 0.142 0.1051 0.178 0.2055 0.037 0.1371 0.055 0.306 0.055 0.507v0.3562zm-4.754 5.8367c0 0.7399 0.192 1.3199 0.575 1.7401 0.384 0.411 0.905 0.6165 1.562 0.6165 0.329 0 0.603-0.0319 0.822-0.0959 0.375-0.1187 0.562-0.2831 0.562-0.4932v-2.5347c0-0.6029-0.027-0.9363-0.082-1.0002-0.055-0.0914-0.224-0.1599-0.507-0.2055-0.274-0.0548-0.548-0.0822-0.822-0.0822-0.621 0-1.124 0.1918-1.507 0.5754-0.384 0.3836-0.585 0.8769-0.603 1.4797zm7.307-4.7406c-0.091-0.0274-0.2-0.1187-0.328-0.274-0.119-0.1644-0.178-0.3151-0.178-0.4521 9e-3 -0.1462 0.1-0.2923 0.274-0.4385 0.182-0.1553 0.415-0.2329 0.698-0.2329 0.42 0 0.631 0.2009 0.631 0.6029 0 0.2831-0.092 0.4932-0.274 0.6302-0.174 0.137-0.334 0.2055-0.48 0.2055-0.137 0-0.251-0.0137-0.343-0.0411zm0.85 4.905 0.041 2.7129c0 0.1096-0.014 0.1781-0.041 0.2055-0.091 0.0457-0.283 0.0685-0.575 0.0685-0.293 0-0.475-0.0183-0.549-0.0548-0.063-0.0457-0.095-0.1736-0.095-0.3836l-0.055-2.5074c0-0.8768 4e-3 -1.434 0.013-1.6715l0.042-0.8084c0-0.2557 0.041-0.4064 0.123-0.4521s0.237-0.0685 0.466-0.0685c0.237 0 0.438 0.0137 0.603 0.0411 0.018 0.4019 0.027 0.717 0.027 0.9454v1.9729zm2.618-2.9594 0.644-0.0137c0 0.0457 0.028 0.1598 0.082 0.3425 0.055-0.0183 0.21-0.0731 0.466-0.1644 0.603-0.2101 1.101-0.3151 1.494-0.3151 0.402 0 0.753 0.0639 1.055 0.1918 0.301 0.1187 0.534 0.274 0.698 0.4658 0.165 0.1827 0.297 0.4293 0.398 0.7399 0.146 0.5024 0.219 1.1692 0.219 2.0004 0 0-0.023 0.7809-0.069 2.3429 0 0.1827-0.018 0.2877-0.054 0.3151-0.028 0.0274-0.156 0.0411-0.384 0.0411-0.219 0-0.475-0.0183-0.767-0.0548-0.028-0.2192-0.041-0.6029-0.041-1.1509l0.013-1.7538c0-0.7307-0.123-1.2787-0.37-1.6441-0.246-0.3745-0.671-0.5617-1.274-0.5617-0.594 0-1.046 0.0867-1.356 0.2603l0.027 1.8359c9e-3 0.8221 0.014 1.4615 0.014 1.9182l0.027 0.8084c0 0.1461-0.036 0.242-0.109 0.2877-0.073 0.0365-0.229 0.0548-0.466 0.0548l-0.713-0.0274-0.054-2.8635 0.054-2.0826v-0.4933c0-0.3197 0.156-0.4795 0.466-0.4795zm8.285 1.8222c0 0.8038 0.361 1.2057 1.083 1.2057 0.347 0 0.612-0.1187 0.794-0.3562 0.192-0.2375 0.288-0.5572 0.288-0.9591 0-0.411-0.096-0.7124-0.288-0.9042-0.182-0.201-0.438-0.3015-0.767-0.3015s-0.598 0.1188-0.808 0.3563c-0.201 0.2283-0.302 0.548-0.302 0.959zm0.85 4.6173h-0.274c-0.165 0-0.411-0.0365-0.74-0.1096-0.283 0-0.425 0.3517-0.425 1.055 0 0.8678 0.649 1.3245 1.946 1.3701 0.594 0 1.064-0.1187 1.411-0.3562 0.347-0.2283 0.521-0.5663 0.521-1.0139 0-0.4201-0.215-0.685-0.644-0.7946-0.366-0.1005-0.964-0.1508-1.795-0.1508zm2.329-5.316c0.037 0.2192 0.055 0.3608 0.055 0.4247 0 0.612-0.215 1.1509-0.644 1.6168-0.128 0.137-0.356 0.2786-0.685 0.4247s-0.685 0.2284-1.069 0.2466c-0.356 0-0.58 0.0229-0.671 0.0685-0.092 0.0366-0.169 0.0731-0.233 0.1096-0.055 0.0366-0.096 0.0822-0.123 0.137-0.073 0.1279-0.11 0.2649-0.11 0.4111 0 0.137 0.027 0.2512 0.082 0.3425 0.064 0.0822 0.124 0.1462 0.178 0.1918 0.064 0.0366 0.169 0.0685 0.315 0.0959 0.22 0.0274 0.658 0.0503 1.316 0.0685 0.657 0.0092 1.164 0.0503 1.521 0.1234 1.013 0.2283 1.52 0.8083 1.52 1.74 0 0.475-0.178 0.8997-0.534 1.2742-0.347 0.3745-0.776 0.6485-1.288 0.8221-0.502 0.1827-0.977 0.274-1.425 0.274-0.438 0-0.813-0.0274-1.123-0.0822-0.311-0.0548-0.621-0.1461-0.932-0.274-0.301-0.1279-0.543-0.3197-0.726-0.5755-0.183-0.2466-0.274-0.5389-0.274-0.8768 0-0.338 0.082-0.6531 0.247-0.9454 0.164-0.2832 0.351-0.4978 0.561-0.644-0.402-0.3471-0.603-0.717-0.603-1.1098 0-0.2101 0.042-0.3973 0.124-0.5617s0.164-0.2832 0.246-0.3563c0.092-0.073 0.21-0.1552 0.357-0.2466 0.155-0.0913 0.26-0.1598 0.315-0.2055-0.174-0.137-0.311-0.2558-0.411-0.3562-0.092-0.1005-0.197-0.2741-0.315-0.5207-0.11-0.2557-0.165-0.5389-0.165-0.8494 0-0.612 0.242-1.1053 0.726-1.4798 0.494-0.3745 1.11-0.5617 1.85-0.5617 0.749 0 1.274 0.1781 1.576 0.5343 0.584-0.4019 1.082-0.6028 1.493-0.6028 0.128 0 0.224 0.0867 0.288 0.2603 0.073 0.1735 0.109 0.3471 0.109 0.5206 0 0.1645-0.023 0.2695-0.068 0.3152-0.046 0.0365-0.128 0.0548-0.247 0.0548-0.493 0-0.904 0.0639-1.233 0.1918zm9.724 4.8228c-0.274 0-0.402-0.1507-0.384-0.4521 0-0.1005-0.013-0.1508-0.041-0.1508-0.073 0.0275-0.219 0.1051-0.438 0.233-1.087 0.6668-2.042 0.7079-2.864 0.1233-0.374-0.2649-0.561-0.6303-0.561-1.0961 0-0.7033 0.324-1.2149 0.972-1.5345 0.658-0.3197 1.471-0.4796 2.439-0.4796 0.174 0 0.302 0.0046 0.384 0.0137 0-0.1553 4e-3 -0.2649 0.014-0.3288 0-0.5207-0.147-0.9089-0.439-1.1646-0.283-0.2649-0.68-0.3974-1.192-0.3974-0.247 0-0.511 0.0366-0.795 0.1097-0.283 0.073-0.465 0.1096-0.548 0.1096-0.082 0-0.15-0.0503-0.205-0.1507-0.046-0.1005-0.069-0.233-0.069-0.3974s0.201-0.2923 0.603-0.3836c0.411-0.1005 0.804-0.1507 1.179-0.1507 0.886 0 1.557 0.2329 2.014 0.6987 0.465 0.4659 0.698 1.1464 0.698 2.0415v2.8225c0 0.2466-0.045 0.3973-0.137 0.4521-0.091 0.0548-0.301 0.0822-0.63 0.0822zm-0.507-1.4386c0.018-0.2558 0.028-0.5298 0.028-0.8221s-5e-3 -0.4567-0.014-0.4932c-1.261 0.1187-2.028 0.3471-2.302 0.685-0.146 0.1736-0.219 0.3745-0.219 0.6029 0 0.4841 0.361 0.7261 1.082 0.7261 0.366 0 0.69-0.0822 0.973-0.2466 0.292-0.1735 0.443-0.3242 0.452-0.4521zm3.751-4.5077 0.644-0.0137c0 0.0457 0.028 0.1598 0.082 0.3425 0.055-0.0183 0.21-0.0731 0.466-0.1644 0.603-0.2101 1.101-0.3151 1.494-0.3151 0.401 0 0.753 0.0639 1.055 0.1918 0.301 0.1187 0.534 0.274 0.698 0.4658 0.165 0.1827 0.297 0.4293 0.398 0.7399 0.146 0.5024 0.219 1.1692 0.219 2.0004 0 0-0.023 0.7809-0.069 2.3429 0 0.1827-0.018 0.2877-0.054 0.3151-0.028 0.0274-0.156 0.0411-0.384 0.0411-0.219 0-0.475-0.0183-0.767-0.0548-0.028-0.2192-0.041-0.6029-0.041-1.1509l0.013-1.7538c0-0.7307-0.123-1.2787-0.37-1.6441-0.246-0.3745-0.671-0.5617-1.274-0.5617-0.594 0-1.046 0.0867-1.356 0.2603l0.027 1.8359c9e-3 0.8221 0.014 1.4615 0.014 1.9182l0.027 0.8084c0 0.1461-0.036 0.242-0.109 0.2877-0.073 0.0365-0.229 0.0548-0.466 0.0548l-0.713-0.0274-0.054-2.8635 0.054-2.0826v-0.4933c0-0.3197 0.156-0.4795 0.466-0.4795zm12.725-3.0417 0.013 5.4668v2.7813c0 0.0822-4e-3 0.137-0.013 0.1645 0 0.0274-5e-3 0.073-0.014 0.137 0 0.0639-5e-3 0.1096-0.014 0.137-0.036 0.1096-0.068 0.1735-0.096 0.1918-0.018 0.0183-0.041 0.0365-0.068 0.0548-0.064 0.0365-0.215 0.0548-0.452 0.0548-0.238 0-0.398-0.0137-0.48-0.0411-0.018-0.0457-0.032-0.1279-0.041-0.2466-9e-3 -0.1188-0.018-0.1964-0.027-0.2329-0.192 0.137-0.503 0.2831-0.932 0.4384-0.42 0.1553-0.799 0.2329-1.137 0.2329-0.85 0-1.539-0.2877-2.069-0.8632-0.521-0.5754-0.781-1.2879-0.781-2.1373 0-1.1783 0.511-2.0872 1.534-2.7266 0.503-0.3471 1.142-0.5206 1.919-0.5206 0.21 0 0.676 0.0959 1.397 0.2877l0.014-0.6029v-0.7261c0-1.023 4e-3 -1.6213 0.013-1.7949 0.019-0.1735 0.028-0.3425 0.028-0.5069s4e-3 -0.2695 0.014-0.3151c9e-3 -0.0548 0.032-0.1188 0.068-0.1919 0.064-0.1096 0.21-0.1644 0.439-0.1644 0.228 0 0.379 0.0183 0.452 0.0548 0.082 0.0366 0.141 0.1051 0.178 0.2055 0.036 0.1371 0.055 0.306 0.055 0.507v0.3562zm-4.755 5.8367c0 0.7399 0.192 1.3199 0.576 1.7401 0.383 0.411 0.904 0.6165 1.562 0.6165 0.329 0 0.603-0.0319 0.822-0.0959 0.374-0.1187 0.561-0.2831 0.561-0.4932v-2.5347c0-0.6029-0.027-0.9363-0.082-1.0002-0.055-0.0914-0.223-0.1599-0.507-0.2055-0.274-0.0548-0.548-0.0822-0.822-0.0822-0.621 0-1.123 0.1918-1.507 0.5754-0.383 0.3836-0.584 0.8769-0.603 1.4797zm14.994 2.1922c0.156 0 0.233 0.1096 0.233 0.3288 0 0.5207-0.676 0.781-2.028 0.781-0.575 0-1.087-0.0913-1.534-0.274-0.448-0.1827-0.795-0.4202-1.041-0.7125-0.512-0.6028-0.768-1.2742-0.768-2.014 0-0.95 0.357-1.7173 1.069-2.3018 0.713-0.5938 1.599-0.8906 2.658-0.8906 1.06 0 1.589 0.1507 1.589 0.4521 0 0.2101-0.036 0.3288-0.109 0.3562-0.073 0.0275-0.128 0.0412-0.165 0.0412h-0.246c-1.087 0-1.932 0.1598-2.535 0.4795-0.603 0.3106-0.904 0.8495-0.904 1.6167 0 0.7673 0.228 1.3519 0.685 1.7538 0.466 0.3928 1.114 0.5891 1.945 0.5891 0.192 0 0.411-0.0319 0.658-0.0959 0.247-0.073 0.411-0.1096 0.493-0.1096zm7.683-2.1511c0 0.9408-0.324 1.7218-0.973 2.3429-0.639 0.612-1.411 0.918-2.315 0.918-0.895 0-1.64-0.2831-2.233-0.8495-0.585-0.5663-0.877-1.329-0.877-2.2881 0-0.9682 0.31-1.7263 0.931-2.2744 0.631-0.5571 1.494-0.8357 2.59-0.8357 0.612 0 1.219 0.1918 1.822 0.5754 0.311 0.2101 0.562 0.5252 0.754 0.9454 0.201 0.411 0.301 0.8997 0.301 1.466zm-3.096 2.247c0.575 0 1.037-0.2055 1.384-0.6165 0.356-0.4202 0.534-0.9363 0.534-1.5483 0-0.6119-0.155-1.1189-0.466-1.5208-0.301-0.4019-0.749-0.6028-1.343-0.6028-0.584 0-1.077 0.1826-1.479 0.548-0.393 0.3654-0.589 0.886-0.589 1.5619 0 0.676 0.182 1.2103 0.548 1.6031 0.365 0.3836 0.835 0.5754 1.411 0.5754zm4.777-3.7952-0.027-2.795v-0.5207c9e-3 -0.1735 0.014-0.3242 0.014-0.4521v-0.644c0-0.411 0.027-0.6896 0.082-0.8358 0.064-0.1461 0.242-0.2192 0.534-0.2192 0.301 0 0.489 0.0229 0.562 0.0685 0.073 0.0366 0.109 0.1279 0.109 0.2741l0.014 5.0557 0.014 3.0143c0 0.274 0.082 0.4932 0.246 0.6576 0.165 0.1644 0.352 0.2466 0.562 0.2466s0.42-0.0228 0.63-0.0685c0.22-0.0548 0.357-0.0822 0.411-0.0822 0.119 0 0.179 0.0731 0.179 0.2192 0 0.3106-0.215 0.539-0.644 0.6851-0.302 0.0913-0.626 0.137-0.973 0.137-0.338 0-0.612-0.0594-0.822-0.1781-0.21-0.1188-0.375-0.2649-0.493-0.4384-0.11-0.1736-0.197-0.4202-0.261-0.7399-0.091-0.4476-0.137-1.0961-0.137-1.9456v-1.4386zm4.429 0-0.027-2.795v-0.5207c9e-3 -0.1735 0.013-0.3242 0.013-0.4521v-0.644c0-0.411 0.028-0.6896 0.083-0.8358 0.063-0.1461 0.242-0.2192 0.534-0.2192 0.301 0 0.489 0.0229 0.562 0.0685 0.073 0.0366 0.109 0.1279 0.109 0.2741l0.014 5.0557 0.014 3.0143c0 0.274 0.082 0.4932 0.246 0.6576 0.165 0.1644 0.352 0.2466 0.562 0.2466s0.42-0.0228 0.63-0.0685c0.219-0.0548 0.356-0.0822 0.411-0.0822 0.119 0 0.178 0.0731 0.178 0.2192 0 0.3106-0.214 0.539-0.644 0.6851-0.301 0.0913-0.625 0.137-0.972 0.137-0.338 0-0.612-0.0594-0.822-0.1781-0.21-0.1188-0.375-0.2649-0.494-0.4384-0.109-0.1736-0.196-0.4202-0.26-0.7399-0.091-0.4476-0.137-1.0961-0.137-1.9456v-1.4386zm8.087 4.6584c-0.274 0-0.402-0.1507-0.384-0.4521 0-0.1005-0.013-0.1508-0.041-0.1508-0.073 0.0275-0.219 0.1051-0.438 0.233-1.087 0.6668-2.042 0.7079-2.864 0.1233-0.374-0.2649-0.561-0.6303-0.561-1.0961 0-0.7033 0.324-1.2149 0.972-1.5345 0.658-0.3197 1.471-0.4796 2.439-0.4796 0.174 0 0.302 0.0046 0.384 0.0137 0-0.1553 4e-3 -0.2649 0.013-0.3288 0-0.5207-0.146-0.9089-0.438-1.1646-0.283-0.2649-0.68-0.3974-1.192-0.3974-0.247 0-0.511 0.0366-0.795 0.1097-0.283 0.073-0.465 0.1096-0.548 0.1096-0.082 0-0.15-0.0503-0.205-0.1507-0.046-0.1005-0.069-0.233-0.069-0.3974s0.201-0.2923 0.603-0.3836c0.411-0.1005 0.804-0.1507 1.178-0.1507 0.886 0 1.558 0.2329 2.015 0.6987 0.465 0.4659 0.698 1.1464 0.698 2.0415v2.8225c0 0.2466-0.045 0.3973-0.137 0.4521-0.091 0.0548-0.301 0.0822-0.63 0.0822zm-0.507-1.4386c0.018-0.2558 0.027-0.5298 0.027-0.8221s-4e-3 -0.4567-0.013-0.4932c-1.261 0.1187-2.028 0.3471-2.302 0.685-0.146 0.1736-0.219 0.3745-0.219 0.6029 0 0.4841 0.361 0.7261 1.082 0.7261 0.366 0 0.69-0.0822 0.973-0.2466 0.292-0.1735 0.443-0.3242 0.452-0.4521zm3.244-7.2342 0.028-1.1509c0-0.1371 0.045-0.2193 0.137-0.2467 0.1-0.0274 0.292-0.0411 0.575-0.0411 0.292 0 0.461 0.032 0.507 0.0959 0.055 0.064 0.082 0.201 0.082 0.4111v2.014c0 1.1053 9e-3 1.804 0.028 2.0963 0.776-0.4019 1.47-0.6028 2.082-0.6028 0.356 0 0.713 0.073 1.069 0.2192 0.365 0.1461 0.639 0.338 0.822 0.5754 0.365 0.4659 0.548 1.1235 0.548 1.973 0 0.8404-0.206 1.5939-0.617 2.2607-0.191 0.3106-0.502 0.5937-0.931 0.8495-0.42 0.2466-0.914 0.3699-1.48 0.3699-0.649 0-1.215-0.1872-1.699-0.5617-0.137-0.1005-0.228-0.1507-0.274-0.1507s-0.137 0.0913-0.274 0.274-0.242 0.274-0.315 0.274c-0.146 0-0.233-0.0731-0.26-0.2192-0.028-0.1462-0.042-0.5024-0.042-1.0687l0.014-2.658v-4.7132zm1.357 4.0418-0.014 3.4664c0 0.1644 0.123 0.2923 0.37 0.3836 0.256 0.0914 0.534 0.137 0.836 0.137 0.621 0 1.109-0.2146 1.466-0.6439 0.365-0.4293 0.548-0.9911 0.548-1.6853 0-1.4888-0.516-2.2332-1.549-2.2332-0.255 0-0.507 0.0274-0.753 0.0822-0.603 0.1278-0.904 0.2923-0.904 0.4932zm12.122 1.5208c0 0.9408-0.324 1.7218-0.973 2.3429-0.639 0.612-1.411 0.918-2.315 0.918-0.895 0-1.64-0.2831-2.233-0.8495-0.585-0.5663-0.877-1.329-0.877-2.2881 0-0.9682 0.31-1.7263 0.931-2.2744 0.631-0.5571 1.494-0.8357 2.59-0.8357 0.612 0 1.219 0.1918 1.822 0.5754 0.311 0.2101 0.562 0.5252 0.754 0.9454 0.201 0.411 0.301 0.8997 0.301 1.466zm-3.096 2.247c0.575 0 1.036-0.2055 1.383-0.6165 0.357-0.4202 0.535-0.9363 0.535-1.5483 0-0.6119-0.155-1.1189-0.466-1.5208-0.301-0.4019-0.749-0.6028-1.343-0.6028-0.584 0-1.078 0.1826-1.479 0.548-0.393 0.3654-0.59 0.886-0.59 1.5619 0 0.676 0.183 1.2103 0.548 1.6031 0.366 0.3836 0.836 0.5754 1.412 0.5754zm4.75-0.6028 0.096-3.0417c9e-3 -0.0731 0.013-0.2009 0.013-0.3836s5e-3 -0.3197 0.014-0.4111c0.018-0.0913 0.041-0.2009 0.069-0.3288 0.054-0.2283 0.187-0.3425 0.397-0.3425 0.457 0 0.685 0.1005 0.685 0.3014 0 0.1553 4e-3 0.2649 0.014 0.3288 0.054 0 0.319-0.1233 0.794-0.3699s0.882-0.3699 1.22-0.3699c0.137 0 0.228 0.0365 0.274 0.1096 0.055 0.0639 0.082 0.2192 0.082 0.4658s-0.032 0.4339-0.096 0.5618c-0.055 0.0091-0.155 0.0228-0.301 0.0411-0.137 0.0182-0.242 0.0319-0.316 0.0411-0.063 0.0091-0.159 0.0274-0.287 0.0548-0.128 0.0183-0.229 0.0365-0.302 0.0548-0.073 0.0091-0.164 0.0274-0.274 0.0548-0.1 0.0183-0.187 0.0411-0.26 0.0685-0.064 0.0274-0.132 0.0548-0.206 0.0822-0.146 0.0548-0.246 0.1279-0.301 0.2192v0.8906l0.027 2.3292v0.2055 0.2329c0 0.1097-4e-3 0.201-0.013 0.2741 0 0.073-0.019 0.1461-0.055 0.2192-0.073 0.1187-0.265 0.1781-0.576 0.1781-0.301 0-0.479-0.0183-0.534-0.0548-0.11-0.0731-0.164-0.5435-0.164-1.4112zm8.556 1.466c-0.274 0-0.402-0.1507-0.384-0.4521 0-0.1005-0.014-0.1508-0.041-0.1508-0.073 0.0275-0.219 0.1051-0.439 0.233-1.086 0.6668-2.041 0.7079-2.863 0.1233-0.375-0.2649-0.562-0.6303-0.562-1.0961 0-0.7033 0.324-1.2149 0.973-1.5345 0.658-0.3197 1.471-0.4796 2.439-0.4796 0.173 0 0.301 0.0046 0.383 0.0137 0-0.1553 5e-3 -0.2649 0.014-0.3288 0-0.5207-0.146-0.9089-0.438-1.1646-0.283-0.2649-0.681-0.3974-1.192-0.3974-0.247 0-0.512 0.0366-0.795 0.1097-0.283 0.073-0.466 0.1096-0.548 0.1096s-0.151-0.0503-0.206-0.1507c-0.045-0.1005-0.068-0.233-0.068-0.3974s0.201-0.2923 0.603-0.3836c0.411-0.1005 0.804-0.1507 1.178-0.1507 0.886 0 1.557 0.2329 2.014 0.6987 0.466 0.4659 0.699 1.1464 0.699 2.0415v2.8225c0 0.2466-0.046 0.3973-0.137 0.4521s-0.302 0.0822-0.63 0.0822zm-0.507-1.4386c0.018-0.2558 0.027-0.5298 0.027-0.8221s-4e-3 -0.4567-0.014-0.4932c-1.26 0.1187-2.027 0.3471-2.301 0.685-0.147 0.1736-0.22 0.3745-0.22 0.6029 0 0.4841 0.361 0.7261 1.083 0.7261 0.365 0 0.689-0.0822 0.973-0.2466 0.292-0.1735 0.443-0.3242 0.452-0.4521zm4.847-2.5347-0.028 1.9729c0 0.3745 0.064 0.6623 0.192 0.8632 0.128 0.1918 0.343 0.2877 0.644 0.2877 0.302 0 0.557-0.0274 0.767-0.0822 0.393-0.1096 0.59-0.0548 0.59 0.1644 0 0.612-0.567 0.918-1.699 0.918-0.64 0-1.138-0.2877-1.494-0.8632-0.173-0.3653-0.26-0.7992-0.26-1.3016l0.027-1.5893 0.028-1.1509c0-0.1279-0.019-0.2055-0.055-0.2329-0.037-0.0366-0.105-0.0548-0.206-0.0548l-0.534 0.0411c-0.228 0-0.342-0.0731-0.342-0.2193 0-0.2557 0.027-0.4338 0.082-0.5343 0.064-0.1096 0.178-0.1644 0.342-0.1644l0.535 0.0411c0.127 0 0.191-0.1553 0.191-0.4658v-0.0686-0.7809c0-0.2375 5e-3 -0.3745 0.014-0.4111 0.11-0.0548 0.471-0.0822 1.083-0.0822 0.164 0 0.246 0.0868 0.246 0.2604l-0.041 1.5071c0.11 0.0091 0.288 0.0137 0.534 0.0137l1.096-0.0822c0.147 0 0.22 0.0868 0.22 0.2603 0 0.5024-0.247 0.7536-0.74 0.7536l-0.891-0.0548c-0.146 0-0.237 0.0091-0.274 0.0274-0.018 0.1644-0.027 0.5069-0.027 1.0276zm3.946-3.9186c-0.092-0.0274-0.201-0.1187-0.329-0.274-0.119-0.1644-0.178-0.3151-0.178-0.4521 9e-3 -0.1462 0.1-0.2923 0.274-0.4385 0.183-0.1553 0.415-0.2329 0.699-0.2329 0.42 0 0.63 0.2009 0.63 0.6029 0 0.2831-0.091 0.4932-0.274 0.6302-0.174 0.137-0.334 0.2055-0.48 0.2055-0.137 0-0.251-0.0137-0.342-0.0411zm0.849 4.905 0.041 2.7129c0 0.1096-0.013 0.1781-0.041 0.2055-0.091 0.0457-0.283 0.0685-0.575 0.0685-0.293 0-0.475-0.0183-0.548-0.0548-0.064-0.0457-0.096-0.1736-0.096-0.3836l-0.055-2.5074c0-0.8768 5e-3 -1.434 0.014-1.6715l0.041-0.8084c0-0.2557 0.041-0.4064 0.123-0.4521s0.238-0.0685 0.466-0.0685c0.237 0 0.438 0.0137 0.603 0.0411 0.018 0.4019 0.027 0.717 0.027 0.9454v1.9729zm8.044-0.1233c0 0.9408-0.324 1.7218-0.973 2.3429-0.639 0.612-1.411 0.918-2.315 0.918-0.895 0-1.64-0.2831-2.233-0.8495-0.585-0.5663-0.877-1.329-0.877-2.2881 0-0.9682 0.31-1.7263 0.931-2.2744 0.631-0.5571 1.494-0.8357 2.59-0.8357 0.612 0 1.219 0.1918 1.822 0.5754 0.311 0.2101 0.562 0.5252 0.754 0.9454 0.201 0.411 0.301 0.8997 0.301 1.466zm-3.096 2.247c0.575 0 1.036-0.2055 1.383-0.6165 0.357-0.4202 0.535-0.9363 0.535-1.5483 0-0.6119-0.155-1.1189-0.466-1.5208-0.301-0.4019-0.749-0.6028-1.343-0.6028-0.584 0-1.078 0.1826-1.479 0.548-0.393 0.3654-0.59 0.886-0.59 1.5619 0 0.676 0.183 1.2103 0.548 1.6031 0.366 0.3836 0.836 0.5754 1.412 0.5754zm5.27-5.0831 0.644-0.0137c0 0.0457 0.028 0.1598 0.082 0.3425 0.055-0.0183 0.211-0.0731 0.466-0.1644 0.603-0.2101 1.101-0.3151 1.494-0.3151 0.402 0 0.753 0.0639 1.055 0.1918 0.301 0.1187 0.534 0.274 0.699 0.4658 0.164 0.1827 0.296 0.4293 0.397 0.7399 0.146 0.5024 0.219 1.1692 0.219 2.0004 0 0-0.023 0.7809-0.068 2.3429 0 0.1827-0.019 0.2877-0.055 0.3151-0.028 0.0274-0.156 0.0411-0.384 0.0411-0.219 0-0.475-0.0183-0.767-0.0548-0.028-0.2192-0.041-0.6029-0.041-1.1509l0.013-1.7538c0-0.7307-0.123-1.2787-0.369-1.6441-0.247-0.3745-0.672-0.5617-1.275-0.5617-0.593 0-1.046 0.0867-1.356 0.2603l0.027 1.8359c9e-3 0.8221 0.014 1.4615 0.014 1.9182l0.027 0.8084c0 0.1461-0.036 0.242-0.109 0.2877-0.073 0.0365-0.229 0.0548-0.466 0.0548l-0.713-0.0274-0.054-2.8635 0.054-2.0826v-0.4933c0-0.3197 0.156-0.4795 0.466-0.4795zm14.629 3.6993c-0.274 0.2923-0.456 0.5115-0.548 0.6577-0.776 1.1691-1.256 1.7537-1.438 1.7537-0.046 0-0.137-0.0731-0.274-0.2192s-0.243-0.2832-0.316-0.411c-0.064-0.1279-0.415-0.8404-1.055-2.1374-0.639-1.3062-1.032-2.1146-1.178-2.4251-0.146-0.3197-0.219-0.5252-0.219-0.6166 0-0.1005 0.119-0.2009 0.356-0.3014 0.247-0.1005 0.402-0.1507 0.466-0.1507h0.11c0.127 0.0091 0.338 0.3608 0.63 1.055 0.274 0.5845 0.621 1.3381 1.041 2.2607 0.429 0.9134 0.639 1.3701 0.63 1.3701l0.329-0.4111c0.667-0.8312 1.005-1.265 1.014-1.3016-0.137-0.3471-0.233-0.5709-0.288-0.6713-0.054-0.1005-0.141-0.2878-0.26-0.5618-0.119-0.2831-0.228-0.5206-0.329-0.7124-0.1-0.201-0.151-0.3334-0.151-0.3974 0-0.0639 0.042-0.1233 0.124-0.1781s0.164-0.1005 0.246-0.137c0.092-0.0457 0.192-0.0913 0.302-0.137 0.119-0.0548 0.192-0.0822 0.219-0.0822 0.027-0.0092 0.069 0.0137 0.123 0.0685 0.055 0.0548 0.11 0.1279 0.165 0.2192 0.055 0.0822 0.105 0.1644 0.151 0.2466 0.228 0.4111 0.511 0.9956 0.849 1.7538 0.347 0.749 0.562 1.2103 0.644 1.3838 0.155 0.3928 0.269 0.6257 0.342 0.6988 0.074 0 0.229-0.2375 0.466-0.7125 0.238-0.4841 0.42-0.8632 0.548-1.1372 0.137-0.2832 0.284-0.5937 0.439-0.9317 0.155-0.3471 0.26-0.5754 0.315-0.685 0.119-0.3654 0.274-0.6486 0.466-0.8495 0.064-0.0731 0.128-0.1142 0.192-0.1233 0.073-0.0183 0.169 0 0.287 0.0548 0.128 0.0548 0.201 0.105 0.22 0.1507 0 0.1644-0.092 0.475-0.275 0.9317-0.529 1.1691-0.927 1.9912-1.192 2.4662-0.264 0.475-0.452 0.8129-0.561 1.0139-0.101 0.2009-0.197 0.3836-0.288 0.548-0.091 0.1553-0.187 0.3197-0.288 0.4933-0.228 0.3745-0.415 0.5617-0.561 0.5617-0.074 0-0.306-0.3516-0.699-1.055-0.393-0.7124-0.644-1.16-0.754-1.3427zm6.242-5.6449c-0.091-0.0274-0.201-0.1187-0.329-0.274-0.119-0.1644-0.178-0.3151-0.178-0.4521 9e-3 -0.1462 0.101-0.2923 0.274-0.4385 0.183-0.1553 0.416-0.2329 0.699-0.2329 0.42 0 0.63 0.2009 0.63 0.6029 0 0.2831-0.091 0.4932-0.274 0.6302-0.174 0.137-0.333 0.2055-0.479 0.2055-0.138 0-0.252-0.0137-0.343-0.0411zm0.849 4.905 0.042 2.7129c0 0.1096-0.014 0.1781-0.042 0.2055-0.091 0.0457-0.283 0.0685-0.575 0.0685s-0.475-0.0183-0.548-0.0548c-0.064-0.0457-0.096-0.1736-0.096-0.3836l-0.055-2.5074c0-0.8768 5e-3 -1.434 0.014-1.6715l0.041-0.8084c0-0.2557 0.041-0.4064 0.123-0.4521 0.083-0.0457 0.238-0.0685 0.466-0.0685 0.238 0 0.439 0.0137 0.603 0.0411 0.018 0.4019 0.027 0.717 0.027 0.9454v1.9729zm3.715-0.9864-0.028 1.9729c0 0.3745 0.064 0.6623 0.192 0.8632 0.128 0.1918 0.343 0.2877 0.644 0.2877 0.302 0 0.557-0.0274 0.767-0.0822 0.393-0.1096 0.59-0.0548 0.59 0.1644 0 0.612-0.567 0.918-1.699 0.918-0.64 0-1.138-0.2877-1.494-0.8632-0.173-0.3653-0.26-0.7992-0.26-1.3016l0.027-1.5893 0.028-1.1509c0-0.1279-0.019-0.2055-0.055-0.2329-0.037-0.0366-0.105-0.0548-0.206-0.0548l-0.534 0.0411c-0.228 0-0.343-0.0731-0.343-0.2193 0-0.2557 0.028-0.4338 0.083-0.5343 0.064-0.1096 0.178-0.1644 0.342-0.1644l0.535 0.0411c0.127 0 0.191-0.1553 0.191-0.4658v-0.0686-0.7809c0-0.2375 5e-3 -0.3745 0.014-0.4111 0.11-0.0548 0.47-0.0822 1.082-0.0822 0.165 0 0.247 0.0868 0.247 0.2604l-0.041 1.5071c0.11 0.0091 0.288 0.0137 0.534 0.0137l1.096-0.0822c0.147 0 0.22 0.0868 0.22 0.2603 0 0.5024-0.247 0.7536-0.74 0.7536l-0.891-0.0548c-0.146 0-0.237 0.0091-0.274 0.0274-0.018 0.1644-0.027 0.5069-0.027 1.0276zm3.521 3.3567 0.068-4.7817v-4.2747c0-0.1553 0.046-0.2695 0.137-0.3426 0.092-0.073 0.311-0.1096 0.658-0.1096s0.521 0.0914 0.521 0.274v0.3837c-0.018 0.4567-0.028 0.9088-0.028 1.3564v1.5619c0.01 0.5846 0.014 0.9226 0.014 1.0139 0.411-0.2009 0.804-0.3425 1.178-0.4247 0.384-0.0914 0.672-0.137 0.864-0.137 0.886 0 1.488 0.2283 1.808 0.685s0.48 1.2331 0.48 2.3292-9e-3 1.7355-0.028 1.9182c-9e-3 0.1735-0.013 0.3288-0.013 0.4658v0.2741c0 0.1826-0.042 0.2923-0.124 0.3288-0.201 0.0731-0.397 0.1096-0.589 0.1096-0.183 0-0.31-0.0091-0.384-0.0274-0.073-0.0183-0.123-0.0639-0.15-0.137-0.028-0.0731-0.046-0.1279-0.055-0.1644v-0.274c9e-3 -0.1462 0.014-0.2467 0.014-0.3015l0.013-2.5895c0-0.612-0.096-1.0413-0.287-1.2879-0.183-0.2558-0.585-0.3836-1.206-0.3836-0.987 0-1.48 0.1598-1.48 0.4795l-0.014 1.1783c0 1.297-9e-3 2.0963-0.027 2.3977-9e-3 0.3014-0.014 0.4978-0.014 0.5892 0.01 0.0822 0.01 0.1598 0 0.2329-9e-3 0.0639-0.036 0.1142-0.082 0.1507-0.082 0.0913-0.251 0.137-0.507 0.137s-0.425-0.0091-0.507-0.0274c-0.173-0.0457-0.26-0.2466-0.26-0.6029zm16.626-9.1523c0.429 0.0091 0.955 0.0913 1.576 0.2466s0.931 0.2923 0.931 0.411c0 0.1096-0.05 0.2558-0.15 0.4385-0.101 0.1735-0.174 0.2694-0.22 0.2877-0.082 0-0.342-0.0594-0.781-0.1781-0.593-0.0914-0.977-0.1371-1.15-0.1371-0.832 0-1.48 0.0914-1.946 0.2741-0.356 0.1279-0.694 0.3197-1.014 0.5754-0.31 0.2466-0.562 0.4933-0.753 0.7399-0.192 0.2375-0.366 0.5526-0.521 0.9454-0.146 0.3836-0.224 0.7992-0.233 1.2468 0 1.0413 0.361 1.941 1.082 2.6991 0.722 0.749 1.786 1.1509 3.193 1.2057 0.456 0 1.128-0.0868 2.014-0.2603 0.329-0.1096 0.52-0.1644 0.575-0.1644 0.073 0.0274 0.133 0.0959 0.178 0.2055 0.055 0.1005 0.083 0.2009 0.083 0.3014 0 0.2192-0.329 0.4522-0.987 0.6988-0.648 0.2375-1.352 0.3653-2.11 0.3836-1.041-0.0183-2.037-0.274-2.987-0.7673-1.059-0.5389-1.799-1.2787-2.219-2.2195-0.229-0.5298-0.343-1.1007-0.343-1.7127 0-1.4889 0.553-2.7311 1.658-3.7267s2.48-1.4934 4.124-1.4934zm9.067 6.371s-1.046 0.0046-3.138 0.0137c-0.338 0-0.534 0.0274-0.589 0.0822-0.046 0.064-0.068 0.169-0.068 0.3151 0 0.7125 0.201 1.2606 0.602 1.6442 0.411 0.3745 0.877 0.5617 1.398 0.5617s0.927-0.0685 1.219-0.2055c9e-3 0 0.101-0.0594 0.274-0.1781 0.174-0.1187 0.293-0.1781 0.357-0.1781 0.073 0 0.127 0.0274 0.164 0.0822s0.055 0.1096 0.055 0.1644c0 0.3471-0.256 0.644-0.767 0.8906-0.512 0.2375-1.11 0.3562-1.795 0.3562-0.676 0-1.325-0.274-1.946-0.8221-0.612-0.548-0.918-1.2879-0.918-2.2195 0-0.9317 0.288-1.699 0.863-2.3018 0.585-0.6029 1.366-0.9043 2.343-0.9043 0.713 0 1.288 0.2101 1.727 0.6302 0.465 0.4385 0.698 0.9682 0.698 1.5894 0 0.3197-0.16 0.4795-0.479 0.4795zm-3.563-0.6714c1.736 0 2.741-0.0091 3.015-0.0274-0.028-0.3653-0.169-0.6667-0.425-0.9042-0.247-0.2375-0.562-0.3563-0.945-0.3563-0.384 0-0.745 0.1371-1.083 0.4111-0.329 0.2649-0.516 0.5572-0.562 0.8768zm9.619-4.5076-1.686 0.0137h-0.342c-0.238 0.0091-0.356 0.0091-0.356 0-9e-3 0.1644-0.014 0.3471-0.014 0.548l0.014 1.2057-0.014 0.8358c0 0.1735 5e-3 0.306 0.014 0.3973l2.206-0.0137h0.685c0.191 0 0.338 0.0092 0.438 0.0274 0.101 0.0092 0.196 0.0229 0.288 0.0411 0.192 0.0274 0.288 0.0822 0.288 0.1644s-0.037 0.1964-0.11 0.3426c-0.064 0.1461-0.114 0.2466-0.151 0.3014-0.036 0.0548-0.105 0.0959-0.205 0.1233-0.092 0.0183-0.151 0.0274-0.178 0.0274h-0.302l-1.219-0.0137c-0.85 0-1.434-0.0091-1.754-0.0274-0.018 0.2375-0.027 0.5846-0.027 1.0413l0.013 0.9317c0 0.3562-4e-3 0.6485-0.013 0.8768v0.7536l0.013 0.6988c0 0.137-0.064 0.2238-0.192 0.2603-0.118 0.0365-0.292 0.0548-0.52 0.0548-0.219 0-0.361-0.0091-0.425-0.0274s-0.11-0.0639-0.137-0.137c-0.036-0.0914-0.055-0.2329-0.055-0.4247v-3.3842c0-2.1466 0.014-3.4299 0.041-3.8501 0.028-0.4293 0.041-0.7398 0.041-0.9317 0-0.411 0.023-0.6393 0.069-0.685s0.123-0.0777 0.233-0.0959c0.119-0.0183 0.26-0.032 0.425-0.0411 0.164-0.0092 0.319-0.0137 0.465-0.0137 0.156-0.0092 0.311-0.0137 0.466-0.0137h0.329l0.315-0.0137c1.955 0 2.978 0.0365 3.069 0.1096 0 0.0913-0.032 0.2557-0.096 0.4932-0.064 0.2284-0.123 0.3608-0.178 0.3974-0.054 0.0274-0.182 0.0411-0.383 0.0411l-1.055-0.0137zm3.638 0.685c-0.092-0.0274-0.201-0.1187-0.329-0.274-0.119-0.1644-0.178-0.3151-0.178-0.4521 9e-3 -0.1462 0.1-0.2923 0.274-0.4385 0.183-0.1553 0.415-0.2329 0.699-0.2329 0.42 0 0.63 0.2009 0.63 0.6029 0 0.2831-0.091 0.4932-0.274 0.6302-0.174 0.137-0.334 0.2055-0.48 0.2055-0.137 0-0.251-0.0137-0.342-0.0411zm0.849 4.905 0.041 2.7129c0 0.1096-0.013 0.1781-0.041 0.2055-0.091 0.0457-0.283 0.0685-0.575 0.0685s-0.475-0.0183-0.548-0.0548c-0.064-0.0457-0.096-0.1736-0.096-0.3836l-0.055-2.5074c0-0.8768 5e-3 -1.434 0.014-1.6715l0.041-0.8084c0-0.2557 0.041-0.4064 0.123-0.4521s0.238-0.0685 0.466-0.0685c0.237 0 0.438 0.0137 0.603 0.0411 0.018 0.4019 0.027 0.717 0.027 0.9454v1.9729z" fill="#121212"/>
 <path d="m9.9512 65.659c-0.16327 0.4898-0.24491 1.0835-0.24491 1.7811 0 0.6828 0.17812 1.2988 0.53436 1.848 0.3414 0.5492 0.8386 0.8238 1.4917 0.8238 0.6382 0 1.1949-0.193 1.6698-0.5789 0.475-0.3859 0.9129-0.8535 1.3136-1.4027 0.386-0.5492 0.8016-1.0909 1.2468-1.6253 0.4305-0.5492 0.9723-1.0167 1.6253-1.4026 0.6531-0.386 1.3879-0.5789 2.2042-0.5789 0.8164 0 1.6402 0.3414 2.4714 1.0242 1.3358 1.1132 2.0038 2.9537 2.0038 5.5215 0 0.3563-0.0223 0.6754-0.0668 0.9574-0.0297 0.2672-0.052 0.475-0.0668 0.6234-0.0149 0.1484-0.0371 0.3043-0.0668 0.4676-0.0594 0.3562-0.1484 0.5343-0.2672 0.5343-0.7867 0-1.2691-0.141-1.4472-0.423 0.193-0.6086 0.2895-1.232 0.2895-1.8702 0-3.0874-0.8832-4.631-2.6495-4.631-0.9203 0-1.8628 0.6531-2.8276 1.9592-0.4007 0.5492-0.8163 1.0984-1.2468 1.6476-0.4304 0.5344-0.9648 0.9945-1.603 1.3804-0.6531 0.3859-1.3656 0.5789-2.1374 0.5789-1.1726 0-2.1374-0.5047-2.8944-1.514-0.75699-1.0242-1.1355-2.219-1.1355-3.5846 0-0.2968 0.03711-0.6902 0.11132-1.18 0.05937-0.5047 0.14101-0.7718 0.24491-0.8015 0.1039-0.0445 0.22265-0.0668 0.35623-0.0668 0.13359 0 0.33397 0.0445 0.60114 0.1336 0.25233 0.089 0.4156 0.2152 0.48982 0.3785zm7.6144-6.9533 3.2061 0.0445c0.6085 0 1.0761-0.1039 1.4026-0.3117 0.3117-0.2078 0.4676-0.5566 0.4676-1.0464s-0.0446-0.9054-0.1336-1.2468c-0.1781-0.6383-0.0891-0.9574 0.2672-0.9574 0.9944 0 1.4917 0.9203 1.4917 2.7608 0 1.039-0.4676 1.8479-1.4027 2.4268-0.5937 0.282-1.2987 0.423-2.1151 0.423l-2.5827-0.0445-1.8702-0.0445c-0.2078 0-0.334 0.0297-0.3785 0.089-0.0594 0.0594-0.089 0.1707-0.089 0.334l0.0667 0.8683c0 0.3711-0.1187 0.5566-0.3562 0.5566-0.4156 0-0.705-0.0445-0.8683-0.1335-0.1781-0.1039-0.2672-0.2895-0.2672-0.5567l0.0668-0.8683c0-0.2078-0.2523-0.3117-0.757-0.3117h-0.1113-1.2691c-0.3859 0-0.6085-0.0074-0.6679-0.0222-0.089-0.1782-0.1336-0.7644-0.1336-1.7589 0-0.2672 0.141-0.4008 0.423-0.4008l2.4491 0.0668c0.0149-0.1781 0.0223-0.4675 0.0223-0.8683l-0.1336-1.7812c0-0.2374 0.141-0.3562 0.423-0.3562 0.8164 0 1.2246 0.4008 1.2246 1.2023l-0.0891 1.4472c0 0.2375 0.0149 0.3859 0.0445 0.4453 0.2672 0.0296 0.8238 0.0445 1.6699 0.0445zm6.4567-11.711c0 0.4453-0.2449 0.6531-0.7348 0.6234-0.1632 0-0.2449 0.0223-0.2449 0.0668 0.0446 0.1187 0.1707 0.3562 0.3785 0.7125 1.0836 1.7663 1.1504 3.3174 0.2004 4.6532-0.4304 0.6086-1.0242 0.9129-1.7811 0.9129-1.143 0-1.9742-0.527-2.4937-1.5808-0.5195-1.0687-0.7792-2.3897-0.7792-3.9631 0-0.282 0.0074-0.4898 0.0222-0.6234-0.2523 0-0.4304-0.0074-0.5343-0.0222-0.846 0-1.4769 0.2374-1.8925 0.7124-0.4304 0.4602-0.6456 1.1058-0.6456 1.937 0 0.4008 0.0593 0.8312 0.1781 1.2914 0.1187 0.4601 0.1781 0.757 0.1781 0.8905 0 0.1336-0.0817 0.2449-0.2449 0.334-0.1633 0.0742-0.3785 0.1113-0.6457 0.1113s-0.475-0.3265-0.6234-0.9796c-0.1633-0.6679-0.2449-1.3062-0.2449-1.9147 0-1.4398 0.3785-2.5308 1.1355-3.2729 0.757-0.757 1.8628-1.1355 3.3174-1.1355h4.5865c0.4007 0 0.6456 0.0742 0.7347 0.2226 0.089 0.1485 0.1336 0.4899 0.1336 1.0242zm-2.3378 0.8238c-0.4156-0.0297-0.8609-0.0445-1.3359-0.0445-0.4749 0-0.7421 0.0074-0.8015 0.0222 0.193 2.0484 0.564 3.2952 1.1132 3.7404 0.2821 0.2375 0.6086 0.3563 0.9797 0.3563 0.7866 0 1.18-0.5863 1.18-1.7589 0-0.5937-0.1336-1.1207-0.4008-1.5808-0.282-0.475-0.5269-0.7199-0.7347-0.7347zm-4.3638-7.2309c1.3062 0 1.9592-0.5863 1.9592-1.7589 0-0.564-0.1929-0.9945-0.5788-1.2913-0.3859-0.3117-0.9055-0.4676-1.5585-0.4676-0.668 0-1.1578 0.1559-1.4695 0.4676-0.3265 0.2968-0.4898 0.7124-0.4898 1.2468 0 0.5343 0.1929 0.9722 0.5789 1.3136 0.371 0.3265 0.8905 0.4898 1.5585 0.4898zm7.5031-1.3804v0.4453c0 0.2672-0.0594 0.6679-0.1781 1.2023 0 0.4601 0.5714 0.6902 1.7143 0.6902 1.4101 0 2.1523-1.0539 2.2265-3.1616 0-0.9648-0.193-1.7292-0.5789-2.2932-0.3711-0.564-0.9203-0.8461-1.6476-0.8461-0.6827 0-1.1132 0.3488-1.2913 1.0465-0.1633 0.5937-0.2449 1.5659-0.2449 2.9166zm-8.6386-3.785c0.3562-0.0593 0.5863-0.089 0.6902-0.089 0.9945 0 1.8702 0.3488 2.6272 1.0464 0.2226 0.2078 0.4527 0.5789 0.6902 1.1132 0.2375 0.5344 0.3711 1.1133 0.4007 1.7367 0 0.5788 0.0372 0.9425 0.1114 1.0909 0.0593 0.1485 0.1187 0.2746 0.1781 0.3785 0.0594 0.0891 0.1336 0.1559 0.2226 0.2004 0.2078 0.1187 0.4305 0.1781 0.668 0.1781 0.2226 0 0.4081-0.0445 0.5566-0.1336 0.1336-0.1039 0.2375-0.2004 0.3117-0.2894 0.0593-0.1039 0.1113-0.2746 0.1558-0.5121 0.0445-0.3562 0.0817-1.0687 0.1113-2.1374 0.0149-1.0687 0.0817-1.8925 0.2004-2.4713 0.3711-1.6476 1.3136-2.4714 2.8276-2.4714 0.7718 0 1.462 0.2895 2.0706 0.8683 0.6086 0.5641 1.0538 1.2617 1.3359 2.0929 0.2968 0.8164 0.4453 1.5882 0.4453 2.3155 0 0.7125-0.0446 1.321-0.1336 1.8257-0.0891 0.5046-0.2375 1.0093-0.4453 1.514-0.2078 0.4898-0.5195 0.8831-0.9351 1.18-0.4008 0.2968-0.8758 0.4453-1.425 0.4453-0.5491 0-1.0612-0.1336-1.5362-0.4008-0.4601-0.2672-0.8089-0.5715-1.0464-0.9128-0.5641 0.653-1.1652 0.9796-1.8034 0.9796-0.3414 0-0.6457-0.0668-0.9129-0.2004s-0.4601-0.2672-0.5789-0.4007c-0.1187-0.1485-0.2523-0.3414-0.4007-0.5789-0.1485-0.2524-0.2598-0.423-0.334-0.5121-0.2226 0.282-0.4156 0.5047-0.5789 0.6679-0.1632 0.1485-0.4453 0.3191-0.846 0.5121-0.4156 0.1781-0.8757 0.2672-1.3804 0.2672-0.9945 0-1.796-0.3934-2.4046-1.18-0.6085-0.8016-0.9128-1.8035-0.9128-3.0057 0-1.2172 0.2894-2.0706 0.8683-2.5604-0.6531-0.95-0.9796-1.7589-0.9796-2.4269 0-0.2078 0.141-0.3636 0.423-0.4675 0.282-0.1188 0.564-0.1781 0.846-0.1781 0.2672 0 0.4379 0.0371 0.5121 0.1113 0.0594 0.0742 0.0891 0.2078 0.0891 0.4008 0 0.8015 0.1039 1.4694 0.3117 2.0037zm2.3155-11.883s0.0074 1.6995 0.0223 5.0986c0 0.5492 0.0445 0.8683 0.1335 0.9573 0.1039 0.0742 0.2746 0.1114 0.5121 0.1114 1.1578 0 2.0483-0.3266 2.6718-0.9797 0.6085-0.6679 0.9128-1.4249 0.9128-2.271 0-0.846-0.1113-1.5065-0.334-1.9815 0-0.0148-0.0965-0.1633-0.2894-0.4453-0.193-0.282-0.2894-0.4749-0.2894-0.5788 0-0.1188 0.0445-0.2078 0.1335-0.2672 0.0891-0.0594 0.1782-0.0891 0.2672-0.0891 0.564 0 1.0464 0.4156 1.4472 1.2468 0.3859 0.8312 0.5789 1.8034 0.5789 2.9167 0 1.0983-0.4453 2.1522-1.3359 3.1615-0.8906 0.9945-2.0928 1.4917-3.6068 1.4917s-2.7608-0.4675-3.7405-1.4026c-0.9796-0.95-1.4694-2.219-1.4694-3.8072 0-1.1578 0.3414-2.0929 1.0242-2.8054 0.7124-0.757 1.5733-1.1354 2.5826-1.1354 0.5195 0 0.7793 0.2597 0.7793 0.7792zm-1.091 5.7888c0-2.8202-0.0148-4.4529-0.0445-4.8982-0.5937 0.0445-1.0835 0.2746-1.4695 0.6902-0.3859 0.4007-0.5788 0.9128-0.5788 1.5362s0.2226 1.2097 0.6679 1.7589c0.4305 0.5344 0.9054 0.8386 1.4249 0.9129zm-2.6494-14.65-1.2023-0.0668c-2.4194-0.2078-3.8295-0.334-4.2303-0.3785-0.4156-0.0594-0.66051-0.1707-0.73472-0.334-0.11875-0.2523-0.17812-1.2765-0.17812-3.0725 0-1.8108 0.15585-2.7162 0.46756-2.7162 1.0835 0 1.6253 0.35623 1.6253 1.0687v3.6736c0.2226 0.089 0.6605 0.1558 1.3136 0.2004 0.6382 0.0297 1.0835 0.0593 1.3358 0.089 0.2524 0.0149 0.5195 0.0297 0.8015 0.0446 0.0297-0.0297 0.0965-0.334 0.2004-0.9129 0.0891-0.5789 0.1485-0.9277 0.1781-1.0464 0.2969-0.9797 0.8164-1.8331 1.5585-2.5604 0.7274-0.7273 1.7144-1.091 2.9612-1.091 1.514 0 2.8944 0.65309 4.1412 1.9593 1.232 1.3062 1.8479 2.7534 1.8479 4.3415 0 0.5641-0.4601 0.8461-1.3803 0.8461v-0.0668c0-1.2468-0.4156-2.3749-1.2469-3.3842-0.846-1.0093-1.8256-1.514-2.9389-1.514-1.1132 0-2.0112 0.37107-2.694 1.1133-0.6976 0.7421-1.0835 1.6475-1.1577 2.7162 0 0.0594 0.0074 0.1559 0.0223 0.2894v0.2895c-0.0149 0.0742-0.0446 0.1558-0.0891 0.2449-0.0594 0.1781-0.2597 0.2672-0.6011 0.2672z" fill="#999"/>
</svg>
